<svg id="Layer_1" data-name="Layer 1" xmlns="http://www.w3.org/2000/svg" viewBox="0 0 350 350"><defs><style>.cls-1{fill:#fff;}.cls-2{fill:#1d1d1b;}</style></defs><title>Stamp2</title><path d="M44.14,279.72a11.61,11.61,0,0,1,0-1.32c.19-1.37-.47-2-1.76-2.31a35.4,35.4,0,0,1-10.94-4.57A33.78,33.78,0,0,1,18,255.42a35.34,35.34,0,0,1-1-23.68c.83-2.92.81-2.9-1.6-4.59C5.51,220.21.44,210.59.22,198.63a32.78,32.78,0,0,1,7.67-21.71c.94-1.16.84-1.74-.12-2.87a32.47,32.47,0,0,1-7.56-19.4c-.63-10.51,3-19.51,10.41-26.94a44.41,44.41,0,0,1,5.87-4.55,1.77,1.77,0,0,0,.82-2.53,33.94,33.94,0,0,1-1.83-16.75,34.34,34.34,0,0,1,8.3-18.08A33.41,33.41,0,0,1,41.47,75.11c1.55-.37,2.13-.93,2.16-2.6.18-13.38,6-23.64,17.49-30.49a34.38,34.38,0,0,1,20.73-4.41,1.85,1.85,0,0,0,2.25-1.55,33.5,33.5,0,0,1,17.37-20.32C110.35,11.24,119.57,11,129,14a9.37,9.37,0,0,1,2.56,1.13c1.26.91,1.92.4,2.7-.64A33.58,33.58,0,0,1,154.78,1.32c11.57-2.37,21.88.44,30.64,8.45,1.2,1.1,2,1.26,3.38.32a33,33,0,0,1,21.66-5.84c12.63,1.08,22.27,7.21,28.42,18.45.68,1.24,1.28,1.52,2.72,1.18,11.88-2.8,22.67-.6,32.06,7.42,6.16,5.26,9.7,12,11.28,19.91.55,2.79.57,2.7,3.39,3,11.85,1.11,20.72,7,26.79,17.12a34.47,34.47,0,0,1,4.66,17.87,35.75,35.75,0,0,1-.72,5.9,1.47,1.47,0,0,0,1,1.91,34.2,34.2,0,0,1,20.06,21,31.12,31.12,0,0,1,1,18.43c-.91,3.54-2.62,6.86-3.89,10.31a1.82,1.82,0,0,0,.25,1.61,35.12,35.12,0,0,1,10.63,15.91,34.84,34.84,0,0,1-10.36,37.12,1.43,1.43,0,0,0-.29,2.14,32.82,32.82,0,0,1,4,24.28,33.54,33.54,0,0,1-18.24,23.89c-3.84,2-3.8,1.84-3.41,6,1.17,12.65-3.19,23.08-13,31.12A32.73,32.73,0,0,1,288.52,296c-2.75.24-2.67.28-3.13,2.76-2.13,11.37-8.29,19.77-18.6,25.07a33.49,33.49,0,0,1-16.13,3.7,52.1,52.1,0,0,1-8.79-1.36c-.94-.17-1.49-.16-2,.79A36.19,36.19,0,0,1,230,338.88c-7.76,6-16.53,8-26.18,6.88a32.5,32.5,0,0,1-14.8-5.72,1.75,1.75,0,0,0-2.49.32,37.38,37.38,0,0,1-11.66,7.39,32.2,32.2,0,0,1-14.28,2.17,34,34,0,0,1-26-14.13,1.31,1.31,0,0,0-1.93-.48c-9.84,4.51-19.82,4.7-29.65.21A33.3,33.3,0,0,1,85,315.8C84,313,84,313,81.14,313.21c-11.73.78-21.47-3.4-29.06-12.22A32.22,32.22,0,0,1,44.14,279.72ZM79.23,41.41A33.36,33.36,0,0,0,64.15,45,29.49,29.49,0,0,0,51,58.34a28.9,28.9,0,0,0-3.12,17.29c.23,1.56-.4,2.37-2.16,2.68-8.45,1.48-15.42,5.38-20.6,12.35a30.39,30.39,0,0,0-6,18.06A28.1,28.1,0,0,0,22,121.37c1.1,2.26.77,2.92-1.51,4.18-9.61,5.3-15.11,13.53-16.17,24.32a28.77,28.77,0,0,0,8.16,23.33c2,2.09,1.95,2.46,0,4.62a30.74,30.74,0,0,0-7.22,13.24,28.54,28.54,0,0,0-.29,13.6,30.37,30.37,0,0,0,9.5,16.47,57.82,57.82,0,0,0,6.91,4.8c1.23.8,1.89,1.69,1.21,3.14-4.58,9.83-4.2,19.54,1.27,28.83,4.94,8.38,12.5,13.18,22.12,14.68,1.63.25,2.31.92,2.32,2.61,0,2-.16,4.07,0,6.08a29.12,29.12,0,0,0,11.3,21.3c7.29,5.87,15.7,7.73,24.9,6.29,2.05-.32,2.88.21,3.35,2.22a30.72,30.72,0,0,0,29,23.55,30.9,30.9,0,0,0,15.72-3.83c2.31-1.22,2.8-1,4.4,1.1a45.52,45.52,0,0,0,4.49,5.47,29.73,29.73,0,0,0,17.78,8.37A29.19,29.19,0,0,0,173.36,344a33.34,33.34,0,0,0,12.21-8.58c1.32-1.43,2.14-1.47,3.58-.34a30.59,30.59,0,0,0,22.5,6.82,29.86,29.86,0,0,0,17.79-8,30.66,30.66,0,0,0,7.66-10.89c.76-1.82,1.69-2.21,3.38-1.58a30.7,30.7,0,0,0,22.47-.37c10.31-4,18.42-15.12,18.79-26.13.08-2.22.66-2.8,2.9-2.82,9.38-.09,17.32-3.42,23.65-10.41A30.33,30.33,0,0,0,314.84,253a2.3,2.3,0,0,1,1.62-3c1.58-.64,3.2-1.2,4.72-2a30.48,30.48,0,0,0,11.45-44.76c-1.08-1.58-1-2.36.54-3.49a30.26,30.26,0,0,0,12-18.8,30,30,0,0,0-2.79-20.08,30.84,30.84,0,0,0-9.18-10.73c-1.54-1.17-1.56-2-.67-3.69a59,59,0,0,0,3.7-7.53,28.09,28.09,0,0,0-.75-21.78,30.68,30.68,0,0,0-19.38-17.32,2.18,2.18,0,0,1-1.62-2.94,29.44,29.44,0,0,0-1.08-19.76c-3.84-9.26-10.6-15.35-20.26-18a51.51,51.51,0,0,0-9-1.11c-1.82-.16-2.65-.69-2.75-2.17a30.71,30.71,0,0,0-28.83-29.07,31.56,31.56,0,0,0-12.67,1.87c-1.81.63-2.62.23-3.42-1.49-.53-1.15-1-2.33-1.63-3.43-9-16.11-31.11-20.5-45.57-9-2.12,1.69-3.05,1.65-4.93-.3a30.5,30.5,0,0,0-48.16,4.48c-1.21,1.91-2,2.19-3.64,1.32-6.51-3.51-13.3-5-20.73-3.67a30.6,30.6,0,0,0-16.57,8.69,29.68,29.68,0,0,0-8.09,14.92c-.35,1.61-1.45,2.19-3.1,1.91C82.2,41.78,80.34,41.56,79.23,41.41Z"/><path class="cls-1" d="M79.23,41.41c1.11.15,3,.37,4.82.67,1.65.28,2.75-.3,3.1-1.91a29.68,29.68,0,0,1,8.09-14.92,30.6,30.6,0,0,1,16.57-8.69c7.43-1.37,14.22.16,20.73,3.67,1.61.87,2.43.59,3.64-1.32a29.73,29.73,0,0,1,9.65-9.61,30.18,30.18,0,0,1,38.51,5.13c1.88,1.95,2.81,2,4.93.3,14.46-11.46,36.6-7.07,45.57,9,.61,1.1,1.1,2.28,1.63,3.43.8,1.72,1.61,2.12,3.42,1.49a31.56,31.56,0,0,1,12.67-1.87,30.71,30.71,0,0,1,28.83,29.07c.1,1.48.93,2,2.75,2.17a51.51,51.51,0,0,1,9,1.11c9.66,2.64,16.42,8.73,20.26,18a29.44,29.44,0,0,1,1.08,19.76,2.18,2.18,0,0,0,1.62,2.94,30.68,30.68,0,0,1,19.38,17.32,28.09,28.09,0,0,1,.75,21.78,59,59,0,0,1-3.7,7.53c-.89,1.65-.87,2.52.67,3.69a30.84,30.84,0,0,1,9.18,10.73A30,30,0,0,1,345.16,181a30.26,30.26,0,0,1-12,18.8c-1.53,1.13-1.62,1.91-.54,3.49A30.48,30.48,0,0,1,321.18,248c-1.52.77-3.14,1.33-4.72,2a2.3,2.3,0,0,0-1.62,3,30.33,30.33,0,0,1-6.55,28.75c-6.33,7-14.27,10.32-23.65,10.41-2.24,0-2.82.6-2.9,2.82-.37,11-8.48,22.14-18.79,26.13a30.7,30.7,0,0,1-22.47.37c-1.69-.63-2.62-.24-3.38,1.58A30.66,30.66,0,0,1,229.44,334a29.86,29.86,0,0,1-17.79,8,30.59,30.59,0,0,1-22.5-6.82c-1.44-1.13-2.26-1.09-3.58.34A33.34,33.34,0,0,1,173.36,344a29.19,29.19,0,0,1-14.15,1.72,29.73,29.73,0,0,1-17.78-8.37,45.52,45.52,0,0,1-4.49-5.47c-1.6-2.11-2.09-2.32-4.4-1.1a30.9,30.9,0,0,1-15.72,3.83,30.72,30.72,0,0,1-29-23.55c-.47-2-1.3-2.54-3.35-2.22-9.2,1.44-17.61-.42-24.9-6.29a29.12,29.12,0,0,1-11.3-21.3c-.15-2,0-4,0-6.08,0-1.69-.69-2.36-2.32-2.61-9.62-1.5-17.18-6.3-22.12-14.68-5.47-9.29-5.85-19-1.27-28.83.68-1.45,0-2.34-1.21-3.14a57.82,57.82,0,0,1-6.91-4.8,30.37,30.37,0,0,1-9.5-16.47,28.54,28.54,0,0,1,.29-13.6,30.74,30.74,0,0,1,7.22-13.24c2-2.16,2-2.53,0-4.62a28.77,28.77,0,0,1-8.16-23.33c1.06-10.79,6.56-19,16.17-24.32,2.28-1.26,2.61-1.92,1.51-4.18a28.1,28.1,0,0,1-2.87-12.65,30.39,30.39,0,0,1,6-18.06c5.18-7,12.15-10.87,20.6-12.35,1.76-.31,2.39-1.12,2.16-2.68A28.9,28.9,0,0,1,51,58.34,29.49,29.49,0,0,1,64.15,45,33.36,33.36,0,0,1,79.23,41.41Z"/><path d="M162.68,330.66h.16c2.14.12,3.06.72,3,2s-1.42,2.06-3.43,1.93c-.44,0-1,.1-1.28-.13-.69-.61-1.67-1.32-1.75-2.08-.12-1.15.93-1.76,2.12-1.8A7.44,7.44,0,0,1,162.68,330.66Z"/><path d="M332.33,177.05a2.06,2.06,0,0,1-2-2.33,1.82,1.82,0,0,1,2-1.91c1.39,0,1.94.93,2,2.11A2,2,0,0,1,332.33,177.05Z"/><path d="M146.26,324.62c0,1.88-.87,2.49-2,2.55a1.79,1.79,0,0,1-2.05-1.84c-.06-1,1.09-2.41,2-2.13A7.11,7.11,0,0,1,146.26,324.62Z"/><path d="M23,210.54a1.65,1.65,0,0,1-1.81,1.74c-1.07,0-2.25-1.1-2.1-2.08a2,2,0,0,1,2.11-1.87C22.34,208.34,23,209.17,23,210.54Z"/><path d="M254.06,311.09c-.21,1.2-.81,2-2.06,2a1.95,1.95,0,1,1,.1-3.89C253.37,309.15,253.93,310,254.06,311.09Z"/><path d="M323,125.77c-.47-.8-1.31-1.6-1.32-2.4a1.65,1.65,0,0,1,2.06-1.74,3.6,3.6,0,0,1,1.93,2C325.94,124.51,324.41,125.62,323,125.77Z"/><path d="M312.29,106.73c1.13.2,1.95.78,1.94,2a1.81,1.81,0,0,1-2,1.91,1.77,1.77,0,0,1-2-2C310.27,107.49,311.09,106.9,312.29,106.73Z"/><path d="M48.31,85.82c1.22.07,2.22.72,2,1.86a3.09,3.09,0,0,1-1.88,2c-1.11.29-2-.68-2-1.84A1.9,1.9,0,0,1,48.31,85.82Z"/><path d="M163.1,18.52c-.79.53-1.55,1.39-2.39,1.5a1.76,1.76,0,0,1-1.94-2,1.86,1.86,0,0,1,2.06-1.9c.83.13,1.54,1.05,2.3,1.62Z"/><path d="M153.61,21c-.51.37-1.35,1.43-2,1.33s-1.42-1.23-2.12-1.92c.72-.65,1.35-1.69,2.16-1.86C152.71,18.26,153.55,19.09,153.61,21Z"/><path d="M205.75,21.25a12.65,12.65,0,0,1-2.6,2.08c-.85.33-2.56-1.15-2.23-1.88s1.23-1.86,2-2S204.47,20.4,205.75,21.25Z"/><path d="M224,324.89a9.39,9.39,0,0,1-2.37,1.53c-.84.25-2.15-1.32-2-2.21a1.86,1.86,0,0,1,2.27-1.63c.77.18,1.4,1,2.1,1.53Z"/><path d="M186.45,323.92a1.91,1.91,0,0,1-2-2,1.79,1.79,0,0,1,2-1.88,1.84,1.84,0,0,1,1.94,2A1.87,1.87,0,0,1,186.45,323.92Z"/><path d="M119.87,324c-1.25,0-2.13-.81-1.91-1.93a3.22,3.22,0,0,1,1.91-1.86c.92-.34,2.3,1,2.15,2A1.87,1.87,0,0,1,119.87,324Z"/><path d="M98.94,307.26a1.85,1.85,0,0,1-2,2,1.83,1.83,0,0,1-2-1.95,1.85,1.85,0,0,1,2-1.95A1.88,1.88,0,0,1,98.94,307.26Z"/><path d="M28.76,218.12a1.84,1.84,0,0,1-2,1.74,1.89,1.89,0,0,1-1.92-2.06,1.84,1.84,0,0,1,2-1.9C28.06,215.91,28.77,216.66,28.76,218.12Z"/><path d="M324.21,144.1c-1.48,0-2.23-.64-2.29-1.87a1.81,1.81,0,0,1,1.9-2,1.9,1.9,0,0,1,2.1,1.89A1.85,1.85,0,0,1,324.21,144.1Z"/><path d="M74.6,52.36a1.79,1.79,0,0,1,2,2,2,2,0,0,1-4-.07A1.88,1.88,0,0,1,74.6,52.36Z"/><path d="M203.61,330.94c-1.26-.14-2-.71-2-2a2,2,0,0,1,4,0A2,2,0,0,1,203.61,330.94Z"/><path d="M195.78,23.68c-.24,1.12-.89,2.12-2.08,1.81a3,3,0,0,1-1.83-1.9c-.24-1.18.78-1.91,1.94-1.95S195.65,22.46,195.78,23.68Z"/><path d="M232.91,312c-.37-.48-1.32-1.18-1.44-2a1.79,1.79,0,0,1,1.95-2,1.74,1.74,0,0,1,2,1.91C235.38,311.08,234.8,312,232.91,312Z"/><path d="M260.65,309.19c-1.14-.16-1.93-.77-1.87-2a1.85,1.85,0,0,1,2-1.93,1.91,1.91,0,0,1,2,2C262.76,308.5,261.9,309.08,260.65,309.19Z"/><path d="M84.15,297.12a1.81,1.81,0,0,1,1.95,2,1.92,1.92,0,0,1-2,2,2.19,2.19,0,0,1-2-2.14A1.9,1.9,0,0,1,84.15,297.12Z"/><path d="M34.62,225.15c-1.3-.13-2-.77-2-2a1.76,1.76,0,0,1,2-1.88,1.84,1.84,0,0,1,2,2A2,2,0,0,1,34.62,225.15Z"/><path d="M20.27,192.41a7.75,7.75,0,0,1-2.16,1.49c-.95.25-2.46-1.25-2.09-2s1.33-1.79,2.09-1.85,1.46,1,2.19,1.61Z"/><path d="M331.45,182.47c.36.46,1.25,1.11,1.37,1.88a1.79,1.79,0,0,1-1.9,2,1.88,1.88,0,0,1-2-1.95C328.82,183.11,329.72,182.63,331.45,182.47Z"/><path d="M242.14,36.24c1.21.14,2,.7,2,2a2,2,0,0,1-4,0C240.17,37,241,36.43,242.14,36.24Z"/><path d="M20,159.1c-.15,1.3-.83,2-2.06,2s-2.2-.77-1.92-1.93a3.12,3.12,0,0,1,2-1.92C19.13,157,19.83,158,20,159.1Z"/><path d="M24.68,133.25a1.85,1.85,0,0,1,2-1.93,1.84,1.84,0,0,1,2,2,1.91,1.91,0,0,1-2,1.95A1.87,1.87,0,0,1,24.68,133.25Z"/><path d="M58.24,73.51c.49.73,1.3,1.43,1.39,2.21a1.65,1.65,0,0,1-1.88,2,3.57,3.57,0,0,1-2.09-1.92C55.3,75,56.79,73.74,58.24,73.51Z"/><path d="M300.49,78c-.09,1.23-.66,2-1.93,2a1.91,1.91,0,0,1-2-2,1.89,1.89,0,0,1,2-2C299.9,76,300.37,76.82,300.49,78Z"/><path d="M304.88,92.68c1,1.21,2.08,2,2,2.68s-1.06,1.71-1.87,2-2.27-1-2-2C303.26,94.58,304,93.91,304.88,92.68Z"/><path d="M31.73,107.53c1.15.08,1.94.62,1.94,1.91a1.87,1.87,0,0,1-1.94,2,1.8,1.8,0,0,1-2-1.94C29.7,108.26,30.44,107.61,31.73,107.53Z"/><path d="M185.61,26.53c1.45.1,2.13.86,2.1,2a1.8,1.8,0,0,1-2,1.94,1.83,1.83,0,0,1-1.9-2A1.84,1.84,0,0,1,185.61,26.53Z"/><path d="M31.71,234.18c-1.2-.16-2-.76-1.94-2a1.94,1.94,0,0,1,2.05-2,1.83,1.83,0,0,1,1.91,2C33.72,233.52,32.87,234,31.71,234.18Z"/><path d="M29.62,118.24c.46-.34,1.28-1.43,1.94-1.35a3,3,0,0,1,2,2c.27,1.16-.83,1.89-1.95,1.93S29.63,120.16,29.62,118.24Z"/><path d="M23,182.49c-.17,1.84-1,2.52-2.13,2.47a1.84,1.84,0,0,1-1.92-2,1.74,1.74,0,0,1,2-1.86C21.78,181.2,22.48,182.11,23,182.49Z"/><path d="M73.05,295.94c.52-.36,1.27-1.25,2.08-1.3a1.8,1.8,0,0,1,1.93,2,1.89,1.89,0,0,1-2.06,1.9C73.85,298.48,73.1,297.77,73.05,295.94Z"/><path d="M92.51,54.24a7.1,7.1,0,0,1-1.46-2c-.29-.92,1.08-2,2.2-1.88A1.73,1.73,0,0,1,95,52.3C95,53.54,94.36,54.23,92.51,54.24Z"/><path d="M177.79,328c.38-1.75,1.13-2.39,2.34-2.24a1.81,1.81,0,0,1,1.73,2.18,1.78,1.78,0,0,1-2.19,1.69C178.87,329.41,178.27,328.45,177.79,328Z"/><path d="M61.2,64.7c.62.71,1.79,1.48,1.73,2.13a3,3,0,0,1-2,2c-1.2.31-1.94-.76-2-1.9S59.61,65.06,61.2,64.7Z"/><path d="M127.43,321.5a1.79,1.79,0,0,1,2-1.87c1.13,0,2.25.68,2,1.89a3.09,3.09,0,0,1-2,2C128.36,323.69,127.48,322.84,127.43,321.5Z"/><path d="M266.52,47.35c2-.08,2.6.75,2.6,1.9s-.72,2.22-1.92,1.94a3,3,0,0,1-2-1.93C265.14,48.6,266.21,47.77,266.52,47.35Z"/><path d="M317.92,199.45c.05-1.41.75-2.08,2-2a1.84,1.84,0,0,1,1.88,1.92,1.91,1.91,0,0,1-2,2C318.56,201.39,318,200.5,317.92,199.45Z"/><path d="M109.64,33c-.34-.49-1.15-1.17-1.27-1.94A1.77,1.77,0,0,1,110.22,29a1.82,1.82,0,0,1,2,2C112.18,32.18,111.42,32.85,109.64,33Z"/><path d="M326,208.23c0,.85-.76,1.42-1.89,1.48s-2.29-1-1.93-2.11a3.58,3.58,0,0,1,1.89-1.9C324.86,205.36,326,206.79,326,208.23Z"/><path d="M273.77,57.28c0,1.4-.68,2.15-1.95,2.07a2,2,0,1,1,0-3.93A1.79,1.79,0,0,1,273.77,57.28Z"/><path d="M305.67,252.36a7.39,7.39,0,0,1,1.46,2.12,1.83,1.83,0,0,1-1.9,2.13,2,2,0,0,1-2-2C303.19,253.56,304.16,252.68,305.67,252.36Z"/><path d="M50.63,263.22c0,1.32-.85,2.14-1.92,1.92-.79-.16-1.38-1.26-2.06-1.94.65-.64,1.23-1.67,2-1.83C49.74,261.13,50.61,261.89,50.63,263.22Z"/><path d="M57.5,268c-.62-.72-1.77-1.5-1.71-2.16s1.11-1.66,1.94-2,2.13,1,2,2.09S59.07,267.73,57.5,268Z"/><path d="M56.22,275.36c.06-1.39.65-2.15,1.83-2.12a1.85,1.85,0,0,1,2.05,1.9,1.91,1.91,0,0,1-2,2A1.82,1.82,0,0,1,56.22,275.36Z"/><path d="M59.14,283.49a7.71,7.71,0,0,1,2.2-1.42c1-.25,1.95.92,1.91,2.11a1.88,1.88,0,0,1-1.89,1.89C60.33,286.21,59.37,285,59.14,283.49Z"/><path d="M110.25,317.77c1.79.17,2.55.83,2.54,2.06a1.91,1.91,0,0,1-2,2c-1,.06-2.26-1.27-1.94-2.21A6.4,6.4,0,0,1,110.25,317.77Z"/><path d="M269.73,301.47c-.51.38-1.23,1.3-2.05,1.41-1.12.16-1.92-.7-1.91-2a1.66,1.66,0,0,1,1.85-1.84C268.83,299.08,269.62,299.6,269.73,301.47Z"/><path d="M242.94,314c-1.5-.06-2.18-.83-2.17-2s.82-2.12,2-1.79a2.94,2.94,0,0,1,1.89,1.84A1.76,1.76,0,0,1,242.94,314Z"/><path d="M100.84,314.67a1.81,1.81,0,0,1,2-1.89,1.73,1.73,0,0,1,1.91,2,1.92,1.92,0,0,1-1.79,2C102,316.89,100.85,315.67,100.84,314.67Z"/><path d="M140.17,317.44c-.16,1.75-.8,2.47-2,2.53s-1.79-.68-1.86-1.83.86-2.35,2-2.07A6.07,6.07,0,0,1,140.17,317.44Z"/><path d="M226.66,317.63c.55-.41,1.25-1.32,2.08-1.45,1.19-.19,1.9.88,1.89,2a1.7,1.7,0,0,1-1.84,1.86C227.5,320,226.92,319.34,226.66,317.63Z"/><path d="M36.8,100.84a1.71,1.71,0,0,1-1.95,1.62,3.06,3.06,0,0,1-2-1.91c-.25-1.15.75-1.87,2-1.9S36.77,99.24,36.8,100.84Z"/><path d="M330.3,167.51c-.43-.58-1.28-1.23-1.41-2a1.72,1.72,0,0,1,1.9-2c1.12,0,2.09.57,2.07,1.88S331.9,167.14,330.3,167.51Z"/><path d="M139.52,32.72c-.17,1.21-.72,2-2,1.86s-2.18-.8-1.87-1.95a3.13,3.13,0,0,1,2-1.86C138.88,30.51,139.41,31.58,139.52,32.72Z"/><path d="M326.43,159.13a2,2,0,1,1,2-2A1.87,1.87,0,0,1,326.43,159.13Z"/><path d="M253.69,39.68c-.62.42-1.38,1.32-2.21,1.39a1.95,1.95,0,0,1,.1-3.89C252.78,37.23,253.46,38,253.69,39.68Z"/><path d="M20.89,138.82c1.29.14,2.11.65,2.07,2a1.82,1.82,0,0,1-2,2,3,3,0,0,1-1.95-2C18.77,139.61,19.87,139.05,20.89,138.82Z"/><path d="M291.75,276.58c1.46,0,2.32.67,2.36,1.81a1.81,1.81,0,0,1-1.95,2,1.77,1.77,0,0,1-2-1.89A1.64,1.64,0,0,1,291.75,276.58Z"/><path d="M67.24,293.38c-1.28-.12-2.19-.85-2-2a2.87,2.87,0,0,1,1.82-1.88,1.79,1.79,0,0,1,2.09,1.84C69.21,292.56,68.37,293.19,67.24,293.38Z"/><path d="M221.41,27.78c-1.63,0-2.24-.76-2.25-2A1.74,1.74,0,0,1,221,23.94a1.86,1.86,0,0,1,2.05,1.88A1.81,1.81,0,0,1,221.41,27.78Z"/><path d="M312.43,243.08c-1.15,0-2.1-.79-1.9-1.88a3.1,3.1,0,0,1,2-1.91c1.13-.26,1.94.71,2,1.88S313.71,243,312.43,243.08Z"/><path d="M273.75,68.56c-1.07-.19-2-.59-2-1.91a1.78,1.78,0,0,1,1.86-1.89c1.13,0,2.1.47,2.12,1.78S275,68.41,273.75,68.56Z"/><path d="M325.49,215.13a1.81,1.81,0,0,1,1.9,2.06c-.08,1.15-.9,2.13-2.05,1.85a2.88,2.88,0,0,1-1.74-2C323.43,216,324.24,215.16,325.49,215.13Z"/><path d="M214.33,21.52c.07,1.92-.81,2.57-1.89,2.61a1.78,1.78,0,0,1-1.95-1.94,1.65,1.65,0,0,1,1.94-1.86C213.2,20.42,213.89,21.23,214.33,21.52Z"/><path d="M18,199.37c1.28.08,2,.74,2,2a1.79,1.79,0,0,1-1.79,2,2,2,0,0,1-.17-4Z"/><path d="M176.7,22.45c0-1.27.64-2.05,1.9-2s2.17.8,1.93,2a3.51,3.51,0,0,1-1.85,2C177.88,24.78,176.71,23.47,176.7,22.45Z"/><path d="M150.29,330.75c-.07-1.82.8-2.5,1.87-2.55a1.88,1.88,0,0,1,2,1.95,1.78,1.78,0,0,1-1.91,2C151.07,332.19,150.32,331.51,150.29,330.75Z"/><path d="M212.46,330.42c-.47-.8-1.25-1.58-1.35-2.43-.11-1.05.72-1.79,1.89-1.81,1,0,2.4,1.32,2.05,2.1a9.87,9.87,0,0,1-1.83,2.19Z"/><path d="M319,113.29c1.3.12,2.18.57,2.17,1.89a1.87,1.87,0,0,1-1.92,2,1.92,1.92,0,0,1-2.07-1.9C317.06,114,318,113.56,319,113.29Z"/><path d="M327.13,133a1.57,1.57,0,0,1-1.86,1.67c-1.18,0-2.1-.6-2-1.9a1.88,1.88,0,0,1,2.14-1.82C326.62,131,327.16,131.68,327.13,133Z"/><path d="M303.22,88c-1.37,0-2-.73-2-2a1.78,1.78,0,0,1,1.94-1.84,1.9,1.9,0,0,1,2,1.94C305.21,87.4,304.34,88,303.22,88Z"/><path d="M93.64,301.3c-.92-1.17-1.79-1.8-2-2.59a1.69,1.69,0,0,1,1.78-2.08,2.9,2.9,0,0,1,2.07,1.85C95.63,299.16,94.55,300,93.64,301.3Z"/><path d="M121.37,28.61a1.94,1.94,0,0,1-2.05,1.9,1.72,1.72,0,0,1-1.8-1.92c0-1.23.57-2,1.86-2S121.24,27.38,121.37,28.61Z"/><path d="M301.73,105.39c.19-1.71.69-2.56,2-2.59a1.78,1.78,0,0,1,1.94,2,1.71,1.71,0,0,1-2,1.92C302.92,106.58,302.25,105.75,301.73,105.39Z"/><path d="M96.7,41.53c1-.07,1.6.77,1.6,1.84a1.73,1.73,0,0,1-1.92,2,1.75,1.75,0,0,1-1.9-1.84C94.46,42.35,95.14,41.53,96.7,41.53Z"/><path d="M194.92,328.76c-1.82.07-2.36-.67-2.36-1.83s.64-2.21,1.89-1.92a2.92,2.92,0,0,1,1.88,1.82A1.68,1.68,0,0,1,194.92,328.76Z"/><path d="M282.52,69.53c-.33-.44-1.18-1.09-1.29-1.86a1.56,1.56,0,0,1,1.92-1.84,3,3,0,0,1,2,1.77C285.29,68.71,284.33,69.44,282.52,69.53Z"/><path d="M59.44,85.12A1.83,1.83,0,0,1,57.36,87c-1.25,0-2.1-.89-1.83-2a2.92,2.92,0,0,1,1.95-1.75C58.6,83.07,59.34,84,59.44,85.12Z"/><path d="M319.86,152.51c-1.27-.16-2.14-.63-2.14-1.94a1.7,1.7,0,0,1,1.86-1.84,1.89,1.89,0,0,1,2.17,1.77C321.82,151.74,320.85,152.26,319.86,152.51Z"/><path d="M17.94,147.87c1.32.07,2,.7,2,1.88s-.87,2.19-1.94,2a3,3,0,0,1-2-2C15.82,148.58,16.88,148,17.94,147.87Z"/><path d="M228.22,30.15c1,.32,2.05.77,1.95,2.07a1.85,1.85,0,0,1-2,1.77,1.76,1.76,0,0,1-1.91-2C226.3,30.72,227.13,30.32,228.22,30.15Z"/><path d="M327.19,194.56c-2,.12-2.62-.75-2.6-1.89a1.94,1.94,0,0,1,3.87.18C328.38,193.58,327.46,194.23,327.19,194.56Z"/><path d="M293.59,71.57a1.76,1.76,0,0,1-2,1.87,1.78,1.78,0,0,1-1.88-1.88,1.83,1.83,0,0,1,2.06-1.86A1.69,1.69,0,0,1,293.59,71.57Z"/><path d="M303.53,265.78a2,2,0,0,1-2-2,1.86,1.86,0,0,1,2-2,1.83,1.83,0,0,1,1.86,2.07C305.41,265.08,304.71,265.68,303.53,265.78Z"/><path d="M169.93,20.67a1.76,1.76,0,0,1-1.76-1.93c.06-1.16.81-2.13,2-1.83A3,3,0,0,1,172,18.73C172.24,19.84,171.44,20.67,169.93,20.67Z"/><path d="M284.1,284.4c-1.73-.17-2.47-.79-2.5-2a1.67,1.67,0,0,1,1.84-1.87,1.75,1.75,0,0,1,2,1.92C285.34,283.18,284.48,283.87,284.1,284.4Z"/><path d="M171.7,329.33c1.76.14,2.6.75,2.6,2a1.69,1.69,0,0,1-1.88,1.83c-1.12,0-2.14-.56-2-1.67C170.47,330.64,171.33,329.89,171.7,329.33Z"/><path d="M128.85,31a1.85,1.85,0,0,1-2-1.85c0-1.23.88-1.83,2-1.87a1.76,1.76,0,0,1,1.94,1.95C130.79,30.38,130,31,128.85,31Z"/><path d="M260.77,44.91c-1.67-.22-2.63-.68-2.64-2a1.84,1.84,0,0,1,2-1.84c1.24-.07,2.19.63,2.05,1.83C262.05,43.7,261.16,44.38,260.77,44.91Z"/><path d="M276.16,282.93c-.26,1.67-.75,2.57-2.06,2.52a1.75,1.75,0,0,1-1.82-1.93c0-1.17.64-2.16,1.91-1.93C275,281.74,275.64,282.55,276.16,282.93Z"/><path d="M84.36,49.92c.34.46,1.22,1.14,1.29,1.89a1.78,1.78,0,0,1-2,1.88,1.76,1.76,0,0,1-1.94-1.95C81.76,50.5,82.63,50,84.36,49.92Z"/><path d="M324,228.26c-1.53-.06-2.18-.75-2.14-2a1.79,1.79,0,0,1,1.92-1.84,1.88,1.88,0,0,1,2,2A1.84,1.84,0,0,1,324,228.26Z"/><path d="M40.6,94.93c-1.28-.12-2-.75-2-2a1.67,1.67,0,0,1,2.07-1.76,2.92,2.92,0,0,1,1.8,1.89C42.75,94.25,41.75,94.84,40.6,94.93Z"/><path d="M33.72,242.39c-.33.24-1.16,1.27-1.72,1.15a3.11,3.11,0,0,1-1.94-1.92c-.29-1.22.75-1.84,1.93-1.85S33.92,240.41,33.72,242.39Z"/><path d="M304.17,247.17c-1.43,0-2-.74-2-2a1.8,1.8,0,0,1,1.79-2,1.93,1.93,0,0,1,2,2A1.84,1.84,0,0,1,304.17,247.17Z"/><path d="M272.89,294.66c-1.84-.07-2.71-.83-2.47-2a3.24,3.24,0,0,1,1.87-1.88c.86-.34,2.36,1.18,2,2.05A6.46,6.46,0,0,1,272.89,294.66Z"/><path d="M22.92,168a1.87,1.87,0,0,1-2.07,2,1.74,1.74,0,0,1-1.91-1.82,1.83,1.83,0,0,1,1.94-2A1.93,1.93,0,0,1,22.92,168Z"/><path d="M321.22,234.91c-.09,1.15-1,2-2,1.74a3.12,3.12,0,0,1-1.77-2.13c-.2-1.09.79-1.72,1.92-1.74C320.71,232.75,321.17,233.6,321.22,234.91Z"/><path d="M35.25,248.74a1.64,1.64,0,0,1,1.85,1.82,1.9,1.9,0,0,1-2,1.92,1.83,1.83,0,0,1-1.8-2.11C33.27,249.1,34.11,248.71,35.25,248.74Z"/><path d="M145.53,24.81c-.13,1.78-.7,2.77-1.94,2.47a3.33,3.33,0,0,1-1.92-1.82c-.35-.88,1.09-2.28,2-2A5.78,5.78,0,0,1,145.53,24.81Z"/><path d="M298.4,270.1c1.7.23,2.78.74,2.5,2a2.92,2.92,0,0,1-1.87,1.79,1.58,1.58,0,0,1-2-1.83C297.18,271.28,298,270.62,298.4,270.1Z"/><path d="M233.33,38.43a1.58,1.58,0,0,1,1.5,2,2.86,2.86,0,0,1-1.92,1.74,1.64,1.64,0,0,1-1.86-1.81C231,39,231.72,38.42,233.33,38.43Z"/><path d="M40.33,256c1.81.15,2.39.8,2.39,2.1s-.67,1.76-1.86,1.74-2.09-.79-1.9-1.95C39.09,257.08,40,256.43,40.33,256Z"/><path d="M66.65,61.35a1.57,1.57,0,0,1-1.78-1.75,1.9,1.9,0,1,1,3.79-.19C68.7,60.61,68.09,61.38,66.65,61.35Z"/><path d="M102,38.24c-.54-.69-1.4-1.31-1.56-2.08-.27-1.25.71-1.92,1.88-2s2,.7,1.87,1.82c-.12.78-.91,1.46-1.39,2.19Z"/><path d="M34.44,129.75a1.76,1.76,0,0,1-1.85-1.93A1.59,1.59,0,0,1,34.42,126c1.11,0,2,.58,2,1.76S35.53,129.58,34.44,129.75Z"/><path d="M24.69,176.21c0-1.83.59-2.49,1.8-2.46s2.14.58,1.89,1.74a2.81,2.81,0,0,1-1.81,1.86C25.93,177.45,25.12,176.5,24.69,176.21Z"/><path class="cls-2" d="M74.39,147.48c8.32-.22,16.65-.32,25-.48l25-.28c16.65-.17,33.3-.15,50-.23s33.31.07,50,.23l25,.27c8.33.17,16.65.27,25,.49-8.33.23-16.65.33-25,.49l-25,.28c-16.65.16-33.3.16-50,.23s-33.3-.07-50-.23l-25-.28C91,147.81,82.71,147.71,74.39,147.48Z"/><path class="cls-2" d="M74.39,215.66c8.32-.22,16.65-.32,25-.48l25-.28c16.65-.17,33.3-.15,50-.23,16.66.07,33.31.07,50,.23l25,.27c8.33.17,16.65.27,25,.49-8.33.23-16.65.33-25,.49l-25,.28c-16.65.16-33.3.15-50,.23-16.65-.08-33.3-.07-50-.23l-25-.28C91,216,82.71,215.89,74.39,215.66Z"/></svg>