<svg id="Layer_1" data-name="Layer 1" xmlns="http://www.w3.org/2000/svg" viewBox="0 0 350 350"><defs><style>.cls-1{fill:#fff;}.cls-2{fill:rgba(2, 120, 174, 0.75);}.cls-3{fill:none;stroke:rgba(2, 120, 174, 0.75);stroke-linecap:round;stroke-miterlimit:10;stroke-width:6px;stroke-dasharray:1 10.05;}</style></defs><title>Stamp4</title>
<path class="cls-2" d="M167,349.59c-2.72-1.21-5.26-2-8.51-1.06-2.09.58-4.78-1-7.2-1.52-.79-.19-1.73-.65-2.37-.39-3.38,1.32-6.25,0-9.17-1.39-.91-.44-2.09-1.05-2.9-.8-3.38,1.05-6-.47-8.78-2-.89-.49-2-1.21-2.83-1.06-3.62.63-6.39-.93-9.17-2.86a8.75,8.75,0,0,0-3.06-1c-.54-.13-1.25.2-1.7,0-2.94-1.54-5.7-4.12-8.76-4.52a15.21,15.21,0,0,1-8.84-4.37,7.5,7.5,0,0,0-2.7-1.23c-.72-.24-1.66-.07-2.24-.46-2.73-1.86-5.12-4.62-8.11-5.58A15.26,15.26,0,0,1,73,315.62a3.19,3.19,0,0,0-1.81-1.18c-3.52-.54-5.56-2.9-7.4-5.63-.51-.74-1.19-1.71-1.95-1.88-3.61-.8-5.44-3.44-7.24-6.28a10.4,10.4,0,0,0-2.63-2.33c-.53-.39-1.39-.44-1.78-.91-2.09-2.54-3.62-5.84-6.21-7.6a15,15,0,0,1-5.84-7.61,3.09,3.09,0,0,0-1.36-1.7c-3.34-1.39-4.5-4.3-5.66-7.36-.43-1.14-1.56-2-2.23-3.06-1.44-2.32-2.78-4.71-4.19-7.05-.71-1.17-1.59-2.24-2.23-3.44-1.24-2.34-2.36-4.74-3.55-7.11-.61-1.21-1.23-2.43-1.91-3.61-.24-.41-.85-.63-1-1-1-3.15-1.31-6.86-3.2-9.35a14.63,14.63,0,0,1-3.23-9,4,4,0,0,0-.77-2.61c-2.42-2.33-2.65-5.22-2.73-8.3,0-1.42-.83-2.79-1.14-4.21-.56-2.6-1-5.21-1.51-7.82-.28-1.41-.57-2.83-.92-4.24-.14-.55-.63-1-.66-1.59-.21-3.29.39-6.83-.65-9.82a16.33,16.33,0,0,1-.2-9.63,5.55,5.55,0,0,0-.25-2.4C.57,178.2-.08,177.58,0,177c.29-3.29,1.55-6.75.88-9.81a15.58,15.58,0,0,1,.62-9.57,4.31,4.31,0,0,0,.45-2.7c-1.29-3.33-.31-6.26,1.11-9.22.39-.82.93-1.92.69-2.65-1.21-3.65.29-6.61,1.95-9.63a7.4,7.4,0,0,0,.54-2.89c.06-.76-.32-1.63-.08-2.3,1.12-3.09,3.15-6.06,3.4-9.19a15.82,15.82,0,0,1,3.69-8.9,3.21,3.21,0,0,0,.86-2c-.57-3.6,1.39-6.09,3.48-8.57C18.15,98.89,19,98,19,97.25c-.15-3.72,2-6.15,4.32-8.55a4.3,4.3,0,0,0,1.47-2.26c.18-3.57,2.33-5.83,4.78-8a4.88,4.88,0,0,0,1.79-2.39c.5-3.54,2.76-5.65,5.41-7.59.73-.54,1.75-1.26,1.85-2,.52-3.75,3.24-5.54,6-7.44a9.57,9.57,0,0,0,2.1-2.48c.37-.54.36-1.43.82-1.82,2.48-2.18,5.78-3.82,7.4-6.49A15.53,15.53,0,0,1,62.17,42a3.67,3.67,0,0,0,1.88-1.49c1.3-3.36,4.17-4.63,7.18-5.89,1.12-.48,1.93-1.64,3-2.34,2.36-1.55,4.76-3,7.18-4.5.71-.43,1.9-.5,2.21-1.09,1.87-3.52,5.21-4.38,8.65-5.25a7.93,7.93,0,0,0,2.52-1.54c.53-.4.84-1.2,1.41-1.43,3.07-1.21,6.7-1.65,9.16-3.59a16.63,16.63,0,0,1,9-3.41,8.25,8.25,0,0,0,2.74-1.18c.5-.27.84-1,1.34-1.09,3.23-.72,7-.56,9.62-2.18a14.44,14.44,0,0,1,9.57-2.27A3.56,3.56,0,0,0,140,4.22C142.65,2,145.62,2,148.81,2.37c1.3.15,2.67-.54,4-.67,2.73-.28,5.48-.44,8.22-.67,1.26-.1,2.53-.18,3.78-.4.65-.11,1.36-.84,1.87-.69,6.38,1.88,13.09-1.62,19.41,1.23a2.89,2.89,0,0,0,2.17.13c3.4-1.7,6.42-.38,9.5.89.74.31,1.73.76,2.35.51,3.6-1.43,6.61,0,9.69,1.56a7.68,7.68,0,0,0,3,.52c.65,0,1.41-.47,2-.28,3.15,1.07,6.21,3.09,9.36,3.21a15.32,15.32,0,0,1,9.31,3.34,3,3,0,0,0,2,.78c3.72-.72,6.29,1.31,8.9,3.39.7.56,1.64,1.3,2.41,1.23,3.62-.31,6,1.69,8.41,3.91.66.62,1.53,1.48,2.28,1.46,3.77-.1,6.05,2.22,8.37,4.63.63.65,1.46,1.51,2.23,1.55,3.64.19,5.7,2.58,7.8,5,.59.69,1.3,1.62,2.07,1.74,3.64.57,5.71,3,7.64,5.79a8.82,8.82,0,0,0,2.54,2c.55.36,1.44.31,1.86.75,2.26,2.4,4,5.64,6.73,7.16a15.58,15.58,0,0,1,6.54,7,7.72,7.72,0,0,0,2.08,2.11c.51.42,1.39.5,1.74,1,1.91,2.7,3.18,6.18,5.67,8.06a14.84,14.84,0,0,1,5.49,7.86,3.61,3.61,0,0,0,1.29,2.07c3.22,1.64,4.21,4.59,5.13,7.73.35,1.17,1.43,2.11,2,3.23,1.28,2.42,2.49,4.87,3.68,7.33.44.92.45,2.29,1.14,2.78,3,2.2,3.56,5.38,4,8.7a4.34,4.34,0,0,0,.9,2.56c2.66,2.24,3.05,5.21,3.3,8.38.11,1.31,1,2.53,1.39,3.83.73,2.45,1.34,4.93,2,7.38.42,1.5,1,3,1.27,4.48.53,2.69.93,5.41,1.34,8.12.14.91-.17,2.08.3,2.7,2.23,2.94,2,6.14,1.48,9.47a4.35,4.35,0,0,0,.2,2.7,9.23,9.23,0,0,1,.84,8.4,5.76,5.76,0,0,0,1,5.86V177c-.49,1.69-1.81,3.69-1.31,5,1.32,3.53.73,6.62-.6,9.85a3.76,3.76,0,0,0-.4,2.42c1.38,3.43.32,6.45-1.16,9.49-.36.74-.86,1.73-.64,2.38,1.27,3.75-.22,6.81-2,9.88a3.14,3.14,0,0,0-.58,2.07c1,3.6-.56,6.42-2.43,9.22-.46.69-1.14,1.59-1,2.24.84,3.92-1.16,6.72-3.34,9.53-.44.56-1.06,1.35-1,1.93.65,3.86-1.5,6.44-3.79,9-.48.54-1.13,1.27-1.09,1.88.21,3.95-2.08,6.51-4.67,9a3.2,3.2,0,0,0-1.12,1.84c-.1,3.7-2.34,6-4.9,8.22-.68.59-1.55,1.39-1.64,2.18-.46,3.66-2.82,5.82-5.57,7.8-.67.48-1.61,1.12-1.69,1.78-.49,3.88-3.28,5.75-6.17,7.63-.66.44-1.49,1.06-1.67,1.75-.9,3.58-3.58,5.37-6.56,7-.72.39-1.75.87-1.93,1.51-1.08,3.87-4.18,5.38-7.42,6.84-.64.29-1.46.75-1.67,1.32-1.33,3.48-4.24,4.86-7.41,6-.85.31-1.95.78-2.28,1.48-1.54,3.28-4.47,4.38-7.58,5.35-.87.27-2.08.56-2.44,1.21-1.86,3.4-5.11,4.24-8.44,5.07-.78.19-1.83.44-2.2,1-2,3.15-5.23,3.77-8.53,4.33-.81.14-1.92.25-2.31.79-2.3,3.12-5.63,3.52-9.06,3.86a3.87,3.87,0,0,0-2.33.71c-2.38,2.76-5.52,2.95-8.77,3a4.77,4.77,0,0,0-2.9.71c-2.62,2.43-5.71,2.58-9,2.37-.9,0-2.09-.15-2.67.34-2.74,2.29-5.8,2.39-9.08,1.85a4.5,4.5,0,0,0-3,.26,9.33,9.33,0,0,1-8.37,1.17,6.17,6.17,0,0,0-6.11,1.32ZM329,137.42c-1.24-4.67-1.44-10.06-4-13.84-2.88-4.27-1.49-10.08-5.89-13.38-.42-5.32-4.48-8.91-6.43-13.53-1.88-4.44-3.8-9.6-7.32-12.4-4.09-3.25-5.3-8.13-9.09-11.56-3.47-3.13-7.24-6.67-9.93-10.71-2.85-4.29-8.49-5.58-10.53-10.53-5.53-.34-7.4-6.06-12.11-8.19a49.56,49.56,0,0,1-12.46-7.64c-3.83-3.43-9.85-2.52-12.71-7.25-5.53,1.32-9-3.82-14.18-4.5a56,56,0,0,1-14-3.91c-4.7-2-10.13.14-14.26-3.37-4.89,2.35-9.5-1.3-14.59-.53a56.36,56.36,0,0,1-14.85,0c-5.11-.62-9.7,2.92-14.63.75-4.55,3.25-10.21,1.94-15.29,3.61-4.81,1.59-9.81,3.28-14.86,4.49a54.41,54.41,0,0,0-14.38,5.93C103,33.49,98.23,35.64,93.71,38c-4.73,2.46-7.8,7.65-13.57,8.12-2,5.39-7.89,6.45-11.48,10.29S61.4,64,57.52,67.57a62.23,62.23,0,0,0-9.7,11.74c-2.88,4.41-5.9,8.84-8.94,13s-3.2,10.25-8.08,13.25c.8,5.77-5.54,9.21-4.89,14.93-3.63,4.2-3.1,9.83-4.91,14.68a52.56,52.56,0,0,0-3.15,15.15c-.29,5.19-1,10.41-1.73,15.47-.72,5.31,1.94,10.7-.81,15.76,3.4,4.62-.75,10.55,2.64,15.17-1.39,5.51,2.21,10.25,2.44,15.63a29.66,29.66,0,0,0,4.15,13.73c2.64,4.31,1.32,10.13,5.8,13.44.08,5.35,4.49,8.66,6.27,13.28,1.72,4.46,3.89,9.45,7.41,12.32,4.09,3.34,4.27,9.52,9.58,11.46,1.46,5.2,6.72,7.06,9.73,11s6.28,8.17,10.44,9.93c4.79,2,7.29,6.4,11.92,8.62,4.22,2,8.85,4.42,12.5,7.62,3.82,3.37,9.76,2.61,12.71,7.2,5.44-1.35,8.8,3.76,13.92,4.42a56.93,56.93,0,0,1,14,3.9c4.79,2,10.31,0,14.54,3.46,4.87-2.55,9.5,1.31,14.61.44a52.14,52.14,0,0,1,14.55,0c5.11.63,9.71-2.9,14.63-.74,4.47-3.19,10-1.81,15-3.55s10-3.18,15.14-4.51a56.52,56.52,0,0,0,14.17-5.79c4.55-2.65,9.44-4.77,14-7.26s7.63-7.54,13.29-8c2.13-5.22,7.91-6.43,11.52-10.22s7.26-7.63,11.19-11.16a54.68,54.68,0,0,0,9.72-11.72c2.78-4.49,6.12-8.65,9-13s3.19-10.24,8-13.3c-.52-5.69,3.86-9.7,5.45-14.72,1.54-4.87,2.51-10,4.47-14.83a45.92,45.92,0,0,0,3.14-14.86c.26-5.3,1.44-10.5,1.86-15.75s-2.08-10.51.76-15.47c-3.2-4.77-.82-10.34-2.15-15.58A88.42,88.42,0,0,1,329,137.42ZM14.79,194.52c-2.88,3.21-5.52,5.92-7.87,8.86a8.08,8.08,0,0,0,.21,9.49C11,207.5,18.56,203.89,14.79,194.52Zm319.52-40.07c8.91-7.76,11.32-13.31,7.81-18.13C338.24,141.76,330.65,145.38,334.31,154.45Zm-16.37-53c1.67-4.18,3.23-7.71,4.48-11.35.95-2.77-.67-6.67-3.4-8.71-1.17,2.91-2.2,5.81-3.51,8.58C313.51,94.14,315,97.53,317.94,101.4Zm26.72,47c-8.54,5.42-12.08,12.08-8.27,18,2.58-3,5-5.76,7.37-8.57A9,9,0,0,0,344.66,148.45ZM306.45,81.68c.86-3.45,1.72-6.8,2.53-10.16A9,9,0,0,0,304.67,62c-.85,3.43-1.71,6.77-2.52,10.13C301.32,75.65,303,79.4,306.45,81.68ZM42.89,267.1c-1,3.89-1.8,7.15-2.6,10.42a8.86,8.86,0,0,0,4.25,9.71c.8-3.14,1.53-6.23,2.39-9.29C48.13,273.65,46.29,270.51,42.89,267.1ZM20.83,127.61c-4.24,1.91-7.9,3.22-11.19,5.16-3,1.77-4.06,4.93-4.18,8.83,3.31-1.47,6.26-2.85,9.26-4.09C18.85,135.8,20.05,132.35,20.83,127.61Zm-6.92,55.54c-3.34,3.33-6.48,5.93-8.94,9.08-1.94,2.48-1.81,5.66-.52,9.21,2.53-2.45,4.6-4.61,6.83-6.57C14.73,191.86,15.11,188.18,13.91,183.15Zm314.47,38.51c4.23-1.91,7.88-3.22,11.17-5.15,3-1.76,4.07-4.91,4.21-8.84-3.31,1.47-6.24,2.85-9.23,4.08C330.4,213.45,329.17,216.88,328.38,221.66ZM31.27,247.82c-1.68,4.28-3.49,7.86-4.46,11.65-.81,3.17.55,6.13,3.22,8.89,1.34-3.29,2.36-6.2,3.67-9C35.7,255.19,34.24,251.78,31.27,247.82Zm221.87,67.69c3.62,1.33,6.94,2.65,10.34,3.76a8.7,8.7,0,0,0,9.31-3.37,6.2,6.2,0,0,0-.75-.42c-2.82-1.05-5.63-2.11-8.45-3.13C260,311.06,256.22,312.12,253.14,315.51ZM75.92,33.33c3.61,1.32,6.85,2.56,10.13,3.71A8.93,8.93,0,0,0,96,33.69a111.82,111.82,0,0,0-11-3.78C81.59,29.1,78.63,30.59,75.92,33.33ZM182.6,13.46c-2.43-3.11-4.6-6.08-7-8.87-2.05-2.4-6.3-3.14-9.29-1.89C170.94,11.75,176.5,15.59,182.6,13.46ZM167,335.81c4.82,9.21,11,13.37,15.9,10.59C176.81,336.61,172.16,333.51,167,335.81ZM13.65,236.39c2.45-3.66,4.66-6.7,6.59-9.91,1.6-2.67.87-6.95-1.43-9.44-1.8,2.67-3.5,5.34-5.35,7.91C10.84,228.58,11.5,232.12,13.65,236.39ZM144,332.69c2.41,4,4.24,7.77,6.78,11,1.88,2.35,4.93,3.15,8.59,2.48-1.81-3.13-3.43-5.95-5.05-8.77C152.12,333.62,148.63,332.76,144,332.69Zm-21.43-5.34c1.48,3.67,2.75,7.1,4.26,10.43,1.34,3,5.3,4.86,8.72,4.38-1.23-3.08-2.41-6.13-3.66-9.17C130.35,329.32,127.22,327.34,122.53,327.35ZM226.69,21.91c-1.49-3.68-2.76-7.11-4.28-10.43-1.36-3-5.34-4.88-8.71-4.35,1.23,3.08,2.43,6.13,3.68,9.16C218.88,20,222.05,22,226.69,21.91ZM291.87,300.8c-4.07-.88-7.78-2.08-11.57-2.39-3.38-.28-6.18,1.56-8.6,4.79,4.37.87,8.19,2,12.08,2.3C287.06,305.73,289.82,304,291.87,300.8ZM68.57,53.18c-4.15-.58-8-1.47-11.79-1.52-3.33,0-5.92,2-8,5.28,3.46.5,6.5.9,9.52,1.39C62.54,59,65.92,57.46,68.57,53.18Zm-11.26-4.7c3.75.8,7.13,1.53,10.51,2.23A8.84,8.84,0,0,0,77.07,46c-3.85-.79-7.57-1.88-11.37-2.22C62.24,43.46,59.5,45.29,57.31,48.48Zm278.12,64.64c-2.32,3.46-4.77,6.48-6.51,9.86-1.56,3-.89,6.27,1.23,9.69,2.43-3.68,4.91-6.79,6.64-10.29C338.24,119.44,337.62,116.25,335.43,113.12ZM130.11,8.08c3.3,2.76,6.09,5.27,9.08,7.53,2.4,1.82,6.95,1.56,9.58-.39-2.47-2.08-4.92-4.09-7.32-6.17C138.11,6.14,134.5,6.25,130.11,8.08Zm65,337.84c-5.94-9.39-11.46-12.59-17.15-9.89,2,2.2,4,4.25,5.76,6.51C186.69,346.33,190.48,347,195.12,345.92Zm-39.76-11.09c2.38,3.43,4.38,7,7.06,9.94,2.1,2.31,5.24,3,9,2.16-2-3.06-3.88-5.85-5.76-8.6C163.43,335.1,160,333.84,155.36,334.83Zm34.34-332c2.32,4,4,7.51,6.31,10.52,2,2.58,5.19,3.44,9.11,3.11-1.9-3.29-3.59-6.2-5.27-9.12C197.74,3.7,194.38,2.81,189.7,2.85Zm-173.32,203c-2.44,3.15-4.79,6-6.91,8.95-1.92,2.71-1.56,7,.64,9.71,2.05-2.61,4.08-5.18,6.08-7.77C18.55,213.67,18.7,209.83,16.38,205.83ZM200.15,333.78c2.84,2.39,5.38,4.57,8,6.69,3.07,2.52,6.82,2.76,10.76.53-3.12-2.59-5.93-5.43-9.24-7.5C206.9,331.78,203.63,332,200.15,333.78ZM326.73,121.42a2.34,2.34,0,0,0,.63-.52c1.61-2.76,3.25-5.5,4.79-8.29,1.83-3.3,1.34-7-1.47-10.38-1.73,3-3.45,5.84-5.09,8.74C323.68,114.37,324.11,118.18,326.73,121.42ZM266.79,42.49c-.48-4.29-.57-8.27-1.46-12.07-.76-3.22-3.35-5.21-7.08-6.49.51,4.39.59,8.39,1.53,12.17C260.57,39.28,263.12,41.35,266.79,42.49ZM18.42,247.25c1.86-3.19,3.57-6.06,5.21-9,1.9-3.38,1.46-7.21-1.41-10.72-2,3.65-4.27,7-5.8,10.73C15.18,241.26,16.2,244.27,18.42,247.25Zm297,5.38c4.57-1.07,8.73-1.61,12.52-3.08,2.85-1.1,4.55-3.81,5-7.39-3.72.8-7,1.45-10.3,2.23C318.63,245.34,316.79,248.28,315.46,252.63ZM247.57,18.52c.79,4.32,1.14,8.21,2.28,11.85,1,3.15,3.62,5,7.48,6-.79-4.26-1.17-8.14-2.27-11.8C254.1,21.32,251.42,19.52,247.57,18.52ZM300,292.71c-8.3-3.84-16.26-2.53-19.11,3.37l9.79,1.47A9.08,9.08,0,0,0,300,292.71ZM101.17,330.65c.27-10.54-3.14-17-9.19-17.2.68,3.74,1.08,7.49,2.09,11.07C95,327.9,97.74,329.69,101.17,330.65ZM73.83,300.59c-1.47,10.51,1,17.12,6.36,17.89,0-3.72.16-7.48-.06-11.22C80,304.37,76.84,301.33,73.83,300.59ZM232.44,325c4.06,2.08,7.6,4.35,11.45,5.71,2.91,1,5.94,0,8.64-2.45-3.09-1.65-5.85-3.05-8.52-4.59C240,321.35,236.46,322.33,232.44,325Zm-208-207.91c-4.24,1.55-7.83,2.71-11.3,4.16-2.84,1.19-4.83,5.18-4.49,8.53,3-1.11,6-2.28,9-3.28C21.9,125.06,23.36,121.72,24.42,117.05Zm315.05,7.28c-2.66,3.4-5.08,6.27-7.24,9.33-1.77,2.51-1.37,6.84.69,9.61,2-2.54,3.89-5.08,5.91-7.51C341.7,132.32,341.37,128.73,339.47,124.33ZM241.24,333.49c-.07-.18-.09-.43-.23-.52-2.68-1.72-5.35-3.44-8.06-5.12-3.22-2-7.19-1.72-10.75.94,2.94,1.85,5.74,3.65,8.59,5.39C234.2,336.27,237.8,336,241.24,333.49ZM82.82,306.81c-.18.52-.31.71-.29.89.33,3.17.69,6.33,1,9.5a8.82,8.82,0,0,0,7.29,7.73c-.3-3.24-.57-6.4-.87-9.55C89.54,311,86.85,308.56,82.82,306.81ZM346.47,160.2c-8.35,5.62-13.59,9.63-10.44,16.66,2.62-2.19,5.22-4.33,7.78-6.53C347,167.6,347.05,164.1,346.47,160.2Zm-333,12.09c-1,.77-1.74,1.34-2.47,2C8.9,176,6.76,177.66,4.8,179.52A8.44,8.44,0,0,0,3.26,189C12.28,182.14,15.57,180.06,13.44,172.29ZM322,264c-10.83-.42-16.26.12-18.23,7.39,3.83-.3,7.63-.36,11.33-1C318.59,269.87,320.7,267.39,322,264Zm-298-6.13c1.78-3.68,3.53-7,5-10.46,1.22-2.83-.07-6.91-2.52-9C21,248.14,18.79,251.58,23.94,257.89Zm316.65-38.33c-3.49,1.26-7,2.39-10.36,3.78-3,1.23-5.09,5.09-4.79,8.65,3.58-1.3,7.17-2.46,10.63-3.91C338.94,226.87,340.92,222.94,340.59,219.56ZM154.09,3.35C160,12.7,165.63,16,171.24,13.24c-2-2.2-4-4.25-5.75-6.51C162.52,2.93,158.73,2.32,154.09,3.35ZM126.87,20.59a9.89,9.89,0,0,0-.84-.72c-2.53-1.6-5-3.22-7.6-4.78-3.43-2.09-7-1.83-10.81.95,3,1.85,5.77,3.64,8.62,5.39C119.46,23.42,123.46,23.14,126.87,20.59Zm-10.08,3.75c-4-2.07-7.33-4-10.83-5.57-2.74-1.25-6.72-.07-9,2.42,2.77,1.48,5.53,2.85,8.19,4.4C109.08,27.91,112.66,26.94,116.79,24.34ZM275.31,49c1.63-10.64-.82-17.33-6.26-18.2,0,3.8-.43,7.71.13,11.46C269.66,45.47,272,47.75,275.31,49ZM292,64.23c2.67-10.83,1.2-17.46-4.23-19-.37,3.09-.72,6.17-1.09,9.25C286.18,58.55,288,62,292,64.23ZM45.55,77.85c-4,.35-8,.48-11.89,1.07-3,.46-5.63,3.55-6,6.47C39,85.5,43.25,85,45.55,77.85Zm279.7,13.64c-1.52,3.11-3,6.11-4.46,9.13-1.69,3.55-1,7.24,1.83,10.27C327.91,102,330.6,97.32,325.25,91.49ZM16.17,107.12c4.12-.88,8-1.34,11.57-2.59,3.2-1.11,5-3.87,5.84-7.81-4.28,1-8.23,1.47-11.9,2.78C18.58,100.6,16.83,103.34,16.17,107.12ZM328,253.43c-10.81-.45-16.72,2.44-17.79,8.69,3.39-.47,6.73-.89,10.06-1.4C324.35,260.09,326.52,257.35,328,253.43ZM36.67,258c-1.16,3.55-2.24,6.73-3.25,9.93a8.85,8.85,0,0,0,3.6,10,109.42,109.42,0,0,0,3.41-10.8C41.19,263.57,39.69,260.56,36.67,258Zm300.89-26.82c-11.84,2-16.85,5.48-16.34,11.2,3.17-.91,6.29-1.85,9.44-2.72C334.84,238.48,336.46,235.32,337.56,231.14Zm-29.48,52.1-8.91-.72c-.67,0-1.35-.07-2-.07a8.64,8.64,0,0,0-7.92,6c3.4.22,6.78.51,10.16.66C303.25,289.24,306.3,287.21,308.08,283.24Zm-237.37,29c.18-3.83.33-7.09.48-10.36a8.84,8.84,0,0,0,0-1.15A9,9,0,0,0,65,293.18c-.17,3.68-.59,7.34-.42,11S67.11,310.2,70.71,312.22ZM299.21,72.76c3.93-9.38,2.86-17-2.74-19.43-.63,3.57-1.44,7.08-1.8,10.62C294.29,67.71,296.16,70.51,299.21,72.76Zm13-1.51c-1.22,3.89-2.63,7.59-3.5,11.42a7.86,7.86,0,0,0,4,8.18c1-3.13,2.08-6.25,3.06-9.38C316.94,77.72,315.74,74.15,312.2,71.25Zm21.74,128.22c3.43-2.17,6.68-4.05,9.74-6.21,2.55-1.8,3.58-5.88,2.55-9.17-2.82,1.74-5.6,3.44-8.35,5.19C334.56,191.38,333.14,194.84,333.94,199.47ZM262.71,322.55a2.67,2.67,0,0,0-.59-.53c-2.89-1.32-5.78-2.66-8.7-3.93-3.31-1.43-7.27-.47-10.16,2.57,3.22,1.46,6.32,2.93,9.47,4.29C256.12,326.41,259.93,325.47,262.71,322.55Zm-161-4.28c1.12,4.38,1.74,8.21,3.1,11.77,1.19,3.1,4,4.73,7.89,5.42-.94-3.75-1.71-7.1-2.62-10.41C109,321.16,106.07,319.43,101.7,318.27ZM194.11,14.78c-2.61-3.77-4.55-7.26-7.17-10.14-2.16-2.38-5.33-3.16-9.09-2.25,1.85,2.77,3.62,5.16,5.13,7.7C185.37,14.14,189,15.17,194.11,14.78Zm-108.24,12c4,1.8,7.38,3.46,10.87,4.83,2.72,1.07,7.14-.48,9.11-3-2.93-1.32-5.86-2.52-8.7-3.91C93.11,22.64,89.75,24,85.87,26.73ZM142.71,5.1c2.7,3,5.11,6,7.94,8.6,2.17,2,6.78,1.78,9.34,0C154.72,9.65,151.43,1.94,142.71,5.1Zm58.95-.84c1.91,4,3.43,7.4,5.23,10.69,1.44,2.64,5.72,4.27,8.94,3.58-1.41-2.91-2.84-5.75-4.16-8.64C209.81,5.82,206.37,4.61,201.66,4.26ZM189.29,335c6.39,8.83,12.46,11.8,17.06,8.9-2.48-2.71-4.76-5.81-7.64-8.18C196,333.51,192.62,333.81,189.29,335ZM236.88,25.73C235,14.85,231,9.48,225.32,10.46c1.12,3.41,2.14,6.84,3.37,10.19A8.41,8.41,0,0,0,236.88,25.73ZM39.13,87.09c-4,.61-8,.86-11.77,1.89-3.21.86-5.07,3.52-6.06,6.84a4.73,4.73,0,0,0,1.14.18c3-.38,5.95-.8,8.92-1.19C35.24,94.32,38.2,91.47,39.13,87.09ZM236.92,13.91c.7,10.65,4.6,16.82,10.43,16.46a108.27,108.27,0,0,0-2.85-10.94C243.32,16.26,240.55,14.59,236.92,13.91ZM2.67,165.42c3.54-2.24,7-4,10-6.41,2.67-2.15,3.32-5.38,2.81-9.3-3.62,2.29-7,4.08-10,6.45C2.71,158.32,2.07,161.55,2.67,165.42ZM147.13,345a4.94,4.94,0,0,0-.12-1.15c-1.39-2.88-2.76-5.77-4.2-8.62-1.66-3.28-5.23-5.09-9.48-4.67,1.37,2.86,2.79,5.59,4,8.41C139.13,343.19,142.56,344.62,147.13,345Zm-28.5-333.4c3.61,2.59,6.63,5.26,10.09,7.08,2.88,1.52,6.13.95,9.32-1.05-3.32-2.41-6.15-4.81-9.31-6.67S122.3,9.67,118.63,11.61ZM57.06,285.13c-2,12.74-1,17,4.4,19,.41-3.6.93-7.14,1.18-10.71C62.86,290.13,60.44,286.65,57.06,285.13Zm173.53,52.54c-3.63-2.6-6.65-5.26-10.11-7.08-2.87-1.52-6.11-1-9.3,1.05,3.32,2.41,6.15,4.81,9.31,6.67S226.91,339.6,230.59,337.67ZM28.48,106.8c-4,1.13-7.42,2-10.81,3.11a8.39,8.39,0,0,0-5.38,8.32c3.54-1,7.17-1.77,10.55-3.11S27.88,110.91,28.48,106.8Zm316.91,89.44c-10.32,3.73-15,8.59-13.39,14.16,2.92-1.56,5.81-3.07,8.68-4.62C344.18,203.89,345.84,200.58,345.39,196.24ZM14.2,160.81c-3.44,2.51-6.46,4.58-9.33,6.84a8.36,8.36,0,0,0-2.1,9.49c2.6-1.87,5.16-3.74,7.76-5.56C14.16,169,14.73,165.43,14.2,160.81Zm98.14,162.72c1.91,10.87,5.9,16.23,11.56,15.29-1.12-3.41-2.15-6.83-3.37-10.19A8.44,8.44,0,0,0,112.34,323.53ZM278,37.27c0,3.69,0,7,0,10.24,0,.29,0,.58,0,.87.11,3.4,3,7,6.21,7.64.16-3.48.4-7,.46-10.42S282.22,38.89,278,37.27Zm-211.23,3c8.62,4.85,16.64,4.55,19.32-.83-3.17-.91-6.31-1.82-9.46-2.7C72.83,35.73,69.37,37,66.8,40.32ZM3.9,152.94c9.43-2.76,15.36-9,13.16-14-3.15,1.68-6.34,3.27-9.43,5C4.79,145.61,3.28,149.47,3.9,152.94ZM40.78,66.05c4.1.28,7.58.67,11.06.73,4,.06,6.5-2.27,8.77-5.9-4.33-.26-8.17-.76-12-.64C45.1,60.35,42.74,62.64,40.78,66.05ZM335.31,188.26c3.18-2.33,6.49-4.37,9.31-6.95,2.53-2.31,3-5.55,2.29-9.49-3.12,2.24-5.86,4.16-8.55,6.14C335.28,180.24,334.13,184,335.31,188.26ZM263,309.68c1,.32,1.67.58,2.41.79,2.59.76,5.17,1.54,7.78,2.22,3.33.86,7-.7,9.43-4.07-3.41-1-6.7-2-10-2.89C269,304.76,265.3,306.25,263,309.68ZM52.85,69.36C41.35,67.86,35,70,34.26,75.6c3.12,0,6.22-.08,9.31,0C48.06,75.77,50.67,73.26,52.85,69.36ZM50,276.57c-4.07,8.85-3,16.6,2.72,19.43.64-3.78,1.54-7.47,1.82-11.19C54.83,281.3,53,278.61,50,276.57Zm265.49-2.66c-12.13-1.25-17,.38-18.81,6.27A112.25,112.25,0,0,0,308,280.1C311.49,279.73,313.8,277.37,315.52,273.91Z"/>
<path class="cls-1" d="M14.79,194.52c3.77,9.37-3.77,13-7.66,18.35a8.08,8.08,0,0,1-.21-9.49C9.27,200.44,11.91,197.73,14.79,194.52Z"/>
<path class="cls-1" d="M334.31,154.45c-3.66-9.07,3.93-12.69,7.81-18.13C345.63,141.14,343.22,146.69,334.31,154.45Z"/><path class="cls-1" d="M317.94,101.4c-3-3.87-4.43-7.26-2.43-11.48,1.31-2.77,2.34-5.67,3.51-8.58,2.73,2,4.35,5.94,3.4,8.71C321.17,93.69,319.61,97.22,317.94,101.4Z"/><path class="cls-1" d="M344.66,148.45a9,9,0,0,1-.9,9.42c-2.38,2.81-4.79,5.58-7.37,8.57C332.58,160.53,336.12,153.87,344.66,148.45Z"/><path class="cls-1" d="M306.45,81.68c-3.5-2.28-5.13-6-4.3-9.54.81-3.36,1.67-6.7,2.52-10.13A9,9,0,0,1,309,71.52C308.17,74.88,307.31,78.23,306.45,81.68Z"/><path class="cls-1" d="M42.89,267.1c3.4,3.41,5.24,6.55,4,10.84-.86,3.06-1.59,6.15-2.39,9.29a8.86,8.86,0,0,1-4.25-9.71C41.09,274.25,41.92,271,42.89,267.1Z"/><path class="cls-1" d="M20.83,127.61c-.78,4.74-2,8.19-6.11,9.9-3,1.24-6,2.62-9.26,4.09.12-3.9,1.18-7.06,4.18-8.83C12.93,130.83,16.59,129.52,20.83,127.61Z"/><path class="cls-1" d="M13.91,183.15c1.2,5,.82,8.71-2.63,11.72-2.23,2-4.3,4.12-6.83,6.57-1.29-3.55-1.42-6.73.52-9.21C7.43,189.08,10.57,186.48,13.91,183.15Z"/><path class="cls-1" d="M328.38,221.66c.79-4.78,2-8.21,6.15-9.91,3-1.23,5.92-2.61,9.23-4.08-.14,3.93-1.21,7.08-4.21,8.84C336.26,218.44,332.61,219.75,328.38,221.66Z"/><path class="cls-1" d="M31.27,247.82c3,4,4.43,7.37,2.43,11.58-1.31,2.76-2.33,5.67-3.67,9-2.67-2.76-4-5.72-3.22-8.89C27.78,255.68,29.59,252.1,31.27,247.82Z"/><path class="cls-1" d="M253.14,315.51c3.08-3.39,6.83-4.45,10.45-3.16,2.82,1,5.63,2.08,8.45,3.13a6.2,6.2,0,0,1,.75.42,8.7,8.7,0,0,1-9.31,3.37C260.08,318.16,256.76,316.84,253.14,315.51Z"/><path class="cls-1" d="M75.92,33.33c2.71-2.74,5.67-4.23,9.08-3.42a111.82,111.82,0,0,1,11,3.78A8.93,8.93,0,0,1,86.05,37C82.77,35.89,79.53,34.65,75.92,33.33Z"/><path class="cls-1" d="M182.6,13.46c-6.1,2.13-11.66-1.71-16.27-10.76,3-1.25,7.24-.51,9.29,1.89C178,7.38,180.17,10.35,182.6,13.46Z"/><path class="cls-1" d="M167,335.81c5.14-2.3,9.79.8,15.9,10.59C178.07,349.18,171.84,345,167,335.81Z"/><path class="cls-1" d="M13.65,236.39c-2.15-4.27-2.81-7.81-.19-11.44,1.85-2.57,3.55-5.24,5.35-7.91,2.3,2.49,3,6.77,1.43,9.44C18.31,229.69,16.1,232.73,13.65,236.39Z"/><path class="cls-1" d="M144,332.69c4.67.07,8.16.93,10.32,4.69,1.62,2.82,3.24,5.64,5.05,8.77-3.66.67-6.71-.13-8.59-2.48C148.2,340.46,146.37,336.69,144,332.69Z"/><path class="cls-1" d="M122.53,327.35c4.69,0,7.82,2,9.32,5.64,1.25,3,2.43,6.09,3.66,9.17-3.42.48-7.38-1.42-8.72-4.38C125.28,334.45,124,331,122.53,327.35Z"/><path class="cls-1" d="M226.69,21.91c-4.64.05-7.81-1.95-9.31-5.62-1.25-3-2.45-6.08-3.68-9.16,3.37-.53,7.35,1.38,8.71,4.35C223.93,14.8,225.2,18.23,226.69,21.91Z"/><path class="cls-1" d="M291.87,300.8c-2.05,3.18-4.81,4.93-8.09,4.7-3.89-.28-7.71-1.43-12.08-2.3,2.42-3.23,5.22-5.07,8.6-4.79C284.09,298.72,287.8,299.92,291.87,300.8Z"/><path class="cls-1" d="M68.57,53.18c-2.65,4.28-6,5.83-10.3,5.15-3-.49-6.06-.89-9.52-1.39,2.11-3.33,4.7-5.33,8-5.28C60.61,51.71,64.42,52.6,68.57,53.18Z"/><path class="cls-1" d="M57.31,48.48c2.19-3.19,4.93-5,8.39-4.7,3.8.34,7.52,1.43,11.37,2.22a8.84,8.84,0,0,1-9.25,4.71C64.44,50,61.06,49.28,57.31,48.48Z"/><path class="cls-1" d="M335.43,113.12c2.19,3.13,2.81,6.32,1.36,9.26-1.73,3.5-4.21,6.61-6.64,10.29-2.12-3.42-2.79-6.65-1.23-9.69C330.66,119.6,333.11,116.58,335.43,113.12Z"/><path class="cls-1" d="M130.11,8.08c4.39-1.83,8-1.94,11.34,1,2.4,2.08,4.85,4.09,7.32,6.17-2.63,2-7.18,2.21-9.58.39C136.2,13.35,133.41,10.84,130.11,8.08Z"/><path class="cls-1" d="M195.12,345.92c-4.64,1-8.43.41-11.39-3.38-1.76-2.26-3.79-4.31-5.76-6.51C183.66,333.33,189.18,336.53,195.12,345.92Z"/><path class="cls-1" d="M155.36,334.83c4.59-1,8.07.27,10.26,3.5,1.88,2.75,3.71,5.54,5.76,8.6-3.72.79-6.86.15-9-2.16C159.74,341.82,157.74,338.26,155.36,334.83Z"/><path class="cls-1" d="M189.7,2.85c4.68,0,8,.85,10.15,4.51,1.68,2.92,3.37,5.83,5.27,9.12-3.92.33-7.09-.53-9.11-3.11C193.66,10.36,192,6.8,189.7,2.85Z"/><path class="cls-1" d="M16.38,205.83c2.32,4,2.17,7.84-.19,10.89-2,2.59-4,5.16-6.08,7.77-2.2-2.71-2.56-7-.64-9.71C11.59,211.8,13.94,209,16.38,205.83Z"/><path class="cls-1" d="M200.15,333.78c3.48-1.75,6.75-2,9.48-.28,3.31,2.07,6.12,4.91,9.24,7.5-3.94,2.23-7.69,2-10.76-.53C205.53,338.35,203,336.17,200.15,333.78Z"/><path class="cls-1" d="M326.73,121.42c-2.62-3.24-3.05-7-1.14-10.45,1.64-2.9,3.36-5.76,5.09-8.74,2.81,3.38,3.3,7.08,1.47,10.38-1.54,2.79-3.18,5.53-4.79,8.29A2.34,2.34,0,0,1,326.73,121.42Z"/><path class="cls-1" d="M266.79,42.49c-3.67-1.14-6.22-3.21-7-6.39-.94-3.78-1-7.78-1.53-12.17,3.73,1.28,6.32,3.27,7.08,6.49C266.22,34.22,266.31,38.2,266.79,42.49Z"/><path class="cls-1" d="M18.42,247.25c-2.22-3-3.24-6-2-9,1.53-3.69,3.79-7.08,5.8-10.73,2.87,3.51,3.31,7.34,1.41,10.72C22,241.19,20.28,244.06,18.42,247.25Z"/><path class="cls-1" d="M315.46,252.63c1.33-4.35,3.17-7.29,7.19-8.24,3.28-.78,6.58-1.43,10.3-2.23-.42,3.58-2.12,6.29-5,7.39C324.19,251,320,251.56,315.46,252.63Z"/><path class="cls-1" d="M247.57,18.52c3.85,1,6.53,2.8,7.49,6,1.1,3.66,1.48,7.54,2.27,11.8-3.86-.93-6.5-2.81-7.48-6C248.71,26.73,248.36,22.84,247.57,18.52Z"/><path class="cls-1" d="M300,292.71a9.08,9.08,0,0,1-9.32,4.84l-9.79-1.47C283.7,290.18,291.66,288.87,300,292.71Z"/><path class="cls-1" d="M101.17,330.65c-3.43-1-6.15-2.75-7.1-6.13-1-3.58-1.41-7.33-2.09-11.07C98,313.66,101.44,320.11,101.17,330.65Z"/><path class="cls-1" d="M73.83,300.59c3,.74,6.13,3.78,6.3,6.67.22,3.74.06,7.5.06,11.22C74.8,317.71,72.36,311.1,73.83,300.59Z"/><path class="cls-1" d="M232.44,325c4-2.63,7.59-3.61,11.57-1.33,2.67,1.54,5.43,2.94,8.52,4.59-2.7,2.42-5.73,3.47-8.64,2.45C240,329.31,236.5,327,232.44,325Z"/><path class="cls-1" d="M24.42,117.05c-1.06,4.67-2.52,8-6.78,9.41-3,1-6,2.17-9,3.28-.34-3.35,1.65-7.34,4.49-8.53C16.59,119.76,20.18,118.6,24.42,117.05Z"/><path class="cls-1" d="M339.47,124.33c1.9,4.4,2.23,8-.64,11.43-2,2.43-3.92,5-5.91,7.51-2.06-2.77-2.46-7.1-.69-9.61C334.39,130.6,336.81,127.73,339.47,124.33Z"/><path class="cls-1" d="M241.24,333.49c-3.44,2.52-7,2.78-10.45.69-2.85-1.74-5.65-3.54-8.59-5.39,3.56-2.66,7.53-3,10.75-.94,2.71,1.68,5.38,3.4,8.06,5.12C241.15,333.06,241.17,333.31,241.24,333.49Z"/><path class="cls-1" d="M82.82,306.81c4,1.75,6.72,4.21,7.14,8.57.3,3.15.57,6.31.87,9.55a8.82,8.82,0,0,1-7.29-7.73c-.32-3.17-.68-6.33-1-9.5C82.51,307.52,82.64,307.33,82.82,306.81Z"/><path class="cls-1" d="M346.47,160.2c.58,3.9.51,7.4-2.66,10.13-2.56,2.2-5.16,4.34-7.78,6.53C332.88,169.83,338.12,165.82,346.47,160.2Z"/><path class="cls-1" d="M13.44,172.29c2.13,7.77-1.16,9.85-10.18,16.68a8.44,8.44,0,0,1,1.54-9.45c2-1.86,4.1-3.53,6.17-5.27C11.7,173.63,12.46,173.06,13.44,172.29Z"/><path class="cls-1" d="M322,264c-1.28,3.37-3.39,5.85-6.9,6.42-3.7.61-7.5.67-11.33,1C305.72,264.14,311.15,263.6,322,264Z"/><path class="cls-1" d="M23.94,257.89c-5.15-6.31-2.9-9.75,2.49-19.46,2.45,2.09,3.74,6.17,2.52,9C27.47,250.87,25.72,254.21,23.94,257.89Z"/><path class="cls-1" d="M340.59,219.56c.33,3.38-1.65,7.31-4.52,8.52-3.46,1.45-7.05,2.61-10.63,3.91-.3-3.56,1.77-7.42,4.79-8.65C333.62,222,337.1,220.82,340.59,219.56Z"/><path class="cls-1" d="M154.09,3.35c4.64-1,8.43-.42,11.4,3.38,1.76,2.26,3.79,4.31,5.75,6.51C165.63,16,160,12.7,154.09,3.35Z"/><path class="cls-1" d="M126.87,20.59c-3.41,2.55-7.41,2.83-10.63.84-2.85-1.75-5.66-3.54-8.62-5.39,3.78-2.78,7.38-3,10.81-.95,2.55,1.56,5.07,3.18,7.6,4.78A9.89,9.89,0,0,1,126.87,20.59Z"/><path class="cls-1" d="M116.79,24.34c-4.13,2.6-7.71,3.57-11.68,1.25-2.66-1.55-5.42-2.92-8.19-4.4,2.32-2.49,6.3-3.67,9-2.42C109.46,20.36,112.81,22.27,116.79,24.34Z"/><path class="cls-1" d="M275.31,49c-3.27-1.24-5.65-3.52-6.13-6.74-.56-3.75-.13-7.66-.13-11.46C274.49,31.66,276.94,38.35,275.31,49Z"/><path class="cls-1" d="M292,64.23c-4-2.26-5.8-5.68-5.32-9.71.37-3.08.72-6.16,1.09-9.25C293.18,46.77,294.65,53.4,292,64.23Z"/><path class="cls-1" d="M45.55,77.85C43.25,85,39,85.5,27.63,85.39c.4-2.92,3-6,6-6.47C37.55,78.33,41.51,78.2,45.55,77.85Z"/><path class="cls-1" d="M325.25,91.49c5.35,5.83,2.66,10.52-2.63,19.4-2.84-3-3.52-6.72-1.83-10.27C322.23,97.6,323.73,94.6,325.25,91.49Z"/><path class="cls-1" d="M16.17,107.12c.66-3.78,2.41-6.52,5.51-7.62,3.67-1.31,7.62-1.82,11.9-2.78-.81,3.94-2.64,6.7-5.84,7.81C24.16,105.78,20.29,106.24,16.17,107.12Z"/><path class="cls-1" d="M328,253.43c-1.44,3.92-3.61,6.66-7.73,7.29-3.33.51-6.67.93-10.06,1.4C311.24,255.87,317.15,253,328,253.43Z"/><path class="cls-1" d="M36.67,258c3,2.6,4.52,5.61,3.76,9.13A109.42,109.42,0,0,1,37,277.89a8.85,8.85,0,0,1-3.6-10C34.43,264.69,35.51,261.51,36.67,258Z"/><path class="cls-1" d="M337.56,231.14c-1.1,4.18-2.72,7.34-6.9,8.48-3.15.87-6.27,1.81-9.44,2.72C320.71,236.62,325.72,233.15,337.56,231.14Z"/><path class="cls-1" d="M308.08,283.24c-1.78,4-4.83,6-8.7,5.84-3.38-.15-6.76-.44-10.16-.66a8.64,8.64,0,0,1,7.92-6c.68,0,1.36,0,2,.07Z"/><path class="cls-1" d="M70.71,312.22c-3.6-2-5.94-4.43-6.12-8.07s.25-7.29.42-11a9,9,0,0,1,6.22,7.53,8.84,8.84,0,0,1,0,1.15C71,305.13,70.89,308.39,70.71,312.22Z"/><path class="cls-1" d="M299.21,72.76c-3-2.25-4.92-5.05-4.54-8.81.36-3.54,1.17-7.05,1.8-10.62C302.07,55.81,303.14,63.38,299.21,72.76Z"/><path class="cls-1" d="M312.2,71.25c3.54,2.9,4.74,6.47,3.56,10.22-1,3.13-2,6.25-3.06,9.38a7.86,7.86,0,0,1-4-8.18C309.57,78.84,311,75.14,312.2,71.25Z"/><path class="cls-1" d="M333.94,199.47c-.8-4.63.62-8.09,3.94-10.19,2.75-1.75,5.53-3.45,8.35-5.19,1,3.29,0,7.37-2.55,9.17C340.62,195.42,337.37,197.3,333.94,199.47Z"/><path class="cls-1" d="M262.71,322.55c-2.78,2.92-6.59,3.86-10,2.4-3.15-1.36-6.25-2.83-9.47-4.29,2.89-3,6.85-4,10.16-2.57,2.92,1.27,5.81,2.61,8.7,3.93A2.67,2.67,0,0,1,262.71,322.55Z"/><path class="cls-1" d="M101.7,318.27c4.37,1.16,7.31,2.89,8.37,6.78.91,3.31,1.68,6.66,2.62,10.41-3.89-.69-6.7-2.32-7.89-5.42C103.44,326.48,102.82,322.65,101.7,318.27Z"/><path class="cls-1" d="M194.11,14.78c-5.12.39-8.74-.64-11.13-4.69-1.51-2.54-3.28-4.93-5.13-7.7,3.76-.91,6.93-.13,9.09,2.25C189.56,7.52,191.5,11,194.11,14.78Z"/><path class="cls-1" d="M85.87,26.73c3.88-2.76,7.24-4.09,11.28-2.11,2.84,1.39,5.77,2.59,8.7,3.91-2,2.55-6.39,4.1-9.11,3C93.25,30.19,89.87,28.53,85.87,26.73Z"/><path class="cls-1" d="M142.71,5.1c8.72-3.16,12,4.55,17.28,8.62-2.56,1.76-7.17,2-9.34,0C147.82,11.11,145.41,8.06,142.71,5.1Z"/><path class="cls-1" d="M201.66,4.26c4.71.35,8.15,1.56,10,5.63,1.32,2.89,2.75,5.73,4.16,8.64-3.22.69-7.5-.94-8.94-3.58C205.09,11.66,203.57,8.21,201.66,4.26Z"/><path class="cls-1" d="M189.29,335c3.33-1.19,6.73-1.49,9.42.72,2.88,2.37,5.16,5.47,7.64,8.18C201.75,346.8,195.68,343.83,189.29,335Z"/><path class="cls-1" d="M236.88,25.73a8.41,8.41,0,0,1-8.19-5.08c-1.23-3.35-2.25-6.78-3.37-10.19C231,9.48,235,14.85,236.88,25.73Z"/><path class="cls-1" d="M39.13,87.09c-.93,4.38-3.89,7.23-7.77,7.72-3,.39-5.94.81-8.92,1.19a4.73,4.73,0,0,1-1.14-.18c1-3.32,2.85-6,6.06-6.84C31.15,88,35.14,87.7,39.13,87.09Z"/><path class="cls-1" d="M236.92,13.91c3.63.68,6.4,2.35,7.58,5.52a108.27,108.27,0,0,1,2.85,10.94C241.52,30.73,237.62,24.56,236.92,13.91Z"/><path class="cls-1" d="M2.67,165.42c-.6-3.87,0-7.1,2.75-9.26,3-2.37,6.4-4.16,10-6.45.51,3.92-.14,7.15-2.81,9.3C9.66,161.4,6.21,163.18,2.67,165.42Z"/><path class="cls-1" d="M147.13,345c-4.57-.39-8-1.82-9.8-6-1.21-2.82-2.63-5.55-4-8.41,4.25-.42,7.82,1.39,9.48,4.67,1.44,2.85,2.81,5.74,4.2,8.62A4.94,4.94,0,0,1,147.13,345Z"/><path class="cls-1" d="M118.63,11.61c3.67-1.94,7-2.48,10.1-.64s6,4.26,9.31,6.67c-3.19,2-6.44,2.57-9.32,1.05C125.26,16.87,122.24,14.2,118.63,11.61Z"/><path class="cls-1" d="M57.06,285.13c3.38,1.52,5.8,5,5.58,8.26-.25,3.57-.77,7.11-1.18,10.71C56,302.14,55,297.87,57.06,285.13Z"/><path class="cls-1" d="M230.59,337.67c-3.68,1.93-7,2.46-10.1.64s-6-4.26-9.31-6.67c3.19-2,6.43-2.57,9.3-1.05C223.94,332.41,227,335.07,230.59,337.67Z"/><path class="cls-1" d="M28.48,106.8c-.6,4.11-2.3,7-5.64,8.32s-7,2.09-10.55,3.11a8.39,8.39,0,0,1,5.38-8.32C21.06,108.82,24.51,107.93,28.48,106.8Z"/><path class="cls-1" d="M345.39,196.24c.45,4.34-1.21,7.65-4.71,9.54-2.87,1.55-5.76,3.06-8.68,4.62C330.42,204.83,335.07,200,345.39,196.24Z"/><path class="cls-1" d="M14.2,160.81c.53,4.62,0,8.22-3.67,10.77-2.6,1.82-5.16,3.69-7.76,5.56a8.36,8.36,0,0,1,2.1-9.49C7.74,165.39,10.76,163.32,14.2,160.81Z"/><path class="cls-1" d="M112.34,323.53a8.44,8.44,0,0,1,8.19,5.1c1.22,3.36,2.25,6.78,3.37,10.19C118.24,339.76,114.25,334.4,112.34,323.53Z"/><path class="cls-1" d="M278,37.27c4.19,1.62,6.69,4.91,6.63,8.33s-.3,6.94-.46,10.42c-3.17-.61-6.1-4.24-6.21-7.64,0-.29,0-.58,0-.87C278,44.24,278,41,278,37.27Z"/><path class="cls-1" d="M66.8,40.32c2.57-3.34,6-4.59,9.86-3.53,3.15.88,6.29,1.79,9.46,2.7C83.44,44.87,75.42,45.17,66.8,40.32Z"/><path class="cls-1" d="M3.9,152.94c-.62-3.47.89-7.33,3.73-9,3.09-1.76,6.28-3.35,9.43-5C19.26,144,13.33,150.18,3.9,152.94Z"/><path class="cls-1" d="M40.78,66.05c2-3.41,4.32-5.7,7.84-5.81,3.82-.12,7.66.38,12,.64-2.27,3.63-4.8,6-8.77,5.9C48.36,66.72,44.88,66.33,40.78,66.05Z"/><path class="cls-1" d="M335.31,188.26c-1.18-4.22,0-8,3.05-10.3,2.69-2,5.43-3.9,8.55-6.14.74,3.94.24,7.18-2.29,9.49C341.8,183.89,338.49,185.93,335.31,188.26Z"/><path class="cls-1" d="M263,309.68c2.34-3.43,6.05-4.92,9.6-3.95,3.32.91,6.61,1.9,10,2.89-2.4,3.37-6.1,4.93-9.43,4.07-2.61-.68-5.19-1.46-7.78-2.22C264.63,310.26,263.91,310,263,309.68Z"/><path class="cls-1" d="M52.85,69.36c-2.18,3.9-4.79,6.41-9.28,6.26-3.09-.1-6.19,0-9.31,0C35,70,41.35,67.86,52.85,69.36Z"/><path class="cls-1" d="M50,276.57c2.92,2,4.8,4.73,4.54,8.24-.28,3.72-1.18,7.41-1.82,11.19C47,293.17,46,285.42,50,276.57Z"/><path class="cls-1" d="M315.52,273.91c-1.72,3.46-4,5.82-7.49,6.19a112.25,112.25,0,0,1-11.32.08C298.54,274.29,303.39,272.66,315.52,273.91Z"/><rect class="cls-1" x="41.45" y="141.05" width="266.64" height="67.41"/><path class="cls-2" d="M41.45,141.05c11.11-.22,22.22-.32,33.33-.48l33.33-.28c22.22-.17,44.44-.15,66.66-.23s44.44.07,66.66.23l33.33.27c11.11.17,22.21.27,33.32.49-11.11.23-22.21.33-33.32.49l-33.33.28c-22.22.16-44.44.16-66.66.23-22.22-.08-44.44-.07-66.66-.23l-33.33-.28C63.67,141.38,52.56,141.28,41.45,141.05Z"/><path class="cls-2" d="M41.45,208.46c11.11-.22,22.22-.32,33.33-.48l33.33-.28c22.22-.17,44.44-.15,66.66-.23,22.22.07,44.44.07,66.66.22l33.33.28c11.11.17,22.21.27,33.32.49-11.11.23-22.21.33-33.32.49l-33.33.28c-22.22.16-44.44.15-66.66.23-22.22-.08-44.44-.07-66.66-.23L74.78,209C63.67,208.79,52.56,208.69,41.45,208.46Z"/><circle class="cls-1" cx="174.22" cy="175.05" r="111.33"/><polygon class="cls-2" points="34.42 167.61 36.82 172.47 42.19 173.25 38.31 177.04 39.23 182.39 34.42 179.87 29.62 182.39 30.54 177.04 26.65 173.25 32.02 172.47 34.42 167.61"/><polygon class="cls-2" points="317.05 167.61 319.46 172.47 324.83 173.25 320.94 177.04 321.86 182.39 317.05 179.87 312.25 182.39 313.17 177.04 309.28 173.25 314.65 172.47 317.05 167.61"/><circle class="cls-3" cx="174.22" cy="174.64" r="112.57"/></svg>
