<svg id="Layer_1" data-name="Layer 1" xmlns="http://www.w3.org/2000/svg" viewBox="0 0 350 350"><defs><style>.cls-1{fill:#fff;}.cls-2{fill:#f8b500;}.cls-3,.cls-4{fill:none;stroke:#f8b500;stroke-miterlimit:10;}.cls-3{stroke-width:2px;}</style></defs><title>Stamp3</title><circle class="cls-1" cx="175.05" cy="175.05" r="171.03"/><path class="cls-2" d="M175,350C78.5,350,0,271.5,0,175S78.5,0,175,0,350,78.5,350,175,271.5,350,175,350ZM175,4C80.69,4,4,80.69,4,175S80.69,346.05,175,346.05s171.05-76.74,171.05-171S269.31,4,175,4Z"/><circle class="cls-3" cx="175" cy="175" r="140.31"/><circle class="cls-4" cx="175" cy="175" r="135.42"/><circle class="cls-4" cx="175" cy="175" r="166.35"/><polygon class="cls-2" points="175.05 320.11 177.81 325.68 183.96 326.58 179.51 330.92 180.56 337.04 175.05 334.15 169.55 337.04 170.6 330.92 166.15 326.58 172.3 325.68 175.05 320.11"/><polygon class="cls-2" points="175.05 11.38 177.81 16.96 183.96 17.85 179.51 22.19 180.56 28.32 175.05 25.43 169.55 28.32 170.6 22.19 166.15 17.85 172.3 16.96 175.05 11.38"/><polygon class="cls-2" points="244.45 302.48 247.2 308.06 253.35 308.95 248.9 313.29 249.95 319.42 244.45 316.52 238.95 319.42 240 313.29 235.55 308.95 241.7 308.06 244.45 302.48"/><polygon class="cls-2" points="105.66 302.48 108.41 308.06 114.56 308.95 110.11 313.29 111.16 319.42 105.66 316.52 100.15 319.42 101.2 313.29 96.75 308.95 102.91 308.06 105.66 302.48"/><rect class="cls-1" x="24.87" y="147.8" width="300.37" height="67.41"/><path class="cls-2" d="M24.87,147.8c12.51-.23,25-.33,37.54-.49L100,147c25-.16,50.06-.15,75.09-.23s50.07.07,75.1.23l37.54.28c12.52.16,25,.26,37.55.49-12.52.22-25,.32-37.55.49l-37.54.27c-25,.16-50.06.16-75.1.23s-50.06-.06-75.09-.23l-37.55-.28C49.9,148.12,37.38,148,24.87,147.8Z"/><path class="cls-2" d="M24.87,215.2c12.51-.22,25-.32,37.54-.48l37.55-.28c25-.17,50.06-.15,75.09-.23s50.07.07,75.1.23l37.54.27c12.52.17,25,.27,37.55.49-12.52.23-25,.33-37.55.5l-37.54.27c-25,.16-50.06.16-75.1.23S125,216.14,100,216l-37.55-.28C49.9,215.53,37.38,215.43,24.87,215.2Z"/></svg>
