<svg id="Layer_1" data-name="Layer 1" xmlns="http://www.w3.org/2000/svg" viewBox="0 0 350 350">
<defs>
<style>.cls-1{fill:#fff;}.cls-2{fill:#eec89f;}.cls-3,.cls-4,.cls-5{fill:none;stroke:#eec89f;}.cls-3{stroke-linecap:round;stroke-linejoin:round;stroke-dasharray:5.98 5.98;}.cls-3,.cls-4{stroke-width:2px;}.cls-4,.cls-5{stroke-miterlimit:10;}</style>
</defs>
<title>Stamp1</title>
<circle class="cls-1" cx="175" cy="175" r="171.03"/>
<path class="cls-2" d="M175,350C78.5,350,0,271.5,0,175S78.5,0,175,0,350,78.5,350,175,271.5,350,175,350ZM175,4C80.69,4,4,80.69,4,175S80.69,346,175,346s171-76.72,171-171S269.31,4,175,4Z"/>
<circle class="cls-3" cx="175" cy="175" r="163.76"/>
<path class="cls-4" d="M315.31,175a140.15,140.15,0,1,1-2.62-27.13A140.46,140.46,0,0,1,315.31,175Z"/>
<path class="cls-5" d="M310.42,175a135.27,135.27,0,1,1-2.75-27.29A135.28,135.28,0,0,1,310.42,175Z"/>
<circle class="cls-5" cx="175" cy="175" r="160.02"/>
<rect class="cls-1" x="25.75" y="147.72" width="301.24" height="67.6"/>
<path class="cls-2" d="M25.75,147.72c12.55-.23,25.1-.33,37.65-.49l37.66-.28c25.1-.16,50.21-.15,75.31-.23,25.1.08,50.21.07,75.31.23l37.65.28c12.56.16,25.11.26,37.66.49-12.55.22-25.1.32-37.66.49l-37.65.28c-25.1.16-50.21.15-75.31.23-25.1-.09-50.21-.07-75.31-.24L63.4,148.2C50.85,148,38.3,147.94,25.75,147.72Z"/>
<path class="cls-2" d="M25.75,215.32c12.55-.22,25.1-.32,37.65-.49l37.66-.27c25.1-.17,50.21-.15,75.31-.24,25.1.08,50.21.07,75.31.23l37.65.28c12.56.17,25.11.26,37.66.49-12.55.23-25.1.33-37.66.49l-37.65.28c-25.1.16-50.21.15-75.31.23-25.1-.08-50.21-.07-75.31-.23l-37.66-.28C50.85,215.64,38.3,215.55,25.75,215.32Z"/></svg>
