<svg width="467" height="519" viewBox="0 0 467 519" fill="none" xmlns="http://www.w3.org/2000/svg">
<path d="M86.4236 281.897L169.255 244.947L252.085 281.897L169.255 318.775L86.4236 281.897Z" fill="white" stroke="black" stroke-width="3" stroke-linecap="round" stroke-linejoin="round"/>
<path d="M169.255 420.42V318.775L86.4236 281.865V383.677L169.255 420.42Z" fill="white" stroke="black" stroke-width="3" stroke-linecap="round" stroke-linejoin="round"/>
<path d="M169.255 420.42V318.775L252.086 281.865V383.677L169.255 420.42Z" fill="white" stroke="black" stroke-width="3" stroke-linecap="round" stroke-linejoin="round"/>
<path d="M169.519 318.653L252.648 281.836L335.778 318.653L252.648 355.399L169.519 318.653Z" fill="white" stroke="black" stroke-width="3" stroke-linecap="round" stroke-linejoin="round"/>
<path d="M252.648 456.678V355.399L169.519 318.621V420.067L252.648 456.678Z" fill="white" stroke="black" stroke-width="3" stroke-linecap="round" stroke-linejoin="round"/>
<path d="M252.648 456.678V355.399L335.778 318.621V420.067L252.648 456.678Z" fill="white" stroke="black" stroke-width="3" stroke-linecap="round" stroke-linejoin="round"/>
<path d="M252.519 353.897L335.648 316.947L418.778 353.897L335.648 390.775L252.519 353.897Z" fill="white" stroke="black" stroke-width="3" stroke-linecap="round" stroke-linejoin="round"/>
<path d="M335.648 492.42V390.775L252.519 353.865V455.677L335.648 492.42Z" fill="white" stroke="black" stroke-width="3" stroke-linecap="round" stroke-linejoin="round"/>
<path d="M335.648 492.42V390.775L418.778 353.865V455.677L335.648 492.42Z" fill="white" stroke="black" stroke-width="3" stroke-linecap="round" stroke-linejoin="round"/>
<path d="M80.8701 170.607L164 133.656L247.13 170.607L164 207.485L80.8701 170.607Z" fill="white" stroke="black" stroke-width="3" stroke-linecap="round" stroke-linejoin="round"/>
<path d="M164 309.13V207.485L80.8701 170.575V272.386L164 309.13Z" fill="white" stroke="black" stroke-width="3" stroke-linecap="round" stroke-linejoin="round"/>
<path d="M164 309.13V207.485L247.13 170.575V272.386L164 309.13Z" fill="white" stroke="black" stroke-width="3" stroke-linecap="round" stroke-linejoin="round"/>
<path d="M244.87 244.234L328 207.417L411.13 244.234L328 280.98L244.87 244.234Z" fill="white" stroke="black" stroke-width="3" stroke-linecap="round" stroke-linejoin="round"/>
<path d="M437.468 213.479L357.317 176.741L328 207.417L411.13 244.202L437.468 213.479Z" fill="white" stroke="black" stroke-width="3" stroke-linecap="round" stroke-linejoin="round"/>
<path d="M218.532 213.479L298.683 176.741L328 207.417L244.87 244.202L218.532 213.479Z" fill="white" stroke="black" stroke-width="3" stroke-linecap="round" stroke-linejoin="round"/>
<path d="M328 382.259V280.98L244.87 244.202V345.648L328 382.259Z" fill="white" stroke="black" stroke-width="3" stroke-linecap="round" stroke-linejoin="round"/>
<path d="M328 382.259V280.98L411.13 244.202V345.648L328 382.259Z" fill="white" stroke="black" stroke-width="3" stroke-linecap="round" stroke-linejoin="round"/>
<path d="M315.728 273.097L267.618 294.339L251.002 207.488L299.112 186.238L315.728 273.097Z" fill="white" stroke="black" stroke-width="3" stroke-linecap="round" stroke-linejoin="round"/>
<path d="M368.064 275.266L315.728 273.097L299.112 186.238L351.447 188.407L368.064 275.266Z" fill="white" stroke="black" stroke-width="3" stroke-linecap="round" stroke-linejoin="round"/>
<path d="M315.728 273.097L275.347 297.22L258.73 210.369L299.112 186.238L315.728 273.097Z" fill="white" stroke="black" stroke-width="3" stroke-linecap="round" stroke-linejoin="round"/>
<path d="M315.728 273.097L362.194 280.727L345.578 193.875L299.112 186.238L315.728 273.097Z" fill="white" stroke="black" stroke-width="3" stroke-linecap="round" stroke-linejoin="round"/>
<path d="M343.076 229.838L313.767 225.335L309.716 202.502L339.025 207.013L343.076 229.838Z" fill="white" stroke="black" stroke-width="3" stroke-linecap="round" stroke-linejoin="round"/>
<path d="M349.295 262.334L319.986 257.831L315.935 234.998L345.244 239.501L349.295 262.334Z" fill="white" stroke="black" stroke-width="3" stroke-linecap="round" stroke-linejoin="round"/>
<path d="M273.679 244.78L299.271 229.846L294.608 207.132L269.017 222.066L273.679 244.78Z" fill="white" stroke="black" stroke-width="3" stroke-linecap="round" stroke-linejoin="round"/>
<path d="M279.898 277.276L305.482 262.334L300.82 239.62L275.236 254.562L279.898 277.276Z" fill="white" stroke="black" stroke-width="3" stroke-linecap="round" stroke-linejoin="round"/>
<path d="M315.214 198.334L305.406 206.021L307.493 208.665L317.301 200.977L315.214 198.334Z" fill="black"/>
<path d="M346.391 223.186L336.584 230.873L338.671 233.517L348.479 225.83L346.391 223.186Z" fill="black"/>
<path d="M352.406 254.622L342.598 262.309L344.685 264.953L354.493 257.265L352.406 254.622Z" fill="black"/>
<path d="M306.836 244.879L295.841 239L294.245 241.964L305.24 247.843L306.836 244.879Z" fill="black"/>
<path d="M300.585 212.206L289.59 206.327L287.994 209.291L298.989 215.17L300.585 212.206Z" fill="black"/>
<path d="M287.871 276.656L276.875 270.777L275.279 273.74L286.274 279.62L287.871 276.656Z" fill="black"/>
<path d="M281.49 243.296L270.495 237.417L268.898 240.38L279.893 246.259L281.49 243.296Z" fill="black"/>
<path d="M321.423 230.795L311.616 238.482L313.703 241.125L323.51 233.438L321.423 230.795Z" fill="black"/>
<path d="M301.967 223.742L254.81 236.887L270.875 294.103L318.032 280.957L301.967 223.742Z" fill="white" stroke="black" stroke-width="3" stroke-linecap="round" stroke-linejoin="round"/>
<path d="M298.443 229.538L260.855 240.016L270.887 275.747L308.475 265.268L298.443 229.538Z" stroke="black" stroke-width="3" stroke-linecap="round" stroke-linejoin="round"/>
<path d="M273.838 266.79C273.838 266.79 273.465 253.518 279.612 251.499C285.76 249.481 286.761 243.419 286.324 241.725" stroke="black" stroke-width="3" stroke-linecap="round" stroke-linejoin="round"/>
<path d="M281.384 258.923C281.384 258.923 292.337 251.088 300.399 258.179" stroke="black" stroke-width="3" stroke-linecap="round" stroke-linejoin="round"/>
<path d="M358.663 223.64L310.888 212.938L297.809 270.904L345.585 281.606L358.663 223.64Z" fill="white" stroke="black" stroke-width="3" stroke-linecap="round" stroke-linejoin="round"/>
<path d="M352.794 227.072L314.713 218.542L306.546 254.74L344.627 263.271L352.794 227.072Z" stroke="black" stroke-width="3" stroke-linecap="round" stroke-linejoin="round"/>
<path d="M313.425 248.247C313.425 248.247 319.414 236.375 325.784 237.515C332.155 238.654 335.959 233.787 336.34 232.078" stroke="black" stroke-width="3" stroke-linecap="round" stroke-linejoin="round"/>
<path d="M323.822 244.875C323.822 244.875 337.182 243.15 340.915 253.201" stroke="black" stroke-width="3" stroke-linecap="round" stroke-linejoin="round"/>
<path d="M394.031 247.23L327.884 236.673L320.915 280.021L387.062 290.578L394.031 247.23Z" fill="white" stroke="black" stroke-width="3" stroke-linecap="round" stroke-linejoin="round"/>
<path d="M389.841 250.072L330.973 240.677L325.105 277.179L383.974 286.574L389.841 250.072Z" fill="white" stroke="black" stroke-width="3" stroke-linecap="round" stroke-linejoin="round"/>
<path d="M383.064 292.77L403.709 229.27L361.794 215.741L341.149 279.241L383.064 292.77Z" fill="white" stroke="black" stroke-width="3" stroke-linecap="round" stroke-linejoin="round"/>
<path d="M380.637 287.757L399.119 231.323L363.873 219.863L345.391 276.297L380.637 287.757Z" fill="white" stroke="black" stroke-width="3" stroke-linecap="round" stroke-linejoin="round"/>
<path d="M437.468 274.926L357.317 311.656L328 280.98L411.13 244.202L437.468 274.926Z" fill="white" stroke="black" stroke-width="3" stroke-linecap="round" stroke-linejoin="round"/>
<path d="M218.532 274.926L298.683 311.656L328 280.98L244.87 244.202L218.532 274.926Z" fill="white" stroke="black" stroke-width="3" stroke-linecap="round" stroke-linejoin="round"/>
<path d="M377.175 247.772C380.715 247.772 383.584 244.912 383.584 241.385C383.584 237.858 380.715 234.998 377.175 234.998C373.634 234.998 370.765 237.858 370.765 241.385C370.765 244.912 373.634 247.772 377.175 247.772Z" fill="white" stroke="black" stroke-width="3" stroke-linecap="round" stroke-linejoin="round"/>
<path d="M367.516 252.267C369.31 252.267 370.764 251.367 370.764 250.257C370.764 249.147 369.31 248.247 367.516 248.247C365.722 248.247 364.267 249.147 364.267 250.257C364.267 251.367 365.722 252.267 367.516 252.267Z" fill="white" stroke="black" stroke-width="3" stroke-linecap="round" stroke-linejoin="round"/>
<path d="M333.56 269.876C333.56 269.876 339.803 271.087 339.287 263.624C338.771 256.161 335.721 250.059 340.875 250.257" fill="white"/>
<path d="M333.56 269.876C333.56 269.876 339.803 271.087 339.287 263.624C338.771 256.161 335.721 250.059 340.875 250.257" stroke="black" stroke-width="3" stroke-linecap="round" stroke-linejoin="round"/>
<path d="M28.3462 332.651L111.5 295.748L194.654 332.651L111.5 369.483L28.3462 332.651Z" fill="white" stroke="black" stroke-width="3" stroke-linecap="round" stroke-linejoin="round"/>
<path d="M221 301.824L140.826 265L111.5 295.748L194.654 332.62L221 301.824Z" fill="white" stroke="black" stroke-width="3" stroke-linecap="round" stroke-linejoin="round"/>
<path d="M2 301.824L82.1744 265L111.5 295.748L28.3461 332.62L2 301.824Z" fill="white" stroke="black" stroke-width="3" stroke-linecap="round" stroke-linejoin="round"/>
<path d="M72.4808 310.298L49.4417 406.484L170.249 435.331L193.288 339.145L72.4808 310.298Z" fill="white" stroke="#1D1D1B" stroke-miterlimit="10"/>
<path d="M77.0339 309.535C74.3731 320.645 75.0717 332.294 79.0414 343.008C83.0111 353.722 90.0736 363.02 99.3358 369.726C108.598 376.432 119.644 380.246 131.077 380.684C142.509 381.122 153.816 378.166 163.566 372.189C173.316 366.211 181.072 357.481 185.852 347.103C190.633 336.725 192.224 325.164 190.425 313.882C188.625 302.601 183.515 292.106 175.742 283.724C167.968 275.342 157.88 269.45 146.753 266.793C139.364 265.029 131.7 264.734 124.197 265.928C116.695 267.121 109.501 269.778 103.027 273.747C96.5529 277.716 90.9253 282.919 86.4654 289.06C82.0055 295.2 78.8007 302.158 77.0339 309.535ZM137.965 324.084C137.74 324.995 137.251 325.82 136.558 326.454C135.865 327.088 134.999 327.504 134.07 327.648C133.141 327.793 132.191 327.66 131.337 327.266C130.484 326.873 129.766 326.236 129.274 325.436C128.782 324.636 128.538 323.709 128.573 322.771C128.607 321.833 128.919 320.926 129.468 320.164C130.017 319.403 130.78 318.82 131.66 318.49C132.54 318.16 133.498 318.097 134.414 318.309C135.029 318.451 135.61 318.714 136.122 319.083C136.634 319.451 137.068 319.918 137.399 320.455C137.729 320.992 137.95 321.59 138.047 322.213C138.144 322.836 138.116 323.472 137.965 324.084Z" fill="black"/>
<path d="M122.274 320.34C121.752 322.517 121.889 324.801 122.667 326.901C123.445 329.001 124.829 330.824 126.645 332.138C128.46 333.453 130.625 334.2 132.867 334.286C135.108 334.371 137.324 333.791 139.235 332.619C141.146 331.447 142.665 329.735 143.602 327.701C144.539 325.666 144.85 323.4 144.496 321.189C144.142 318.978 143.14 316.921 141.615 315.278C140.091 313.636 138.113 312.482 135.931 311.963C133.008 311.266 129.927 311.757 127.366 313.328C124.805 314.899 122.973 317.421 122.274 320.34ZM137.965 324.084C137.74 324.995 137.251 325.82 136.558 326.454C135.865 327.088 134.999 327.504 134.07 327.648C133.142 327.793 132.191 327.66 131.337 327.266C130.484 326.873 129.766 326.236 129.274 325.436C128.782 324.636 128.538 323.709 128.573 322.771C128.607 321.833 128.919 320.926 129.468 320.164C130.017 319.403 130.78 318.82 131.66 318.49C132.54 318.16 133.498 318.097 134.414 318.309C135.029 318.451 135.61 318.714 136.122 319.083C136.635 319.451 137.069 319.918 137.399 320.455C137.729 320.992 137.95 321.59 138.047 322.213C138.144 322.836 138.116 323.472 137.965 324.084Z" fill="white" stroke="#1D1E1B" stroke-miterlimit="10"/>
<path d="M133.301 378.329C163.925 378.329 188.751 353.542 188.751 322.965C188.751 292.389 163.925 267.602 133.301 267.602C102.678 267.602 77.8523 292.389 77.8523 322.965C77.8523 353.542 102.678 378.329 133.301 378.329Z" stroke="white" stroke-miterlimit="10"/>
<path d="M144.147 277.677C156.175 280.551 166.569 288.077 173.041 298.6C179.513 309.123 181.534 321.782 178.66 333.794" stroke="white" stroke-linecap="round" stroke-linejoin="round"/>
<path d="M146.069 281.239C156.104 284.298 164.7 290.861 170.289 299.726C175.877 308.592 178.084 319.169 176.507 329.526" stroke="white" stroke-linecap="round" stroke-linejoin="round"/>
<path d="M133.302 352.46C149.616 352.46 162.842 339.255 162.842 322.965C162.842 306.676 149.616 293.471 133.302 293.471C116.987 293.471 103.761 306.676 103.761 322.965C103.761 339.255 116.987 352.46 133.302 352.46Z" stroke="white" stroke-linecap="round" stroke-linejoin="round"/>
<path d="M72.0106 312.273L47.6926 413.798L168.5 442.645L192.818 341.12L72.0106 312.273Z" fill="white" stroke="#1D1D1B" stroke-miterlimit="10"/>
<path d="M37.1166 325.569L28.8091 328.227L51.6849 399.495L59.9925 396.837L37.1166 325.569Z" fill="white" stroke="black" stroke-linecap="round" stroke-linejoin="round"/>
<path d="M106.118 303.487L37.123 325.565L59.9989 396.833L128.994 374.755L106.118 303.487Z" fill="white" stroke="black" stroke-linecap="round" stroke-linejoin="round"/>
<path d="M72.6563 317.801C66.2447 319.854 60.5866 323.758 56.3976 329.022C52.2085 334.285 49.6765 340.67 49.1219 347.37C48.5672 354.069 50.0146 360.783 53.2813 366.662C56.5479 372.54 61.487 377.32 67.474 380.395C73.4609 383.471 80.227 384.706 86.9166 383.942C93.6062 383.179 99.9188 380.452 105.056 376.107C110.194 371.762 113.926 365.993 115.78 359.53C117.634 353.068 117.527 346.201 115.473 339.799C114.109 335.546 111.92 331.604 109.03 328.197C106.14 324.79 102.606 321.985 98.6297 319.942C94.6534 317.899 90.313 316.658 85.8563 316.291C81.3997 315.924 76.9142 316.437 72.6563 317.801ZM84.2403 353.88C83.5056 354.116 82.7172 354.13 81.9749 353.918C81.2325 353.707 80.5695 353.281 80.0699 352.694C79.5703 352.106 79.2564 351.384 79.1681 350.618C79.0798 349.852 79.2209 349.078 79.5736 348.392C79.9264 347.707 80.4749 347.141 81.1497 346.767C81.8246 346.393 82.5954 346.227 83.3647 346.291C84.134 346.354 84.8671 346.644 85.4713 347.124C86.0755 347.603 86.5236 348.251 86.7589 348.985C87.0717 349.968 86.9824 351.034 86.5105 351.951C86.0386 352.868 85.2225 353.561 84.2403 353.88Z" fill="white" stroke="black" stroke-width="3" stroke-linecap="round" stroke-linejoin="round"/>
<path d="M83.0485 380.415C99.7799 380.415 113.343 366.872 113.343 350.167C113.343 333.462 99.7799 319.919 83.0485 319.919C66.3171 319.919 52.7537 333.462 52.7537 350.167C52.7537 366.872 66.3171 380.415 83.0485 380.415Z" stroke="black" stroke-width="2" stroke-miterlimit="10"/>
<path d="M83.0484 357.909C87.3311 357.909 90.8029 354.443 90.8029 350.167C90.8029 345.891 87.3311 342.425 83.0484 342.425C78.7657 342.425 75.2939 345.891 75.2939 350.167C75.2939 354.443 78.7657 357.909 83.0484 357.909Z" stroke="black" stroke-miterlimit="10"/>
<path d="M75.6835 343.725L62.439 330.985" stroke="black" stroke-linecap="round" stroke-linejoin="round"/>
<path d="M76.5812 343.004L64.7429 328.947" stroke="black" stroke-linecap="round" stroke-linejoin="round"/>
<path d="M109.712 341.639C111.978 348.7 111.341 356.37 107.942 362.962C104.543 369.554 98.6613 374.528 91.5896 376.79" stroke="black" stroke-linecap="round" stroke-linejoin="round"/>
<path d="M107.424 301.118L38.4284 323.195L37.1174 325.575L106.105 303.498L107.424 301.118Z" fill="white" stroke="black" stroke-linecap="round" stroke-linejoin="round"/>
<path d="M38.4285 323.195L30.1178 325.853L28.8069 328.233L37.1175 325.575L38.4285 323.195Z" fill="white" stroke="black" stroke-linecap="round" stroke-linejoin="round"/>
<path d="M107.424 301.118L106.105 303.498L128.979 374.767L130.29 372.387L107.424 301.118Z" fill="white" stroke="black" stroke-linecap="round" stroke-linejoin="round"/>
<path d="M125.03 333.444L91.2627 357.291L125.096 405.05L158.863 381.203L125.03 333.444Z" fill="white"/>
<path d="M157.868 380.693L124.109 333.175C123.66 332.548 122.981 332.124 122.22 331.996C121.459 331.868 120.678 332.047 120.049 332.493L91.224 352.928C90.5953 353.373 90.1693 354.049 90.0397 354.808C89.9101 355.566 90.0874 356.345 90.5328 356.973L124.284 404.491C124.732 405.118 125.411 405.542 126.171 405.671C126.932 405.8 127.713 405.624 128.344 405.181L157.177 384.754C157.489 384.533 157.755 384.252 157.959 383.929C158.163 383.605 158.301 383.244 158.365 382.867C158.43 382.489 158.419 382.103 158.333 381.73C158.248 381.357 158.09 381.005 157.868 380.693ZM99.4552 367.032C99.2793 366.784 99.1811 366.489 99.173 366.185C99.1648 365.881 99.2471 365.582 99.4093 365.324C99.5716 365.067 99.8066 364.863 100.085 364.739C100.363 364.615 100.671 364.576 100.972 364.627C101.272 364.678 101.551 364.816 101.772 365.025C101.993 365.234 102.148 365.503 102.216 365.8C102.284 366.096 102.263 366.406 102.155 366.691C102.046 366.975 101.856 367.221 101.608 367.397C101.442 367.514 101.254 367.597 101.056 367.641C100.858 367.685 100.653 367.689 100.452 367.654C100.252 367.619 100.061 367.544 99.89 367.435C99.7189 367.325 99.5711 367.183 99.4552 367.016V367.032ZM105.629 372.3C105.531 372.37 105.421 372.42 105.304 372.447C105.187 372.474 105.066 372.478 104.948 372.458C104.83 372.438 104.717 372.395 104.615 372.331C104.514 372.267 104.426 372.184 104.357 372.086L103.698 371.165C103.559 370.966 103.504 370.72 103.546 370.481C103.587 370.242 103.722 370.029 103.92 369.888L104.651 369.373C104.848 369.233 105.093 369.177 105.331 369.218C105.569 369.258 105.782 369.39 105.923 369.587L106.582 370.515C106.721 370.713 106.775 370.957 106.734 371.195C106.692 371.433 106.557 371.645 106.359 371.784L105.629 372.3ZM116.466 387.634C116.368 387.704 116.258 387.754 116.141 387.781C116.025 387.808 115.904 387.812 115.785 387.792C115.667 387.772 115.554 387.729 115.452 387.665C115.351 387.601 115.263 387.518 115.194 387.42L114.535 386.5C114.465 386.402 114.414 386.291 114.387 386.174C114.36 386.057 114.356 385.935 114.376 385.816C114.396 385.698 114.439 385.584 114.503 385.482C114.567 385.38 114.651 385.292 114.75 385.222L115.473 384.659C115.57 384.589 115.681 384.539 115.799 384.511C115.916 384.484 116.038 384.48 116.157 384.5C116.276 384.52 116.39 384.563 116.492 384.627C116.594 384.691 116.682 384.775 116.752 384.873L117.403 385.801C117.473 385.899 117.524 386.009 117.551 386.125C117.578 386.242 117.582 386.363 117.562 386.481C117.542 386.599 117.498 386.712 117.434 386.813C117.37 386.914 117.287 387.002 117.189 387.071L116.466 387.634ZM117.697 392.782C117.52 392.534 117.421 392.239 117.412 391.935C117.404 391.63 117.486 391.33 117.648 391.072C117.81 390.814 118.045 390.61 118.324 390.485C118.602 390.361 118.911 390.322 119.212 390.373C119.513 390.424 119.792 390.563 120.013 390.773C120.235 390.982 120.389 391.253 120.456 391.55C120.524 391.847 120.502 392.157 120.392 392.442C120.283 392.726 120.092 392.972 119.842 393.147C119.677 393.264 119.49 393.346 119.292 393.39C119.094 393.434 118.89 393.439 118.69 393.403C118.491 393.368 118.3 393.294 118.13 393.184C117.959 393.075 117.812 392.933 117.697 392.766V392.782ZM120.375 398.478C120.349 398.451 120.325 398.422 120.303 398.391C120.236 398.305 120.2 398.199 120.2 398.089C120.2 397.98 120.236 397.874 120.303 397.788L125.865 391.442C125.943 391.355 125.99 391.244 125.997 391.127C126.005 391.011 125.972 390.895 125.905 390.799L103.658 359.48C103.59 359.377 103.485 359.302 103.365 359.271C103.244 359.241 103.117 359.256 103.007 359.314L95.5382 362.931C95.4809 362.959 95.4185 362.976 95.3546 362.98C95.2907 362.985 95.2267 362.976 95.1661 362.956C95.1055 362.935 95.0496 362.902 95.0017 362.86C94.9537 362.818 94.9147 362.766 94.8867 362.709C94.8314 362.593 94.8237 362.46 94.8652 362.338C94.9068 362.217 94.9944 362.116 95.1092 362.058L102.578 358.433C102.897 358.278 103.261 358.242 103.604 358.331C103.948 358.419 104.249 358.627 104.453 358.917L126.699 390.236C126.893 390.51 126.988 390.841 126.971 391.177C126.954 391.512 126.824 391.831 126.604 392.084L121.002 398.431C120.918 398.508 120.809 398.554 120.694 398.559C120.58 398.565 120.467 398.531 120.375 398.462V398.478ZM134.787 395.115C134.539 395.287 134.233 395.355 133.935 395.303C133.638 395.251 133.373 395.083 133.198 394.837L102.586 351.77C102.412 351.523 102.343 351.218 102.393 350.921C102.444 350.623 102.61 350.358 102.856 350.183L120.422 337.728C120.671 337.558 120.977 337.491 121.274 337.543C121.571 337.595 121.836 337.761 122.011 338.006L152.624 381.073C152.798 381.32 152.867 381.625 152.816 381.922C152.766 382.219 152.6 382.485 152.354 382.66L134.787 395.115Z" fill="black"/>
<path d="M141.771 377.813L121.503 349.255C121.326 349.005 121.101 348.792 120.841 348.629C120.581 348.465 120.292 348.355 119.989 348.303C119.687 348.252 119.377 348.26 119.078 348.328C118.779 348.396 118.496 348.522 118.245 348.699L110.856 353.935C110.361 354.3 110.026 354.843 109.922 355.45C109.819 356.056 109.954 356.679 110.3 357.188L130.576 385.746C130.753 385.997 130.978 386.21 131.237 386.374C131.497 386.538 131.786 386.649 132.089 386.701C132.392 386.752 132.702 386.744 133.002 386.675C133.301 386.606 133.584 386.479 133.834 386.301L141.223 381.065C141.727 380.707 142.069 380.163 142.172 379.553C142.274 378.943 142.13 378.317 141.771 377.813ZM121.114 354.919C121.491 355.453 121.701 356.087 121.717 356.741C121.734 357.395 121.556 358.039 121.206 358.591C120.856 359.144 120.35 359.581 119.752 359.847C119.154 360.113 118.49 360.195 117.844 360.085C117.199 359.974 116.601 359.675 116.126 359.225C115.65 358.775 115.319 358.194 115.174 357.557C115.03 356.919 115.077 356.253 115.311 355.642C115.545 355.031 115.955 354.504 116.49 354.126C116.847 353.87 117.251 353.688 117.679 353.589C118.107 353.491 118.55 353.478 118.983 353.552C119.416 353.625 119.83 353.784 120.202 354.019C120.573 354.254 120.893 354.56 121.145 354.919H121.114ZM132.038 371.356L127.978 374.227C127.88 374.295 127.759 374.322 127.642 374.301C127.524 374.28 127.419 374.214 127.351 374.116L120.2 364.073C120.165 364.026 120.14 363.971 120.126 363.914C120.112 363.856 120.11 363.797 120.12 363.738C120.129 363.68 120.15 363.624 120.182 363.574C120.213 363.524 120.255 363.481 120.303 363.447L124.355 360.567C124.455 360.499 124.577 360.472 124.696 360.493C124.815 360.514 124.921 360.58 124.991 360.678L132.141 370.721C132.216 370.815 132.251 370.934 132.237 371.053C132.224 371.172 132.164 371.281 132.07 371.356H132.038ZM130.894 380.121C130.517 379.587 130.307 378.953 130.29 378.299C130.274 377.645 130.452 377.002 130.801 376.449C131.151 375.896 131.657 375.459 132.256 375.193C132.854 374.928 133.518 374.845 134.163 374.956C134.809 375.066 135.407 375.366 135.882 375.816C136.357 376.266 136.688 376.846 136.833 377.484C136.978 378.121 136.931 378.788 136.697 379.398C136.463 380.009 136.052 380.537 135.518 380.915C134.802 381.413 133.919 381.609 133.059 381.461C132.199 381.312 131.432 380.831 130.926 380.121H130.894Z" fill="black"/>
<path d="M121.13 341.552L148.969 380.716" stroke="black" stroke-width="1.4" stroke-miterlimit="10" stroke-linecap="round"/>
<path d="M125.081 318.39L106.341 355.001L158.284 381.506L177.024 344.895L125.081 318.39Z" fill="white"/>
<path d="M177.016 344.884L125.07 318.388C124.382 318.039 123.583 317.976 122.849 318.214C122.115 318.452 121.505 318.971 121.153 319.657L105.073 351.079C104.722 351.767 104.658 352.565 104.895 353.299C105.131 354.033 105.649 354.644 106.336 354.998L158.281 381.486C158.969 381.835 159.768 381.898 160.502 381.66C161.237 381.422 161.846 380.903 162.198 380.217L178.279 348.795C178.627 348.108 178.69 347.312 178.453 346.58C178.217 345.847 177.7 345.238 177.016 344.884ZM118.913 359.774C118.641 359.636 118.415 359.421 118.266 359.155C118.116 358.889 118.049 358.585 118.073 358.281C118.097 357.977 118.21 357.687 118.4 357.447C118.589 357.208 118.845 357.03 119.136 356.936C119.426 356.843 119.738 356.837 120.032 356.921C120.325 357.004 120.588 357.173 120.785 357.406C120.983 357.638 121.106 357.924 121.141 358.227C121.175 358.53 121.119 358.837 120.979 359.107C120.792 359.468 120.47 359.74 120.083 359.865C119.696 359.99 119.276 359.957 118.913 359.774ZM126.858 361.59C126.803 361.697 126.728 361.792 126.637 361.87C126.545 361.948 126.439 362.007 126.325 362.044C126.21 362.081 126.09 362.095 125.97 362.085C125.85 362.075 125.734 362.042 125.627 361.987L124.618 361.471C124.511 361.418 124.416 361.343 124.338 361.253C124.26 361.162 124.201 361.057 124.164 360.943C124.127 360.83 124.113 360.71 124.123 360.591C124.132 360.472 124.166 360.356 124.22 360.25L124.626 359.456C124.737 359.242 124.929 359.08 125.16 359.006C125.39 358.932 125.641 358.951 125.857 359.06L126.866 359.575C126.973 359.63 127.068 359.705 127.146 359.797C127.224 359.888 127.283 359.994 127.32 360.108C127.357 360.222 127.371 360.343 127.361 360.462C127.352 360.582 127.318 360.698 127.263 360.805L126.858 361.59ZM143.543 370.182C143.431 370.394 143.24 370.554 143.012 370.628C142.783 370.702 142.535 370.684 142.319 370.578L141.302 370.063C141.089 369.949 140.928 369.758 140.854 369.528C140.78 369.299 140.798 369.049 140.905 368.833L141.318 368.04C141.429 367.826 141.619 367.664 141.848 367.59C142.077 367.516 142.327 367.535 142.542 367.643L143.559 368.159C143.773 368.271 143.936 368.462 144.01 368.692C144.084 368.922 144.065 369.172 143.956 369.388L143.543 370.182ZM147.023 374.148C146.751 374.01 146.527 373.795 146.378 373.529C146.229 373.264 146.162 372.96 146.186 372.657C146.209 372.353 146.323 372.064 146.511 371.825C146.7 371.586 146.955 371.408 147.245 371.313C147.535 371.219 147.846 371.213 148.14 371.295C148.433 371.378 148.695 371.545 148.893 371.776C149.092 372.007 149.217 372.292 149.253 372.594C149.289 372.896 149.235 373.202 149.097 373.474C149.007 373.657 148.882 373.821 148.728 373.955C148.575 374.09 148.396 374.193 148.202 374.258C148.008 374.323 147.804 374.349 147.6 374.334C147.396 374.319 147.197 374.264 147.015 374.172L147.023 374.148ZM152.036 377.956L151.933 377.916C151.835 377.867 151.756 377.786 151.71 377.687C151.664 377.587 151.653 377.475 151.679 377.369L153.689 369.135C153.718 369.021 153.706 368.9 153.657 368.794C153.608 368.687 153.524 368.6 153.419 368.547L119.167 351.095C119.059 351.037 118.933 351.021 118.813 351.049C118.693 351.076 118.588 351.146 118.516 351.246L113.574 357.91C113.537 357.966 113.49 358.014 113.434 358.051C113.378 358.088 113.316 358.113 113.25 358.126C113.184 358.138 113.116 358.136 113.051 358.122C112.986 358.107 112.924 358.079 112.87 358.039C112.816 358 112.77 357.95 112.736 357.892C112.702 357.835 112.68 357.771 112.672 357.704C112.663 357.638 112.669 357.571 112.687 357.506C112.705 357.442 112.737 357.382 112.779 357.33L117.721 350.667C117.931 350.382 118.236 350.181 118.581 350.099C118.926 350.018 119.289 350.062 119.604 350.223L153.856 367.675C154.161 367.824 154.406 368.073 154.55 368.38C154.695 368.687 154.73 369.035 154.65 369.365L152.64 377.599C152.628 377.667 152.602 377.731 152.564 377.788C152.525 377.845 152.475 377.893 152.416 377.929C152.358 377.965 152.292 377.988 152.224 377.997C152.156 378.006 152.086 378 152.02 377.98L152.036 377.956ZM163.255 368.309C163.116 368.577 162.877 368.778 162.589 368.87C162.302 368.963 161.99 368.938 161.721 368.801L114.623 344.773C114.354 344.635 114.15 344.397 114.056 344.11C113.962 343.823 113.986 343.511 114.122 343.242L123.926 324.084C124.065 323.817 124.305 323.615 124.592 323.523C124.879 323.431 125.191 323.456 125.46 323.592L172.559 347.621C172.828 347.758 173.031 347.996 173.125 348.283C173.219 348.57 173.195 348.882 173.059 349.152L163.255 368.309Z" fill="black"/>
<path d="M161.427 349.755L130.235 333.889C129.677 333.609 129.032 333.559 128.438 333.749C127.844 333.939 127.348 334.353 127.057 334.904L122.933 342.964C122.788 343.238 122.699 343.539 122.672 343.848C122.645 344.157 122.679 344.468 122.774 344.764C122.869 345.059 123.021 345.333 123.223 345.569C123.425 345.805 123.672 345.998 123.95 346.137L155.198 361.995C155.473 362.14 155.774 362.229 156.084 362.256C156.393 362.283 156.705 362.248 157.001 362.154C157.297 362.059 157.571 361.907 157.807 361.705C158.043 361.503 158.237 361.257 158.376 360.98L162.444 352.928C162.724 352.371 162.775 351.727 162.585 351.134C162.395 350.541 161.979 350.045 161.427 349.755ZM132.523 338.998C133.107 339.295 133.589 339.758 133.909 340.329C134.229 340.9 134.372 341.553 134.32 342.205C134.268 342.858 134.024 343.48 133.618 343.993C133.212 344.507 132.663 344.889 132.04 345.091C131.416 345.293 130.747 345.306 130.117 345.128C129.486 344.95 128.922 344.589 128.497 344.092C128.072 343.594 127.804 342.982 127.727 342.332C127.65 341.682 127.768 341.024 128.066 340.441C128.265 340.056 128.539 339.714 128.871 339.435C129.203 339.156 129.587 338.944 130.001 338.813C130.415 338.682 130.851 338.634 131.284 338.671C131.716 338.708 132.137 338.83 132.523 339.029V338.998ZM149.827 348.517L147.563 352.936C147.536 352.989 147.499 353.036 147.453 353.075C147.408 353.114 147.355 353.143 147.298 353.161C147.241 353.178 147.181 353.185 147.121 353.179C147.061 353.173 147.004 353.155 146.951 353.126L135.971 347.525C135.918 347.499 135.871 347.463 135.832 347.418C135.793 347.374 135.763 347.322 135.745 347.266C135.726 347.21 135.719 347.15 135.724 347.091C135.729 347.032 135.745 346.975 135.773 346.923L138.037 342.496C138.064 342.443 138.102 342.397 138.148 342.359C138.194 342.321 138.246 342.292 138.303 342.274C138.36 342.257 138.42 342.25 138.479 342.256C138.538 342.261 138.596 342.278 138.649 342.306L149.637 347.938C149.742 347.995 149.82 348.091 149.856 348.205C149.891 348.319 149.881 348.442 149.827 348.549V348.517ZM152.878 356.815C152.296 356.516 151.815 356.051 151.497 355.479C151.179 354.908 151.038 354.255 151.092 353.603C151.145 352.951 151.391 352.33 151.798 351.818C152.205 351.305 152.755 350.925 153.378 350.724C154.001 350.524 154.67 350.512 155.3 350.691C155.93 350.87 156.493 351.232 156.917 351.73C157.342 352.228 157.609 352.84 157.684 353.49C157.76 354.139 157.642 354.797 157.344 355.379C157.148 355.769 156.877 356.117 156.546 356.402C156.216 356.687 155.832 356.904 155.417 357.04C155.002 357.177 154.564 357.23 154.128 357.197C153.693 357.163 153.268 357.044 152.878 356.847V356.815Z" fill="black"/>
<path d="M126.318 327.186L169.15 349.041" stroke="black" stroke-width="1.4" stroke-miterlimit="10" stroke-linecap="round"/>
<path d="M111.5 471V369.483L28.3462 332.62V434.303L111.5 471Z" fill="white" stroke="black" stroke-width="3" stroke-linecap="round" stroke-linejoin="round"/>
<path d="M111.5 471V369.483L194.654 332.62V434.303L111.5 471Z" fill="white" stroke="black" stroke-width="3" stroke-linecap="round" stroke-linejoin="round"/>
<path d="M221 363.415L140.826 400.231L111.5 369.483L194.654 332.62L221 363.415Z" fill="white" stroke="black" stroke-width="3" stroke-linecap="round" stroke-linejoin="round"/>
<path d="M2 363.415L82.1744 400.231L111.5 369.483L28.3461 332.62L2 363.415Z" fill="white" stroke="black" stroke-width="3" stroke-linecap="round" stroke-linejoin="round"/>
<path d="M81.2258 69.6513L164 32.7477L246.774 69.6513L164 106.483L81.2258 69.6513Z" fill="white" stroke="#F2F4FB" stroke-width="3" stroke-linecap="round" stroke-linejoin="round"/>
<path d="M273 38.8242L193.192 2L164 32.7477L246.774 69.6195L273 38.8242Z" fill="white" stroke="black" stroke-width="3" stroke-linecap="round" stroke-linejoin="round"/>
<path d="M55 38.8242L134.808 2L164 32.7477L81.2258 69.6195L55 38.8242Z" fill="white" stroke="black" stroke-width="3" stroke-linecap="round" stroke-linejoin="round"/>
<path d="M96.0628 167.979L94.6629 109.791L75.6421 46.6699L112.26 38.3087L140.424 24.561L154.493 78.0839L156.874 141.674L133.543 158.507L96.0628 167.979Z" fill="white" stroke="#1D1D1B" stroke-width="2" stroke-linecap="round" stroke-linejoin="round"/>
<path d="M100.223 108.078L131.732 98.6299L149.709 86.8893" fill="white"/>
<path d="M100.223 108.078L131.732 98.6299L149.709 86.8893" stroke="#1D1D1B" stroke-width="2" stroke-linecap="round" stroke-linejoin="round"/>
<path d="M114.111 42.5289L129.375 94.0765" stroke="#1D1D1B" stroke-width="2" stroke-linecap="round" stroke-linejoin="round"/>
<path d="M131.969 103.334L133.875 149.725" stroke="#1D1D1B" stroke-width="2" stroke-linecap="round" stroke-linejoin="round"/>
<path d="M83.0845 52.0166L90.0364 75.7992L106.716 71.0078L100.46 47.9153L83.0845 52.0166Z" fill="white" stroke="#1D1D1B" stroke-width="2" stroke-linecap="round" stroke-linejoin="round"/>
<path d="M91.7683 80.9001L107.76 76.0769" stroke="#1D1D1B" stroke-width="2" stroke-linecap="round" stroke-linejoin="round"/>
<path d="M92.6382 84.5332L108.63 79.718" stroke="#1D1D1B" stroke-width="2" stroke-linecap="round" stroke-linejoin="round"/>
<path d="M94.22 87.9523L110.212 83.1371" stroke="#1D1D1B" stroke-width="2" stroke-linecap="round" stroke-linejoin="round"/>
<path d="M95.011 91.6966L111.003 86.8813" stroke="#1D1D1B" stroke-width="2" stroke-linecap="round" stroke-linejoin="round"/>
<path d="M136.793 103.334L150.42 95.1316" stroke="#1D1D1B" stroke-width="2" stroke-linecap="round" stroke-linejoin="round"/>
<path d="M136.793 108.229L150.42 100.026" stroke="#1D1D1B" stroke-width="2" stroke-linecap="round" stroke-linejoin="round"/>
<path d="M136.793 112.973L150.42 104.77" stroke="#1D1D1B" stroke-width="2" stroke-linecap="round" stroke-linejoin="round"/>
<path d="M136.793 118.018L150.42 109.815" stroke="#1D1D1B" stroke-width="2" stroke-linecap="round" stroke-linejoin="round"/>
<path d="M136.786 124.364L137.711 144.863L152.192 135.391L151.354 115.114L136.786 124.364Z" fill="white" stroke="#1D1D1B" stroke-width="2" stroke-linecap="round" stroke-linejoin="round"/>
<path d="M118.263 42.5289L126.583 38.5308" stroke="#1D1D1B" stroke-width="2" stroke-linecap="round" stroke-linejoin="round"/>
<path d="M119.37 46.2573L127.69 42.2592" stroke="#1D1D1B" stroke-width="2" stroke-linecap="round" stroke-linejoin="round"/>
<path d="M120.636 49.9144L128.956 45.9163" stroke="#1D1D1B" stroke-width="2" stroke-linecap="round" stroke-linejoin="round"/>
<path d="M121.925 53.6666L130.245 49.6685" stroke="#1D1D1B" stroke-width="2" stroke-linecap="round" stroke-linejoin="round"/>
<path d="M134.666 52.9844L142.986 48.9862" stroke="#1D1D1B" stroke-width="2" stroke-linecap="round" stroke-linejoin="round"/>
<path d="M135.773 56.7127L144.093 52.7146" stroke="#1D1D1B" stroke-width="2" stroke-linecap="round" stroke-linejoin="round"/>
<path d="M137.039 60.3699L145.359 56.3717" stroke="#1D1D1B" stroke-width="2" stroke-linecap="round" stroke-linejoin="round"/>
<path d="M138.328 64.1221L146.648 60.1239" stroke="#1D1D1B" stroke-width="2" stroke-linecap="round" stroke-linejoin="round"/>
<path d="M123.277 58.1963L131.597 54.1981" stroke="#1D1D1B" stroke-width="2" stroke-linecap="round" stroke-linejoin="round"/>
<path d="M124.385 61.9326L132.705 57.9344" stroke="#1D1D1B" stroke-width="2" stroke-linecap="round" stroke-linejoin="round"/>
<path d="M125.65 65.5818L133.97 61.5836" stroke="#1D1D1B" stroke-width="2" stroke-linecap="round" stroke-linejoin="round"/>
<path d="M126.939 69.334L135.259 65.3358" stroke="#1D1D1B" stroke-width="2" stroke-linecap="round" stroke-linejoin="round"/>
<path d="M103.062 47.6614L111.999 45.3767" stroke="#1D1D1B" stroke-width="2" stroke-linecap="round" stroke-linejoin="round"/>
<path d="M104.478 51.5168L113.415 49.2322" stroke="#1D1D1B" stroke-width="2" stroke-linecap="round" stroke-linejoin="round"/>
<path d="M105.277 55.3484L114.222 53.0558" stroke="#1D1D1B" stroke-width="2" stroke-linecap="round" stroke-linejoin="round"/>
<path d="M106.74 59.3069L115.677 57.0222" stroke="#1D1D1B" stroke-width="2" stroke-linecap="round" stroke-linejoin="round"/>
<path d="M107.531 62.8766L116.468 60.584" stroke="#1D1D1B" stroke-width="2" stroke-linecap="round" stroke-linejoin="round"/>
<path d="M108.116 66.6686L117.053 64.376" stroke="#1D1D1B" stroke-width="2" stroke-linecap="round" stroke-linejoin="round"/>
<path d="M109.484 70.0321L118.421 67.7395" stroke="#1D1D1B" stroke-width="2" stroke-linecap="round" stroke-linejoin="round"/>
<path d="M110.805 73.3718L119.75 71.0872" stroke="#1D1D1B" stroke-width="2" stroke-linecap="round" stroke-linejoin="round"/>
<path d="M133.97 48.5499L141.65 44.8136L138.518 31.8196L130.458 35.7146L133.97 48.5499Z" fill="white" stroke="#1D1D1B" stroke-width="2" stroke-linecap="round" stroke-linejoin="round"/>
<path d="M131.597 86.3499L139.277 82.6056L136.145 69.6195L128.086 73.5145L131.597 86.3499Z" fill="white" stroke="#1D1D1B" stroke-width="2" stroke-linecap="round" stroke-linejoin="round"/>
<path d="M101.488 113.615L110.473 111.505" stroke="#1D1D1B" stroke-width="2" stroke-linecap="round" stroke-linejoin="round"/>
<path d="M101.488 117.566L110.75 115.392" stroke="#1D1D1B" stroke-width="2" stroke-linecap="round" stroke-linejoin="round"/>
<path d="M101.045 121.611L111.2 119.232" stroke="#1D1D1B" stroke-width="2" stroke-linecap="round" stroke-linejoin="round"/>
<path d="M101.488 125.562L111.659 123.174" stroke="#1D1D1B" stroke-width="2" stroke-linecap="round" stroke-linejoin="round"/>
<path d="M115.266 127.363L124.25 125.26" stroke="#1D1D1B" stroke-width="2" stroke-linecap="round" stroke-linejoin="round"/>
<path d="M115.542 131.25L124.527 129.14" stroke="#1D1D1B" stroke-width="2" stroke-linecap="round" stroke-linejoin="round"/>
<path d="M115.993 135.089L124.978 132.987" stroke="#1D1D1B" stroke-width="2" stroke-linecap="round" stroke-linejoin="round"/>
<path d="M116.452 139.032L125.428 136.922" stroke="#1D1D1B" stroke-width="2" stroke-linecap="round" stroke-linejoin="round"/>
<path d="M101.488 130.361L112.007 127.894" stroke="#1D1D1B" stroke-width="2" stroke-linecap="round" stroke-linejoin="round"/>
<path d="M101.773 134.455L112.284 131.773" stroke="#1D1D1B" stroke-width="2" stroke-linecap="round" stroke-linejoin="round"/>
<path d="M102.224 138.088L112.743 135.621" stroke="#1D1D1B" stroke-width="2" stroke-linecap="round" stroke-linejoin="round"/>
<path d="M102.224 142.134L113.193 139.563" stroke="#1D1D1B" stroke-width="2" stroke-linecap="round" stroke-linejoin="round"/>
<path d="M115.534 122.888L123.839 120.889L123.562 107.531L114.854 109.593L115.534 122.888Z" fill="white" stroke="#1D1D1B" stroke-width="2" stroke-linecap="round" stroke-linejoin="round"/>
<path d="M103.307 159.681L127.081 154.445L126.805 141.086L102.675 146.378L103.307 159.681Z" fill="white" stroke="#1D1D1B" stroke-width="2" stroke-linecap="round" stroke-linejoin="round"/>
<path d="M140.107 5.36353L138.715 63.5509L119.687 126.68L156.305 135.034L184.468 148.781L198.546 95.2664L200.918 31.6688L177.587 14.8353L140.107 5.36353Z" fill="white" stroke="#1D1D1B" stroke-width="2" stroke-linecap="round" stroke-linejoin="round"/>
<path d="M144.275 65.2723L175.784 74.7124L193.753 86.453" fill="white"/>
<path d="M144.275 65.2723L175.784 74.7124L193.753 86.453" stroke="#1D1D1B" stroke-width="2" stroke-linecap="round" stroke-linejoin="round"/>
<path d="M158.155 130.813L173.427 79.2659" stroke="#1D1D1B" stroke-width="2" stroke-linecap="round" stroke-linejoin="round"/>
<path d="M176.014 70.0082L177.92 23.6169" stroke="#1D1D1B" stroke-width="2" stroke-linecap="round" stroke-linejoin="round"/>
<path d="M127.129 121.326L134.081 97.5431L150.761 102.342L144.505 125.427L127.129 121.326Z" fill="white" stroke="#1D1D1B" stroke-width="2" stroke-linecap="round" stroke-linejoin="round"/>
<path d="M135.813 92.4502L151.804 97.2654" stroke="#1D1D1B" stroke-width="2" stroke-linecap="round" stroke-linejoin="round"/>
<path d="M136.683 88.8091L152.675 93.6243" stroke="#1D1D1B" stroke-width="2" stroke-linecap="round" stroke-linejoin="round"/>
<path d="M138.265 85.3979L154.256 90.2132" stroke="#1D1D1B" stroke-width="2" stroke-linecap="round" stroke-linejoin="round"/>
<path d="M139.055 81.6458L155.047 86.4689" stroke="#1D1D1B" stroke-width="2" stroke-linecap="round" stroke-linejoin="round"/>
<path d="M180.838 70.0083L194.473 78.2109" stroke="#1D1D1B" stroke-width="2" stroke-linecap="round" stroke-linejoin="round"/>
<path d="M180.838 65.1136L194.473 73.3162" stroke="#1D1D1B" stroke-width="2" stroke-linecap="round" stroke-linejoin="round"/>
<path d="M180.838 60.3699L194.473 68.5804" stroke="#1D1D1B" stroke-width="2" stroke-linecap="round" stroke-linejoin="round"/>
<path d="M180.838 55.3246L194.473 63.5271" stroke="#1D1D1B" stroke-width="2" stroke-linecap="round" stroke-linejoin="round"/>
<path d="M180.838 48.9862L181.755 28.4799L196.236 37.9517L195.398 58.2359L180.838 48.9862Z" fill="white" stroke="#1D1D1B" stroke-width="2" stroke-linecap="round" stroke-linejoin="round"/>
<path d="M162.308 130.813L170.628 134.812" stroke="#1D1D1B" stroke-width="2" stroke-linecap="round" stroke-linejoin="round"/>
<path d="M163.415 127.085L171.735 131.083" stroke="#1D1D1B" stroke-width="2" stroke-linecap="round" stroke-linejoin="round"/>
<path d="M164.68 123.428L173 127.426" stroke="#1D1D1B" stroke-width="2" stroke-linecap="round" stroke-linejoin="round"/>
<path d="M165.969 119.676L174.289 123.674" stroke="#1D1D1B" stroke-width="2" stroke-linecap="round" stroke-linejoin="round"/>
<path d="M178.71 120.358L187.031 124.356" stroke="#1D1D1B" stroke-width="2" stroke-linecap="round" stroke-linejoin="round"/>
<path d="M179.818 116.63L188.138 120.628" stroke="#1D1D1B" stroke-width="2" stroke-linecap="round" stroke-linejoin="round"/>
<path d="M181.083 112.973L189.403 116.971" stroke="#1D1D1B" stroke-width="2" stroke-linecap="round" stroke-linejoin="round"/>
<path d="M182.372 109.22L190.692 113.218" stroke="#1D1D1B" stroke-width="2" stroke-linecap="round" stroke-linejoin="round"/>
<path d="M167.33 115.146L175.65 119.144" stroke="#1D1D1B" stroke-width="2" stroke-linecap="round" stroke-linejoin="round"/>
<path d="M168.437 111.418L176.749 115.416" stroke="#1D1D1B" stroke-width="2" stroke-linecap="round" stroke-linejoin="round"/>
<path d="M169.702 107.761L178.023 111.759" stroke="#1D1D1B" stroke-width="2" stroke-linecap="round" stroke-linejoin="round"/>
<path d="M170.991 104.008L179.304 108.007" stroke="#1D1D1B" stroke-width="2" stroke-linecap="round" stroke-linejoin="round"/>
<path d="M147.107 125.681L156.044 127.966" stroke="#1D1D1B" stroke-width="2" stroke-linecap="round" stroke-linejoin="round"/>
<path d="M148.522 121.826L157.459 124.11" stroke="#1D1D1B" stroke-width="2" stroke-linecap="round" stroke-linejoin="round"/>
<path d="M149.329 118.002L158.266 120.287" stroke="#1D1D1B" stroke-width="2" stroke-linecap="round" stroke-linejoin="round"/>
<path d="M150.784 114.036L159.721 116.328" stroke="#1D1D1B" stroke-width="2" stroke-linecap="round" stroke-linejoin="round"/>
<path d="M151.575 110.474L160.512 112.758" stroke="#1D1D1B" stroke-width="2" stroke-linecap="round" stroke-linejoin="round"/>
<path d="M152.16 106.674L161.097 108.966" stroke="#1D1D1B" stroke-width="2" stroke-linecap="round" stroke-linejoin="round"/>
<path d="M153.537 103.31L162.474 105.603" stroke="#1D1D1B" stroke-width="2" stroke-linecap="round" stroke-linejoin="round"/>
<path d="M154.857 99.9706L163.794 102.263" stroke="#1D1D1B" stroke-width="2" stroke-linecap="round" stroke-linejoin="round"/>
<path d="M178.014 124.792L185.702 128.537L182.562 141.523L174.503 137.628L178.014 124.792Z" fill="white" stroke="#1D1D1B" stroke-width="2" stroke-linecap="round" stroke-linejoin="round"/>
<path d="M175.642 87.0004L183.329 90.7367L180.19 103.731L172.13 99.8357L175.642 87.0004Z" fill="white" stroke="#1D1D1B" stroke-width="2" stroke-linecap="round" stroke-linejoin="round"/>
<path d="M145.541 59.7352L154.517 61.8374" stroke="#1D1D1B" stroke-width="2" stroke-linecap="round" stroke-linejoin="round"/>
<path d="M145.541 55.7847L154.794 57.9583" stroke="#1D1D1B" stroke-width="2" stroke-linecap="round" stroke-linejoin="round"/>
<path d="M145.098 51.731L155.253 54.1108" stroke="#1D1D1B" stroke-width="2" stroke-linecap="round" stroke-linejoin="round"/>
<path d="M145.541 47.7883L155.704 50.1682" stroke="#1D1D1B" stroke-width="2" stroke-linecap="round" stroke-linejoin="round"/>
<path d="M159.31 45.9796L168.295 48.0898" stroke="#1D1D1B" stroke-width="2" stroke-linecap="round" stroke-linejoin="round"/>
<path d="M159.587 42.0925L168.571 44.2027" stroke="#1D1D1B" stroke-width="2" stroke-linecap="round" stroke-linejoin="round"/>
<path d="M160.046 38.2531L169.022 40.3632" stroke="#1D1D1B" stroke-width="2" stroke-linecap="round" stroke-linejoin="round"/>
<path d="M160.496 34.3104L169.473 36.4206" stroke="#1D1D1B" stroke-width="2" stroke-linecap="round" stroke-linejoin="round"/>
<path d="M145.541 42.9811L156.052 45.4561" stroke="#1D1D1B" stroke-width="2" stroke-linecap="round" stroke-linejoin="round"/>
<path d="M145.817 38.8877L156.336 41.569" stroke="#1D1D1B" stroke-width="2" stroke-linecap="round" stroke-linejoin="round"/>
<path d="M146.268 35.2545L156.787 37.7296" stroke="#1D1D1B" stroke-width="2" stroke-linecap="round" stroke-linejoin="round"/>
<path d="M146.268 31.2087L157.238 33.7869" stroke="#1D1D1B" stroke-width="2" stroke-linecap="round" stroke-linejoin="round"/>
<path d="M159.587 50.4537L167.883 52.4528L167.614 65.8117L158.907 63.7492L159.587 50.4537Z" fill="white" stroke="#1D1D1B" stroke-width="2" stroke-linecap="round" stroke-linejoin="round"/>
<path d="M147.352 13.6613L171.126 18.9049L170.849 32.2638L146.719 26.9726L147.352 13.6613Z" fill="white" stroke="#1D1D1B" stroke-width="2" stroke-linecap="round" stroke-linejoin="round"/>
<path d="M141.46 47.9471L184.619 29.0352L182.855 114.789L139.688 133.693L141.46 47.9471Z" fill="white" stroke="#1D1D1B" stroke-width="2" stroke-linecap="round" stroke-linejoin="round"/>
<path d="M142.504 49.121L186.453 29.868L184.69 115.4L140.748 134.653L142.504 49.121Z" fill="white" stroke="#1D1D1B" stroke-linecap="round" stroke-linejoin="round"/>
<path d="M143.785 50.2316L187.727 30.9786L185.971 116.503L142.021 135.756L143.785 50.2316Z" fill="white" stroke="#1D1D1B" stroke-linecap="round" stroke-linejoin="round"/>
<path d="M145.817 51.1757L189.759 31.9307L188.003 117.248L144.054 136.501L145.817 51.1757Z" fill="white" stroke="#1D1D1B" stroke-linecap="round" stroke-linejoin="round"/>
<path d="M147.858 52.1118L191.808 32.8588L190.052 118.367L146.102 137.62L147.858 52.1118Z" fill="white" stroke="#1D1D1B" stroke-linecap="round" stroke-linejoin="round"/>
<path d="M150.207 52.794L193.374 33.89L191.61 119.636L148.443 138.548L150.207 52.794Z" fill="white" stroke="#1D1D1B" stroke-width="2" stroke-linecap="round" stroke-linejoin="round"/>
<path d="M150.207 52.794L148.443 138.548C148.443 138.548 142.116 139.103 139.672 134.431L141.452 47.9629C141.452 47.9629 142.939 52.6988 150.207 52.794Z" fill="white" stroke="#1D1D1B" stroke-width="2" stroke-linecap="round" stroke-linejoin="round"/>
<path d="M152.524 50.0175L194.085 27.7897L198.989 113.417L157.428 135.645L152.524 50.0175Z" fill="white" stroke="#1D1D1B" stroke-width="2" stroke-linecap="round" stroke-linejoin="round"/>
<path d="M153.663 51.1043L195.976 28.4719L200.871 113.885L158.551 136.509L153.663 51.1043Z" fill="white" stroke="#1D1D1B" stroke-linecap="round" stroke-linejoin="round"/>
<path d="M155.016 52.1118L197.336 29.4794L202.224 114.884L159.903 137.517L155.016 52.1118Z" fill="white" stroke="#1D1D1B" stroke-linecap="round" stroke-linejoin="round"/>
<path d="M157.119 52.8972L199.432 30.2648L204.311 115.463L161.999 138.096L157.119 52.8972Z" fill="white" stroke="#1D1D1B" stroke-linecap="round" stroke-linejoin="round"/>
<path d="M159.231 53.6666L201.551 31.0342L206.439 116.423L164.119 139.056L159.231 53.6666Z" fill="white" stroke="#1D1D1B" stroke-linecap="round" stroke-linejoin="round"/>
<path d="M161.627 54.1664L203.189 31.9386L208.092 117.566L166.531 139.793L161.627 54.1664Z" fill="white" stroke="#1D1D1B" stroke-width="2" stroke-linecap="round" stroke-linejoin="round"/>
<path d="M161.627 54.1663L166.531 139.793C166.531 139.793 160.283 140.841 157.459 136.374L152.516 50.0016C152.516 50.0016 154.367 54.6423 161.627 54.1663Z" fill="white" stroke="#1D1D1B" stroke-width="2" stroke-linecap="round" stroke-linejoin="round"/>
<path d="M193.073 53.968L238.976 43.3698L221.466 127.323L175.563 137.921L193.073 53.968Z" fill="white" stroke="#1D1D1B" stroke-width="2" stroke-linecap="round" stroke-linejoin="round"/>
<path d="M193.888 55.3166L240.621 44.528L223.158 128.259L176.425 139.056L193.888 55.3166Z" fill="white" stroke="#1D1D1B" stroke-linecap="round" stroke-linejoin="round"/>
<path d="M194.94 56.6414L241.673 45.8528L224.21 129.584L177.477 140.373L194.94 56.6414Z" fill="white" stroke="#1D1D1B" stroke-linecap="round" stroke-linejoin="round"/>
<path d="M196.759 57.9503L243.492 47.1616L226.077 130.687L179.343 141.483L196.759 57.9503Z" fill="white" stroke="#F2F4FB" stroke-linecap="round" stroke-linejoin="round"/>
<path d="M198.601 59.2434L245.335 48.4547L227.88 132.17L181.146 142.967L198.601 59.2434Z" fill="white" stroke="#1D1D1B" stroke-linecap="round" stroke-linejoin="round"/>
<path d="M200.784 60.354L246.679 49.7557L229.177 133.709L183.274 144.307L200.784 60.354Z" fill="white" stroke="#1D1D1B" stroke-width="2" stroke-linecap="round" stroke-linejoin="round"/>
<path d="M200.784 60.354L183.274 144.307C183.274 144.307 176.947 143.681 175.413 138.635L193.065 53.9521C193.065 53.9521 193.658 58.9181 200.784 60.354Z" fill="white" stroke="#1D1D1B" stroke-width="2" stroke-linecap="round" stroke-linejoin="round"/>
<path d="M164 208V106.483L81.2258 69.6195V171.303L164 208Z" fill="white" stroke="black" stroke-width="3" stroke-linecap="round" stroke-linejoin="round"/>
<path d="M164 208V106.483L246.774 69.6195V171.303L164 208Z" fill="white" stroke="black" stroke-width="3" stroke-linecap="round" stroke-linejoin="round"/>
<path d="M273 100.415L193.192 137.231L164 106.483L246.774 69.6195L273 100.415Z" fill="white" stroke="black" stroke-width="3" stroke-linecap="round" stroke-linejoin="round"/>
<path d="M55 100.415L134.808 137.231L164 106.483L81.2258 69.6195L55 100.415Z" fill="white" stroke="black" stroke-width="3" stroke-linecap="round" stroke-linejoin="round"/>
</svg>
