<svg width="100" height="100" viewBox="0 0 100 100" fill="none" xmlns="http://www.w3.org/2000/svg">
<circle cx="50" cy="50" r="49.5" stroke="white"/>
<path d="M70.3125 28.125H57.8125C55.2246 28.125 53.125 30.2246 53.125 32.8125V45.3125C53.125 47.9004 55.2246 50 57.8125 50H65.625V56.25C65.625 59.6973 62.8223 62.5 59.375 62.5H58.5938C57.2949 62.5 56.25 63.5449 56.25 64.8438V69.5312C56.25 70.8301 57.2949 71.875 58.5938 71.875H59.375C68.0078 71.875 75 64.8828 75 56.25V32.8125C75 30.2246 72.9004 28.125 70.3125 28.125ZM42.1875 28.125H29.6875C27.0996 28.125 25 30.2246 25 32.8125V45.3125C25 47.9004 27.0996 50 29.6875 50H37.5V56.25C37.5 59.6973 34.6973 62.5 31.25 62.5H30.4688C29.1699 62.5 28.125 63.5449 28.125 64.8438V69.5312C28.125 70.8301 29.1699 71.875 30.4688 71.875H31.25C39.8828 71.875 46.875 64.8828 46.875 56.25V32.8125C46.875 30.2246 44.7754 28.125 42.1875 28.125Z" fill="white"/>
</svg>
