<svg width="116" height="116" viewBox="0 0 116 116" fill="none" xmlns="http://www.w3.org/2000/svg">
<path d="M58 0C26.0188 0 0 26.0188 0 58C0 89.9812 26.0188 116 58 116C89.9812 116 116 89.9812 116 58C116 26.0188 89.9812 0 58 0ZM58 112.133C28.1513 112.133 3.86667 87.8487 3.86667 58C3.86667 28.1513 28.1513 3.86667 58 3.86667C87.8487 3.86667 112.133 28.1513 112.133 58C112.133 87.8487 87.8487 112.133 58 112.133Z" fill="white"/>
<path d="M44.7857 16.354C45.8239 16.1027 46.4638 15.0587 46.2144 14.0224C45.965 12.9842 44.9191 12.3481 43.8828 12.5937C36.2751 14.4226 29.3403 18.3067 23.8225 23.8244C18.3048 29.3421 14.4227 36.277 12.5937 43.8827C12.3443 44.919 12.9843 45.963 14.0225 46.2143C14.1733 46.2511 14.326 46.2665 14.4749 46.2665C15.3468 46.2665 16.1395 45.6711 16.3541 44.7837C18.0148 37.872 21.5451 31.5674 26.5563 26.5543C31.5675 21.5411 37.874 18.0147 44.7857 16.354Z" fill="white"/>
<path d="M101.978 69.7856C100.937 69.5362 99.8954 70.1742 99.646 71.2143C97.9853 78.126 94.455 84.4306 89.4438 89.4437C84.4326 94.4568 78.1261 97.9852 71.2125 99.6459C70.1743 99.8972 69.5343 100.941 69.7837 101.978C69.9964 102.865 70.791 103.46 71.6629 103.46C71.8118 103.46 71.9645 103.443 72.1153 103.408C79.7249 101.579 86.6598 97.6952 92.1775 92.1774C97.6953 86.6597 101.577 79.7248 103.408 72.1172C103.656 71.0809 103.016 70.0369 101.978 69.7856Z" fill="white"/>
<path d="M47.2738 25.6862C48.3139 25.4446 48.9616 24.4044 48.718 23.3662C48.4763 22.3261 47.4323 21.6688 46.398 21.922C40.424 23.314 34.9836 26.3339 30.6587 30.6607C26.3339 34.9836 23.3121 40.4259 21.9201 46.3999C21.6765 47.4381 22.3241 48.4783 23.3643 48.7199C23.5112 48.7567 23.6581 48.7702 23.8051 48.7702C24.6828 48.7702 25.4774 48.167 25.6862 47.2757C26.9139 42.0074 29.5799 37.2089 33.3925 33.3944C37.205 29.58 42.0074 26.9139 47.2738 25.6862Z" fill="white"/>
<path d="M94.0779 69.6019C94.3215 68.5637 93.6739 67.5236 92.6337 67.2819C91.5936 67.0248 90.5554 67.686 90.3137 68.7261C89.0861 73.9944 86.42 78.793 82.6075 82.6074C78.7949 86.4219 73.9945 89.088 68.7261 90.3137C67.686 90.5554 67.0383 91.5955 67.2819 92.6337C67.4888 93.5269 68.2853 94.1282 69.1631 94.1282C69.3081 94.1282 69.455 94.1127 69.6039 94.0779C75.5779 92.6859 81.0183 89.666 85.3431 85.3392C89.6661 81.0163 92.6859 75.5759 94.0779 69.6019Z" fill="white"/>
<path d="M51.2236 32.7217C50.9936 31.6758 49.9612 31.0223 48.923 31.2466C40.1128 33.1741 33.174 40.1128 31.2465 48.923C31.0184 49.9651 31.6796 50.9956 32.7216 51.2237C32.8608 51.2546 33 51.2682 33.1373 51.2682C34.0266 51.2682 34.8251 50.6534 35.0242 49.7486C36.6308 42.4096 42.4115 36.629 49.7504 35.0224C50.7906 34.7942 51.4518 33.7638 51.2236 32.7217Z" fill="white"/>
<path d="M84.7534 67.0769C84.9816 66.0349 84.3204 65.0044 83.2783 64.7763C82.2343 64.5482 81.2058 65.2055 80.9776 66.2514C79.371 73.5904 73.5904 79.371 66.2514 80.9776C65.2094 81.2057 64.5482 82.2362 64.7763 83.2783C64.9754 84.1831 65.7739 84.7979 66.6632 84.7979C66.8005 84.7979 66.9397 84.7824 67.0789 84.7534C75.8872 82.8259 82.8259 75.8871 84.7534 67.0769Z" fill="white"/>
<path d="M73.6213 58C73.6213 49.387 66.6129 42.3787 57.9999 42.3787C49.3869 42.3787 42.3786 49.387 42.3786 58C42.3786 66.613 49.3869 73.6213 57.9999 73.6213C66.6129 73.6213 73.6213 66.613 73.6213 58ZM57.9999 69.7547C51.5175 69.7547 46.2453 64.4805 46.2453 58C46.2453 51.5195 51.5194 46.2453 57.9999 46.2453C64.4805 46.2453 69.7546 51.5195 69.7546 58C69.7546 64.4805 64.4824 69.7547 57.9999 69.7547Z" fill="white"/>
</svg>
