<svg width="763" height="348" viewBox="0 0 763 348" fill="none" xmlns="http://www.w3.org/2000/svg">
<path d="M26.301 64.3969L103 30.3596L179.699 64.3969L103 98.3683L26.301 64.3969Z" fill="white" stroke="#F2F4FB" stroke-width="3" stroke-linecap="round" stroke-linejoin="round"/>
<path d="M204 35.9641L130.049 2L103 30.3595L179.699 64.3675L204 35.9641Z" fill="white" stroke="black" stroke-width="3" stroke-linecap="round" stroke-linejoin="round"/>
<path d="M2 35.9641L75.9509 2L103 30.3595L26.301 64.3675L2 35.9641Z" fill="white" stroke="black" stroke-width="3" stroke-linecap="round" stroke-linejoin="round"/>
<path d="M40.0491 155.087L38.752 101.419L21.1272 43.2002L55.0577 35.4884L81.1541 22.8086L94.1913 72.1744L96.3972 130.825L74.7784 146.351L40.0491 155.087Z" fill="white" stroke="#1D1D1B" stroke-width="2" stroke-linecap="round" stroke-linejoin="round"/>
<path d="M43.9038 99.8388L73.1001 91.1246L89.7576 80.2959" fill="white"/>
<path d="M43.9038 99.8388L73.1001 91.1246L89.7576 80.2959" stroke="#1D1D1B" stroke-width="2" stroke-linecap="round" stroke-linejoin="round"/>
<path d="M56.7725 39.3811L70.9163 86.925" stroke="#1D1D1B" stroke-width="2" stroke-linecap="round" stroke-linejoin="round"/>
<path d="M73.3201 95.4634L75.0862 138.251" stroke="#1D1D1B" stroke-width="2" stroke-linecap="round" stroke-linejoin="round"/>
<path d="M28.0232 48.1319L34.4649 70.0673L49.9204 65.648L44.1237 44.3491L28.0232 48.1319Z" fill="white" stroke="#1D1D1B" stroke-width="2" stroke-linecap="round" stroke-linejoin="round"/>
<path d="M36.0698 74.7718L50.8878 70.3232" stroke="#1D1D1B" stroke-width="2" stroke-linecap="round" stroke-linejoin="round"/>
<path d="M36.8757 78.1229L51.6938 73.6816" stroke="#1D1D1B" stroke-width="2" stroke-linecap="round" stroke-linejoin="round"/>
<path d="M38.3416 81.2764L53.1596 76.8352" stroke="#1D1D1B" stroke-width="2" stroke-linecap="round" stroke-linejoin="round"/>
<path d="M39.0745 84.7298L53.8925 80.2886" stroke="#1D1D1B" stroke-width="2" stroke-linecap="round" stroke-linejoin="round"/>
<path d="M77.7903 95.4634L90.4171 87.8979" stroke="#1D1D1B" stroke-width="2" stroke-linecap="round" stroke-linejoin="round"/>
<path d="M77.7903 99.9778L90.4171 92.4124" stroke="#1D1D1B" stroke-width="2" stroke-linecap="round" stroke-linejoin="round"/>
<path d="M77.7903 104.353L90.4171 96.7878" stroke="#1D1D1B" stroke-width="2" stroke-linecap="round" stroke-linejoin="round"/>
<path d="M77.7903 109.007L90.4171 101.441" stroke="#1D1D1B" stroke-width="2" stroke-linecap="round" stroke-linejoin="round"/>
<path d="M77.783 114.86L78.6404 133.766L92.0587 125.03L91.2819 106.329L77.783 114.86Z" fill="white" stroke="#1D1D1B" stroke-width="2" stroke-linecap="round" stroke-linejoin="round"/>
<path d="M60.6199 39.381L68.3293 35.6934" stroke="#1D1D1B" stroke-width="2" stroke-linecap="round" stroke-linejoin="round"/>
<path d="M61.646 42.8199L69.3555 39.1323" stroke="#1D1D1B" stroke-width="2" stroke-linecap="round" stroke-linejoin="round"/>
<path d="M62.8184 46.1927L70.5278 42.5051" stroke="#1D1D1B" stroke-width="2" stroke-linecap="round" stroke-linejoin="round"/>
<path d="M64.0129 49.6537L71.7224 45.9661" stroke="#1D1D1B" stroke-width="2" stroke-linecap="round" stroke-linejoin="round"/>
<path d="M75.8188 49.0245L83.5283 45.3369" stroke="#1D1D1B" stroke-width="2" stroke-linecap="round" stroke-linejoin="round"/>
<path d="M76.845 52.4632L84.5545 48.7756" stroke="#1D1D1B" stroke-width="2" stroke-linecap="round" stroke-linejoin="round"/>
<path d="M78.0176 55.8363L85.727 52.1487" stroke="#1D1D1B" stroke-width="2" stroke-linecap="round" stroke-linejoin="round"/>
<path d="M79.2122 59.297L86.9216 55.6094" stroke="#1D1D1B" stroke-width="2" stroke-linecap="round" stroke-linejoin="round"/>
<path d="M65.2661 53.8314L72.9756 50.1438" stroke="#1D1D1B" stroke-width="2" stroke-linecap="round" stroke-linejoin="round"/>
<path d="M66.292 57.2777L74.0014 53.5901" stroke="#1D1D1B" stroke-width="2" stroke-linecap="round" stroke-linejoin="round"/>
<path d="M67.4646 60.6434L75.1741 56.9558" stroke="#1D1D1B" stroke-width="2" stroke-linecap="round" stroke-linejoin="round"/>
<path d="M68.6592 64.1041L76.3687 60.4165" stroke="#1D1D1B" stroke-width="2" stroke-linecap="round" stroke-linejoin="round"/>
<path d="M46.5347 44.115L54.8158 42.0078" stroke="#1D1D1B" stroke-width="2" stroke-linecap="round" stroke-linejoin="round"/>
<path d="M47.8464 47.6709L56.1275 45.5637" stroke="#1D1D1B" stroke-width="2" stroke-linecap="round" stroke-linejoin="round"/>
<path d="M48.5867 51.2049L56.8751 49.0903" stroke="#1D1D1B" stroke-width="2" stroke-linecap="round" stroke-linejoin="round"/>
<path d="M49.9424 54.8557L58.2235 52.7485" stroke="#1D1D1B" stroke-width="2" stroke-linecap="round" stroke-linejoin="round"/>
<path d="M50.6753 58.1482L58.9564 56.0337" stroke="#1D1D1B" stroke-width="2" stroke-linecap="round" stroke-linejoin="round"/>
<path d="M51.2175 61.6458L59.4986 59.5312" stroke="#1D1D1B" stroke-width="2" stroke-linecap="round" stroke-linejoin="round"/>
<path d="M52.4854 64.7481L60.7664 62.6335" stroke="#1D1D1B" stroke-width="2" stroke-linecap="round" stroke-linejoin="round"/>
<path d="M53.7092 67.8284L61.9977 65.7212" stroke="#1D1D1B" stroke-width="2" stroke-linecap="round" stroke-linejoin="round"/>
<path d="M75.174 44.9343L82.2899 41.4882L79.3878 29.5034L71.9202 33.0959L75.174 44.9343Z" fill="white" stroke="#1D1D1B" stroke-width="2" stroke-linecap="round" stroke-linejoin="round"/>
<path d="M72.9755 79.7983L80.0914 76.3449L77.1893 64.3674L69.7217 67.9599L72.9755 79.7983Z" fill="white" stroke="#1D1D1B" stroke-width="2" stroke-linecap="round" stroke-linejoin="round"/>
<path d="M45.0764 104.946L53.4015 103" stroke="#1D1D1B" stroke-width="2" stroke-linecap="round" stroke-linejoin="round"/>
<path d="M45.0764 108.59L53.658 106.585" stroke="#1D1D1B" stroke-width="2" stroke-linecap="round" stroke-linejoin="round"/>
<path d="M44.666 112.321L54.0757 110.126" stroke="#1D1D1B" stroke-width="2" stroke-linecap="round" stroke-linejoin="round"/>
<path d="M45.0764 115.965L54.5007 113.762" stroke="#1D1D1B" stroke-width="2" stroke-linecap="round" stroke-linejoin="round"/>
<path d="M57.8423 117.626L66.1674 115.687" stroke="#1D1D1B" stroke-width="2" stroke-linecap="round" stroke-linejoin="round"/>
<path d="M58.0989 121.211L66.4239 119.265" stroke="#1D1D1B" stroke-width="2" stroke-linecap="round" stroke-linejoin="round"/>
<path d="M58.5166 124.752L66.8417 122.813" stroke="#1D1D1B" stroke-width="2" stroke-linecap="round" stroke-linejoin="round"/>
<path d="M58.9417 128.389L67.2594 126.442" stroke="#1D1D1B" stroke-width="2" stroke-linecap="round" stroke-linejoin="round"/>
<path d="M45.0764 120.391L54.8232 118.116" stroke="#1D1D1B" stroke-width="2" stroke-linecap="round" stroke-linejoin="round"/>
<path d="M45.3401 124.167L55.0795 121.694" stroke="#1D1D1B" stroke-width="2" stroke-linecap="round" stroke-linejoin="round"/>
<path d="M45.7578 127.518L55.5046 125.242" stroke="#1D1D1B" stroke-width="2" stroke-linecap="round" stroke-linejoin="round"/>
<path d="M45.7578 131.25L55.9223 128.879" stroke="#1D1D1B" stroke-width="2" stroke-linecap="round" stroke-linejoin="round"/>
<path d="M58.0917 113.499L65.7865 111.655L65.53 99.334L57.4614 101.236L58.0917 113.499Z" fill="white" stroke="#1D1D1B" stroke-width="2" stroke-linecap="round" stroke-linejoin="round"/>
<path d="M46.7618 147.434L68.791 142.605L68.5345 130.284L46.1755 135.164L46.7618 147.434Z" fill="white" stroke="#1D1D1B" stroke-width="2" stroke-linecap="round" stroke-linejoin="round"/>
<path d="M80.8609 5.10229L79.5711 58.7703L61.939 116.997L95.8695 124.701L121.966 137.381L135.01 88.0224L137.209 29.3645L115.59 13.8384L80.8609 5.10229Z" fill="white" stroke="#1D1D1B" stroke-width="2" stroke-linecap="round" stroke-linejoin="round"/>
<path d="M84.7229 60.3579L113.919 69.0648L130.569 79.8935" fill="white"/>
<path d="M84.7229 60.3579L113.919 69.0648L130.569 79.8935" stroke="#1D1D1B" stroke-width="2" stroke-linecap="round" stroke-linejoin="round"/>
<path d="M97.5842 120.809L111.735 73.2646" stroke="#1D1D1B" stroke-width="2" stroke-linecap="round" stroke-linejoin="round"/>
<path d="M114.132 64.726L115.898 21.938" stroke="#1D1D1B" stroke-width="2" stroke-linecap="round" stroke-linejoin="round"/>
<path d="M68.835 112.058L75.2766 90.1223L90.7322 94.5489L84.9354 115.84L68.835 112.058Z" fill="white" stroke="#1D1D1B" stroke-width="2" stroke-linecap="round" stroke-linejoin="round"/>
<path d="M76.8816 85.425L91.6996 89.8663" stroke="#1D1D1B" stroke-width="2" stroke-linecap="round" stroke-linejoin="round"/>
<path d="M77.6877 82.0667L92.5058 86.5079" stroke="#1D1D1B" stroke-width="2" stroke-linecap="round" stroke-linejoin="round"/>
<path d="M79.1533 78.9204L93.9713 83.3616" stroke="#1D1D1B" stroke-width="2" stroke-linecap="round" stroke-linejoin="round"/>
<path d="M79.8862 75.4597L94.7043 79.9083" stroke="#1D1D1B" stroke-width="2" stroke-linecap="round" stroke-linejoin="round"/>
<path d="M118.602 64.7261L131.236 72.2915" stroke="#1D1D1B" stroke-width="2" stroke-linecap="round" stroke-linejoin="round"/>
<path d="M118.602 60.2117L131.236 67.7771" stroke="#1D1D1B" stroke-width="2" stroke-linecap="round" stroke-linejoin="round"/>
<path d="M118.602 55.8362L131.236 63.409" stroke="#1D1D1B" stroke-width="2" stroke-linecap="round" stroke-linejoin="round"/>
<path d="M118.602 51.1829L131.236 58.7483" stroke="#1D1D1B" stroke-width="2" stroke-linecap="round" stroke-linejoin="round"/>
<path d="M118.602 45.3368L119.452 26.4231L132.87 35.1592L132.094 53.868L118.602 45.3368Z" fill="white" stroke="#1D1D1B" stroke-width="2" stroke-linecap="round" stroke-linejoin="round"/>
<path d="M101.432 120.809L109.141 124.496" stroke="#1D1D1B" stroke-width="2" stroke-linecap="round" stroke-linejoin="round"/>
<path d="M102.458 117.37L110.167 121.057" stroke="#1D1D1B" stroke-width="2" stroke-linecap="round" stroke-linejoin="round"/>
<path d="M103.63 113.997L111.34 117.684" stroke="#1D1D1B" stroke-width="2" stroke-linecap="round" stroke-linejoin="round"/>
<path d="M104.825 110.536L112.534 114.224" stroke="#1D1D1B" stroke-width="2" stroke-linecap="round" stroke-linejoin="round"/>
<path d="M116.631 111.165L124.34 114.853" stroke="#1D1D1B" stroke-width="2" stroke-linecap="round" stroke-linejoin="round"/>
<path d="M117.657 107.726L125.366 111.414" stroke="#1D1D1B" stroke-width="2" stroke-linecap="round" stroke-linejoin="round"/>
<path d="M118.829 104.353L126.539 108.041" stroke="#1D1D1B" stroke-width="2" stroke-linecap="round" stroke-linejoin="round"/>
<path d="M120.024 100.893L127.733 104.58" stroke="#1D1D1B" stroke-width="2" stroke-linecap="round" stroke-linejoin="round"/>
<path d="M106.085 106.358L113.795 110.046" stroke="#1D1D1B" stroke-width="2" stroke-linecap="round" stroke-linejoin="round"/>
<path d="M107.111 102.919L114.813 106.607" stroke="#1D1D1B" stroke-width="2" stroke-linecap="round" stroke-linejoin="round"/>
<path d="M108.284 99.5461L115.993 103.234" stroke="#1D1D1B" stroke-width="2" stroke-linecap="round" stroke-linejoin="round"/>
<path d="M109.478 96.0854L117.18 99.7731" stroke="#1D1D1B" stroke-width="2" stroke-linecap="round" stroke-linejoin="round"/>
<path d="M87.3467 116.075L95.6278 118.182" stroke="#1D1D1B" stroke-width="2" stroke-linecap="round" stroke-linejoin="round"/>
<path d="M88.6582 112.519L96.9393 114.626" stroke="#1D1D1B" stroke-width="2" stroke-linecap="round" stroke-linejoin="round"/>
<path d="M89.4058 108.992L97.6869 111.099" stroke="#1D1D1B" stroke-width="2" stroke-linecap="round" stroke-linejoin="round"/>
<path d="M90.7542 105.334L99.0352 107.448" stroke="#1D1D1B" stroke-width="2" stroke-linecap="round" stroke-linejoin="round"/>
<path d="M91.4871 102.049L99.7682 104.156" stroke="#1D1D1B" stroke-width="2" stroke-linecap="round" stroke-linejoin="round"/>
<path d="M92.0293 98.5439L100.31 100.658" stroke="#1D1D1B" stroke-width="2" stroke-linecap="round" stroke-linejoin="round"/>
<path d="M93.3044 95.4417L101.586 97.5562" stroke="#1D1D1B" stroke-width="2" stroke-linecap="round" stroke-linejoin="round"/>
<path d="M94.5283 92.3613L102.809 94.4758" stroke="#1D1D1B" stroke-width="2" stroke-linecap="round" stroke-linejoin="round"/>
<path d="M115.986 115.255L123.109 118.709L120.2 130.686L112.732 127.094L115.986 115.255Z" fill="white" stroke="#1D1D1B" stroke-width="2" stroke-linecap="round" stroke-linejoin="round"/>
<path d="M113.788 80.3984L120.911 83.8446L118.001 95.8294L110.534 92.2369L113.788 80.3984Z" fill="white" stroke="#1D1D1B" stroke-width="2" stroke-linecap="round" stroke-linejoin="round"/>
<path d="M85.8955 55.251L94.2132 57.1899" stroke="#1D1D1B" stroke-width="2" stroke-linecap="round" stroke-linejoin="round"/>
<path d="M85.8955 51.6072L94.4697 53.612" stroke="#1D1D1B" stroke-width="2" stroke-linecap="round" stroke-linejoin="round"/>
<path d="M85.4851 47.8684L94.8948 50.0634" stroke="#1D1D1B" stroke-width="2" stroke-linecap="round" stroke-linejoin="round"/>
<path d="M85.8955 44.2319L95.3125 46.4269" stroke="#1D1D1B" stroke-width="2" stroke-linecap="round" stroke-linejoin="round"/>
<path d="M98.6543 42.5637L106.979 44.51" stroke="#1D1D1B" stroke-width="2" stroke-linecap="round" stroke-linejoin="round"/>
<path d="M98.9106 38.9785L107.236 40.9248" stroke="#1D1D1B" stroke-width="2" stroke-linecap="round" stroke-linejoin="round"/>
<path d="M99.3359 35.4373L107.654 37.3835" stroke="#1D1D1B" stroke-width="2" stroke-linecap="round" stroke-linejoin="round"/>
<path d="M99.7534 31.801L108.071 33.7473" stroke="#1D1D1B" stroke-width="2" stroke-linecap="round" stroke-linejoin="round"/>
<path d="M85.8955 39.7981L95.6349 42.0809" stroke="#1D1D1B" stroke-width="2" stroke-linecap="round" stroke-linejoin="round"/>
<path d="M86.1519 36.0227L95.8986 38.4958" stroke="#1D1D1B" stroke-width="2" stroke-linecap="round" stroke-linejoin="round"/>
<path d="M86.5698 32.6716L96.3166 34.9544" stroke="#1D1D1B" stroke-width="2" stroke-linecap="round" stroke-linejoin="round"/>
<path d="M86.5698 28.9402L96.7343 31.3181" stroke="#1D1D1B" stroke-width="2" stroke-linecap="round" stroke-linejoin="round"/>
<path d="M98.9108 46.6904L106.598 48.5342L106.349 60.8556L98.2805 58.9532L98.9108 46.6904Z" fill="white" stroke="#1D1D1B" stroke-width="2" stroke-linecap="round" stroke-linejoin="round"/>
<path d="M87.5736 12.7556L109.603 17.592L109.346 29.9133L86.9873 25.033L87.5736 12.7556Z" fill="white" stroke="#1D1D1B" stroke-width="2" stroke-linecap="round" stroke-linejoin="round"/>
<path d="M82.114 44.3783L122.105 26.9353L120.471 106.029L80.4724 123.464L82.114 44.3783Z" fill="white" stroke="#1D1D1B" stroke-width="2" stroke-linecap="round" stroke-linejoin="round"/>
<path d="M83.0815 45.4612L123.805 27.7036L122.171 106.592L81.4546 124.35L83.0815 45.4612Z" fill="white" stroke="#1D1D1B" stroke-linecap="round" stroke-linejoin="round"/>
<path d="M84.2688 46.4854L124.985 28.7278L123.358 107.609L82.6345 125.367L84.2688 46.4854Z" fill="white" stroke="#1D1D1B" stroke-linecap="round" stroke-linejoin="round"/>
<path d="M86.1521 47.3563L126.869 29.606L125.242 108.297L84.5178 126.055L86.1521 47.3563Z" fill="white" stroke="#1D1D1B" stroke-linecap="round" stroke-linejoin="round"/>
<path d="M88.0427 48.2195L128.767 30.4619L127.14 109.329L86.4158 127.086L88.0427 48.2195Z" fill="white" stroke="#1D1D1B" stroke-linecap="round" stroke-linejoin="round"/>
<path d="M90.2192 48.8488L130.218 31.4131L128.583 110.499L88.585 127.942L90.2192 48.8488Z" fill="white" stroke="#1D1D1B" stroke-width="2" stroke-linecap="round" stroke-linejoin="round"/>
<path d="M90.2192 48.8489L88.585 127.942C88.585 127.942 82.7222 128.455 80.4578 124.145L82.1067 44.3931C82.1067 44.3931 83.4844 48.7611 90.2192 48.8489Z" fill="white" stroke="#1D1D1B" stroke-width="2" stroke-linecap="round" stroke-linejoin="round"/>
<path d="M92.3665 46.288L130.877 25.7866L135.421 104.763L96.9101 125.264L92.3665 46.288Z" fill="white" stroke="#1D1D1B" stroke-width="2" stroke-linecap="round" stroke-linejoin="round"/>
<path d="M93.4219 47.2903L132.629 26.4158L137.165 105.195L97.9508 126.062L93.4219 47.2903Z" fill="white" stroke="#1D1D1B" stroke-linecap="round" stroke-linejoin="round"/>
<path d="M94.675 48.2195L133.889 27.345L138.418 106.117L99.204 126.991L94.675 48.2195Z" fill="white" stroke="#1D1D1B" stroke-linecap="round" stroke-linejoin="round"/>
<path d="M96.6243 48.9439L135.831 28.0693L140.353 106.651L101.146 127.525L96.6243 48.9439Z" fill="white" stroke="#1D1D1B" stroke-linecap="round" stroke-linejoin="round"/>
<path d="M98.5811 49.6536L137.795 28.7791L142.324 107.536L103.11 128.411L98.5811 49.6536Z" fill="white" stroke="#1D1D1B" stroke-linecap="round" stroke-linejoin="round"/>
<path d="M100.802 50.1147L139.312 29.6133L143.856 108.59L105.345 129.091L100.802 50.1147Z" fill="white" stroke="#1D1D1B" stroke-width="2" stroke-linecap="round" stroke-linejoin="round"/>
<path d="M100.801 50.1147L105.345 129.091C105.345 129.091 99.5556 130.057 96.9394 125.938L92.3591 46.2734C92.3591 46.2734 94.074 50.5537 100.801 50.1147Z" fill="white" stroke="#1D1D1B" stroke-width="2" stroke-linecap="round" stroke-linejoin="round"/>
<path d="M129.939 49.9316L172.473 40.1565L156.248 117.589L113.714 127.364L129.939 49.9316Z" fill="white" stroke="#1D1D1B" stroke-width="2" stroke-linecap="round" stroke-linejoin="round"/>
<path d="M130.694 51.1756L173.998 41.2249L157.816 118.453L114.513 128.411L130.694 51.1756Z" fill="white" stroke="#1D1D1B" stroke-linecap="round" stroke-linejoin="round"/>
<path d="M131.669 52.3975L174.972 42.4468L158.791 119.675L115.488 129.625L131.669 52.3975Z" fill="white" stroke="#1D1D1B" stroke-linecap="round" stroke-linejoin="round"/>
<path d="M133.354 53.6048L176.658 43.6541L160.521 120.692L117.217 130.65L133.354 53.6048Z" fill="white" stroke="#F2F4FB" stroke-linecap="round" stroke-linejoin="round"/>
<path d="M135.062 54.7974L178.365 44.8467L162.191 122.06L118.888 132.018L135.062 54.7974Z" fill="white" stroke="#1D1D1B" stroke-linecap="round" stroke-linejoin="round"/>
<path d="M137.084 55.8217L179.611 46.0466L163.393 123.479L120.859 133.254L137.084 55.8217Z" fill="white" stroke="#1D1D1B" stroke-width="2" stroke-linecap="round" stroke-linejoin="round"/>
<path d="M137.084 55.8216L120.859 133.254C120.859 133.254 114.997 132.676 113.575 128.023L129.932 49.917C129.932 49.917 130.482 54.4972 137.084 55.8216Z" fill="white" stroke="#1D1D1B" stroke-width="2" stroke-linecap="round" stroke-linejoin="round"/>
<path d="M103 192V98.3681L26.301 64.3674V158.153L103 192Z" fill="white" stroke="black" stroke-width="3" stroke-linecap="round" stroke-linejoin="round"/>
<path d="M103 192V98.3681L179.699 64.3674V158.153L103 192Z" fill="white" stroke="black" stroke-width="3" stroke-linecap="round" stroke-linejoin="round"/>
<path d="M204 92.7709L130.049 126.728L103 98.3681L179.699 64.3674L204 92.7709Z" fill="white" stroke="black" stroke-width="3" stroke-linecap="round" stroke-linejoin="round"/>
<path d="M2 92.7709L75.9509 126.728L103 98.3681L26.301 64.3674L2 92.7709Z" fill="white" stroke="black" stroke-width="3" stroke-linecap="round" stroke-linejoin="round"/>
<g clip-path="url(#clip0)">
<path d="M128.732 172.672C140.379 174.725 151.486 166.948 153.54 155.301C155.594 143.653 147.817 132.546 136.169 130.493C124.522 128.439 113.415 136.216 111.361 147.863C109.307 159.511 117.085 170.618 128.732 172.672Z" fill="white"/>
<path d="M128.641 173.154C116.741 171.056 108.768 159.669 110.867 147.77C112.965 135.871 124.351 127.898 136.251 129.996C148.15 132.094 156.123 143.481 154.025 155.38C151.927 167.279 140.54 175.252 128.641 173.154ZM136.164 130.489C124.534 128.439 113.41 136.228 111.36 147.857C109.309 159.486 117.097 170.616 128.727 172.667C140.356 174.717 151.487 166.923 153.537 155.3C155.586 143.677 147.793 132.54 136.164 130.489Z" fill="#6599BF"/>
<path d="M129.395 168.877C138.95 170.561 148.062 164.181 149.747 154.626C151.432 145.07 145.052 135.958 135.496 134.274C125.941 132.589 116.829 138.969 115.144 148.524C113.459 158.08 119.84 167.192 129.395 168.877Z" stroke="#6599BF" stroke-width="2" stroke-miterlimit="10"/>
<path d="M129.501 168.273C138.724 169.899 147.518 163.741 149.144 154.519C150.77 145.297 144.612 136.502 135.39 134.876C126.168 133.25 117.373 139.408 115.747 148.63C114.121 157.853 120.279 166.647 129.501 168.273Z" stroke="#6599BF" stroke-miterlimit="10"/>
<path d="M128.829 172.087C140.158 174.085 150.961 166.52 152.958 155.192C154.956 143.863 147.391 133.06 136.063 131.062C124.734 129.065 113.931 136.629 111.933 147.958C109.936 159.287 117.5 170.09 128.829 172.087Z" stroke="#6599BF" stroke-miterlimit="10"/>
<path d="M129.297 169.469L129.516 170.216L130.255 170.461L129.612 170.899L129.608 171.677L128.992 171.201L128.251 171.437L128.513 170.706L128.059 170.074L128.837 170.096L129.297 169.469Z" fill="#6599BF"/>
<path d="M136.009 131.4L136.228 132.148L136.967 132.392L136.324 132.83L136.32 133.609L135.704 133.133L134.963 133.37L135.226 132.637L134.771 132.005L135.549 132.029L136.009 131.4Z" fill="#6599BF"/>
<path d="M138.238 168.804L138.456 169.552L139.195 169.796L138.552 170.234L138.548 171.013L137.933 170.536L137.191 170.774L137.454 170.041L137 169.409L137.777 169.433L138.238 168.804Z" fill="#6599BF"/>
<path d="M121.124 165.787L121.342 166.535L122.081 166.778L121.438 167.216L121.434 167.995L120.819 167.518L120.076 167.756L120.339 167.023L119.884 166.391L120.663 166.415L121.124 165.787Z" fill="#6599BF"/>
<path d="M151.563 151.488L114.525 144.957L113.059 153.269L150.097 159.8L151.563 151.488Z" fill="white"/>
<path d="M114.525 144.957C116.072 145.2 117.615 145.46 119.164 145.712L123.806 146.492C126.893 147.015 129.982 147.561 133.071 148.096C136.159 148.63 139.243 149.193 142.326 149.757L146.949 150.608C148.489 150.9 150.026 151.183 151.569 151.485C150.02 151.24 148.479 150.981 146.928 150.729L142.293 149.946C139.207 149.422 136.116 148.877 133.027 148.341C129.938 147.805 126.856 147.245 123.773 146.68L119.149 145.829C117.604 145.54 116.063 145.253 114.525 144.957Z" fill="#6599BF"/>
<path d="M113.059 153.268C114.607 153.513 116.149 153.772 117.699 154.025L122.335 154.807C125.421 155.329 128.511 155.877 131.599 156.411C134.687 156.945 137.772 157.508 140.855 158.072L145.478 158.922C147.018 159.215 148.555 159.498 150.098 159.798C148.549 159.555 147.008 159.296 145.456 159.044L140.822 158.261C137.735 157.737 134.645 157.192 131.556 156.656C128.467 156.12 125.386 155.561 122.306 155L117.682 154.149C116.139 153.853 114.597 153.568 113.059 153.268Z" fill="#6599BF"/>
<path d="M121.01 152.87C121.062 152.575 121.132 152.313 121.22 152.085C121.309 151.85 121.427 151.641 121.574 151.457C121.728 151.274 121.92 151.112 122.148 150.969C122.383 150.828 122.669 150.699 123.008 150.583C123.303 150.486 123.561 150.402 123.783 150.333C124.013 150.259 124.205 150.188 124.359 150.12C124.513 150.052 124.634 149.979 124.723 149.9C124.812 149.814 124.868 149.709 124.89 149.584C124.925 149.387 124.875 149.206 124.742 149.04C124.61 148.868 124.396 148.756 124.101 148.704C123.943 148.676 123.795 148.673 123.655 148.696C123.517 148.713 123.383 148.746 123.252 148.798C123.127 148.85 123.008 148.914 122.893 148.988C122.786 149.057 122.685 149.134 122.588 149.219L121.913 148.095C122.015 148.018 122.154 147.941 122.33 147.863C122.507 147.78 122.709 147.71 122.935 147.655C123.169 147.595 123.419 147.558 123.686 147.544C123.96 147.525 124.245 147.541 124.54 147.593C124.875 147.652 125.166 147.748 125.414 147.879C125.663 148.004 125.862 148.158 126.013 148.34C126.171 148.517 126.278 148.719 126.333 148.945C126.395 149.166 126.405 149.398 126.362 149.641C126.322 149.87 126.243 150.066 126.127 150.229C126.01 150.391 125.874 150.529 125.718 150.644C125.563 150.759 125.397 150.855 125.221 150.932C125.053 151.004 124.889 151.067 124.731 151.12C124.601 151.165 124.453 151.216 124.287 151.275C124.121 151.334 123.953 151.402 123.784 151.481C123.622 151.554 123.469 151.635 123.324 151.725C123.181 151.808 123.067 151.896 122.983 151.99L125.967 152.516L125.757 153.707L121.01 152.87ZM132.268 151.88C132.191 152.313 132.055 152.702 131.859 153.047C131.671 153.386 131.438 153.67 131.161 153.899C130.891 154.122 130.585 154.281 130.244 154.377C129.91 154.467 129.562 154.48 129.201 154.416C128.833 154.351 128.508 154.219 128.225 154.021C127.943 153.815 127.71 153.561 127.527 153.258C127.351 152.949 127.229 152.603 127.162 152.219C127.102 151.829 127.11 151.417 127.186 150.984C127.263 150.551 127.395 150.165 127.583 149.826C127.78 149.481 128.012 149.197 128.282 148.974C128.559 148.745 128.865 148.583 129.201 148.486C129.536 148.389 129.887 148.374 130.255 148.438C130.616 148.502 130.938 148.637 131.22 148.842C131.508 149.049 131.74 149.306 131.916 149.615C132.099 149.918 132.221 150.264 132.281 150.654C132.349 151.038 132.344 151.447 132.268 151.88ZM130.938 151.646C130.985 151.383 130.997 151.138 130.976 150.911C130.957 150.678 130.905 150.472 130.821 150.295C130.744 150.119 130.637 149.975 130.501 149.863C130.372 149.752 130.219 149.681 130.041 149.65C129.858 149.617 129.683 149.63 129.517 149.689C129.357 149.749 129.208 149.848 129.068 149.986C128.935 150.125 128.82 150.301 128.721 150.514C128.624 150.72 128.552 150.954 128.506 151.217C128.46 151.479 128.447 151.724 128.468 151.951C128.489 152.178 128.538 152.38 128.615 152.556C128.699 152.733 128.805 152.877 128.935 152.988C129.071 153.1 129.231 153.172 129.414 153.205C129.592 153.236 129.76 153.222 129.92 153.162C130.086 153.103 130.235 153.004 130.368 152.865C130.507 152.727 130.626 152.555 130.723 152.349C130.82 152.143 130.892 151.908 130.938 151.646ZM137.083 154.476L136.873 155.667L132.874 154.962L133.085 153.771L134.483 154.017L135.009 151.033C134.936 151.102 134.826 151.167 134.68 151.229C134.541 151.286 134.39 151.337 134.227 151.383C134.063 151.428 133.895 151.46 133.723 151.477C133.557 151.495 133.412 151.493 133.287 151.471L133.504 150.24C133.622 150.261 133.773 150.25 133.956 150.208C134.141 150.159 134.325 150.097 134.507 150.021C134.69 149.945 134.849 149.868 134.985 149.79C135.128 149.707 135.221 149.639 135.264 149.586L136.614 149.824L135.832 154.255L137.083 154.476ZM140.52 153.071C140.849 153.129 141.144 153.239 141.407 153.4C141.671 153.555 141.887 153.749 142.056 153.982C142.224 154.215 142.34 154.479 142.403 154.774C142.473 155.071 142.478 155.386 142.419 155.721C142.357 156.076 142.234 156.386 142.052 156.652C141.876 156.919 141.656 157.133 141.39 157.296C141.123 157.466 140.822 157.579 140.487 157.635C140.151 157.698 139.8 157.696 139.432 157.632C138.92 157.541 138.479 157.352 138.111 157.063C137.748 156.776 137.495 156.427 137.351 156.016L138.248 155.362C138.387 155.65 138.581 155.894 138.83 156.094C139.079 156.293 139.351 156.419 139.647 156.471C140.001 156.534 140.309 156.48 140.569 156.309C140.837 156.133 141.002 155.867 141.065 155.513C141.125 155.172 141.065 154.877 140.886 154.628C140.712 154.381 140.462 154.229 140.134 154.171C139.917 154.133 139.705 154.146 139.497 154.211C139.296 154.277 139.124 154.386 138.983 154.537L137.83 154.333C137.834 154.314 137.86 154.244 137.908 154.124C137.957 153.997 138.019 153.839 138.093 153.649C138.169 153.452 138.251 153.236 138.339 153.002C138.429 152.76 138.523 152.516 138.621 152.269C138.845 151.686 139.096 151.033 139.372 150.31L142.819 150.918L142.607 152.119L140.116 151.68L139.554 153.195C139.648 153.124 139.775 153.075 139.935 153.049C140.102 153.025 140.297 153.032 140.52 153.071Z" fill="#6599BF"/>
</g>
<path d="M522.602 96.7431L625.5 51.0615L728.398 96.7431L625.5 142.336L522.602 96.7431Z" fill="white" stroke="black" stroke-width="3" stroke-linecap="round" stroke-linejoin="round"/>
<path d="M761 58.5834L661.789 13L625.5 51.0615L728.398 96.7038L761 58.5834Z" fill="white" stroke="black" stroke-width="3" stroke-linecap="round" stroke-linejoin="round"/>
<path d="M490 58.5834L589.211 13L625.5 51.0615L522.602 96.7038L490 58.5834Z" fill="white" stroke="black" stroke-width="3" stroke-linecap="round" stroke-linejoin="round"/>
<path d="M577.216 69.0727L548.706 188.138L698.199 223.847L726.708 104.781L577.216 69.0727Z" fill="white" stroke="#1D1D1B" stroke-miterlimit="10"/>
<path d="M582.85 68.1282C579.558 81.8813 580.422 96.3006 585.334 109.563C590.247 122.825 598.986 134.335 610.447 142.636C621.909 150.938 635.578 155.658 649.725 156.201C663.873 156.744 677.863 153.084 689.928 145.685C701.993 138.286 711.591 127.479 717.507 114.632C723.423 101.785 725.392 87.4743 723.165 73.5096C720.938 59.5449 714.615 46.5533 704.996 36.1777C695.376 25.8021 682.893 18.5085 669.123 15.2192C659.98 13.0351 650.496 12.6712 641.212 14.1481C631.928 15.625 623.026 18.9139 615.015 23.827C607.004 28.7401 600.04 35.1811 594.521 42.7824C589.002 50.3836 585.036 58.9961 582.85 68.1282ZM658.249 86.1377C657.971 87.2658 657.365 88.2866 656.507 89.0717C655.65 89.8568 654.579 90.3711 653.43 90.55C652.28 90.7288 651.103 90.5643 650.047 90.077C648.991 89.5897 648.103 88.8014 647.494 87.8112C646.886 86.8211 646.584 85.6733 646.626 84.5122C646.669 83.3511 647.055 82.2285 647.734 81.2856C648.414 80.3427 649.358 79.6216 650.447 79.2129C651.536 78.8043 652.721 78.7263 653.854 78.9889C654.616 79.1652 655.334 79.4909 655.968 79.9469C656.602 80.403 657.14 80.9803 657.548 81.6454C657.957 82.3105 658.23 83.0501 658.35 83.8213C658.47 84.5925 658.436 85.3798 658.249 86.1377Z" fill="black"/>
<path d="M638.832 81.5028C638.186 84.1986 638.355 87.025 639.318 89.6247C640.281 92.2244 641.994 94.4805 644.24 96.1077C646.487 97.7348 649.167 98.6599 651.94 98.7659C654.713 98.8719 657.455 98.1541 659.82 96.7032C662.185 95.2523 664.065 93.1336 665.224 90.615C666.383 88.0964 666.768 85.2911 666.331 82.5539C665.893 79.8167 664.653 77.2707 662.766 75.2377C660.879 73.2048 658.432 71.7764 655.732 71.1331C652.114 70.271 648.302 70.879 645.133 72.8235C641.963 74.768 639.697 77.8898 638.832 81.5028ZM658.249 86.1377C657.971 87.2659 657.365 88.2867 656.507 89.0718C655.65 89.8568 654.579 90.3712 653.43 90.55C652.28 90.7289 651.103 90.5643 650.047 90.077C648.991 89.5897 648.103 88.8014 647.494 87.8113C646.886 86.8212 646.584 85.6734 646.626 84.5123C646.669 83.3512 647.054 82.2286 647.734 81.2857C648.414 80.3428 649.358 79.6216 650.447 79.213C651.536 78.8043 652.721 78.7264 653.854 78.9889C654.616 79.1653 655.334 79.491 655.968 79.947C656.602 80.403 657.14 80.9804 657.548 81.6455C657.957 82.3106 658.23 83.0502 658.35 83.8214C658.47 84.5925 658.436 85.3799 658.249 86.1377Z" fill="white" stroke="#1D1E1B" stroke-miterlimit="10"/>
<path d="M652.478 153.285C690.373 153.285 721.093 122.602 721.093 84.7532C721.093 46.9039 690.373 16.2209 652.478 16.2209C614.583 16.2209 583.863 46.9039 583.863 84.7532C583.863 122.602 614.583 153.285 652.478 153.285Z" stroke="white" stroke-miterlimit="10"/>
<path d="M665.898 28.6919C680.783 32.2494 693.644 41.5657 701.653 54.5922C709.662 67.6187 712.164 83.2889 708.607 98.157" stroke="white" stroke-linecap="round" stroke-linejoin="round"/>
<path d="M668.278 33.1011C680.694 36.8887 691.332 45.0118 698.248 55.9864C705.163 66.9609 707.894 80.0542 705.943 92.8741" stroke="white" stroke-linecap="round" stroke-linejoin="round"/>
<path d="M652.478 121.263C672.666 121.263 689.032 104.917 689.032 84.7533C689.032 64.5895 672.666 48.2434 652.478 48.2434C632.29 48.2434 615.924 64.5895 615.924 84.7533C615.924 104.917 632.29 121.263 652.478 121.263Z" stroke="white" stroke-linecap="round" stroke-linejoin="round"/>
<path d="M576.634 71.5175L546.542 197.192L696.035 232.901L726.127 107.226L576.634 71.5175Z" fill="white" stroke="#1D1D1B" stroke-miterlimit="10"/>
<path d="M533.455 87.9757L523.175 91.2664L551.482 179.486L561.762 176.196L533.455 87.9757Z" fill="white" stroke="black" stroke-linecap="round" stroke-linejoin="round"/>
<path d="M618.84 60.6421L533.463 87.9714L561.77 176.191L647.148 148.862L618.84 60.6421Z" fill="white" stroke="black" stroke-linecap="round" stroke-linejoin="round"/>
<path d="M577.433 78.3605C569.499 80.9013 562.498 85.7348 557.314 92.2499C552.13 98.7649 548.997 106.669 548.311 114.962C547.624 123.256 549.415 131.566 553.458 138.843C557.5 146.12 563.612 152.036 571.02 155.844C578.429 159.651 586.802 161.179 595.08 160.235C603.357 159.29 611.169 155.914 617.527 150.536C623.884 145.157 628.502 138.016 630.796 130.016C633.09 122.016 632.958 113.516 630.416 105.591C628.729 100.327 626.02 95.4468 622.444 91.2292C618.867 87.0116 614.494 83.5392 609.574 81.0103C604.653 78.4815 599.282 76.9459 593.768 76.4912C588.253 76.0366 582.702 76.6717 577.433 78.3605ZM591.768 123.021C590.859 123.313 589.883 123.33 588.964 123.069C588.046 122.807 587.225 122.28 586.607 121.553C585.989 120.825 585.601 119.931 585.491 118.984C585.382 118.036 585.557 117.077 585.993 116.228C586.43 115.38 587.108 114.68 587.943 114.217C588.778 113.753 589.732 113.548 590.684 113.627C591.636 113.705 592.543 114.064 593.291 114.658C594.039 115.251 594.593 116.053 594.884 116.962C595.271 118.178 595.161 119.498 594.577 120.633C593.993 121.769 592.983 122.627 591.768 123.021Z" fill="white" stroke="black" stroke-width="3" stroke-linecap="round" stroke-linejoin="round"/>
<path d="M590.293 155.868C610.997 155.868 627.781 139.104 627.781 118.425C627.781 97.7461 610.997 80.9824 590.293 80.9824C569.589 80.9824 552.805 97.7461 552.805 118.425C552.805 139.104 569.589 155.868 590.293 155.868Z" stroke="black" stroke-width="2" stroke-miterlimit="10"/>
<path d="M590.293 128.009C595.593 128.009 599.889 123.718 599.889 118.425C599.889 113.132 595.593 108.841 590.293 108.841C584.993 108.841 580.697 113.132 580.697 118.425C580.697 123.718 584.993 128.009 590.293 128.009Z" stroke="black" stroke-miterlimit="10"/>
<path d="M581.179 110.451L564.79 94.6809" stroke="black" stroke-linecap="round" stroke-linejoin="round"/>
<path d="M582.29 109.558L567.641 92.1572" stroke="black" stroke-linecap="round" stroke-linejoin="round"/>
<path d="M623.288 107.869C626.091 116.609 625.303 126.104 621.097 134.264C616.892 142.423 609.613 148.581 600.862 151.38" stroke="black" stroke-linecap="round" stroke-linejoin="round"/>
<path d="M620.456 57.7095L535.078 85.0379L533.456 87.9838L618.824 60.6554L620.456 57.7095Z" fill="white" stroke="black" stroke-linecap="round" stroke-linejoin="round"/>
<path d="M535.078 85.0381L524.794 88.3277L523.172 91.2737L533.456 87.984L535.078 85.0381Z" fill="white" stroke="black" stroke-linecap="round" stroke-linejoin="round"/>
<path d="M620.456 57.7095L618.824 60.6554L647.13 148.876L648.752 145.93L620.456 57.7095Z" fill="white" stroke="black" stroke-linecap="round" stroke-linejoin="round"/>
<path d="M642.243 97.7238L600.458 127.243L642.324 186.363L684.11 156.843L642.243 97.7238Z" fill="white"/>
<path d="M682.878 156.212L641.103 97.3912C640.548 96.6151 639.707 96.0904 638.766 95.9321C637.824 95.7738 636.858 95.9948 636.079 96.5467L600.41 121.842C599.632 122.394 599.104 123.231 598.944 124.17C598.784 125.109 599.003 126.073 599.554 126.851L641.319 185.671C641.874 186.447 642.714 186.972 643.655 187.132C644.596 187.292 645.562 187.074 646.343 186.525L682.022 161.239C682.409 160.966 682.738 160.618 682.991 160.217C683.243 159.816 683.414 159.37 683.493 158.903C683.573 158.436 683.559 157.958 683.454 157.496C683.348 157.034 683.152 156.598 682.878 156.212ZM610.595 139.302C610.378 138.995 610.256 138.63 610.246 138.253C610.236 137.877 610.338 137.506 610.538 137.188C610.739 136.869 611.03 136.617 611.374 136.463C611.718 136.31 612.1 136.261 612.472 136.324C612.843 136.387 613.188 136.559 613.462 136.817C613.736 137.076 613.927 137.409 614.012 137.776C614.096 138.143 614.07 138.527 613.936 138.879C613.802 139.231 613.567 139.535 613.26 139.754C613.054 139.898 612.822 140.001 612.576 140.055C612.331 140.11 612.077 140.115 611.829 140.072C611.582 140.028 611.345 139.936 611.133 139.8C610.921 139.665 610.739 139.489 610.595 139.282V139.302ZM618.234 145.822C618.114 145.909 617.978 145.971 617.833 146.005C617.688 146.038 617.539 146.043 617.392 146.018C617.246 145.994 617.106 145.94 616.981 145.861C616.855 145.782 616.747 145.679 616.661 145.557L615.845 144.418C615.673 144.172 615.605 143.867 615.657 143.571C615.708 143.275 615.875 143.011 616.121 142.837L617.025 142.199C617.269 142.026 617.572 141.957 617.866 142.007C618.161 142.057 618.424 142.221 618.598 142.464L619.414 143.613C619.586 143.858 619.653 144.161 619.602 144.455C619.55 144.75 619.384 145.012 619.139 145.184L618.234 145.822ZM631.645 164.804C631.524 164.891 631.388 164.953 631.243 164.986C631.099 165.02 630.949 165.024 630.803 165C630.656 164.975 630.516 164.922 630.391 164.843C630.265 164.763 630.157 164.66 630.072 164.539L629.256 163.4C629.169 163.279 629.106 163.142 629.073 162.997C629.039 162.851 629.034 162.701 629.059 162.554C629.083 162.407 629.137 162.266 629.216 162.14C629.296 162.014 629.399 161.905 629.521 161.819L630.416 161.122C630.537 161.035 630.674 160.973 630.819 160.939C630.965 160.905 631.115 160.9 631.263 160.925C631.41 160.95 631.55 161.003 631.677 161.082C631.803 161.162 631.913 161.265 631.999 161.387L632.805 162.536C632.892 162.656 632.954 162.792 632.987 162.937C633.021 163.081 633.026 163.23 633.001 163.377C632.976 163.523 632.923 163.663 632.844 163.788C632.764 163.913 632.661 164.022 632.539 164.107L631.645 164.804ZM633.169 171.177C632.95 170.87 632.827 170.505 632.816 170.128C632.805 169.751 632.907 169.379 633.107 169.06C633.308 168.74 633.599 168.488 633.944 168.334C634.288 168.18 634.671 168.131 635.043 168.195C635.415 168.258 635.76 168.43 636.034 168.69C636.308 168.949 636.499 169.284 636.583 169.651C636.666 170.019 636.639 170.403 636.504 170.755C636.368 171.107 636.132 171.411 635.823 171.629C635.618 171.773 635.387 171.875 635.142 171.93C634.897 171.984 634.644 171.99 634.398 171.946C634.151 171.902 633.915 171.81 633.704 171.674C633.493 171.539 633.311 171.363 633.169 171.157V171.177ZM636.482 178.228C636.45 178.194 636.42 178.158 636.393 178.12C636.311 178.013 636.266 177.882 636.266 177.746C636.266 177.611 636.311 177.48 636.393 177.373L643.276 169.518C643.373 169.41 643.431 169.273 643.44 169.128C643.449 168.984 643.408 168.841 643.325 168.722L615.796 129.954C615.711 129.825 615.582 129.733 615.433 129.695C615.284 129.657 615.126 129.676 614.99 129.747L605.748 134.225C605.677 134.26 605.6 134.281 605.521 134.286C605.442 134.292 605.363 134.281 605.288 134.256C605.213 134.23 605.144 134.19 605.084 134.137C605.025 134.085 604.977 134.021 604.942 133.95C604.873 133.807 604.864 133.642 604.915 133.492C604.967 133.341 605.075 133.217 605.217 133.145L614.459 128.657C614.854 128.466 615.304 128.421 615.73 128.53C616.155 128.64 616.527 128.898 616.779 129.256L644.308 168.025C644.547 168.364 644.666 168.774 644.645 169.189C644.623 169.604 644.463 170 644.19 170.313L637.259 178.169C637.154 178.265 637.019 178.321 636.877 178.328C636.736 178.335 636.596 178.293 636.482 178.208V178.228ZM654.317 174.064C654.01 174.278 653.631 174.362 653.262 174.297C652.894 174.233 652.566 174.025 652.35 173.72L614.469 120.409C614.254 120.104 614.168 119.726 614.231 119.358C614.294 118.99 614.499 118.662 614.803 118.445L636.541 103.028C636.848 102.817 637.227 102.734 637.594 102.799C637.962 102.863 638.29 103.068 638.507 103.371L676.389 156.683C676.604 156.988 676.689 157.366 676.627 157.734C676.564 158.102 676.358 158.43 676.054 158.647L654.317 174.064Z" fill="black"/>
<path d="M662.959 152.647L637.878 117.296C637.659 116.986 637.38 116.723 637.059 116.521C636.738 116.319 636.38 116.182 636.005 116.118C635.631 116.054 635.248 116.065 634.877 116.149C634.507 116.233 634.157 116.389 633.847 116.609L624.704 123.09C624.09 123.542 623.676 124.214 623.548 124.964C623.419 125.715 623.587 126.486 624.016 127.116L649.106 162.467C649.325 162.778 649.602 163.042 649.924 163.245C650.245 163.448 650.603 163.585 650.978 163.649C651.353 163.713 651.737 163.702 652.107 163.617C652.478 163.532 652.828 163.375 653.137 163.154L662.28 156.673C662.905 156.229 663.327 155.556 663.454 154.801C663.582 154.046 663.403 153.271 662.959 152.647ZM637.396 124.307C637.863 124.969 638.123 125.754 638.144 126.563C638.164 127.372 637.944 128.169 637.511 128.854C637.078 129.538 636.452 130.079 635.711 130.408C634.971 130.737 634.15 130.839 633.351 130.702C632.552 130.565 631.812 130.194 631.224 129.637C630.636 129.081 630.226 128.362 630.047 127.573C629.868 126.783 629.927 125.959 630.216 125.203C630.506 124.447 631.013 123.793 631.674 123.325C632.116 123.009 632.616 122.783 633.146 122.661C633.676 122.539 634.225 122.524 634.76 122.615C635.296 122.706 635.809 122.903 636.268 123.194C636.727 123.484 637.124 123.863 637.436 124.307H637.396ZM650.915 144.654L645.891 148.209C645.77 148.293 645.62 148.325 645.474 148.3C645.329 148.274 645.199 148.192 645.114 148.071L636.266 135.639C636.222 135.58 636.191 135.513 636.174 135.442C636.157 135.371 636.154 135.297 636.166 135.225C636.178 135.152 636.204 135.083 636.244 135.021C636.283 134.959 636.334 134.906 636.394 134.864L641.408 131.299C641.531 131.215 641.682 131.182 641.829 131.207C641.976 131.233 642.107 131.315 642.194 131.437L651.043 143.868C651.135 143.984 651.178 144.132 651.161 144.279C651.145 144.427 651.07 144.561 650.954 144.654H650.915ZM649.499 155.505C649.032 154.843 648.772 154.058 648.752 153.249C648.732 152.44 648.952 151.643 649.385 150.959C649.818 150.274 650.444 149.734 651.184 149.405C651.925 149.076 652.746 148.973 653.545 149.11C654.343 149.247 655.084 149.618 655.672 150.175C656.26 150.732 656.669 151.45 656.849 152.24C657.028 153.029 656.969 153.854 656.68 154.61C656.39 155.365 655.882 156.019 655.221 156.487C654.335 157.104 653.242 157.346 652.178 157.162C651.114 156.979 650.165 156.383 649.539 155.505H649.499Z" fill="black"/>
<path d="M637.416 107.761L671.866 156.241" stroke="black" stroke-width="1.4" stroke-miterlimit="10" stroke-linecap="round"/>
<path d="M642.306 79.0891L619.116 124.409L683.392 157.219L706.582 111.899L642.306 79.0891Z" fill="white"/>
<path d="M706.572 111.885L642.293 79.0874C641.441 78.6551 640.453 78.5778 639.544 78.8723C638.635 79.1668 637.881 79.8092 637.446 80.6586L617.546 119.555C617.112 120.406 617.033 121.393 617.326 122.302C617.619 123.211 618.26 123.967 619.11 124.406L683.389 157.194C684.241 157.626 685.229 157.704 686.138 157.409C687.046 157.115 687.801 156.472 688.236 155.623L708.135 116.727C708.566 115.877 708.644 114.891 708.351 113.985C708.058 113.078 707.419 112.324 706.572 111.885ZM634.673 130.317C634.336 130.147 634.057 129.88 633.872 129.551C633.687 129.222 633.604 128.845 633.633 128.469C633.663 128.093 633.804 127.734 634.038 127.437C634.272 127.141 634.589 126.921 634.949 126.805C635.308 126.689 635.694 126.682 636.058 126.786C636.421 126.889 636.745 127.098 636.99 127.386C637.234 127.674 637.387 128.028 637.43 128.403C637.473 128.778 637.403 129.157 637.229 129.492C636.998 129.939 636.6 130.276 636.121 130.431C635.642 130.585 635.122 130.544 634.673 130.317ZM644.505 132.566C644.437 132.698 644.344 132.816 644.231 132.912C644.118 133.009 643.986 133.082 643.845 133.127C643.703 133.173 643.554 133.19 643.406 133.178C643.258 133.166 643.113 133.125 642.981 133.057L641.732 132.419C641.6 132.352 641.482 132.26 641.386 132.148C641.29 132.036 641.217 131.905 641.171 131.765C641.125 131.624 641.108 131.476 641.12 131.329C641.132 131.181 641.173 131.038 641.241 130.906L641.742 129.924C641.881 129.659 642.118 129.459 642.403 129.367C642.688 129.275 642.998 129.299 643.266 129.433L644.515 130.072C644.647 130.139 644.765 130.232 644.861 130.345C644.958 130.458 645.031 130.589 645.077 130.731C645.122 130.872 645.14 131.021 645.127 131.169C645.115 131.317 645.074 131.462 645.006 131.594L644.505 132.566ZM665.151 143.201C665.013 143.464 664.777 143.662 664.494 143.754C664.211 143.845 663.904 143.823 663.637 143.692L662.379 143.053C662.115 142.913 661.916 142.676 661.824 142.392C661.732 142.108 661.755 141.799 661.887 141.531L662.398 140.549C662.535 140.285 662.771 140.085 663.054 139.993C663.338 139.901 663.646 139.924 663.912 140.058L665.171 140.697C665.437 140.835 665.637 141.072 665.729 141.357C665.821 141.642 665.797 141.951 665.663 142.219L665.151 143.201ZM669.458 148.111C669.121 147.94 668.844 147.673 668.659 147.344C668.475 147.016 668.392 146.64 668.422 146.264C668.451 145.889 668.591 145.53 668.825 145.235C669.058 144.939 669.374 144.718 669.732 144.602C670.091 144.485 670.476 144.477 670.839 144.579C671.202 144.681 671.527 144.888 671.772 145.175C672.018 145.461 672.172 145.813 672.217 146.187C672.262 146.561 672.194 146.94 672.024 147.276C671.913 147.503 671.758 147.706 671.568 147.872C671.378 148.039 671.156 148.166 670.917 148.246C670.677 148.327 670.424 148.359 670.171 148.341C669.919 148.322 669.673 148.254 669.448 148.14L669.458 148.111ZM675.661 152.824L675.533 152.775C675.412 152.714 675.315 152.614 675.258 152.491C675.2 152.368 675.187 152.229 675.219 152.097L677.706 141.905C677.742 141.764 677.728 141.615 677.667 141.482C677.606 141.35 677.502 141.243 677.372 141.178L634.988 119.574C634.853 119.503 634.698 119.482 634.55 119.517C634.401 119.551 634.271 119.638 634.182 119.761L628.066 128.01C628.021 128.079 627.962 128.139 627.893 128.185C627.824 128.231 627.747 128.262 627.665 128.277C627.584 128.292 627.5 128.29 627.419 128.272C627.339 128.254 627.262 128.219 627.195 128.17C627.128 128.121 627.072 128.059 627.03 127.988C626.988 127.917 626.961 127.838 626.95 127.756C626.94 127.673 626.946 127.59 626.969 127.51C626.992 127.431 627.031 127.357 627.083 127.293L633.198 119.044C633.458 118.691 633.835 118.442 634.262 118.341C634.689 118.241 635.138 118.295 635.528 118.494L677.913 140.098C678.29 140.283 678.594 140.591 678.772 140.971C678.951 141.351 678.995 141.781 678.896 142.189L676.409 152.382C676.394 152.466 676.362 152.546 676.314 152.616C676.267 152.687 676.204 152.746 676.132 152.791C676.059 152.836 675.978 152.864 675.893 152.875C675.809 152.886 675.723 152.879 675.642 152.854L675.661 152.824ZM689.544 140.883C689.372 141.214 689.076 141.464 688.72 141.578C688.365 141.692 687.979 141.661 687.646 141.492L629.364 111.748C629.031 111.578 628.779 111.283 628.663 110.928C628.547 110.573 628.576 110.186 628.745 109.853L640.877 86.138C641.049 85.8072 641.345 85.5577 641.7 85.4436C642.056 85.3296 642.442 85.3604 642.774 85.5292L701.056 115.273C701.389 115.443 701.641 115.738 701.757 116.093C701.874 116.448 701.844 116.835 701.676 117.169L689.544 140.883Z" fill="black"/>
<path d="M687.282 117.915L648.683 98.2751C647.993 97.9289 647.195 97.8666 646.46 98.1016C645.724 98.3366 645.111 98.8501 644.75 99.532L639.648 109.509C639.468 109.849 639.358 110.221 639.324 110.603C639.291 110.986 639.334 111.371 639.451 111.737C639.568 112.103 639.757 112.441 640.007 112.733C640.257 113.025 640.563 113.264 640.906 113.437L679.574 133.067C679.914 133.246 680.287 133.356 680.67 133.389C681.053 133.423 681.439 133.38 681.805 133.263C682.171 133.146 682.51 132.957 682.802 132.708C683.095 132.458 683.334 132.153 683.507 131.81L688.541 121.843C688.887 121.154 688.95 120.356 688.714 119.622C688.479 118.888 687.965 118.275 687.282 117.915ZM651.515 104.599C652.237 104.967 652.834 105.541 653.229 106.248C653.625 106.954 653.802 107.763 653.738 108.57C653.674 109.377 653.372 110.147 652.87 110.783C652.367 111.419 651.688 111.892 650.916 112.142C650.145 112.391 649.317 112.407 648.537 112.187C647.756 111.967 647.059 111.521 646.533 110.905C646.006 110.289 645.675 109.531 645.58 108.726C645.485 107.922 645.631 107.108 645.999 106.386C646.246 105.91 646.585 105.486 646.996 105.14C647.407 104.795 647.882 104.533 648.394 104.371C648.906 104.208 649.446 104.148 649.981 104.194C650.516 104.24 651.038 104.391 651.515 104.638V104.599ZM672.928 116.383L670.126 121.852C670.093 121.918 670.047 121.977 669.99 122.025C669.934 122.073 669.868 122.109 669.798 122.131C669.727 122.153 669.652 122.16 669.579 122.153C669.505 122.146 669.434 122.124 669.369 122.088L655.781 115.155C655.716 115.123 655.657 115.078 655.609 115.023C655.561 114.967 655.524 114.903 655.502 114.834C655.479 114.764 655.47 114.691 655.476 114.618C655.482 114.545 655.502 114.474 655.536 114.409L658.338 108.93C658.372 108.864 658.419 108.807 658.475 108.759C658.532 108.712 658.597 108.677 658.667 108.655C658.738 108.633 658.812 108.625 658.885 108.632C658.958 108.639 659.03 108.66 659.095 108.694L672.692 115.666C672.822 115.737 672.919 115.855 672.963 115.996C673.007 116.137 672.994 116.29 672.928 116.422V116.383ZM676.703 126.654C675.983 126.284 675.388 125.709 674.994 125.001C674.601 124.294 674.426 123.485 674.492 122.678C674.558 121.872 674.862 121.103 675.366 120.468C675.87 119.834 676.55 119.363 677.321 119.115C678.093 118.867 678.921 118.853 679.7 119.074C680.48 119.296 681.176 119.743 681.701 120.36C682.226 120.976 682.557 121.734 682.651 122.538C682.744 123.342 682.598 124.156 682.229 124.877C681.987 125.36 681.651 125.79 681.242 126.143C680.833 126.496 680.358 126.765 679.844 126.933C679.331 127.102 678.789 127.168 678.25 127.127C677.711 127.086 677.185 126.938 676.703 126.694V126.654Z" fill="black"/>
<path d="M643.836 89.9773L696.838 117.031" stroke="black" stroke-width="1.4" stroke-miterlimit="10" stroke-linecap="round"/>
<path d="M625.5 268V142.336L522.602 96.7039V222.574L625.5 268Z" fill="white" stroke="black" stroke-width="3" stroke-linecap="round" stroke-linejoin="round"/>
<path d="M625.5 268V142.336L728.398 96.7039V222.574L625.5 268Z" fill="white" stroke="black" stroke-width="3" stroke-linecap="round" stroke-linejoin="round"/>
<path d="M761 134.824L661.789 180.398L625.5 142.336L728.398 96.7039L761 134.824Z" fill="white" stroke="black" stroke-width="3" stroke-linecap="round" stroke-linejoin="round"/>
<path d="M490 134.824L589.211 180.398L625.5 142.336L522.602 96.7039L490 134.824Z" fill="white" stroke="black" stroke-width="3" stroke-linecap="round" stroke-linejoin="round"/>
<path d="M258.396 221.91L318.5 195.194L378.605 221.91L318.5 248.574L258.396 221.91Z" fill="white" stroke="black" stroke-width="3" stroke-linecap="round" stroke-linejoin="round"/>
<path d="M397.648 199.593L339.697 172.935L318.5 195.194L378.605 221.887L397.648 199.593Z" fill="white" stroke="black" stroke-width="3" stroke-linecap="round" stroke-linejoin="round"/>
<path d="M239.352 199.593L297.303 172.935L318.5 195.194L258.395 221.887L239.352 199.593Z" fill="white" stroke="black" stroke-width="3" stroke-linecap="round" stroke-linejoin="round"/>
<path d="M318.5 322.065V248.574L258.396 221.887V295.499L318.5 322.065Z" fill="white" stroke="black" stroke-width="3" stroke-linecap="round" stroke-linejoin="round"/>
<path d="M318.5 322.065V248.574L378.605 221.887V295.499L318.5 322.065Z" fill="white" stroke="black" stroke-width="3" stroke-linecap="round" stroke-linejoin="round"/>
<path d="M309.627 242.854L274.843 258.268L262.829 195.246L297.613 179.826L309.627 242.854Z" fill="white" stroke="black" stroke-width="3" stroke-linecap="round" stroke-linejoin="round"/>
<path d="M347.467 244.428L309.627 242.854L297.613 179.826L335.453 181.4L347.467 244.428Z" fill="white" stroke="black" stroke-width="3" stroke-linecap="round" stroke-linejoin="round"/>
<path d="M309.627 242.854L280.431 260.358L268.417 197.336L297.613 179.826L309.627 242.854Z" fill="white" stroke="black" stroke-width="3" stroke-linecap="round" stroke-linejoin="round"/>
<path d="M309.627 242.854L343.223 248.39L331.209 185.368L297.613 179.826L309.627 242.854Z" fill="white" stroke="black" stroke-width="3" stroke-linecap="round" stroke-linejoin="round"/>
<path d="M329.4 211.464L308.209 208.196L305.28 191.628L326.471 194.901L329.4 211.464Z" fill="white" stroke="black" stroke-width="3" stroke-linecap="round" stroke-linejoin="round"/>
<path d="M333.897 235.044L312.706 231.776L309.777 215.208L330.968 218.476L333.897 235.044Z" fill="white" stroke="black" stroke-width="3" stroke-linecap="round" stroke-linejoin="round"/>
<path d="M279.225 222.306L297.728 211.469L294.357 194.987L275.854 205.824L279.225 222.306Z" fill="white" stroke="black" stroke-width="3" stroke-linecap="round" stroke-linejoin="round"/>
<path d="M283.721 245.886L302.219 235.044L298.848 218.562L280.35 229.404L283.721 245.886Z" fill="white" stroke="black" stroke-width="3" stroke-linecap="round" stroke-linejoin="round"/>
<path d="M309.255 188.603L302.164 194.181L303.673 196.1L310.764 190.522L309.255 188.603Z" fill="black"/>
<path d="M331.798 206.637L324.707 212.215L326.216 214.133L333.307 208.555L331.798 206.637Z" fill="black"/>
<path d="M336.146 229.448L329.055 235.026L330.564 236.944L337.655 231.366L336.146 229.448Z" fill="black"/>
<path d="M303.198 222.378L295.249 218.112L294.095 220.263L302.044 224.529L303.198 222.378Z" fill="black"/>
<path d="M298.679 198.67L290.729 194.404L289.575 196.554L297.525 200.82L298.679 198.67Z" fill="black"/>
<path d="M289.486 245.436L281.536 241.17L280.382 243.321L288.331 247.587L289.486 245.436Z" fill="black"/>
<path d="M284.872 221.229L276.922 216.963L275.768 219.113L283.718 223.38L284.872 221.229Z" fill="black"/>
<path d="M313.745 212.158L306.654 217.736L308.163 219.654L315.254 214.076L313.745 212.158Z" fill="black"/>
<path d="M299.678 207.04L265.582 216.579L277.197 258.096L311.293 248.557L299.678 207.04Z" fill="white" stroke="black" stroke-width="3" stroke-linecap="round" stroke-linejoin="round"/>
<path d="M297.129 211.246L269.953 218.849L277.206 244.776L304.383 237.173L297.129 211.246Z" stroke="black" stroke-width="3" stroke-linecap="round" stroke-linejoin="round"/>
<path d="M279.34 238.277C279.34 238.277 279.07 228.646 283.515 227.182C287.96 225.717 288.683 221.318 288.367 220.089" stroke="black" stroke-width="3" stroke-linecap="round" stroke-linejoin="round"/>
<path d="M284.795 232.569C284.795 232.569 292.715 226.883 298.544 232.029" stroke="black" stroke-width="3" stroke-linecap="round" stroke-linejoin="round"/>
<path d="M340.67 206.966L306.127 199.201L296.671 241.263L331.214 249.028L340.67 206.966Z" fill="white" stroke="black" stroke-width="3" stroke-linecap="round" stroke-linejoin="round"/>
<path d="M336.427 209.457L308.894 203.267L302.988 229.534L330.522 235.724L336.427 209.457Z" stroke="black" stroke-width="3" stroke-linecap="round" stroke-linejoin="round"/>
<path d="M307.962 224.822C307.962 224.822 312.292 216.207 316.898 217.034C321.504 217.861 324.254 214.329 324.53 213.089" stroke="black" stroke-width="3" stroke-linecap="round" stroke-linejoin="round"/>
<path d="M315.479 222.375C315.479 222.375 325.139 221.123 327.838 228.416" stroke="black" stroke-width="3" stroke-linecap="round" stroke-linejoin="round"/>
<path d="M366.242 224.084L318.416 216.423L313.378 247.878L361.203 255.538L366.242 224.084Z" fill="white" stroke="black" stroke-width="3" stroke-linecap="round" stroke-linejoin="round"/>
<path d="M363.213 226.146L320.649 219.329L316.407 245.816L358.97 252.633L363.213 226.146Z" fill="white" stroke="black" stroke-width="3" stroke-linecap="round" stroke-linejoin="round"/>
<path d="M358.312 257.129L373.239 211.052L342.934 201.234L328.007 247.312L358.312 257.129Z" fill="white" stroke="black" stroke-width="3" stroke-linecap="round" stroke-linejoin="round"/>
<path d="M356.557 253.492L369.92 212.541L344.437 204.226L331.074 245.176L356.557 253.492Z" fill="white" stroke="black" stroke-width="3" stroke-linecap="round" stroke-linejoin="round"/>
<path d="M397.648 244.181L339.697 270.833L318.5 248.574L378.605 221.887L397.648 244.181Z" fill="white" stroke="black" stroke-width="3" stroke-linecap="round" stroke-linejoin="round"/>
<path d="M239.352 244.181L297.303 270.833L318.5 248.574L258.395 221.887L239.352 244.181Z" fill="white" stroke="black" stroke-width="3" stroke-linecap="round" stroke-linejoin="round"/>
<path d="M354.054 224.477C356.614 224.477 358.689 222.402 358.689 219.842C358.689 217.283 356.614 215.208 354.054 215.208C351.495 215.208 349.42 217.283 349.42 219.842C349.42 222.402 351.495 224.477 354.054 224.477Z" fill="white" stroke="black" stroke-width="3" stroke-linecap="round" stroke-linejoin="round"/>
<path d="M347.071 227.739C348.368 227.739 349.42 227.086 349.42 226.28C349.42 225.475 348.368 224.822 347.071 224.822C345.774 224.822 344.722 225.475 344.722 226.28C344.722 227.086 345.774 227.739 347.071 227.739Z" fill="white" stroke="black" stroke-width="3" stroke-linecap="round" stroke-linejoin="round"/>
<path d="M322.52 240.517C322.52 240.517 327.034 241.395 326.661 235.98C326.287 230.564 324.082 226.137 327.809 226.28" fill="white"/>
<path d="M322.52 240.517C322.52 240.517 327.034 241.395 326.661 235.98C326.287 230.564 324.082 226.137 327.809 226.28" stroke="black" stroke-width="3" stroke-linecap="round" stroke-linejoin="round"/>
<g clip-path="url(#clip1)">
<path d="M355.373 299.254C363.659 299.738 370.769 293.414 371.254 285.127C371.738 276.841 365.414 269.731 357.127 269.246C348.841 268.762 341.731 275.087 341.246 283.373C340.762 291.659 347.087 298.769 355.373 299.254Z" fill="white"/>
<path d="M355.352 299.601C346.886 299.106 340.403 291.817 340.897 283.352C341.392 274.886 348.681 268.403 357.147 268.897C365.612 269.392 372.096 276.681 371.601 285.147C371.106 293.612 363.817 300.096 355.352 299.601ZM357.126 269.248C348.853 268.765 341.732 275.099 341.248 283.372C340.765 291.646 347.099 298.767 355.372 299.25C363.646 299.734 370.767 293.397 371.25 285.126C371.734 276.856 365.4 269.732 357.126 269.248Z" fill="#FF9280"/>
<path d="M355.41 298.615C363.344 299.079 370.152 293.023 370.615 285.089C371.079 277.155 365.023 270.347 357.089 269.884C349.155 269.42 342.347 275.476 341.884 283.41C341.42 291.344 347.476 298.152 355.41 298.615Z" stroke="#FF2400" stroke-width="2" stroke-linecap="round" stroke-linejoin="round" stroke-dasharray="5.98 5.98"/>
<path d="M368.558 284.969C368.37 288.126 366.975 291.089 364.661 293.246C362.348 295.402 359.293 296.586 356.131 296.551C352.969 296.517 349.941 295.268 347.674 293.062C345.408 290.856 344.077 287.863 343.957 284.703C343.838 281.543 344.938 278.457 347.031 276.086C349.124 273.715 352.049 272.24 355.199 271.967C358.35 271.693 361.485 272.642 363.955 274.617C366.425 276.592 368.041 279.442 368.467 282.575C368.575 283.368 368.606 284.17 368.558 284.969V284.969Z" stroke="#FF2400" stroke-width="2" stroke-miterlimit="10"/>
<path d="M368.129 284.944C367.948 287.987 366.605 290.844 364.377 292.924C362.149 295.005 359.207 296.15 356.159 296.123C353.111 296.097 350.19 294.9 347.999 292.781C345.808 290.662 344.515 287.782 344.387 284.736C344.259 281.691 345.306 278.713 347.311 276.417C349.316 274.121 352.127 272.684 355.162 272.401C358.197 272.119 361.224 273.013 363.619 274.899C366.013 276.785 367.592 279.519 368.028 282.536C368.143 283.333 368.177 284.14 368.129 284.944V284.944Z" stroke="#FF2400" stroke-miterlimit="10"/>
<path d="M355.429 298.287C363.182 298.741 369.834 292.823 370.287 285.07C370.74 277.317 364.823 270.665 357.07 270.212C349.317 269.759 342.665 275.676 342.212 283.429C341.758 291.182 347.676 297.834 355.429 298.287Z" stroke="#FF2400" stroke-miterlimit="10"/>
<path d="M369.723 282.636L343.296 281.091L342.95 287.021L369.376 288.566L369.723 282.636Z" fill="white"/>
<path d="M343.296 281.091C344.399 281.135 345.5 281.191 346.602 281.241L349.907 281.41C352.11 281.524 354.312 281.654 356.515 281.776C358.716 281.911 360.919 282.039 363.12 282.182L366.422 282.4C367.523 282.478 368.623 282.551 369.723 282.636C368.621 282.591 367.519 282.535 366.417 282.486L363.112 282.317C360.91 282.202 358.707 282.073 356.504 281.951C354.303 281.814 352.1 281.687 349.899 281.544L346.597 281.326C345.497 281.244 344.396 281.175 343.296 281.091Z" fill="#FF2400"/>
<path d="M342.95 287.021C344.052 287.066 345.153 287.122 346.255 287.171L349.56 287.341C351.763 287.454 353.966 287.585 356.168 287.706C358.37 287.842 360.572 287.969 362.773 288.112L366.075 288.33C367.176 288.409 368.276 288.481 369.376 288.566C368.274 288.522 367.172 288.466 366.07 288.416L362.766 288.247C360.563 288.133 358.36 288.003 356.158 287.881C353.956 287.745 351.753 287.618 349.552 287.475L346.25 287.257C345.15 287.178 344.049 287.106 342.95 287.021Z" fill="#FF2400"/>
<rect x="337.457" y="280" width="38" height="7.81481" transform="rotate(3.35 337.457 280)" fill="white"/>
</g>
<g clip-path="url(#clip2)">
<path d="M300.169 307.574C309.4 305.101 314.878 295.613 312.405 286.382C309.931 277.151 300.443 271.673 291.212 274.147C281.981 276.62 276.503 286.108 278.977 295.339C281.45 304.57 290.938 310.048 300.169 307.574Z" fill="white"/>
<path d="M300.267 307.959C290.836 310.486 281.109 304.87 278.582 295.439C276.056 286.009 281.671 276.282 291.102 273.755C300.532 271.228 310.259 276.844 312.786 286.274C315.313 295.705 309.697 305.432 300.267 307.959ZM291.207 274.146C281.99 276.615 276.504 286.118 278.973 295.335C281.443 304.551 290.947 310.042 300.163 307.573C309.38 305.103 314.87 295.594 312.402 286.383C309.933 277.171 300.423 271.676 291.207 274.146Z" fill="#F8B500"/>
<path d="M299.359 304.569C306.931 302.54 311.426 294.756 309.396 287.183C307.367 279.61 299.583 275.116 292.01 277.145C284.438 279.174 279.944 286.958 281.973 294.531C284.002 302.104 291.786 306.598 299.359 304.569Z" stroke="#F8B500" stroke-width="2" stroke-miterlimit="10"/>
<path d="M299.23 304.091C306.539 302.132 310.877 294.62 308.918 287.311C306.96 280.002 299.447 275.664 292.138 277.623C284.829 279.581 280.492 287.094 282.45 294.403C284.409 301.712 291.921 306.049 299.23 304.091Z" stroke="#F8B500" stroke-miterlimit="10"/>
<path d="M300.041 307.114C309.019 304.708 314.347 295.479 311.941 286.501C309.536 277.523 300.307 272.195 291.329 274.6C282.35 277.006 277.022 286.235 279.428 295.213C281.834 304.191 291.062 309.519 300.041 307.114Z" stroke="#F8B500" stroke-miterlimit="10"/>
<path d="M299.489 305.036L299.905 305.509L300.529 305.435L300.208 305.976L300.471 306.547L299.857 306.409L299.395 306.835L299.337 306.209L298.789 305.902L299.366 305.653L299.489 305.036Z" fill="#F8B500"/>
<path d="M291.405 274.866L291.821 275.339L292.445 275.265L292.124 275.805L292.387 276.377L291.773 276.239L291.311 276.665L291.253 276.039L290.705 275.731L291.282 275.483L291.405 274.866Z" fill="#F8B500"/>
<path d="M305.809 301.496L306.224 301.97L306.849 301.896L306.527 302.436L306.791 303.008L306.177 302.869L305.716 303.296L305.658 302.669L305.109 302.362L305.687 302.114L305.809 301.496Z" fill="#F8B500"/>
<path d="M292.246 305.131L292.661 305.604L293.285 305.53L292.964 306.071L293.227 306.642L292.614 306.503L292.151 306.93L292.093 306.304L291.545 305.996L292.124 305.748L292.246 305.131Z" fill="#F8B500"/>
<path d="M309.655 284.265L280.301 292.13L282.066 298.718L311.42 290.852L309.655 284.265Z" fill="white"/>
<path d="M280.301 292.13C281.517 291.78 282.735 291.443 283.956 291.099L287.622 290.084C290.061 289.414 292.51 288.759 294.954 288.096C297.398 287.432 299.849 286.791 302.299 286.152L305.975 285.196C307.203 284.884 308.425 284.567 309.657 284.261C308.44 284.61 307.223 284.947 306.001 285.292L302.339 286.301C299.9 286.971 297.451 287.628 295.006 288.29C292.561 288.953 290.112 289.595 287.662 290.234L283.985 291.19C282.755 291.506 281.528 291.822 280.301 292.13Z" fill="#F8B500"/>
<path d="M282.066 298.717C283.282 298.368 284.5 298.031 285.722 297.687L289.384 296.676C291.823 296.005 294.272 295.351 296.716 294.688C299.16 294.024 301.611 293.383 304.061 292.744L307.737 291.787C308.965 291.476 310.187 291.159 311.419 290.852C310.202 291.202 308.985 291.538 307.763 291.884L304.101 292.893C301.662 293.563 299.213 294.22 296.768 294.882C294.323 295.545 291.875 296.187 289.429 296.828L285.752 297.784C284.52 298.094 283.294 298.412 282.066 298.717Z" fill="#F8B500"/>
</g>
<path d="M337.86 287.026L338.234 280.647L342.519 280.898L342.456 281.985L339.41 281.807L339.314 283.451L341.847 283.6L341.788 284.606L339.255 284.458L339.1 287.099L337.86 287.026ZM343.019 287.328L343.393 280.949L346.214 281.114C346.507 281.132 346.773 281.21 347.011 281.35C347.256 281.485 347.462 281.659 347.63 281.874C347.798 282.082 347.926 282.318 348.012 282.581C348.099 282.839 348.135 283.096 348.12 283.354C348.096 283.767 347.969 284.138 347.74 284.467C347.516 284.791 347.224 285.017 346.861 285.146L348.176 287.63L346.784 287.549L345.606 285.334L344.384 285.263L344.259 287.401L343.019 287.328ZM344.448 284.176L346.002 284.266C346.116 284.273 346.223 284.252 346.322 284.204C346.427 284.156 346.518 284.089 346.595 284.004C346.672 283.912 346.736 283.805 346.785 283.681C346.834 283.558 346.863 283.424 346.871 283.281C346.88 283.131 346.864 282.992 346.824 282.863C346.783 282.735 346.724 282.623 346.645 282.528C346.573 282.428 346.484 282.35 346.379 282.296C346.28 282.236 346.177 282.203 346.069 282.197L344.569 282.109L344.448 284.176ZM348.994 287.678L349.368 281.299L350.608 281.372L350.234 287.751L348.994 287.678ZM356.058 287.001L355.995 288.088L351.565 287.829L351.939 281.45L356.287 281.704L356.224 282.791L353.115 282.609L353.025 284.146L355.711 284.303L355.652 285.309L352.966 285.152L352.869 286.814L356.058 287.001ZM358.44 284.129L358.201 288.217L356.961 288.145L357.335 281.765L358.296 281.822L361.375 286.203L361.62 282.025L362.86 282.098L362.487 288.468L361.481 288.409L358.44 284.129ZM363.814 288.546L364.187 282.167L366.505 282.302C367.026 282.333 367.477 282.443 367.856 282.634C368.242 282.825 368.558 283.071 368.805 283.374C369.051 283.677 369.229 284.027 369.338 284.424C369.447 284.815 369.489 285.23 369.464 285.667C369.435 286.152 369.335 286.588 369.162 286.974C368.995 287.355 368.766 287.679 368.474 287.944C368.182 288.203 367.837 288.399 367.439 288.532C367.047 288.66 366.611 288.709 366.132 288.681L363.814 288.546ZM368.215 285.594C368.233 285.288 368.207 285.004 368.138 284.742C368.07 284.479 367.96 284.251 367.809 284.055C367.658 283.86 367.466 283.705 367.232 283.589C367.005 283.473 366.741 283.407 366.442 283.389L365.363 283.326L365.117 287.531L366.195 287.594C366.501 287.612 366.774 287.574 367.014 287.48C367.259 287.386 367.466 287.251 367.632 287.074C367.805 286.892 367.941 286.675 368.04 286.422C368.139 286.169 368.197 285.893 368.215 285.594ZM374.321 284.437C374.282 284.392 374.207 284.331 374.098 284.252C373.994 284.174 373.863 284.097 373.705 284.022C373.554 283.941 373.387 283.871 373.204 283.812C373.021 283.753 372.834 283.718 372.642 283.707C372.301 283.687 372.042 283.735 371.867 283.851C371.692 283.967 371.598 284.139 371.585 284.367C371.577 284.498 371.6 284.611 371.655 284.704C371.716 284.792 371.804 284.872 371.92 284.945C372.036 285.018 372.183 285.087 372.359 285.151C372.542 285.216 372.751 285.285 372.987 285.359C373.294 285.461 373.57 285.568 373.816 285.678C374.068 285.789 374.276 285.922 374.442 286.075C374.613 286.23 374.741 286.411 374.824 286.621C374.909 286.824 374.942 287.072 374.925 287.366C374.905 287.707 374.822 287.997 374.676 288.235C374.536 288.467 374.351 288.652 374.121 288.788C373.896 288.925 373.638 289.022 373.346 289.077C373.061 289.126 372.763 289.142 372.451 289.123C371.972 289.095 371.503 288.996 371.044 288.825C370.585 288.654 370.178 288.425 369.822 288.14L370.433 287.103C370.484 287.16 370.575 287.237 370.708 287.335C370.847 287.428 371.009 287.524 371.196 287.625C371.382 287.72 371.591 287.805 371.821 287.878C372.051 287.952 372.289 287.996 372.534 288.01C373.217 288.05 373.571 287.852 373.597 287.414C373.605 287.277 373.573 287.158 373.501 287.057C373.428 286.957 373.323 286.866 373.183 286.786C373.043 286.706 372.874 286.63 372.673 286.558C372.473 286.486 372.25 286.407 372.002 286.32C371.702 286.219 371.44 286.113 371.218 286.004C371.003 285.889 370.824 285.761 370.682 285.621C370.54 285.474 370.435 285.312 370.368 285.134C370.306 284.95 370.283 284.735 370.297 284.49C370.316 284.166 370.393 283.882 370.527 283.638C370.662 283.393 370.839 283.193 371.058 283.038C371.284 282.882 371.54 282.771 371.826 282.704C372.113 282.63 372.418 282.603 372.742 282.622C373.191 282.648 373.6 282.745 373.969 282.91C374.338 283.07 374.658 283.254 374.928 283.462L374.321 284.437Z" fill="#FF2400"/>
<path d="M283.833 293.311C283.787 293.284 283.707 293.253 283.592 293.218C283.483 293.181 283.351 293.152 283.197 293.133C283.047 293.107 282.886 293.095 282.715 293.097C282.545 293.098 282.377 293.121 282.212 293.165C281.918 293.244 281.714 293.357 281.599 293.503C281.483 293.65 281.452 293.822 281.504 294.017C281.535 294.131 281.586 294.219 281.658 294.283C281.734 294.339 281.831 294.382 281.95 294.412C282.068 294.441 282.21 294.458 282.377 294.463C282.549 294.466 282.745 294.466 282.965 294.462C283.252 294.463 283.515 294.475 283.754 294.5C283.997 294.523 284.21 294.576 284.393 294.66C284.581 294.742 284.739 294.859 284.869 295.012C284.996 295.16 285.094 295.361 285.162 295.613C285.241 295.907 285.252 296.174 285.195 296.416C285.142 296.651 285.037 296.858 284.881 297.038C284.73 297.217 284.539 297.37 284.309 297.498C284.082 297.62 283.834 297.716 283.567 297.788C283.154 297.898 282.731 297.946 282.296 297.93C281.861 297.914 281.453 297.835 281.073 297.694L281.298 296.648C281.357 296.682 281.456 296.722 281.595 296.767C281.738 296.806 281.902 296.843 282.088 296.876C282.272 296.904 282.472 296.916 282.686 296.914C282.901 296.912 283.114 296.882 283.325 296.826C283.913 296.668 284.156 296.402 284.055 296.026C284.023 295.907 283.963 295.816 283.874 295.751C283.785 295.687 283.67 295.64 283.53 295.611C283.39 295.583 283.225 295.566 283.036 295.561C282.847 295.557 282.636 295.553 282.403 295.549C282.121 295.547 281.871 295.531 281.653 295.501C281.439 295.465 281.253 295.407 281.094 295.328C280.933 295.244 280.799 295.137 280.692 295.005C280.589 294.867 280.509 294.693 280.453 294.481C280.378 294.203 280.363 293.942 280.408 293.698C280.453 293.454 280.547 293.236 280.688 293.043C280.835 292.849 281.02 292.684 281.243 292.547C281.464 292.405 281.714 292.296 281.992 292.222C282.379 292.118 282.751 292.085 283.108 292.122C283.465 292.153 283.786 292.219 284.072 292.319L283.833 293.311ZM287.691 295.648C287.944 295.58 288.141 295.472 288.284 295.323C288.431 295.173 288.534 295.002 288.593 294.81C288.657 294.616 288.681 294.408 288.666 294.185C288.654 293.957 288.618 293.729 288.558 293.502L287.808 290.705L288.867 290.421L289.616 293.219C289.717 293.595 289.765 293.96 289.761 294.314C289.762 294.668 289.697 294.994 289.568 295.294C289.443 295.592 289.249 295.854 288.983 296.08C288.718 296.306 288.374 296.475 287.952 296.588C287.514 296.706 287.12 296.731 286.771 296.664C286.426 296.591 286.125 296.457 285.868 296.26C285.61 296.059 285.392 295.805 285.217 295.499C285.046 295.191 284.913 294.86 284.818 294.504L284.068 291.707L285.134 291.421L285.884 294.219C285.946 294.45 286.027 294.669 286.126 294.874C286.229 295.073 286.354 295.241 286.501 295.378C286.653 295.514 286.828 295.611 287.026 295.668C287.222 295.721 287.444 295.714 287.691 295.648ZM295.112 294.628L294.139 290.996L293.45 294.08L292.87 294.235L290.731 291.909L291.705 295.541L290.638 295.827L289.168 290.34L290.312 290.034L292.771 292.721L293.573 289.16L294.709 288.856L296.179 294.342L295.112 294.628ZM301.026 293.044L300.052 289.412L299.363 292.495L298.783 292.651L296.645 290.325L297.618 293.957L296.551 294.242L295.081 288.756L296.225 288.45L298.684 291.137L299.486 287.576L300.622 287.271L302.092 292.758L301.026 293.044ZM306.024 290.702L306.274 291.637L302.465 292.658L300.995 287.172L304.735 286.169L304.985 287.104L302.312 287.821L302.666 289.142L304.976 288.523L305.208 289.389L302.898 290.008L303.281 291.437L306.024 290.702ZM306.333 291.622L304.863 286.135L307.289 285.485C307.542 285.417 307.788 285.409 308.028 285.461C308.272 285.506 308.495 285.595 308.696 285.729C308.896 285.858 309.07 286.021 309.217 286.219C309.362 286.412 309.465 286.619 309.524 286.841C309.62 287.196 309.616 287.545 309.515 287.887C309.417 288.222 309.233 288.495 308.964 288.705L310.768 290.433L309.571 290.754L307.957 289.215L306.907 289.497L307.399 291.336L306.333 291.622ZM306.656 288.562L307.993 288.203C308.091 288.177 308.175 288.13 308.245 288.061C308.32 287.992 308.378 287.91 308.419 287.816C308.459 287.717 308.482 287.609 308.489 287.491C308.496 287.373 308.483 287.252 308.45 287.128C308.416 287 308.363 286.887 308.293 286.79C308.223 286.692 308.141 286.615 308.049 286.557C307.96 286.492 307.863 286.452 307.759 286.436C307.659 286.413 307.563 286.414 307.47 286.439L306.18 286.784L306.656 288.562Z" fill="#F8B500"/>
<line x1="345.013" y1="280.325" x2="367.475" y2="281.64" stroke="#FF2400" stroke-width="0.25"/>
<line x1="345.007" y1="288.395" x2="367.469" y2="289.71" stroke="#FF9280" stroke-width="0.25"/>
<g clip-path="url(#clip3)">
<path d="M679.719 235.074C693.854 233.838 704.311 221.376 703.074 207.241C701.838 193.105 689.376 182.649 675.241 183.885C661.105 185.122 650.649 197.584 651.885 211.719C653.122 225.854 665.584 236.311 679.719 235.074Z" fill="white"/>
<path d="M679.771 235.669C665.33 236.932 652.555 226.212 651.291 211.771C650.028 197.33 660.747 184.555 675.189 183.291C689.63 182.028 702.405 192.748 703.668 207.189C704.932 221.63 694.212 234.405 679.771 235.669ZM675.241 183.89C661.128 185.125 650.655 197.605 651.89 211.719C653.125 225.832 665.605 236.305 679.719 235.07C693.832 233.835 704.304 221.35 703.07 207.241C701.835 193.132 689.354 182.655 675.241 183.89Z" fill="#A8026F"/>
<path d="M679.624 233.987C693.159 232.802 703.171 220.87 701.987 207.336C700.802 193.801 688.871 183.789 675.336 184.973C661.801 186.158 651.789 198.089 652.973 211.624C654.158 225.159 666.089 235.171 679.624 233.987Z" stroke="#A8026F" stroke-width="2" stroke-linecap="round" stroke-linejoin="round" stroke-dasharray="5.98 5.98"/>
<path d="M698.477 207.643C698.942 213.029 697.318 218.388 693.94 222.609C690.562 226.83 685.689 229.59 680.332 230.317C674.975 231.044 669.543 229.682 665.163 226.513C660.782 223.345 657.789 218.612 656.802 213.297C655.815 207.981 656.911 202.49 659.863 197.96C662.814 193.431 667.395 190.21 672.656 188.966C677.917 187.722 683.456 188.549 688.123 191.277C692.791 194.004 696.231 198.423 697.73 203.617C698.109 204.932 698.359 206.28 698.477 207.643V207.643Z" stroke="#A8026F" stroke-width="2" stroke-miterlimit="10"/>
<path d="M697.745 207.707C698.194 212.898 696.63 218.064 693.379 222.135C690.127 226.207 685.436 228.874 680.274 229.585C675.112 230.297 669.874 228.998 665.642 225.957C661.411 222.916 658.509 218.366 657.537 213.247C656.564 208.128 657.596 202.831 660.418 198.45C663.24 194.07 667.637 190.941 672.7 189.71C677.763 188.479 683.106 189.24 687.624 191.836C692.142 194.432 695.49 198.665 696.976 203.659C697.369 204.979 697.627 206.335 697.745 207.707V207.707Z" stroke="#A8026F" stroke-miterlimit="10"/>
<path d="M679.575 233.427C692.801 232.27 702.584 220.61 701.427 207.385C700.27 194.159 688.61 184.376 675.385 185.533C662.159 186.69 652.376 198.35 653.533 211.575C654.69 224.801 666.35 234.584 679.575 233.427Z" stroke="#A8026F" stroke-miterlimit="10"/>
<path d="M699.868 203.408L654.788 207.352L655.673 217.468L700.753 213.524L699.868 203.408Z" fill="white"/>
<path d="M654.788 207.352C656.663 207.153 658.539 206.974 660.415 206.785L666.048 206.25C669.802 205.898 673.559 205.57 677.315 205.23C681.072 204.913 684.829 204.583 688.588 204.278L694.226 203.827C696.107 203.687 697.987 203.537 699.868 203.408C697.993 203.605 696.116 203.784 694.238 203.974L688.608 204.509C684.854 204.861 681.096 205.189 677.341 205.529C673.583 205.844 669.826 206.176 666.068 206.479L660.428 206.93C658.547 207.065 656.668 207.22 654.788 207.352Z" fill="#A8026F"/>
<path d="M655.673 217.468C657.548 217.271 659.425 217.091 661.3 216.901L666.933 216.368C670.687 216.014 674.445 215.688 678.2 215.346C681.957 215.029 685.714 214.699 689.473 214.395L695.111 213.943C696.992 213.804 698.872 213.654 700.753 213.524C698.878 213.722 697.001 213.902 695.123 214.09L689.493 214.625C685.739 214.978 681.981 215.305 678.226 215.645C674.469 215.962 670.711 216.292 666.953 216.597L661.313 217.048C659.433 217.187 657.554 217.338 655.673 217.468Z" fill="#A8026F"/>
<path d="M664.96 215.48L664.341 208.407L667.34 208.145C667.665 208.116 667.97 208.16 668.255 208.275C668.545 208.384 668.8 208.542 669.019 208.751C669.238 208.952 669.416 209.191 669.554 209.467C669.691 209.736 669.772 210.013 669.797 210.299C669.823 210.598 669.796 210.894 669.714 211.189C669.633 211.478 669.505 211.74 669.331 211.976C669.158 212.212 668.941 212.408 668.68 212.565C668.42 212.721 668.127 212.814 667.801 212.842L666.128 212.989L666.335 215.36L664.96 215.48ZM666.022 211.783L667.616 211.644C667.868 211.622 668.069 211.501 668.217 211.28C668.371 211.059 668.433 210.773 668.402 210.421C668.387 210.241 668.346 210.084 668.281 209.95C668.215 209.808 668.135 209.691 668.039 209.599C667.944 209.507 667.835 209.443 667.711 209.407C667.594 209.364 667.475 209.347 667.356 209.358L665.822 209.492L666.022 211.783ZM672.113 207.727L673.328 207.621L676.637 214.458L675.222 214.582L674.411 212.876L671.94 213.093L671.447 214.912L670.032 215.036L672.113 207.727ZM674.077 211.932L672.858 209.238L672.085 212.106L674.077 211.932ZM677.413 214.391L676.794 207.318L679.922 207.044C680.247 207.015 680.552 207.059 680.837 207.175C681.127 207.283 681.382 207.441 681.601 207.65C681.82 207.852 681.998 208.09 682.136 208.366C682.273 208.635 682.354 208.912 682.379 209.198C682.419 209.656 682.34 210.085 682.14 210.484C681.947 210.875 681.662 211.171 681.284 211.372L683.131 213.89L681.587 214.025L679.935 211.781L678.58 211.899L678.787 214.27L677.413 214.391ZM678.475 210.694L680.198 210.543C680.324 210.532 680.438 210.492 680.539 210.423C680.646 210.353 680.736 210.265 680.807 210.159C680.877 210.045 680.93 209.917 680.964 209.773C680.998 209.63 681.008 209.478 680.994 209.319C680.98 209.153 680.94 209.003 680.875 208.868C680.809 208.733 680.726 208.62 680.624 208.528C680.528 208.43 680.418 208.359 680.294 208.316C680.176 208.266 680.057 208.247 679.938 208.257L678.274 208.403L678.475 210.694ZM684.038 213.811L683.419 206.738L684.794 206.618L685.413 213.691L684.038 213.811ZM690.645 207.973C690.595 207.93 690.503 207.875 690.37 207.806C690.243 207.737 690.087 207.674 689.902 207.616C689.722 207.552 689.527 207.502 689.316 207.467C689.106 207.432 688.894 207.423 688.682 207.442C688.303 207.475 688.027 207.569 687.853 207.725C687.679 207.881 687.604 208.085 687.626 208.337C687.639 208.483 687.682 208.603 687.758 208.697C687.839 208.784 687.949 208.858 688.088 208.919C688.227 208.981 688.399 209.033 688.604 209.075C688.815 209.117 689.056 209.159 689.328 209.202C689.681 209.265 690.002 209.337 690.29 209.419C690.585 209.501 690.836 209.612 691.042 209.755C691.255 209.897 691.425 210.076 691.551 210.293C691.677 210.503 691.753 210.77 691.782 211.096C691.815 211.474 691.77 211.806 691.648 212.091C691.532 212.369 691.358 212.602 691.127 212.789C690.902 212.976 690.634 213.123 690.322 213.231C690.017 213.331 689.691 213.397 689.346 213.427C688.815 213.473 688.283 213.44 687.751 213.325C687.219 213.211 686.734 213.026 686.297 212.77L686.801 211.531C686.866 211.586 686.979 211.656 687.141 211.743C687.308 211.822 687.503 211.902 687.724 211.983C687.944 212.057 688.187 212.116 688.452 212.16C688.717 212.204 688.985 212.214 689.258 212.19C690.015 212.124 690.372 211.848 690.33 211.363C690.316 211.21 690.262 211.085 690.166 210.986C690.071 210.887 689.94 210.805 689.773 210.739C689.607 210.674 689.408 210.617 689.176 210.571C688.945 210.524 688.686 210.473 688.4 210.418C688.053 210.354 687.749 210.281 687.487 210.197C687.232 210.105 687.014 209.994 686.836 209.862C686.656 209.724 686.515 209.562 686.412 209.377C686.315 209.185 686.254 208.953 686.23 208.68C686.199 208.322 686.237 207.997 686.346 207.707C686.454 207.416 686.617 207.168 686.833 206.961C687.056 206.754 687.319 206.591 687.623 206.471C687.926 206.344 688.257 206.264 688.616 206.233C689.114 206.189 689.579 206.229 690.012 206.352C690.444 206.468 690.825 206.619 691.156 206.804L690.645 207.973Z" fill="#A8026F"/>
</g>
<g clip-path="url(#clip4)">
<path d="M580.755 238.387C595.136 240.923 608.849 231.321 611.384 216.94C613.92 202.56 604.318 188.847 589.938 186.311C575.557 183.776 561.844 193.378 559.308 207.758C556.773 222.138 566.375 235.851 580.755 238.387Z" fill="white"/>
<path d="M580.642 238.982C565.951 236.392 556.107 222.334 558.698 207.642C561.288 192.951 575.346 183.107 590.038 185.698C604.729 188.288 614.573 202.346 611.982 217.038C609.392 231.729 595.334 241.573 580.642 238.982ZM589.93 186.307C575.573 183.775 561.838 193.392 559.307 207.75C556.775 222.108 566.39 235.849 580.748 238.381C595.106 240.913 608.849 231.29 611.38 216.939C613.91 202.589 604.288 188.838 589.93 186.307Z" fill="#FF2400"/>
<path d="M581.574 233.701C593.371 235.781 604.621 227.904 606.701 216.107C608.781 204.309 600.904 193.059 589.107 190.979C577.309 188.899 566.059 196.776 563.979 208.574C561.899 220.371 569.776 231.621 581.574 233.701Z" stroke="#FF2400" stroke-width="2" stroke-miterlimit="10"/>
<path d="M581.705 232.957C593.091 234.964 603.949 227.361 605.957 215.975C607.964 204.589 600.361 193.731 588.975 191.723C577.589 189.716 566.731 197.318 564.723 208.705C562.716 220.091 570.318 230.949 581.705 232.957Z" stroke="#FF2400" stroke-miterlimit="10"/>
<path d="M580.875 237.665C594.861 240.132 608.199 230.792 610.665 216.806C613.132 202.819 603.792 189.481 589.806 187.015C575.819 184.548 562.481 193.888 560.015 207.874C557.548 221.861 566.888 235.199 580.875 237.665Z" stroke="#FF2400" stroke-miterlimit="10"/>
<path d="M581.452 234.433L581.723 235.355L582.635 235.657L581.841 236.199L581.837 237.159L581.075 236.571L580.161 236.863L580.485 235.96L579.924 235.179L580.884 235.207L581.452 234.433Z" fill="#FF2400"/>
<path d="M589.74 187.432L590.01 188.355L590.923 188.656L590.129 189.197L590.124 190.158L589.363 189.571L588.448 189.863L588.772 188.958L588.211 188.178L589.172 188.207L589.74 187.432Z" fill="#FF2400"/>
<path d="M592.491 233.612L592.76 234.536L593.672 234.836L592.878 235.377L592.874 236.339L592.114 235.75L591.199 236.044L591.524 235.138L590.963 234.358L591.923 234.388L592.491 233.612Z" fill="#FF2400"/>
<path d="M571.362 229.886L571.63 230.81L572.543 231.11L571.749 231.652L571.744 232.613L570.985 232.024L570.068 232.317L570.392 231.412L569.831 230.632L570.793 230.662L571.362 229.886Z" fill="#FF2400"/>
<path d="M608.943 212.232L563.214 204.169L561.405 214.432L607.133 222.495L608.943 212.232Z" fill="white"/>
<path d="M563.214 204.169C565.125 204.47 567.029 204.79 568.942 205.102L574.674 206.064C578.484 206.711 582.299 207.385 586.112 208.045C589.924 208.704 593.732 209.399 597.539 210.096L603.246 211.146C605.148 211.507 607.045 211.857 608.95 212.229C607.038 211.926 605.135 211.606 603.22 211.295L597.498 210.329C593.687 209.682 589.872 209.009 586.058 208.348C582.244 207.686 578.439 206.995 574.633 206.297L568.923 205.246C567.016 204.89 565.113 204.535 563.214 204.169Z" fill="#FF2400"/>
<path d="M561.405 214.43C563.315 214.732 565.22 215.052 567.133 215.365L572.857 216.33C576.668 216.975 580.482 217.651 584.295 218.311C588.108 218.97 591.916 219.665 595.722 220.362L601.43 221.411C603.332 221.773 605.229 222.123 607.134 222.493C605.222 222.192 603.319 221.872 601.404 221.561L595.681 220.595C591.871 219.948 588.056 219.275 584.242 218.614C580.428 217.952 576.624 217.261 572.821 216.569L567.112 215.518C565.207 215.152 563.303 214.801 561.405 214.43Z" fill="#FF2400"/>
<path d="M572.375 209.146L570.14 208.752L569.117 214.553L567.768 214.315L568.79 208.514L566.555 208.12L566.765 206.929L572.585 207.955L572.375 209.146ZM572.22 215.1L573.453 208.108L576.545 208.653C576.867 208.71 577.15 208.831 577.395 209.016C577.648 209.196 577.853 209.415 578.011 209.673C578.169 209.924 578.28 210.201 578.341 210.503C578.404 210.799 578.411 211.087 578.361 211.37C578.281 211.823 578.094 212.216 577.798 212.55C577.51 212.878 577.158 213.09 576.741 213.186L577.873 216.097L576.347 215.828L575.332 213.232L573.993 212.996L573.579 215.34L572.22 215.1ZM574.203 211.804L575.906 212.105C576.031 212.127 576.151 212.117 576.267 212.077C576.389 212.037 576.498 211.975 576.594 211.891C576.691 211.8 576.775 211.689 576.845 211.559C576.916 211.43 576.965 211.286 576.992 211.128C577.021 210.964 577.022 210.809 576.994 210.661C576.965 210.514 576.914 210.383 576.839 210.269C576.773 210.149 576.685 210.052 576.576 209.979C576.475 209.9 576.365 209.85 576.247 209.829L574.602 209.539L574.203 211.804ZM581.886 209.595L583.088 209.807L584.514 217.268L583.115 217.021L582.773 215.163L580.33 214.733L579.383 216.363L577.984 216.116L581.886 209.595ZM582.695 214.165L582.214 211.247L580.725 213.817L582.695 214.165ZM586.636 210.432L587.594 216.054L590.398 211.096L591.826 211.347L587.865 217.859L586.723 217.657L585.208 210.181L586.636 210.432ZM596.405 218.136L596.194 219.327L591.339 218.471L592.572 211.479L597.339 212.32L597.129 213.511L593.721 212.91L593.424 214.594L596.369 215.114L596.174 216.217L593.23 215.697L592.909 217.519L596.405 218.136ZM597.254 219.514L598.487 212.522L599.846 212.762L598.823 218.562L602.388 219.191L602.178 220.382L597.254 219.514Z" fill="#E76838"/>
</g>
<defs>
<clipPath id="clip0">
<rect width="43.8238" height="43.8238" fill="white" transform="translate(114.672 126.191) rotate(10)"/>
</clipPath>
<clipPath id="clip1">
<rect width="30.7563" height="30.7563" fill="white" transform="translate(341.795 268) rotate(3.34561)"/>
</clipPath>
<clipPath id="clip2">
<rect width="35.4105" height="35.4105" fill="white" transform="translate(274 278.337) rotate(-15)"/>
</clipPath>
<clipPath id="clip3">
<rect width="52.5773" height="52.5773" fill="white" transform="translate(649 185.583) rotate(-5)"/>
</clipPath>
<clipPath id="clip4">
<rect width="54.1066" height="54.1066" fill="white" transform="translate(563.396 181) rotate(10)"/>
</clipPath>
</defs>
</svg>
