<svg width="53" height="53" viewBox="0 0 53 53" fill="none" xmlns="http://www.w3.org/2000/svg">
<circle cx="26.5" cy="26.5" r="26" stroke="white"/>
<g clip-path="url(#clip0)">
<path d="M37.2656 36.4375H15.7344C14.3623 36.4375 13.25 35.3252 13.25 33.9531V19.0469C13.25 17.6748 14.3623 16.5625 15.7344 16.5625H37.2656C38.6377 16.5625 39.75 17.6748 39.75 19.0469V33.9531C39.75 35.3252 38.6377 36.4375 37.2656 36.4375ZM19.0469 19.4609C17.4461 19.4609 16.1484 20.7586 16.1484 22.3594C16.1484 23.9601 17.4461 25.2578 19.0469 25.2578C20.6476 25.2578 21.9453 23.9601 21.9453 22.3594C21.9453 20.7586 20.6476 19.4609 19.0469 19.4609ZM16.5625 33.125H36.4375V27.3281L31.9079 22.7985C31.6654 22.556 31.2721 22.556 31.0295 22.7985L24.0156 29.8125L21.1423 26.9392C20.8998 26.6966 20.5065 26.6966 20.2639 26.9392L16.5625 30.6406V33.125Z" fill="white"/>
</g>
<defs>
<clipPath id="clip0">
<rect width="26.5" height="26.5" fill="white" transform="translate(13.25 13.25)"/>
</clipPath>
</defs>
</svg>
