<svg width="512" height="512" viewBox="0 0 512 512" fill="none" xmlns="http://www.w3.org/2000/svg">
<path d="M347.845 97.011H164.155C127.131 97.011 97.011 127.132 97.011 164.155V347.847C97.011 384.869 127.132 414.99 164.155 414.99H347.847C384.869 414.99 414.99 384.869 414.99 347.846V164.155C414.989 127.131 384.869 97.011 347.845 97.011ZM398.821 347.845C398.821 375.953 375.953 398.821 347.845 398.821H164.155C136.047 398.821 113.179 375.953 113.179 347.845V164.155C113.179 136.047 136.047 113.179 164.155 113.179H347.847C375.954 113.179 398.822 136.047 398.822 164.155V347.845H398.821Z" fill="white"/>
<path d="M339.402 251.22C337.011 208.687 302.4 174.47 259.844 172.551C210.736 170.337 170.309 210.783 172.552 259.897C174.497 302.457 208.742 337.051 251.28 339.407C269.231 340.402 286.042 335.68 300.083 326.913C304.457 324.182 305.17 318.099 301.524 314.454C301.485 314.415 301.447 314.377 301.409 314.339C298.752 311.681 294.631 311.28 291.438 313.264C280.947 319.783 268.546 323.505 255.28 323.366C217.825 322.972 187.604 291.522 188.659 254.08C189.72 216.399 221.874 186.359 260.316 188.768C293.442 190.844 320.406 217.258 323.135 250.337C324.246 263.812 321.348 276.543 315.525 287.494C313.858 290.63 314.372 294.476 316.883 296.987C316.924 297.028 316.966 297.07 317.007 297.111C320.78 300.884 327.161 299.997 329.682 295.295C336.664 282.269 340.301 267.197 339.402 251.22Z" fill="white"/>
<path d="M342.232 180.547C354.138 180.547 363.79 170.895 363.79 158.989C363.79 147.083 354.138 137.431 342.232 137.431C330.326 137.431 320.674 147.083 320.674 158.989C320.674 170.895 330.326 180.547 342.232 180.547Z" fill="white"/>
</svg>
