<svg width="222" height="60" viewBox="0 0 222 60" fill="none" xmlns="http://www.w3.org/2000/svg">
<g clip-path="url(#clip0)">
<path d="M56.15 13.9732C56.15 13.7481 56.1006 13.5229 56.0019 13.3102C55.8043 12.8849 55.4216 12.5972 55.0018 12.5096L29.8528 0.150115C29.4454 -0.0500384 28.9639 -0.0500384 28.5565 0.150115L3.16055 12.6222C2.66671 12.8599 2.34571 13.3603 2.32101 13.9232V13.9357C2.32101 13.9482 2.32101 13.9607 2.32101 13.9857V45.2848C2.32101 45.8602 2.64201 46.3856 3.16055 46.6358L28.5565 59.1079C28.5688 59.1079 28.5688 59.1079 28.5812 59.1204C28.6182 59.1329 28.6552 59.1454 28.6923 59.1705C28.7046 59.1705 28.717 59.183 28.7417 59.183C28.7787 59.1955 28.8157 59.208 28.8528 59.2205C28.8651 59.2205 28.8775 59.233 28.8898 59.233C28.9269 59.2455 28.9762 59.2455 29.0133 59.258C29.0256 59.258 29.038 59.258 29.0503 59.258C29.0997 59.258 29.1614 59.2705 29.2108 59.2705C29.2602 59.2705 29.3219 59.2705 29.3713 59.258C29.3837 59.258 29.396 59.258 29.4084 59.258C29.4454 59.258 29.4948 59.2455 29.5318 59.233C29.5442 59.233 29.5565 59.2205 29.5689 59.2205C29.6059 59.208 29.6429 59.1955 29.68 59.183C29.6923 59.183 29.7047 59.1705 29.7294 59.1705C29.7664 59.1579 29.8034 59.1454 29.8405 59.1204C29.8528 59.1204 29.8528 59.1204 29.8652 59.1079L55.3352 46.5983C55.8414 46.3481 56.1747 45.8227 56.1747 45.2473V14.0108C56.15 13.9983 56.15 13.9857 56.15 13.9732ZM29.1985 3.16493L51.2239 13.9857L43.1125 17.9763L21.0871 7.1555L29.1985 3.16493ZM29.1985 24.8066L7.17303 13.9857L17.6919 8.81927L39.7173 19.6401L29.1985 24.8066ZM5.28408 16.4001L27.7169 27.4211V55.355L5.28408 44.3341V16.4001ZM30.68 55.355V27.4211L41.2112 22.2421V29.5477C41.2112 30.3733 41.8779 31.0489 42.6928 31.0489C43.5076 31.0489 44.1743 30.3733 44.1743 29.5477V20.7785L53.1869 16.3501V44.284L30.68 55.355Z" fill="black"/>
</g>
<path d="M76.78 18.8H80.38V40.868H94.024V44H76.78V18.8ZM97.651 24.92H101.107V44H97.651V24.92ZM99.379 21.248C98.707 21.248 98.143 21.032 97.687 20.6C97.255 20.168 97.039 19.64 97.039 19.016C97.039 18.392 97.255 17.864 97.687 17.432C98.143 16.976 98.707 16.748 99.379 16.748C100.051 16.748 100.603 16.964 101.035 17.396C101.491 17.804 101.719 18.32 101.719 18.944C101.719 19.592 101.491 20.144 101.035 20.6C100.603 21.032 100.051 21.248 99.379 21.248ZM114.69 19.916C112.626 19.916 111.594 21.032 111.594 23.264V24.92H117.138V27.764H111.666V44H108.21V27.764H104.97V24.92H108.21V23.228C108.21 21.332 108.762 19.832 109.866 18.728C110.97 17.624 112.518 17.072 114.51 17.072C115.278 17.072 115.998 17.168 116.67 17.36C117.342 17.552 117.918 17.828 118.398 18.188L117.354 20.816C116.562 20.216 115.674 19.916 114.69 19.916ZM137.36 34.568C137.36 34.832 137.336 35.18 137.288 35.612H121.808C122.024 37.292 122.756 38.648 124.004 39.68C125.276 40.688 126.848 41.192 128.72 41.192C131 41.192 132.836 40.424 134.228 38.888L136.136 41.12C135.272 42.128 134.192 42.896 132.896 43.424C131.624 43.952 130.196 44.216 128.612 44.216C126.596 44.216 124.808 43.808 123.248 42.992C121.688 42.152 120.476 40.988 119.612 39.5C118.772 38.012 118.352 36.332 118.352 34.46C118.352 32.612 118.76 30.944 119.576 29.456C120.416 27.968 121.556 26.816 122.996 26C124.46 25.16 126.104 24.74 127.928 24.74C129.752 24.74 131.372 25.16 132.788 26C134.228 26.816 135.344 27.968 136.136 29.456C136.952 30.944 137.36 32.648 137.36 34.568ZM127.928 27.656C126.272 27.656 124.88 28.16 123.752 29.168C122.648 30.176 122 31.496 121.808 33.128H134.048C133.856 31.52 133.196 30.212 132.068 29.204C130.964 28.172 129.584 27.656 127.928 27.656ZM162.159 18.8C165.423 18.8 167.991 19.58 169.863 21.14C171.735 22.7 172.671 24.848 172.671 27.584C172.671 30.32 171.735 32.468 169.863 34.028C167.991 35.588 165.423 36.368 162.159 36.368H155.931V44H152.331V18.8H162.159ZM162.051 33.236C164.331 33.236 166.071 32.756 167.271 31.796C168.471 30.812 169.071 29.408 169.071 27.584C169.071 25.76 168.471 24.368 167.271 23.408C166.071 22.424 164.331 21.932 162.051 21.932H155.931V33.236H162.051ZM185.557 44.216C183.661 44.216 181.957 43.796 180.445 42.956C178.933 42.116 177.745 40.964 176.881 39.5C176.041 38.012 175.621 36.332 175.621 34.46C175.621 32.588 176.041 30.92 176.881 29.456C177.745 27.968 178.933 26.816 180.445 26C181.957 25.16 183.661 24.74 185.557 24.74C187.453 24.74 189.145 25.16 190.633 26C192.145 26.816 193.321 27.968 194.161 29.456C195.025 30.92 195.457 32.588 195.457 34.46C195.457 36.332 195.025 38.012 194.161 39.5C193.321 40.964 192.145 42.116 190.633 42.956C189.145 43.796 187.453 44.216 185.557 44.216ZM185.557 41.192C186.781 41.192 187.873 40.916 188.833 40.364C189.817 39.788 190.585 38.996 191.137 37.988C191.689 36.956 191.965 35.78 191.965 34.46C191.965 33.14 191.689 31.976 191.137 30.968C190.585 29.936 189.817 29.144 188.833 28.592C187.873 28.04 186.781 27.764 185.557 27.764C184.333 27.764 183.229 28.04 182.245 28.592C181.285 29.144 180.517 29.936 179.941 30.968C179.389 31.976 179.113 33.14 179.113 34.46C179.113 35.78 179.389 36.956 179.941 37.988C180.517 38.996 181.285 39.788 182.245 40.364C183.229 40.916 184.333 41.192 185.557 41.192ZM218.237 17.288V44H214.925V40.976C214.157 42.032 213.185 42.836 212.009 43.388C210.833 43.94 209.537 44.216 208.121 44.216C206.273 44.216 204.617 43.808 203.153 42.992C201.689 42.176 200.537 41.036 199.697 39.572C198.881 38.084 198.473 36.38 198.473 34.46C198.473 32.54 198.881 30.848 199.697 29.384C200.537 27.92 201.689 26.78 203.153 25.964C204.617 25.148 206.273 24.74 208.121 24.74C209.489 24.74 210.749 25.004 211.901 25.532C213.053 26.036 214.013 26.792 214.781 27.8V17.288H218.237ZM208.409 41.192C209.609 41.192 210.701 40.916 211.685 40.364C212.669 39.788 213.437 38.996 213.989 37.988C214.541 36.956 214.817 35.78 214.817 34.46C214.817 33.14 214.541 31.976 213.989 30.968C213.437 29.936 212.669 29.144 211.685 28.592C210.701 28.04 209.609 27.764 208.409 27.764C207.185 27.764 206.081 28.04 205.097 28.592C204.137 29.144 203.369 29.936 202.793 30.968C202.241 31.976 201.965 33.14 201.965 34.46C201.965 35.78 202.241 36.956 202.793 37.988C203.369 38.996 204.137 39.788 205.097 40.364C206.081 40.916 207.185 41.192 208.409 41.192Z" fill="black"/>
<defs>
<clipPath id="clip0">
<rect width="58.4958" height="59.2705" fill="white"/>
</clipPath>
</defs>
</svg>
