<svg width="550" height="144" viewBox="0 0 550 144" fill="none" xmlns="http://www.w3.org/2000/svg">
<path d="M63.5 2.04688C28.447 2.04688 0 30.4729 0 65.5C0 100.527 28.447 128.953 63.5 128.953C98.553 128.953 127 100.527 127 65.5C127 30.4729 98.553 2.04688 63.5 2.04688ZM89.2841 95.41C88.2087 95.41 87.5429 95.0773 86.5443 94.4889C70.5669 84.8686 51.9778 84.4592 33.6192 88.2203C32.6206 88.4762 31.3147 88.8855 30.5722 88.8855C28.0885 88.8855 26.5266 86.9154 26.5266 84.843C26.5266 82.2076 28.0885 80.9539 30.0089 80.5445C50.9792 75.9135 72.4105 76.3229 90.6923 87.248C92.2542 88.2459 93.176 89.1414 93.176 91.4697C93.176 93.798 91.3581 95.41 89.2841 95.41ZM96.1718 78.6256C94.8403 78.6256 93.9441 78.0371 93.0224 77.551C77.0193 68.0842 53.1556 64.2719 31.9292 70.0287C30.7002 70.3613 30.0345 70.6939 28.8823 70.6939C26.1425 70.6939 23.9149 68.468 23.9149 65.7303C23.9149 62.9926 25.2464 61.176 27.8837 60.434C35.0018 58.4383 42.2736 56.9543 52.9252 56.9543C69.5427 56.9543 85.597 61.0736 98.2458 68.5959C100.32 69.824 101.139 71.4103 101.139 73.6363C101.114 76.3996 98.9627 78.6256 96.1718 78.6256ZM104.109 59.1291C102.778 59.1291 101.958 58.7965 100.806 58.1312C82.5756 47.2572 49.9806 44.6475 28.8823 50.5322C27.9605 50.7881 26.8083 51.1975 25.5792 51.1975C22.1994 51.1975 19.6133 48.5621 19.6133 45.1592C19.6133 41.6795 21.7641 39.7094 24.0685 39.0441C33.0815 36.4088 43.1698 35.1551 54.1542 35.1551C72.8458 35.1551 92.4335 39.0441 106.747 47.3852C108.744 48.5365 110.05 50.1229 110.05 53.1676C110.05 56.6473 107.233 59.1291 104.109 59.1291Z" fill="black"/>
<g clip-path="url(#clip0)">
<path d="M269.528 41.1054C251.782 41.1054 237.469 55.3332 237.469 72.9722C237.469 90.6113 251.782 104.839 269.528 104.839C287.273 104.839 301.587 90.6113 301.587 72.9722C301.587 55.3332 287.273 41.1054 269.528 41.1054ZM269.528 93.6898C258.06 93.6898 248.685 84.3988 248.685 72.9722C248.685 61.5457 258.032 52.2546 269.528 52.2546C281.023 52.2546 290.37 61.5457 290.37 72.9722C290.37 84.3988 280.995 93.6898 269.528 93.6898ZM310.376 39.8019C310.376 43.9343 307.028 47.2347 302.898 47.2347C298.741 47.2347 295.421 43.9066 295.421 39.8019C295.421 35.6972 298.769 32.3691 302.898 32.3691C307.028 32.3691 310.376 35.6972 310.376 39.8019ZM331.609 47.3457C331.135 37.389 328.847 28.5695 321.509 21.3031C314.199 14.0367 305.326 11.7625 295.309 11.2632C284.985 10.6808 254.042 10.6808 243.719 11.2632C233.73 11.7347 224.857 14.0089 217.519 21.2753C210.181 28.5417 207.921 37.3613 207.418 47.3179C206.833 57.5796 206.833 88.3371 207.418 98.5988C207.893 108.555 210.181 117.375 217.519 124.641C224.857 131.908 233.702 134.182 243.719 134.681C254.042 135.264 284.985 135.264 295.309 134.681C305.326 134.21 314.199 131.936 321.509 124.641C328.819 117.375 331.107 108.555 331.609 98.5988C332.195 88.3371 332.195 57.6074 331.609 47.3457ZM318.272 109.609C316.096 115.045 311.883 119.233 306.386 121.424C298.155 124.669 278.624 123.92 269.528 123.92C260.432 123.92 240.873 124.641 232.67 121.424C227.201 119.261 222.988 115.073 220.783 109.609C217.519 101.428 218.272 82.0136 218.272 72.9722C218.272 63.9308 217.547 44.489 220.783 36.3351C222.96 30.8992 227.173 26.7113 232.67 24.5203C240.901 21.2753 260.432 22.0242 269.528 22.0242C278.624 22.0242 298.183 21.3031 306.386 24.5203C311.855 26.6835 316.068 30.8714 318.272 36.3351C321.537 44.5168 320.783 63.9308 320.783 72.9722C320.783 82.0136 321.537 101.455 318.272 109.609Z" fill="black"/>
</g>
<path d="M550 23.0938V115.906C550 122.894 544.337 128.562 537.357 128.562H514.89V81.8398H530.851L533.143 64.0156H514.89V52.625C514.89 47.457 516.312 43.9502 523.713 43.9502H533.143V28.0244C531.51 27.8135 525.926 27.3125 519.394 27.3125C505.803 27.3125 496.479 35.6182 496.479 50.8848V64.042H480.464V81.8662H496.505V128.562H444.643C437.663 128.562 432 122.894 432 115.906V23.0938C432 16.1064 437.663 10.4375 444.643 10.4375H537.357C544.337 10.4375 550 16.1064 550 23.0938Z" fill="black"/>
<defs>
<clipPath id="clip0">
<rect width="125" height="142" fill="white" transform="translate(207 2)"/>
</clipPath>
</defs>
</svg>
