<svg width="53" height="53" viewBox="0 0 53 53" fill="none" xmlns="http://www.w3.org/2000/svg">
<circle cx="26.5" cy="26.5" r="26" stroke="white"/>
<g clip-path="url(#clip0)">
<path d="M37.6295 14.3762C37.6295 13.2526 36.5374 12.4607 35.4764 12.7971L18.9144 17.6882C18.226 17.9056 17.755 18.5422 17.755 19.2668V32.7974C17.2348 32.6742 16.6826 32.5945 16.0988 32.5945C13.3546 32.5945 11.13 34.0773 11.13 35.907C11.13 37.7366 13.3546 39.2195 16.0988 39.2195C18.843 39.2195 21.0675 37.7366 21.0675 35.907V23.8117L34.3175 19.9288V29.4849C33.7973 29.3617 33.2451 29.282 32.6613 29.282C29.9171 29.282 27.6925 30.7648 27.6925 32.5945C27.6925 34.4241 29.9171 35.907 32.6613 35.907C35.4055 35.907 37.63 34.4241 37.63 32.5945L37.6295 14.3762Z" fill="white"/>
</g>
<defs>
<clipPath id="clip0">
<rect width="26.5" height="26.5" fill="white" transform="translate(11.13 12.72)"/>
</clipPath>
</defs>
</svg>
