<svg width="280" height="264" viewBox="0 0 280 264" fill="none" xmlns="http://www.w3.org/2000/svg">
<path d="M35.1599 87.28L139.82 40.76L244.48 87.28L139.82 133.71L35.1599 87.28Z" fill="white" stroke="black" stroke-width="3" stroke-linecap="round" stroke-linejoin="round"/>
<path d="M277.64 48.42L176.73 2L139.82 40.76L244.48 87.24L277.64 48.42Z" fill="white" stroke="black" stroke-width="3" stroke-linecap="round" stroke-linejoin="round"/>
<path d="M2 48.42L102.91 2L139.82 40.76L35.16 87.24L2 48.42Z" fill="white" stroke="black" stroke-width="3" stroke-linecap="round" stroke-linejoin="round"/>
<path d="M139.82 261.68V133.71L35.1599 87.24V215.42L139.82 261.68Z" fill="white" stroke="black" stroke-width="3" stroke-linecap="round" stroke-linejoin="round"/>
<path d="M139.82 261.68V133.71L244.48 87.24V215.42L139.82 261.68Z" fill="white" stroke="black" stroke-width="3" stroke-linecap="round" stroke-linejoin="round"/>
<path d="M124.37 123.75L63.7999 150.59L42.8799 40.85L103.45 14L124.37 123.75Z" fill="white" stroke="black" stroke-width="3" stroke-linecap="round" stroke-linejoin="round"/>
<path d="M190.26 126.49L124.37 123.75L103.45 14L169.34 16.74L190.26 126.49Z" fill="white" stroke="black" stroke-width="3" stroke-linecap="round" stroke-linejoin="round"/>
<path d="M124.37 123.75L73.5301 154.23L52.6101 44.49L103.45 14L124.37 123.75Z" fill="white" stroke="black" stroke-width="3" stroke-linecap="round" stroke-linejoin="round"/>
<path d="M124.37 123.75L182.87 133.39L161.95 23.65L103.45 14L124.37 123.75Z" fill="white" stroke="black" stroke-width="3" stroke-linecap="round" stroke-linejoin="round"/>
<path d="M158.8 69.09L121.9 63.4L116.8 34.55L153.7 40.25L158.8 69.09Z" fill="white" stroke="black" stroke-width="3" stroke-linecap="round" stroke-linejoin="round"/>
<path d="M166.63 110.15L129.73 104.46L124.63 75.61L161.53 81.3L166.63 110.15Z" fill="white" stroke="black" stroke-width="3" stroke-linecap="round" stroke-linejoin="round"/>
<path d="M71.4301 87.97L103.65 69.1L97.7801 40.4L65.5601 59.27L71.4301 87.97Z" fill="white" stroke="black" stroke-width="3" stroke-linecap="round" stroke-linejoin="round"/>
<path d="M79.2599 129.03L111.47 110.15L105.6 81.45L73.3899 100.33L79.2599 129.03Z" fill="white" stroke="black" stroke-width="3" stroke-linecap="round" stroke-linejoin="round"/>
<path d="M123.722 29.2833L111.374 38.9963L114.002 42.3367L126.349 32.6237L123.722 29.2833Z" fill="black"/>
<path d="M162.975 60.6854L150.627 70.3984L153.255 73.7388L165.602 64.0258L162.975 60.6854Z" fill="black"/>
<path d="M170.546 100.405L158.199 110.118L160.826 113.459L173.174 103.746L170.546 100.405Z" fill="black"/>
<path d="M113.175 88.0955L99.3323 80.6669L97.3226 84.4118L111.165 91.8404L113.175 88.0955Z" fill="black"/>
<path d="M105.305 46.812L91.4622 39.3834L89.4525 43.1282L103.295 50.5568L105.305 46.812Z" fill="black"/>
<path d="M89.297 128.246L75.4543 120.818L73.4447 124.562L87.2874 131.991L89.297 128.246Z" fill="black"/>
<path d="M81.2636 86.0944L67.4209 78.6658L65.4113 82.4106L79.2539 89.8392L81.2636 86.0944Z" fill="black"/>
<path d="M131.54 70.2987L119.192 80.0117L121.82 83.3521L134.167 73.639L131.54 70.2987Z" fill="black"/>
<path d="M107.045 61.3872L47.6743 77.9972L67.9 150.291L127.27 133.681L107.045 61.3872Z" fill="white" stroke="black" stroke-width="3" stroke-linecap="round" stroke-linejoin="round"/>
<path d="M102.608 68.7114L55.2847 81.9509L67.9153 127.097L115.238 113.858L102.608 68.7114Z" stroke="black" stroke-width="3" stroke-linecap="round" stroke-linejoin="round"/>
<path d="M71.63 115.78C71.63 115.78 71.16 99.01 78.9 96.46C86.64 93.91 87.9 86.25 87.35 84.11" stroke="black" stroke-width="3" stroke-linecap="round" stroke-linejoin="round"/>
<path d="M81.1299 105.84C81.1299 105.84 94.9199 95.94 105.07 104.9" stroke="black" stroke-width="3" stroke-linecap="round" stroke-linejoin="round"/>
<path d="M178.424 61.2584L118.275 47.7363L101.81 120.978L161.959 134.5L178.424 61.2584Z" fill="white" stroke="black" stroke-width="3" stroke-linecap="round" stroke-linejoin="round"/>
<path d="M171.035 65.595L123.092 54.8169L112.81 100.555L160.753 111.333L171.035 65.595Z" stroke="black" stroke-width="3" stroke-linecap="round" stroke-linejoin="round"/>
<path d="M121.47 92.35C121.47 92.35 129.01 77.35 137.03 78.79C145.05 80.23 149.84 74.08 150.32 71.92" stroke="black" stroke-width="3" stroke-linecap="round" stroke-linejoin="round"/>
<path d="M134.56 88.09C134.56 88.09 151.38 85.91 156.08 98.61" stroke="black" stroke-width="3" stroke-linecap="round" stroke-linejoin="round"/>
<path d="M222.952 91.0655L139.673 77.7264L130.9 132.498L214.179 145.837L222.952 91.0655Z" fill="white" stroke="black" stroke-width="3" stroke-linecap="round" stroke-linejoin="round"/>
<path d="M217.678 94.6565L143.562 82.7852L136.175 128.907L210.29 140.779L217.678 94.6565Z" fill="white" stroke="black" stroke-width="3" stroke-linecap="round" stroke-linejoin="round"/>
<path d="M209.144 148.607L235.136 68.3727L182.366 51.2775L156.374 131.512L209.144 148.607Z" fill="white" stroke="black" stroke-width="3" stroke-linecap="round" stroke-linejoin="round"/>
<path d="M206.089 142.274L229.357 70.9665L184.983 56.4864L161.714 127.793L206.089 142.274Z" fill="white" stroke="black" stroke-width="3" stroke-linecap="round" stroke-linejoin="round"/>
<path d="M277.64 126.06L176.73 172.47L139.82 133.71L244.48 87.24L277.64 126.06Z" fill="white" stroke="black" stroke-width="3" stroke-linecap="round" stroke-linejoin="round"/>
<path d="M2 126.06L102.91 172.47L139.82 133.71L35.16 87.24L2 126.06Z" fill="white" stroke="black" stroke-width="3" stroke-linecap="round" stroke-linejoin="round"/>
<path d="M201.73 91.75C206.187 91.75 209.8 88.1369 209.8 83.68C209.8 79.223 206.187 75.61 201.73 75.61C197.273 75.61 193.66 79.223 193.66 83.68C193.66 88.1369 197.273 91.75 201.73 91.75Z" fill="white" stroke="black" stroke-width="3" stroke-linecap="round" stroke-linejoin="round"/>
<path d="M189.57 97.43C191.829 97.43 193.66 96.2928 193.66 94.89C193.66 93.4872 191.829 92.35 189.57 92.35C187.311 92.35 185.48 93.4872 185.48 94.89C185.48 96.2928 187.311 97.43 189.57 97.43Z" fill="white" stroke="black" stroke-width="3" stroke-linecap="round" stroke-linejoin="round"/>
<path d="M146.82 119.68C146.82 119.68 154.68 121.21 154.03 111.78C153.38 102.35 149.54 94.64 156.03 94.89" fill="white"/>
<path d="M146.82 119.68C146.82 119.68 154.68 121.21 154.03 111.78C153.38 102.35 149.54 94.64 156.03 94.89" stroke="black" stroke-width="3" stroke-linecap="round" stroke-linejoin="round"/>
</svg>
