<svg height="511pt" viewBox="1 -120 511.999 511" width="511pt" xmlns="http://www.w3.org/2000/svg"><path d="m18.910156 270.574219h474.175782c4.144531 0 7.5-3.359375 7.5-7.5v-102.65625c6.707031-2.910157 11.414062-9.589844 11.414062-17.351563v-18.6875c0-10.429687-8.484375-18.914062-18.914062-18.914062h-111.042969v-50.011719c6.707031-2.910156 11.414062-9.589844 11.414062-17.351563v-18.6875c0-10.429687-8.484375-18.914062-18.914062-18.914062h-166.167969c-4.144531 0-7.5 3.359375-7.5 7.5s3.355469 7.5 7.5 7.5h166.167969c2.15625 0 3.914062 1.753906 3.914062 3.914062v18.6875c0 2.15625-1.757812 3.910157-3.914062 3.910157h-237.085938c-2.15625 0-3.914062-1.753907-3.914062-3.910157v-18.6875c0-2.160156 1.753906-3.914062 3.914062-3.914062h41.8125c4.140625 0 7.5-3.359375 7.5-7.5s-3.359375-7.5-7.5-7.5h-41.8125c-10.429687 0-18.914062 8.484375-18.914062 18.914062v18.6875c0 7.761719 4.707031 14.441407 11.410156 17.351563v22.777344h-111.042969c-10.425781.003906-18.910156 8.484375-18.910156 18.914062v18.6875c0 7.765625 4.707031 14.445313 11.410156 17.351563v129.890625c0 4.140625 3.359375 7.5 7.5 7.5zm7.5-135.828125h103.546875v120.828125h-103.546875zm466.679688-14.28125c2.15625 0 3.910156 1.753906 3.910156 3.914062v18.6875c0 2.15625-1.753906 3.910156-3.910156 3.910156h-29.859375c-4.140625 0-7.5 3.359376-7.5 7.5 0 4.144532 3.359375 7.5 7.5 7.5h22.359375v93.597657h-103.546875v-93.597657h52.355469c4.144531 0 7.5-3.355468 7.5-7.5 0-4.140624-3.355469-7.5-7.5-7.5h-52.355469v-26.511718zm-126.046875-63.453125v198.5625h-222.085938v-198.5625zm-352.042969 40.132812c0-2.15625 1.753906-3.910156 3.910156-3.910156h111.046875v26.511719h-111.046875c-2.15625 0-3.910156-1.757813-3.910156-3.914063zm0 0"/><path d="m188.8125 113.011719c4.140625 0 7.5-3.359375 7.5-7.5v-12.160157c0-4.140624-3.359375-7.5-7.5-7.5s-7.5 3.359376-7.5 7.5v12.160157c0 4.144531 3.359375 7.5 7.5 7.5zm0 0"/><path d="m323.1875 113.011719c4.140625 0 7.5-3.359375 7.5-7.5v-12.160157c0-4.140624-3.359375-7.5-7.5-7.5s-7.5 3.359376-7.5 7.5v12.160157c0 4.144531 3.359375 7.5 7.5 7.5zm0 0"/><path d="m256 119.503906c8.628906 0 16.730469-3.609375 22.230469-9.902344 2.726562-3.117187 2.40625-7.855468-.710938-10.582031-3.117187-2.726562-7.855469-2.410156-10.582031.710938-2.652344 3.03125-6.636719 4.773437-10.9375 4.773437s-8.285156-1.742187-10.9375-4.773437c-2.726562-3.121094-7.460938-3.4375-10.582031-.710938-3.117188 2.726563-3.4375 7.464844-.710938 10.582031 5.5 6.292969 13.601563 9.902344 22.230469 9.902344zm0 0"/></svg>