<svg width="760" height="376" viewBox="0 0 760 376" fill="none" xmlns="http://www.w3.org/2000/svg">
<g clip-path="url(#clip0)">
<path d="M651.899 338.618C709.832 333.55 752.687 282.477 747.618 224.544C742.55 166.612 691.477 123.757 633.544 128.825C575.612 133.894 532.757 184.966 537.825 242.899C542.894 300.832 593.966 343.687 651.899 338.618Z" fill="white"/>
<path d="M652.112 341.053C592.926 346.231 540.568 302.298 535.39 243.112C530.212 183.926 574.146 131.568 633.331 126.39C692.517 121.212 744.875 165.146 750.053 224.331C755.231 283.517 711.298 335.875 652.112 341.053ZM633.546 128.844C575.704 133.904 532.783 185.055 537.844 242.897C542.904 300.74 594.055 343.66 651.897 338.6C709.74 333.539 752.659 282.37 747.6 224.546C742.541 166.722 691.389 123.783 633.546 128.844Z" fill="#A8026F"/>
<path d="M651.509 334.159C706.979 329.306 748.012 280.405 743.159 224.934C738.306 169.464 689.405 128.431 633.935 133.284C578.464 138.137 537.431 187.039 542.284 242.509C547.137 297.979 596.039 339.012 651.509 334.159Z" stroke="#A8026F" stroke-width="2" stroke-linecap="round" stroke-linejoin="round" stroke-dasharray="5.98 5.98"/>
<path d="M728.777 226.193C730.683 248.268 724.025 270.23 710.18 287.53C696.336 304.83 676.367 316.14 654.411 319.119C632.455 322.098 610.195 316.516 592.242 303.53C574.289 290.544 562.019 271.15 557.975 249.365C553.931 227.58 558.423 205.074 570.519 186.51C582.616 167.946 601.39 154.747 622.952 149.648C644.515 144.548 667.213 147.939 686.343 159.117C705.474 170.296 719.571 188.405 725.714 209.694C727.268 215.081 728.293 220.607 728.777 226.193V226.193Z" stroke="#A8026F" stroke-width="2" stroke-miterlimit="10"/>
<path d="M725.778 226.455C727.615 247.732 721.209 268.901 707.882 285.589C694.556 302.276 675.329 313.207 654.173 316.122C633.017 319.037 611.55 313.713 594.207 301.251C576.865 288.789 564.972 270.141 560.987 249.16C557.002 228.179 561.229 206.47 572.795 188.517C584.361 170.564 602.381 157.741 623.133 152.696C643.884 147.651 665.78 150.771 684.297 161.411C702.814 172.05 716.535 189.397 722.627 209.865C724.237 215.274 725.292 220.833 725.778 226.455V226.455Z" stroke="#A8026F" stroke-miterlimit="10"/>
<path d="M651.308 331.866C705.512 327.123 745.608 279.339 740.866 225.135C736.123 170.932 688.339 130.836 634.135 135.578C579.932 140.32 539.836 188.105 544.578 242.308C549.32 296.512 597.105 336.608 651.308 331.866Z" stroke="#A8026F" stroke-miterlimit="10"/>
<path d="M734.477 208.835L549.719 224.999L553.347 266.459L738.104 250.295L734.477 208.835Z" fill="white"/>
<path d="M549.719 224.999C557.404 224.184 565.096 223.45 572.785 222.678L595.867 220.486C611.253 219.041 626.654 217.699 642.044 216.303C657.443 215.006 672.843 213.652 688.246 212.403L711.353 210.555C719.065 209.979 726.767 209.367 734.477 208.835C726.791 209.643 719.099 210.378 711.405 211.156L688.329 213.348C672.943 214.793 657.542 216.134 642.152 217.53C626.753 218.822 611.353 220.181 595.95 221.424L572.837 223.273C565.129 223.824 557.428 224.46 549.719 224.999Z" fill="#A8026F"/>
<path d="M553.347 266.459C561.032 265.651 568.724 264.916 576.412 264.138L599.495 261.952C614.881 260.501 630.282 259.166 645.672 257.764C661.071 256.466 676.471 255.113 691.874 253.864L714.98 252.015C722.693 251.446 730.395 250.827 738.104 250.295C730.419 251.11 722.727 251.844 715.033 252.616L691.956 254.808C676.57 256.253 661.169 257.595 645.779 258.991C630.38 260.288 614.98 261.642 599.578 262.89L576.465 264.74C568.758 265.309 561.056 265.927 553.347 266.459Z" fill="#A8026F"/>
<path d="M594.96 256.412L592.732 230.949L603.527 230.004C604.698 229.902 605.796 230.059 606.82 230.475C607.866 230.865 608.783 231.436 609.572 232.186C610.358 232.912 610.999 233.771 611.496 234.764C611.99 235.733 612.282 236.731 612.372 237.759C612.466 238.835 612.367 239.904 612.074 240.965C611.78 242.003 611.32 242.946 610.696 243.796C610.072 244.646 609.29 245.352 608.352 245.916C607.413 246.48 606.358 246.814 605.187 246.916L599.162 247.443L599.909 255.979L594.96 256.412ZM598.782 243.104L604.52 242.602C605.429 242.522 606.15 242.086 606.682 241.292C607.239 240.497 607.462 239.465 607.351 238.198C607.295 237.553 607.149 236.987 606.914 236.502C606.677 235.993 606.387 235.572 606.045 235.241C605.702 234.909 605.309 234.679 604.864 234.549C604.441 234.393 604.014 234.334 603.584 234.372L598.061 234.855L598.782 243.104ZM620.71 228.501L625.085 228.118L636.996 252.734L631.903 253.179L628.981 247.039L620.087 247.817L618.311 254.369L613.218 254.814L620.71 228.501ZM627.78 243.638L623.39 233.94L620.607 244.266L627.78 243.638ZM639.788 252.49L637.561 227.027L648.822 226.042C649.993 225.939 651.091 226.096 652.115 226.512C653.161 226.903 654.078 227.473 654.867 228.223C655.653 228.949 656.294 229.809 656.791 230.801C657.285 231.77 657.577 232.768 657.667 233.796C657.812 235.446 657.525 236.989 656.807 238.425C656.112 239.835 655.085 240.9 653.726 241.621L660.374 250.689L654.815 251.175L648.868 243.094L643.991 243.521L644.737 252.057L639.788 252.49ZM643.611 239.182L649.815 238.639C650.27 238.599 650.679 238.455 651.042 238.206C651.43 237.956 651.752 237.638 652.007 237.255C652.26 236.847 652.449 236.385 652.572 235.868C652.696 235.351 652.732 234.806 652.682 234.232C652.63 233.635 652.486 233.093 652.251 232.608C652.016 232.122 651.715 231.715 651.349 231.386C651.005 231.03 650.609 230.776 650.162 230.622C649.737 230.443 649.309 230.372 648.879 230.409L642.889 230.933L643.611 239.182ZM663.639 250.403L661.411 224.94L666.36 224.507L668.588 249.97L663.639 250.403ZM687.426 229.386C687.244 229.233 686.914 229.033 686.434 228.786C685.979 228.537 685.417 228.309 684.748 228.102C684.101 227.87 683.399 227.69 682.641 227.564C681.883 227.437 681.122 227.408 680.357 227.475C678.994 227.594 678 227.934 677.374 228.494C676.749 229.055 676.476 229.79 676.555 230.698C676.601 231.224 676.759 231.656 677.03 231.994C677.322 232.305 677.719 232.572 678.22 232.793C678.721 233.014 679.34 233.201 680.076 233.353C680.836 233.504 681.705 233.657 682.682 233.812C683.954 234.038 685.11 234.298 686.147 234.593C687.209 234.886 688.111 235.288 688.855 235.802C689.622 236.313 690.233 236.958 690.687 237.737C691.138 238.493 691.415 239.456 691.518 240.628C691.637 241.991 691.476 243.185 691.036 244.212C690.618 245.212 689.992 246.049 689.16 246.725C688.352 247.398 687.386 247.928 686.264 248.315C685.163 248.676 683.991 248.911 682.748 249.02C680.835 249.188 678.921 249.066 677.006 248.655C675.091 248.245 673.346 247.578 671.772 246.656L673.586 242.197C673.82 242.393 674.228 242.646 674.809 242.957C675.412 243.242 676.112 243.53 676.908 243.821C677.703 244.089 678.577 244.302 679.53 244.459C680.483 244.617 681.45 244.653 682.43 244.567C685.156 244.328 686.442 243.337 686.29 241.591C686.242 241.041 686.045 240.589 685.701 240.233C685.357 239.878 684.885 239.582 684.286 239.345C683.687 239.109 682.971 238.906 682.137 238.738C681.303 238.57 680.372 238.387 679.343 238.188C678.094 237.96 676.999 237.694 676.057 237.391C675.136 237.062 674.355 236.661 673.711 236.187C673.065 235.689 672.556 235.107 672.185 234.441C671.835 233.749 671.617 232.913 671.532 231.933C671.419 230.642 671.557 229.473 671.948 228.427C672.338 227.381 672.922 226.487 673.701 225.744C674.503 224.999 675.451 224.41 676.545 223.977C677.638 223.521 678.829 223.236 680.121 223.123C681.914 222.966 683.588 223.108 685.145 223.55C686.699 223.968 688.072 224.511 689.262 225.178L687.426 229.386Z" fill="#A8026F"/>
</g>
<g clip-path="url(#clip1)">
<path d="M349.95 164.136C390.88 171.353 429.911 144.023 437.128 103.093C444.345 62.1635 417.015 23.1328 376.086 15.9157C335.156 8.6987 296.125 36.0283 288.908 76.9581C281.691 117.888 309.021 156.919 349.95 164.136Z" fill="white"/>
<path d="M349.629 165.83C307.814 158.457 279.797 118.444 287.17 76.6293C294.543 34.8143 334.556 6.79688 376.371 14.17C418.186 21.5431 446.203 61.5562 438.83 103.371C431.457 145.186 391.444 173.203 349.629 165.83ZM376.065 15.9032C335.199 8.69747 296.109 36.0689 288.903 76.9349C281.697 117.801 309.065 156.913 349.931 164.119C390.797 171.325 429.913 143.935 437.115 103.091C444.317 62.2466 416.931 23.109 376.065 15.9032Z" fill="#EE7766"/>
<path d="M352.28 150.799C385.858 156.719 417.878 134.299 423.799 100.721C429.719 67.1424 407.299 35.1223 373.721 29.2016C340.143 23.2809 308.122 45.7016 302.202 79.2797C296.281 112.858 318.702 144.878 352.28 150.799Z" stroke="#EE7766" stroke-width="2" stroke-miterlimit="10"/>
<path d="M352.653 148.68C385.061 154.394 415.965 132.755 421.68 100.347C427.394 67.9392 405.755 37.035 373.347 31.3207C340.939 25.6063 310.035 47.2456 304.32 79.6535C298.606 112.061 320.245 142.965 352.653 148.68Z" stroke="#EE7766" stroke-miterlimit="10"/>
<path d="M350.29 162.082C390.1 169.102 428.063 142.52 435.082 102.71C442.102 62.9005 415.52 24.9378 375.71 17.9183C335.9 10.8987 297.938 37.4805 290.918 77.2903C283.899 117.1 310.48 155.063 350.29 162.082Z" stroke="#EE7766" stroke-miterlimit="10"/>
<path d="M351.935 152.882L352.705 155.507L355.301 156.367L353.041 157.907L353.029 160.639L350.862 158.966L348.258 159.798L349.18 157.227L347.584 155.006L350.317 155.086L351.935 152.882Z" fill="#EE7766"/>
<path d="M375.523 19.1051L376.293 21.7338L378.89 22.5894L376.63 24.13L376.617 26.8664L374.45 25.1931L371.846 26.0252L372.769 23.4492L371.172 21.2286L373.905 21.3128L375.523 19.1051Z" fill="#EE7766"/>
<path d="M383.354 150.545L384.119 153.173L386.716 154.029L384.456 155.57L384.443 158.306L382.281 156.629L379.676 157.466L380.599 154.89L379.003 152.669L381.736 152.753L383.354 150.545Z" fill="#EE7766"/>
<path d="M323.214 139.941L323.979 142.569L326.576 143.425L324.316 144.965L324.303 147.702L322.141 146.025L319.532 146.861L320.455 144.285L318.859 142.064L321.596 142.149L323.214 139.941Z" fill="#EE7766"/>
<path d="M430.18 89.693L300.025 66.7432L294.874 95.953L425.029 118.903L430.18 89.693Z" fill="white"/>
<path d="M300.025 66.7433C305.463 67.5995 310.883 68.5104 316.329 69.3992L332.641 72.137C343.486 73.9778 354.344 75.8968 365.196 77.7746C376.048 79.6523 386.887 81.6305 397.72 83.6123L413.966 86.6018C419.378 87.6278 424.779 88.6246 430.199 89.6832C424.757 88.8219 419.342 87.9117 413.891 87.0265L397.603 84.2752C386.758 82.4344 375.899 80.5197 365.044 78.6369C354.188 76.754 343.357 74.786 332.524 72.7999L316.274 69.8096C310.846 68.7944 305.43 67.7858 300.025 66.7433Z" fill="#EE7766"/>
<path d="M294.875 95.9489C300.312 96.8094 305.732 97.7203 311.178 98.6091L327.471 101.357C338.316 103.193 349.174 105.117 360.026 106.994C370.878 108.872 381.717 110.85 392.55 112.832L408.796 115.817C414.208 116.848 419.608 117.844 425.03 118.899C419.587 118.042 414.172 117.132 408.721 116.246L392.433 113.495C381.588 111.654 370.729 109.74 359.874 107.857C349.018 105.974 338.191 104.007 327.369 102.036L311.119 99.0455C305.695 98.0043 300.278 97.0043 294.875 95.9489Z" fill="#EE7766"/>
<path d="M334.021 81.3507L328.656 80.4047L326.201 94.3259L322.963 93.755L325.417 79.8337L320.052 78.8877L320.557 76.0278L334.525 78.4908L334.021 81.3507ZM333.649 95.6393L336.608 78.8582L344.03 80.1668C344.802 80.3029 345.482 80.5934 346.069 81.0382C346.676 81.47 347.168 81.9955 347.546 82.6146C347.927 83.2179 348.192 83.882 348.34 84.6067C348.491 85.3158 348.507 86.0091 348.388 86.6866C348.196 87.7738 347.745 88.7179 347.036 89.5188C346.344 90.3067 345.499 90.8157 344.5 91.0457L347.216 98.0315L343.553 97.3855L341.117 91.156L337.903 90.5892L336.911 96.2144L333.649 95.6393ZM338.407 87.7293L342.496 88.4503C342.795 88.5031 343.084 88.4808 343.361 88.3834C343.654 88.2889 343.916 88.1401 344.146 87.9371C344.38 87.7183 344.581 87.4532 344.75 87.1417C344.918 86.8303 345.036 86.4855 345.103 86.1073C345.172 85.7134 345.173 85.3399 345.105 84.9867C345.037 84.6336 344.914 84.3194 344.735 84.0442C344.575 83.756 344.364 83.5238 344.103 83.3477C343.86 83.1587 343.596 83.0392 343.313 82.9892L339.366 82.2932L338.407 87.7293ZM356.847 82.4268L359.731 82.9353L363.153 100.842L359.797 100.25L358.975 95.7913L353.113 94.7578L350.839 98.6703L347.483 98.0786L356.847 82.4268ZM358.788 93.3945L357.635 86.3918L354.061 92.561L358.788 93.3945ZM368.247 84.437L370.547 97.9293L377.276 86.029L380.703 86.6333L371.197 102.26L368.455 101.777L364.82 83.8327L368.247 84.437ZM391.692 102.925L391.187 105.785L379.535 103.73L382.494 86.9491L393.934 88.9662L393.429 91.8261L385.252 90.3841L384.539 94.4257L391.606 95.6718L391.139 98.319L384.072 97.0729L383.301 101.445L391.692 102.925ZM393.73 106.233L396.689 89.4521L399.951 90.0272L397.496 103.948L406.052 105.457L405.548 108.317L393.73 106.233Z" fill="#EE7766"/>
</g>
<g clip-path="url(#clip2)">
<path d="M287.512 362.603C310.973 356.317 324.896 332.201 318.61 308.74C312.323 285.279 288.208 271.356 264.747 277.642C241.285 283.928 227.362 308.044 233.649 331.505C239.935 354.967 264.051 368.89 287.512 362.603Z" fill="white"/>
<path d="M287.76 363.58C263.792 370.003 239.069 355.729 232.647 331.76C226.224 307.792 240.498 283.069 264.467 276.647C288.435 270.224 313.158 284.498 319.58 308.467C326.003 332.435 311.729 357.158 287.76 363.58ZM264.733 277.64C241.308 283.917 227.364 308.069 233.64 331.494C239.917 354.919 264.073 368.876 287.497 362.599C310.922 356.322 324.876 332.154 318.602 308.742C312.329 285.33 288.158 271.364 264.733 277.64Z" fill="#F8B500"/>
<path d="M285.452 354.964C304.699 349.807 316.121 330.023 310.964 310.775C305.807 291.528 286.023 280.106 266.775 285.263C247.528 290.421 236.106 310.204 241.263 329.452C246.42 348.699 266.204 360.121 285.452 354.964Z" stroke="#F8B500" stroke-width="2" stroke-miterlimit="10"/>
<path d="M285.126 353.749C303.703 348.772 314.727 329.677 309.749 311.101C304.772 292.524 285.677 281.5 267.101 286.478C248.524 291.455 237.5 310.55 242.478 329.126C247.455 347.703 266.55 358.727 285.126 353.749Z" stroke="#F8B500" stroke-miterlimit="10"/>
<path d="M287.185 361.432C310.004 355.317 323.546 331.862 317.432 309.042C311.317 286.223 287.862 272.681 265.042 278.795C242.223 284.91 228.681 308.365 234.795 331.185C240.91 354.004 264.365 367.546 287.185 361.432Z" stroke="#F8B500" stroke-miterlimit="10"/>
<path d="M285.784 356.153L286.84 357.353L288.427 357.167L287.611 358.541L288.279 359.991L286.718 359.64L285.544 360.724L285.398 359.134L284.004 358.352L285.471 357.719L285.784 356.153Z" fill="#F8B500"/>
<path d="M265.236 279.47L266.293 280.672L267.88 280.484L267.064 281.858L267.732 283.311L266.172 282.96L264.998 284.044L264.851 282.451L263.456 281.67L264.925 281.039L265.236 279.47Z" fill="#F8B500"/>
<path d="M301.848 347.155L302.902 348.358L304.489 348.17L303.673 349.544L304.341 350.997L302.782 350.642L301.609 351.729L301.462 350.136L300.068 349.354L301.536 348.724L301.848 347.155Z" fill="#F8B500"/>
<path d="M267.375 356.392L268.429 357.595L270.016 357.407L269.2 358.781L269.868 360.233L268.309 359.879L267.134 360.966L266.987 359.374L265.592 358.592L267.063 357.961L267.375 356.392Z" fill="#F8B500"/>
<path d="M311.62 303.358L237.014 323.349L241.5 340.092L316.106 320.102L311.62 303.358Z" fill="white"/>
<path d="M237.014 323.349C240.106 322.46 243.201 321.603 246.305 320.729L255.621 318.15C261.82 316.447 268.045 314.781 274.257 313.096C280.469 311.41 286.698 309.781 292.926 308.155L302.269 305.726C305.389 304.932 308.496 304.127 311.628 303.348C308.533 304.236 305.44 305.092 302.334 305.969L293.028 308.535C286.829 310.238 280.604 311.906 274.39 313.59C268.175 315.274 261.952 316.907 255.723 318.53L246.378 320.96C243.252 321.763 240.134 322.566 237.014 323.349Z" fill="#F8B500"/>
<path d="M241.499 340.09C244.592 339.203 247.688 338.347 250.792 337.472L260.1 334.904C266.298 333.198 272.524 331.535 278.735 329.849C284.947 328.163 291.177 326.534 297.404 324.908L306.746 322.477C309.867 321.686 312.974 320.88 316.106 320.099C313.011 320.99 309.918 321.845 306.812 322.723L297.506 325.288C291.307 326.992 285.083 328.66 278.868 330.343C272.653 332.027 266.432 333.66 260.214 335.289L250.868 337.718C247.738 338.506 244.622 339.315 241.499 340.09Z" fill="#F8B500"/>
<path d="M246.334 326.749C246.231 326.69 246.05 326.62 245.793 326.54C245.547 326.457 245.251 326.393 244.903 326.35C244.565 326.291 244.203 326.264 243.819 326.268C243.435 326.271 243.057 326.323 242.687 326.422C242.026 326.599 241.566 326.853 241.307 327.183C241.047 327.513 240.977 327.899 241.095 328.339C241.163 328.594 241.278 328.793 241.441 328.936C241.612 329.064 241.83 329.161 242.096 329.226C242.362 329.292 242.683 329.33 243.059 329.341C243.446 329.349 243.887 329.349 244.382 329.341C245.028 329.341 245.619 329.369 246.156 329.424C246.704 329.476 247.183 329.596 247.594 329.784C248.016 329.969 248.373 330.234 248.664 330.579C248.952 330.911 249.172 331.362 249.324 331.93C249.501 332.59 249.526 333.193 249.398 333.736C249.279 334.265 249.044 334.732 248.693 335.136C248.353 335.538 247.924 335.883 247.405 336.171C246.894 336.445 246.337 336.662 245.735 336.824C244.807 337.072 243.854 337.178 242.876 337.142C241.897 337.106 240.98 336.93 240.125 336.612L240.631 334.259C240.763 334.335 240.986 334.425 241.299 334.527C241.621 334.615 241.99 334.696 242.408 334.771C242.822 334.833 243.271 334.862 243.754 334.857C244.237 334.852 244.716 334.786 245.192 334.658C246.513 334.304 247.06 333.704 246.834 332.858C246.762 332.591 246.626 332.386 246.426 332.24C246.226 332.095 245.968 331.991 245.652 331.926C245.337 331.861 244.966 331.824 244.541 331.814C244.116 331.803 243.641 331.794 243.117 331.785C242.483 331.781 241.92 331.746 241.43 331.678C240.949 331.596 240.529 331.466 240.171 331.289C239.809 331.1 239.508 330.858 239.268 330.562C239.035 330.251 238.856 329.859 238.728 329.383C238.56 328.757 238.527 328.17 238.629 327.621C238.73 327.072 238.94 326.581 239.259 326.148C239.589 325.711 240.005 325.339 240.506 325.031C241.004 324.711 241.566 324.467 242.192 324.3C243.062 324.067 243.899 323.991 244.704 324.074C245.505 324.145 246.228 324.293 246.872 324.518L246.334 326.749ZM256.754 331.542C257.322 331.389 257.766 331.146 258.087 330.812C258.419 330.474 258.651 330.089 258.783 329.656C258.927 329.22 258.982 328.752 258.947 328.252C258.921 327.737 258.84 327.225 258.703 326.715L257.017 320.421L259.399 319.782L261.085 326.076C261.312 326.922 261.42 327.744 261.41 328.542C261.412 329.337 261.267 330.071 260.976 330.746C260.696 331.417 260.258 332.007 259.661 332.514C259.064 333.022 258.29 333.403 257.34 333.658C256.355 333.922 255.469 333.979 254.684 333.829C253.907 333.665 253.229 333.362 252.651 332.92C252.07 332.467 251.582 331.896 251.186 331.207C250.802 330.515 250.502 329.769 250.288 328.969L248.602 322.675L251.001 322.033L252.687 328.326C252.827 328.848 253.009 329.34 253.232 329.802C253.463 330.249 253.745 330.627 254.076 330.936C254.419 331.242 254.813 331.459 255.257 331.589C255.699 331.706 256.198 331.691 256.754 331.542ZM275.19 328.782L273 320.61L271.449 327.548L270.145 327.897L265.333 322.665L267.522 330.836L265.123 331.479L261.815 319.135L264.389 318.445L269.922 324.491L271.726 316.479L274.282 315.794L277.589 328.139L275.19 328.782ZM290.233 324.751L288.044 316.579L286.493 323.517L285.189 323.867L280.376 318.634L282.566 326.805L280.167 327.448L276.859 315.104L279.432 314.414L284.965 320.46L286.769 312.448L289.325 311.764L292.633 324.108L290.233 324.751ZM303.218 319.017L303.782 321.121L295.21 323.417L291.902 311.073L300.318 308.818L300.881 310.922L294.866 312.534L295.662 315.507L300.861 314.114L301.383 316.061L296.184 317.454L297.046 320.671L303.218 319.017ZM305.652 320.62L302.345 308.275L307.804 306.812C308.372 306.66 308.926 306.642 309.467 306.758C310.016 306.859 310.517 307.061 310.97 307.361C311.42 307.651 311.811 308.018 312.141 308.464C312.469 308.898 312.699 309.364 312.833 309.863C313.047 310.662 313.04 311.447 312.811 312.216C312.591 312.971 312.178 313.585 311.572 314.058L315.632 317.945L312.937 318.668L309.308 315.205L306.943 315.839L308.052 319.977L305.652 320.62ZM306.379 313.735L309.387 312.929C309.607 312.87 309.796 312.763 309.954 312.609C310.123 312.452 310.254 312.268 310.346 312.057C310.436 311.834 310.488 311.59 310.504 311.325C310.52 311.06 310.491 310.788 310.416 310.51C310.339 310.22 310.221 309.966 310.063 309.748C309.905 309.529 309.721 309.355 309.513 309.224C309.312 309.079 309.095 308.988 308.862 308.951C308.637 308.9 308.42 308.902 308.211 308.958L305.308 309.736L306.379 313.735Z" fill="#F8B500"/>
</g>
<g clip-path="url(#clip3)">
<path d="M73.8951 240.234C113.728 242.563 147.906 212.16 150.234 172.327C152.563 132.495 122.16 98.3167 82.3275 95.9882C42.4951 93.6596 8.31694 124.063 5.9884 163.895C3.65986 203.727 34.0628 237.906 73.8951 240.234Z" fill="white"/>
<path d="M73.7971 241.908C33.1033 239.529 1.93522 204.491 4.31412 163.797C6.69301 123.103 41.7314 91.9352 82.4252 94.3141C123.119 96.693 154.287 131.731 151.908 172.425C149.529 213.119 114.491 244.287 73.7971 241.908ZM82.3266 96.0008C42.5563 93.6759 8.32581 124.125 6.00091 163.896C3.676 203.666 34.1254 237.897 73.8957 240.221C113.666 242.546 147.897 212.084 150.221 172.327C152.546 132.569 122.097 98.3258 82.3266 96.0008Z" fill="#EEC89F"/>
<path d="M74.0741 237.168C112.213 239.398 144.939 210.287 147.168 172.148C149.398 134.009 120.287 101.284 82.148 99.0541C44.0088 96.8245 11.2834 125.935 9.05385 164.074C6.82429 202.214 35.9348 234.939 74.0741 237.168Z" stroke="#EEC89F" stroke-width="2" stroke-linecap="round" stroke-linejoin="round" stroke-dasharray="5.98 5.98"/>
<path d="M137.279 171.57C136.375 186.746 129.668 200.992 118.547 211.357C107.426 221.722 92.7437 227.412 77.5422 227.247C62.3407 227.083 47.785 221.077 36.8908 210.474C25.9966 199.87 19.5989 185.483 19.0231 170.291C18.4474 155.1 23.7377 140.269 33.7981 128.871C43.8585 117.474 57.9178 110.383 73.0633 109.069C88.2087 107.754 103.279 112.317 115.153 121.81C127.027 131.304 134.793 145.001 136.843 160.065C137.361 163.877 137.507 167.73 137.279 171.57V171.57Z" stroke="#EEC89F" stroke-width="2" stroke-miterlimit="10"/>
<path d="M135.217 171.449C134.346 186.076 127.889 199.809 117.18 209.81C106.472 219.811 92.3308 225.317 77.6788 225.189C63.0269 225.061 48.9841 219.309 38.4521 209.122C27.9202 198.935 21.7041 185.091 21.0883 170.452C20.4725 155.812 25.5041 141.496 35.1434 130.46C44.7826 119.425 58.2928 112.514 72.8822 111.156C87.4717 109.798 102.025 114.096 113.536 123.163C125.046 132.23 132.634 145.372 134.731 159.874C135.285 163.706 135.448 167.584 135.217 171.449V171.449Z" stroke="#EEC89F" stroke-miterlimit="10"/>
<path d="M74.1664 235.591C111.435 237.77 143.413 209.324 145.591 172.056C147.77 134.788 119.324 102.81 82.056 100.631C44.7878 98.4524 12.8098 126.898 10.6312 164.166C8.45252 201.435 36.8982 233.412 74.1664 235.591Z" stroke="#EEC89F" stroke-miterlimit="10"/>
<path d="M142.877 160.354L15.8452 152.928L14.1788 181.435L141.211 188.861L142.877 160.354Z" fill="white"/>
<path d="M15.8452 152.928C21.1432 153.14 26.438 153.408 31.7342 153.65L47.6222 154.46C58.2108 155.011 68.7994 155.634 79.386 156.219C89.9686 156.872 100.558 157.487 111.138 158.173L127.008 159.219C132.301 159.596 137.591 159.948 142.877 160.354C137.58 160.138 132.285 159.87 126.984 159.632L111.1 158.822C100.512 158.271 89.9232 157.648 79.3367 157.063C68.7543 156.406 58.1649 155.796 47.5845 155.105L31.7103 154.059C26.4229 153.665 21.1321 153.33 15.8452 152.928Z" fill="#EEC89F"/>
<path d="M14.1787 181.435C19.4764 181.651 24.7712 181.918 30.0677 182.156L45.9555 182.971C56.5443 183.518 67.1326 184.145 77.7195 184.726C88.3021 185.378 98.8912 185.993 109.472 186.679L125.342 187.726C130.634 188.107 135.924 188.454 141.211 188.861C135.913 188.648 130.618 188.381 125.318 188.139L109.434 187.329C98.8453 186.778 88.2567 186.154 77.6702 185.569C67.0875 184.917 56.4984 184.302 45.9178 183.616L30.0436 182.569C24.7554 182.188 19.4654 181.841 14.1787 181.435Z" fill="#EEC89F"/>
<path d="M25.4626 177.486L26.5413 159.058L38.9221 159.782L38.7382 162.923L29.9393 162.408L29.6613 167.158L36.9807 167.586L36.8106 170.493L29.4911 170.065L29.0444 177.696L25.4626 177.486ZM40.3667 178.358L41.4454 159.93L49.5955 160.407C50.4434 160.457 51.2114 160.684 51.8996 161.089C52.6061 161.478 53.2017 161.981 53.6863 162.6C54.172 163.201 54.5402 163.883 54.7908 164.644C55.0424 165.388 55.1465 166.132 55.1029 166.876C55.033 168.07 54.6664 169.142 54.003 170.093C53.358 171.028 52.5123 171.681 51.4661 172.054L55.2652 179.231L51.2421 178.995L47.8402 172.597L44.3102 172.391L43.9486 178.568L40.3667 178.358ZM44.494 169.25L48.9843 169.513C49.3131 169.532 49.6205 169.472 49.9065 169.333C50.2097 169.194 50.4728 169.001 50.6956 168.754C50.9195 168.489 51.1026 168.178 51.245 167.822C51.3874 167.466 51.4708 167.08 51.4951 166.665C51.5204 166.232 51.4745 165.83 51.3573 165.459C51.2402 165.087 51.068 164.765 50.841 164.491C50.6322 164.201 50.3762 163.977 50.0728 163.821C49.7878 163.648 49.4895 163.552 49.1781 163.534L44.8435 163.28L44.494 169.25ZM57.6282 179.369L58.7069 160.94L62.2888 161.15L61.2101 179.579L57.6282 179.369ZM78.0349 177.412L77.851 180.553L65.0549 179.804L66.1337 161.375L78.6962 162.111L78.5123 165.251L69.5317 164.725L69.2719 169.164L77.0326 169.618L76.8624 172.525L69.1017 172.071L68.8206 176.873L78.0349 177.412ZM84.9166 169.116L84.2254 180.926L80.6435 180.716L81.7222 162.288L84.4995 162.45L93.395 175.108L94.1015 163.038L97.6834 163.248L96.6062 181.65L93.6991 181.48L84.9166 169.116ZM100.44 181.875L101.518 163.446L108.215 163.838C109.72 163.927 111.021 164.246 112.118 164.796C113.231 165.347 114.145 166.061 114.857 166.936C115.57 167.811 116.084 168.822 116.399 169.969C116.715 171.099 116.835 172.295 116.762 173.558C116.68 174.96 116.389 176.219 115.889 177.336C115.408 178.436 114.746 179.37 113.902 180.137C113.06 180.886 112.063 181.453 110.912 181.837C109.779 182.205 108.521 182.348 107.136 182.267L100.44 181.875ZM113.154 173.347C113.205 172.465 113.132 171.644 112.933 170.886C112.734 170.128 112.417 169.467 111.981 168.903C111.546 168.339 110.99 167.89 110.315 167.555C109.658 167.222 108.896 167.03 108.031 166.979L104.916 166.797L104.205 178.944L107.32 179.126C108.203 179.178 108.99 179.068 109.683 178.796C110.394 178.525 110.99 178.134 111.471 177.624C111.971 177.098 112.363 176.47 112.649 175.74C112.935 175.01 113.103 174.212 113.154 173.347ZM130.795 170.004C130.68 169.876 130.465 169.699 130.149 169.472C129.849 169.246 129.472 169.024 129.015 168.806C128.578 168.572 128.095 168.37 127.566 168.201C127.038 168.031 126.497 167.93 125.943 167.897C124.957 167.84 124.211 167.978 123.705 168.313C123.199 168.648 122.927 169.145 122.889 169.802C122.867 170.183 122.934 170.508 123.092 170.778C123.268 171.031 123.524 171.263 123.859 171.474C124.194 171.684 124.616 171.883 125.126 172.069C125.654 172.256 126.258 172.456 126.94 172.67C127.826 172.965 128.624 173.272 129.334 173.591C130.062 173.912 130.665 174.294 131.142 174.739C131.637 175.184 132.006 175.71 132.248 176.314C132.492 176.901 132.589 177.619 132.539 178.467C132.481 179.453 132.241 180.29 131.819 180.977C131.415 181.648 130.88 182.181 130.215 182.576C129.567 182.972 128.821 183.25 127.978 183.409C127.154 183.551 126.292 183.597 125.392 183.544C124.008 183.463 122.653 183.175 121.328 182.681C120.002 182.187 118.825 181.527 117.797 180.703L119.561 177.707C119.708 177.872 119.973 178.096 120.355 178.379C120.756 178.645 121.226 178.925 121.765 179.216C122.304 179.491 122.906 179.735 123.571 179.947C124.236 180.16 124.923 180.287 125.632 180.328C127.605 180.444 128.628 179.87 128.702 178.607C128.726 178.209 128.633 177.865 128.424 177.575C128.215 177.285 127.909 177.024 127.506 176.792C127.103 176.56 126.612 176.34 126.034 176.133C125.456 175.925 124.81 175.696 124.095 175.446C123.227 175.152 122.472 174.848 121.831 174.532C121.208 174.201 120.691 173.832 120.281 173.426C119.871 173.003 119.569 172.533 119.373 172.018C119.196 171.487 119.128 170.867 119.17 170.157C119.224 169.223 119.446 168.403 119.835 167.696C120.223 166.99 120.735 166.412 121.369 165.963C122.02 165.515 122.759 165.193 123.587 164.999C124.415 164.787 125.297 164.708 126.231 164.763C127.529 164.839 128.711 165.116 129.776 165.595C130.843 166.057 131.767 166.589 132.548 167.19L130.795 170.004Z" fill="#EEC89F"/>
</g>
<defs>
<clipPath id="clip0">
<rect width="215.483" height="215.483" fill="white" transform="translate(526 135.781) rotate(-5)"/>
</clipPath>
<clipPath id="clip1">
<rect width="154" height="154" fill="white" transform="translate(300.541 0.799072) rotate(10)"/>
</clipPath>
<clipPath id="clip2">
<rect width="90" height="90" fill="white" transform="translate(221 288.294) rotate(-15)"/>
</clipPath>
<clipPath id="clip3">
<rect width="147.846" height="147.846" fill="white" transform="translate(8.62817 90) rotate(3.34561)"/>
</clipPath>
</defs>
</svg>
