<svg id="Layer_1" data-name="Layer 1" xmlns="http://www.w3.org/2000/svg" viewBox="0 0 350 350"><defs><style>.cls-1{fill:#fff;}.cls-2{fill:#ca431d;}</style></defs><title>Stamp2</title><path  fill="white" d="M44.14,279.72a11.61,11.61,0,0,1,0-1.32c.19-1.37-.47-2-1.76-2.31a35.4,35.4,0,0,1-10.94-4.57A33.78,33.78,0,0,1,18,255.42a35.34,35.34,0,0,1-1-23.68c.83-2.92.81-2.9-1.6-4.59C5.51,220.21.44,210.59.22,198.63a32.78,32.78,0,0,1,7.67-21.71c.94-1.16.84-1.74-.12-2.87a32.47,32.47,0,0,1-7.56-19.4c-.63-10.51,3-19.51,10.41-26.94a44.41,44.41,0,0,1,5.87-4.55,1.77,1.77,0,0,0,.82-2.53,33.94,33.94,0,0,1-1.83-16.75,34.34,34.34,0,0,1,8.3-18.08A33.41,33.41,0,0,1,41.47,75.11c1.55-.37,2.13-.93,2.16-2.6.18-13.38,6-23.64,17.49-30.49a34.38,34.38,0,0,1,20.73-4.41,1.85,1.85,0,0,0,2.25-1.55,33.5,33.5,0,0,1,17.37-20.32C110.35,11.24,119.57,11,129,14a9.37,9.37,0,0,1,2.56,1.13c1.26.91,1.92.4,2.7-.64A33.58,33.58,0,0,1,154.78,1.32c11.57-2.37,21.88.44,30.64,8.45,1.2,1.1,2,1.26,3.38.32a33,33,0,0,1,21.66-5.84c12.63,1.08,22.27,7.21,28.42,18.45.68,1.24,1.28,1.52,2.72,1.18,11.88-2.8,22.67-.6,32.06,7.42,6.16,5.26,9.7,12,11.28,19.91.55,2.79.57,2.7,3.39,3,11.85,1.11,20.72,7,26.79,17.12a34.47,34.47,0,0,1,4.66,17.87,35.75,35.75,0,0,1-.72,5.9,1.47,1.47,0,0,0,1,1.91,34.2,34.2,0,0,1,20.06,21,31.12,31.12,0,0,1,1,18.43c-.91,3.54-2.62,6.86-3.89,10.31a1.82,1.82,0,0,0,.25,1.61,35.12,35.12,0,0,1,10.63,15.91,34.84,34.84,0,0,1-10.36,37.12,1.43,1.43,0,0,0-.29,2.14,32.82,32.82,0,0,1,4,24.28,33.54,33.54,0,0,1-18.24,23.89c-3.84,2-3.8,1.84-3.41,6,1.17,12.65-3.19,23.08-13,31.12A32.73,32.73,0,0,1,288.52,296c-2.75.24-2.67.28-3.13,2.76-2.13,11.37-8.29,19.77-18.6,25.07a33.49,33.49,0,0,1-16.13,3.7,52.1,52.1,0,0,1-8.79-1.36c-.94-.17-1.49-.16-2,.79A36.19,36.19,0,0,1,230,338.88c-7.76,6-16.53,8-26.18,6.88a32.5,32.5,0,0,1-14.8-5.72,1.75,1.75,0,0,0-2.49.32,37.38,37.38,0,0,1-11.66,7.39,32.2,32.2,0,0,1-14.28,2.17,34,34,0,0,1-26-14.13,1.31,1.31,0,0,0-1.93-.48c-9.84,4.51-19.82,4.7-29.65.21A33.3,33.3,0,0,1,85,315.8C84,313,84,313,81.14,313.21c-11.73.78-21.47-3.4-29.06-12.22A32.22,32.22,0,0,1,44.14,279.72ZM79.23,41.41A33.36,33.36,0,0,0,64.15,45,29.49,29.49,0,0,0,51,58.34a28.9,28.9,0,0,0-3.12,17.29c.23,1.56-.4,2.37-2.16,2.68-8.45,1.48-15.42,5.38-20.6,12.35a30.39,30.39,0,0,0-6,18.06A28.1,28.1,0,0,0,22,121.37c1.1,2.26.77,2.92-1.51,4.18-9.61,5.3-15.11,13.53-16.17,24.32a28.77,28.77,0,0,0,8.16,23.33c2,2.09,1.95,2.46,0,4.62a30.74,30.74,0,0,0-7.22,13.24,28.54,28.54,0,0,0-.29,13.6,30.37,30.37,0,0,0,9.5,16.47,57.82,57.82,0,0,0,6.91,4.8c1.23.8,1.89,1.69,1.21,3.14-4.58,9.83-4.2,19.54,1.27,28.83,4.94,8.38,12.5,13.18,22.12,14.68,1.63.25,2.31.92,2.32,2.61,0,2-.16,4.07,0,6.08a29.12,29.12,0,0,0,11.3,21.3c7.29,5.87,15.7,7.73,24.9,6.29,2.05-.32,2.88.21,3.35,2.22a30.72,30.72,0,0,0,29,23.55,30.9,30.9,0,0,0,15.72-3.83c2.31-1.22,2.8-1,4.4,1.1a45.52,45.52,0,0,0,4.49,5.47,29.73,29.73,0,0,0,17.78,8.37A29.19,29.19,0,0,0,173.36,344a33.34,33.34,0,0,0,12.21-8.58c1.32-1.43,2.14-1.47,3.58-.34a30.59,30.59,0,0,0,22.5,6.82,29.86,29.86,0,0,0,17.79-8,30.66,30.66,0,0,0,7.66-10.89c.76-1.82,1.69-2.21,3.38-1.58a30.7,30.7,0,0,0,22.47-.37c10.31-4,18.42-15.12,18.79-26.13.08-2.22.66-2.8,2.9-2.82,9.38-.09,17.32-3.42,23.65-10.41A30.33,30.33,0,0,0,314.84,253a2.3,2.3,0,0,1,1.62-3c1.58-.64,3.2-1.2,4.72-2a30.48,30.48,0,0,0,11.45-44.76c-1.08-1.58-1-2.36.54-3.49a30.26,30.26,0,0,0,12-18.8,30,30,0,0,0-2.79-20.08,30.84,30.84,0,0,0-9.18-10.73c-1.54-1.17-1.56-2-.67-3.69a59,59,0,0,0,3.7-7.53,28.09,28.09,0,0,0-.75-21.78,30.68,30.68,0,0,0-19.38-17.32,2.18,2.18,0,0,1-1.62-2.94,29.44,29.44,0,0,0-1.08-19.76c-3.84-9.26-10.6-15.35-20.26-18a51.51,51.51,0,0,0-9-1.11c-1.82-.16-2.65-.69-2.75-2.17a30.71,30.71,0,0,0-28.83-29.07,31.56,31.56,0,0,0-12.67,1.87c-1.81.63-2.62.23-3.42-1.49-.53-1.15-1-2.33-1.63-3.43-9-16.11-31.11-20.5-45.57-9-2.12,1.69-3.05,1.65-4.93-.3a30.5,30.5,0,0,0-48.16,4.48c-1.21,1.91-2,2.19-3.64,1.32-6.51-3.51-13.3-5-20.73-3.67a30.6,30.6,0,0,0-16.57,8.69,29.68,29.68,0,0,0-8.09,14.92c-.35,1.61-1.45,2.19-3.1,1.91C82.2,41.78,80.34,41.56,79.23,41.41Z"/><path  fill="white" class="cls-1" d="M79.23,41.41c1.11.15,3,.37,4.82.67,1.65.28,2.75-.3,3.1-1.91a29.68,29.68,0,0,1,8.09-14.92,30.6,30.6,0,0,1,16.57-8.69c7.43-1.37,14.22.16,20.73,3.67,1.61.87,2.43.59,3.64-1.32a29.73,29.73,0,0,1,9.65-9.61,30.18,30.18,0,0,1,38.51,5.13c1.88,1.95,2.81,2,4.93.3,14.46-11.46,36.6-7.07,45.57,9,.61,1.1,1.1,2.28,1.63,3.43.8,1.72,1.61,2.12,3.42,1.49a31.56,31.56,0,0,1,12.67-1.87,30.71,30.71,0,0,1,28.83,29.07c.1,1.48.93,2,2.75,2.17a51.51,51.51,0,0,1,9,1.11c9.66,2.64,16.42,8.73,20.26,18a29.44,29.44,0,0,1,1.08,19.76,2.18,2.18,0,0,0,1.62,2.94,30.68,30.68,0,0,1,19.38,17.32,28.09,28.09,0,0,1,.75,21.78,59,59,0,0,1-3.7,7.53c-.89,1.65-.87,2.52.67,3.69a30.84,30.84,0,0,1,9.18,10.73A30,30,0,0,1,345.16,181a30.26,30.26,0,0,1-12,18.8c-1.53,1.13-1.62,1.91-.54,3.49A30.48,30.48,0,0,1,321.18,248c-1.52.77-3.14,1.33-4.72,2a2.3,2.3,0,0,0-1.62,3,30.33,30.33,0,0,1-6.55,28.75c-6.33,7-14.27,10.32-23.65,10.41-2.24,0-2.82.6-2.9,2.82-.37,11-8.48,22.14-18.79,26.13a30.7,30.7,0,0,1-22.47.37c-1.69-.63-2.62-.24-3.38,1.58A30.66,30.66,0,0,1,229.44,334a29.86,29.86,0,0,1-17.79,8,30.59,30.59,0,0,1-22.5-6.82c-1.44-1.13-2.26-1.09-3.58.34A33.34,33.34,0,0,1,173.36,344a29.19,29.19,0,0,1-14.15,1.72,29.73,29.73,0,0,1-17.78-8.37,45.52,45.52,0,0,1-4.49-5.47c-1.6-2.11-2.09-2.32-4.4-1.1a30.9,30.9,0,0,1-15.72,3.83,30.72,30.72,0,0,1-29-23.55c-.47-2-1.3-2.54-3.35-2.22-9.2,1.44-17.61-.42-24.9-6.29a29.12,29.12,0,0,1-11.3-21.3c-.15-2,0-4,0-6.08,0-1.69-.69-2.36-2.32-2.61-9.62-1.5-17.18-6.3-22.12-14.68-5.47-9.29-5.85-19-1.27-28.83.68-1.45,0-2.34-1.21-3.14a57.82,57.82,0,0,1-6.91-4.8,30.37,30.37,0,0,1-9.5-16.47,28.54,28.54,0,0,1,.29-13.6,30.74,30.74,0,0,1,7.22-13.24c2-2.16,2-2.53,0-4.62a28.77,28.77,0,0,1-8.16-23.33c1.06-10.79,6.56-19,16.17-24.32,2.28-1.26,2.61-1.92,1.51-4.18a28.1,28.1,0,0,1-2.87-12.65,30.39,30.39,0,0,1,6-18.06c5.18-7,12.15-10.87,20.6-12.35,1.76-.31,2.39-1.12,2.16-2.68A28.9,28.9,0,0,1,51,58.34,29.49,29.49,0,0,1,64.15,45,33.36,33.36,0,0,1,79.23,41.41Z"/><path  fill="white" d="M56,270.9a8.15,8.15,0,0,1,0-1.21c.16-1.25-.43-1.82-1.6-2.1a32.36,32.36,0,0,1-10-4.16,30.75,30.75,0,0,1-12.27-14.66,32.19,32.19,0,0,1-.9-21.56c.76-2.66.74-2.64-1.45-4.18a31,31,0,0,1-13.81-26,29.88,29.88,0,0,1,7-19.77c.86-1,.76-1.58-.11-2.61A29.46,29.46,0,0,1,16,157c-.58-9.57,2.74-17.76,9.47-24.52a40.22,40.22,0,0,1,5.35-4.15,1.61,1.61,0,0,0,.74-2.3,31.43,31.43,0,0,1,5.9-31.72A30.35,30.35,0,0,1,53.58,84.6c1.41-.34,1.94-.85,2-2.37C55.7,70.05,61,60.7,71.47,54.47a31.27,31.27,0,0,1,18.87-4,1.67,1.67,0,0,0,2-1.42A30.5,30.5,0,0,1,108.2,30.55c8.09-4.11,16.48-4.33,25-1.57a8.34,8.34,0,0,1,2.34,1c1.14.82,1.74.36,2.45-.59a30.61,30.61,0,0,1,18.73-12,30.32,30.32,0,0,1,27.9,7.69c1.1,1,1.8,1.15,3.08.28a30.1,30.1,0,0,1,19.72-5.31c11.5,1,20.28,6.56,25.88,16.8A1.82,1.82,0,0,0,235.79,38c10.82-2.55,20.64-.55,29.19,6.75a31,31,0,0,1,10.27,18.13c.51,2.54.52,2.45,3.09,2.69,10.79,1,18.87,6.36,24.39,15.59A31.26,31.26,0,0,1,307,97.39a32.92,32.92,0,0,1-.65,5.38,1.33,1.33,0,0,0,.93,1.73,31.11,31.11,0,0,1,18.27,19.1,28.29,28.29,0,0,1,.91,16.78c-.83,3.22-2.38,6.24-3.54,9.38a1.68,1.68,0,0,0,.23,1.47,31.94,31.94,0,0,1,9.67,14.48,31.73,31.73,0,0,1-9.42,33.81,1.28,1.28,0,0,0-.27,1.94,29.91,29.91,0,0,1,3.66,22.11,30.54,30.54,0,0,1-16.61,21.75c-3.5,1.8-3.46,1.67-3.11,5.45,1.07,11.52-2.9,21-11.83,28.34a29.84,29.84,0,0,1-16.7,6.61c-2.51.21-2.43.25-2.85,2.51-1.93,10.35-7.55,18-16.94,22.83A30.52,30.52,0,0,1,244,314.43a47.82,47.82,0,0,1-8-1.24c-.86-.16-1.36-.15-1.82.72a33,33,0,0,1-9,10.85c-7.06,5.45-15,7.31-23.83,6.26a29.63,29.63,0,0,1-13.48-5.2,1.59,1.59,0,0,0-2.27.29,34.17,34.17,0,0,1-10.61,6.73,29.26,29.26,0,0,1-13,2,31,31,0,0,1-23.7-12.87,1.2,1.2,0,0,0-1.76-.43c-9,4.1-18,4.28-27,.2a30.31,30.31,0,0,1-16.43-18c-.9-2.51-.86-2.53-3.5-2.35a30.63,30.63,0,0,1-26.46-11.13A29.32,29.32,0,0,1,56,270.9ZM88,53.91a30.58,30.58,0,0,0-13.74,3.28,26.87,26.87,0,0,0-12,12.14,26.3,26.3,0,0,0-2.84,15.74c.21,1.42-.36,2.16-2,2.44A28.5,28.5,0,0,0,38.7,98.76a27.59,27.59,0,0,0-5.47,16.45,25.46,25.46,0,0,0,2.61,11.51c1,2.05.7,2.66-1.38,3.8-8.75,4.83-13.76,12.32-14.72,22.15a26.21,26.21,0,0,0,7.43,21.24c1.79,1.9,1.78,2.24,0,4.21a27.91,27.91,0,0,0-6.57,12,25.94,25.94,0,0,0-.26,12.39,27.54,27.54,0,0,0,8.65,15,51.3,51.3,0,0,0,6.28,4.37c1.13.73,1.73,1.54,1.11,2.86-4.18,8.95-3.83,17.79,1.15,26.25,4.5,7.63,11.38,12,20.14,13.36,1.48.23,2.11.84,2.11,2.38,0,1.85-.14,3.7,0,5.54a26.57,26.57,0,0,0,10.3,19.39c6.63,5.34,14.29,7,22.67,5.73,1.86-.3,2.62.19,3,2a28,28,0,0,0,26.42,21.44,28.19,28.19,0,0,0,14.32-3.49c2.1-1.11,2.54-.92,4,1a40.23,40.23,0,0,0,4.09,5A27.15,27.15,0,0,0,160.78,331a26.58,26.58,0,0,0,12.88-1.57,30.45,30.45,0,0,0,11.12-7.81c1.2-1.3,1.94-1.34,3.26-.31a27.82,27.82,0,0,0,20.48,6.21,27.17,27.17,0,0,0,16.2-7.25,27.84,27.84,0,0,0,7-9.91c.7-1.66,1.55-2,3.08-1.45a27.92,27.92,0,0,0,20.46-.33c9.39-3.63,16.77-13.77,17.11-23.79.07-2,.6-2.55,2.64-2.57a28.11,28.11,0,0,0,21.53-9.48,27.59,27.59,0,0,0,6-26.18,2.09,2.09,0,0,1,1.48-2.73c1.43-.58,2.9-1.09,4.28-1.79a27.73,27.73,0,0,0,10.43-40.75c-1-1.44-.9-2.15.5-3.18a28,28,0,0,0,8.37-35.4,28,28,0,0,0-8.36-9.77c-1.4-1.07-1.41-1.86-.6-3.36a55.87,55.87,0,0,0,3.37-6.86,25.6,25.6,0,0,0-.69-19.83,28,28,0,0,0-17.64-15.77,2,2,0,0,1-1.48-2.67,27.8,27.8,0,0,0-19.43-34.38,48.14,48.14,0,0,0-8.18-1c-1.66-.14-2.42-.62-2.51-2a28,28,0,0,0-26.25-26.47,28.64,28.64,0,0,0-11.53,1.71c-1.65.57-2.39.2-3.12-1.36-.48-1-.93-2.12-1.49-3.13-8.16-14.67-28.32-18.66-41.48-8.22-1.94,1.53-2.78,1.5-4.49-.28a27.49,27.49,0,0,0-35.06-4.67,27,27,0,0,0-8.79,8.75c-1.1,1.74-1.85,2-3.32,1.2-5.92-3.19-12.11-4.59-18.87-3.34a27.83,27.83,0,0,0-15.09,7.91,27,27,0,0,0-7.37,13.59c-.31,1.46-1.31,2-2.82,1.74C90.66,54.25,89,54.05,88,53.91Z"/><path  fill="white" class="cls-2" d="M74.39,147.48c8.32-.22,16.65-.32,25-.48l25-.28c16.65-.17,33.3-.15,50-.23s33.31.07,50,.23l25,.27c8.33.17,16.65.27,25,.49-8.33.23-16.65.33-25,.49l-25,.28c-16.65.16-33.3.16-50,.23s-33.3-.07-50-.23l-25-.28C91,147.81,82.71,147.71,74.39,147.48Z"/><path  fill="white" class="cls-2" d="M74.39,215.66c8.32-.22,16.65-.32,25-.48l25-.28c16.65-.17,33.3-.15,50-.23,16.66.07,33.31.07,50,.23l25,.27c8.33.17,16.65.27,25,.49-8.33.23-16.65.33-25,.49l-25,.28c-16.65.16-33.3.15-50,.23-16.65-.08-33.3-.07-50-.23l-25-.28C91,216,82.71,215.89,74.39,215.66Z"/></svg>
