<svg width="280" height="264" viewBox="0 0 280 264" fill="none" xmlns="http://www.w3.org/2000/svg">
<path d="M35.1599 87.28L139.82 40.76L244.48 87.28L139.82 133.71L35.1599 87.28Z" fill="white" stroke="#F2F4FB" stroke-width="3" stroke-linecap="round" stroke-linejoin="round"/>
<path d="M277.64 48.42L176.73 2L139.82 40.76L244.48 87.24L277.64 48.42Z" fill="white" stroke="black" stroke-width="3" stroke-linecap="round" stroke-linejoin="round"/>
<path d="M2 48.42L102.91 2L139.82 40.76L35.16 87.24L2 48.42Z" fill="white" stroke="black" stroke-width="3" stroke-linecap="round" stroke-linejoin="round"/>
<path d="M53.9201 211.23L52.1501 137.88L28.1001 58.31L74.4001 47.77L110.01 30.44L127.8 97.91L130.81 178.07L101.31 199.29L53.9201 211.23Z" fill="white" stroke="#1D1D1B" stroke-width="2" stroke-linecap="round" stroke-linejoin="round"/>
<path d="M59.1799 135.72L99.0199 123.81L121.75 109.01" fill="white"/>
<path d="M59.1799 135.72L99.0199 123.81L121.75 109.01" stroke="#1D1D1B" stroke-width="2" stroke-linecap="round" stroke-linejoin="round"/>
<path d="M76.74 53.09L96.04 118.07" stroke="#1D1D1B" stroke-width="2" stroke-linecap="round" stroke-linejoin="round"/>
<path d="M99.3201 129.74L101.73 188.22" stroke="#1D1D1B" stroke-width="2" stroke-linecap="round" stroke-linejoin="round"/>
<path d="M37.51 65.05L46.3 95.03L67.39 88.99L59.48 59.88L37.51 65.05Z" fill="white" stroke="#1D1D1B" stroke-width="2" stroke-linecap="round" stroke-linejoin="round"/>
<path d="M48.49 101.46L68.71 95.38" stroke="#1D1D1B" stroke-width="2" stroke-linecap="round" stroke-linejoin="round"/>
<path d="M49.5901 106.04L69.8101 99.97" stroke="#1D1D1B" stroke-width="2" stroke-linecap="round" stroke-linejoin="round"/>
<path d="M51.5901 110.35L71.8101 104.28" stroke="#1D1D1B" stroke-width="2" stroke-linecap="round" stroke-linejoin="round"/>
<path d="M52.5901 115.07L72.8101 109" stroke="#1D1D1B" stroke-width="2" stroke-linecap="round" stroke-linejoin="round"/>
<path d="M105.42 129.74L122.65 119.4" stroke="#1D1D1B" stroke-width="2" stroke-linecap="round" stroke-linejoin="round"/>
<path d="M105.42 135.91L122.65 125.57" stroke="#1D1D1B" stroke-width="2" stroke-linecap="round" stroke-linejoin="round"/>
<path d="M105.42 141.89L122.65 131.55" stroke="#1D1D1B" stroke-width="2" stroke-linecap="round" stroke-linejoin="round"/>
<path d="M105.42 148.25L122.65 137.91" stroke="#1D1D1B" stroke-width="2" stroke-linecap="round" stroke-linejoin="round"/>
<path d="M105.41 156.25L106.58 182.09L124.89 170.15L123.83 144.59L105.41 156.25Z" fill="white" stroke="#1D1D1B" stroke-width="2" stroke-linecap="round" stroke-linejoin="round"/>
<path d="M81.99 53.09L92.51 48.05" stroke="#1D1D1B" stroke-width="2" stroke-linecap="round" stroke-linejoin="round"/>
<path d="M83.3899 57.79L93.9099 52.75" stroke="#1D1D1B" stroke-width="2" stroke-linecap="round" stroke-linejoin="round"/>
<path d="M84.99 62.4L95.51 57.36" stroke="#1D1D1B" stroke-width="2" stroke-linecap="round" stroke-linejoin="round"/>
<path d="M86.6201 67.13L97.1401 62.09" stroke="#1D1D1B" stroke-width="2" stroke-linecap="round" stroke-linejoin="round"/>
<path d="M102.73 66.27L113.25 61.23" stroke="#1D1D1B" stroke-width="2" stroke-linecap="round" stroke-linejoin="round"/>
<path d="M104.13 70.97L114.65 65.93" stroke="#1D1D1B" stroke-width="2" stroke-linecap="round" stroke-linejoin="round"/>
<path d="M105.73 75.58L116.25 70.54" stroke="#1D1D1B" stroke-width="2" stroke-linecap="round" stroke-linejoin="round"/>
<path d="M107.36 80.31L117.88 75.27" stroke="#1D1D1B" stroke-width="2" stroke-linecap="round" stroke-linejoin="round"/>
<path d="M88.3301 72.84L98.8501 67.8" stroke="#1D1D1B" stroke-width="2" stroke-linecap="round" stroke-linejoin="round"/>
<path d="M89.73 77.55L100.25 72.51" stroke="#1D1D1B" stroke-width="2" stroke-linecap="round" stroke-linejoin="round"/>
<path d="M91.3301 82.15L101.85 77.11" stroke="#1D1D1B" stroke-width="2" stroke-linecap="round" stroke-linejoin="round"/>
<path d="M92.96 86.88L103.48 81.84" stroke="#1D1D1B" stroke-width="2" stroke-linecap="round" stroke-linejoin="round"/>
<path d="M62.77 59.56L74.07 56.68" stroke="#1D1D1B" stroke-width="2" stroke-linecap="round" stroke-linejoin="round"/>
<path d="M64.5601 64.42L75.8601 61.54" stroke="#1D1D1B" stroke-width="2" stroke-linecap="round" stroke-linejoin="round"/>
<path d="M65.5701 69.25L76.8801 66.36" stroke="#1D1D1B" stroke-width="2" stroke-linecap="round" stroke-linejoin="round"/>
<path d="M67.4199 74.24L78.7199 71.36" stroke="#1D1D1B" stroke-width="2" stroke-linecap="round" stroke-linejoin="round"/>
<path d="M68.4199 78.74L79.7199 75.85" stroke="#1D1D1B" stroke-width="2" stroke-linecap="round" stroke-linejoin="round"/>
<path d="M69.1599 83.52L80.4599 80.63" stroke="#1D1D1B" stroke-width="2" stroke-linecap="round" stroke-linejoin="round"/>
<path d="M70.8899 87.76L82.1899 84.87" stroke="#1D1D1B" stroke-width="2" stroke-linecap="round" stroke-linejoin="round"/>
<path d="M72.5601 91.97L83.8701 89.09" stroke="#1D1D1B" stroke-width="2" stroke-linecap="round" stroke-linejoin="round"/>
<path d="M101.85 60.68L111.56 55.97L107.6 39.59L97.4099 44.5L101.85 60.68Z" fill="white" stroke="#1D1D1B" stroke-width="2" stroke-linecap="round" stroke-linejoin="round"/>
<path d="M98.8499 108.33L108.56 103.61L104.6 87.24L94.4099 92.15L98.8499 108.33Z" fill="white" stroke="#1D1D1B" stroke-width="2" stroke-linecap="round" stroke-linejoin="round"/>
<path d="M60.78 142.7L72.14 140.04" stroke="#1D1D1B" stroke-width="2" stroke-linecap="round" stroke-linejoin="round"/>
<path d="M60.78 147.68L72.49 144.94" stroke="#1D1D1B" stroke-width="2" stroke-linecap="round" stroke-linejoin="round"/>
<path d="M60.22 152.78L73.06 149.78" stroke="#1D1D1B" stroke-width="2" stroke-linecap="round" stroke-linejoin="round"/>
<path d="M60.78 157.76L73.64 154.75" stroke="#1D1D1B" stroke-width="2" stroke-linecap="round" stroke-linejoin="round"/>
<path d="M78.2 160.03L89.56 157.38" stroke="#1D1D1B" stroke-width="2" stroke-linecap="round" stroke-linejoin="round"/>
<path d="M78.55 164.93L89.91 162.27" stroke="#1D1D1B" stroke-width="2" stroke-linecap="round" stroke-linejoin="round"/>
<path d="M79.1201 169.77L90.4801 167.12" stroke="#1D1D1B" stroke-width="2" stroke-linecap="round" stroke-linejoin="round"/>
<path d="M79.7 174.74L91.05 172.08" stroke="#1D1D1B" stroke-width="2" stroke-linecap="round" stroke-linejoin="round"/>
<path d="M60.78 163.81L74.08 160.7" stroke="#1D1D1B" stroke-width="2" stroke-linecap="round" stroke-linejoin="round"/>
<path d="M61.1399 168.97L74.4299 165.59" stroke="#1D1D1B" stroke-width="2" stroke-linecap="round" stroke-linejoin="round"/>
<path d="M61.71 173.55L75.01 170.44" stroke="#1D1D1B" stroke-width="2" stroke-linecap="round" stroke-linejoin="round"/>
<path d="M61.71 178.65L75.58 175.41" stroke="#1D1D1B" stroke-width="2" stroke-linecap="round" stroke-linejoin="round"/>
<path d="M78.5399 154.39L89.0399 151.87L88.6899 135.03L77.6799 137.63L78.5399 154.39Z" fill="white" stroke="#1D1D1B" stroke-width="2" stroke-linecap="round" stroke-linejoin="round"/>
<path d="M63.08 200.77L93.14 194.17L92.79 177.33L62.28 184L63.08 200.77Z" fill="white" stroke="#1D1D1B" stroke-width="2" stroke-linecap="round" stroke-linejoin="round"/>
<path d="M109.61 6.23999L107.85 79.59L83.79 159.17L130.09 169.7L165.7 187.03L183.5 119.57L186.5 39.4L157 18.18L109.61 6.23999Z" fill="white" stroke="#1D1D1B" stroke-width="2" stroke-linecap="round" stroke-linejoin="round"/>
<path d="M114.88 81.76L154.72 93.66L177.44 108.46" fill="white"/>
<path d="M114.88 81.76L154.72 93.66L177.44 108.46" stroke="#1D1D1B" stroke-width="2" stroke-linecap="round" stroke-linejoin="round"/>
<path d="M132.43 164.38L151.74 99.4" stroke="#1D1D1B" stroke-width="2" stroke-linecap="round" stroke-linejoin="round"/>
<path d="M155.01 87.73L157.42 29.25" stroke="#1D1D1B" stroke-width="2" stroke-linecap="round" stroke-linejoin="round"/>
<path d="M93.2 152.42L101.99 122.44L123.08 128.49L115.17 157.59L93.2 152.42Z" fill="white" stroke="#1D1D1B" stroke-width="2" stroke-linecap="round" stroke-linejoin="round"/>
<path d="M104.18 116.02L124.4 122.09" stroke="#1D1D1B" stroke-width="2" stroke-linecap="round" stroke-linejoin="round"/>
<path d="M105.28 111.43L125.5 117.5" stroke="#1D1D1B" stroke-width="2" stroke-linecap="round" stroke-linejoin="round"/>
<path d="M107.28 107.13L127.5 113.2" stroke="#1D1D1B" stroke-width="2" stroke-linecap="round" stroke-linejoin="round"/>
<path d="M108.28 102.4L128.5 108.48" stroke="#1D1D1B" stroke-width="2" stroke-linecap="round" stroke-linejoin="round"/>
<path d="M161.11 87.73L178.35 98.07" stroke="#1D1D1B" stroke-width="2" stroke-linecap="round" stroke-linejoin="round"/>
<path d="M161.11 81.56L178.35 91.9" stroke="#1D1D1B" stroke-width="2" stroke-linecap="round" stroke-linejoin="round"/>
<path d="M161.11 75.58L178.35 85.93" stroke="#1D1D1B" stroke-width="2" stroke-linecap="round" stroke-linejoin="round"/>
<path d="M161.11 69.22L178.35 79.56" stroke="#1D1D1B" stroke-width="2" stroke-linecap="round" stroke-linejoin="round"/>
<path d="M161.11 61.23L162.27 35.38L180.58 47.32L179.52 72.89L161.11 61.23Z" fill="white" stroke="#1D1D1B" stroke-width="2" stroke-linecap="round" stroke-linejoin="round"/>
<path d="M137.68 164.38L148.2 169.42" stroke="#1D1D1B" stroke-width="2" stroke-linecap="round" stroke-linejoin="round"/>
<path d="M139.08 159.68L149.6 164.72" stroke="#1D1D1B" stroke-width="2" stroke-linecap="round" stroke-linejoin="round"/>
<path d="M140.68 155.07L151.2 160.11" stroke="#1D1D1B" stroke-width="2" stroke-linecap="round" stroke-linejoin="round"/>
<path d="M142.31 150.34L152.83 155.38" stroke="#1D1D1B" stroke-width="2" stroke-linecap="round" stroke-linejoin="round"/>
<path d="M158.42 151.2L168.94 156.24" stroke="#1D1D1B" stroke-width="2" stroke-linecap="round" stroke-linejoin="round"/>
<path d="M159.82 146.5L170.34 151.54" stroke="#1D1D1B" stroke-width="2" stroke-linecap="round" stroke-linejoin="round"/>
<path d="M161.42 141.89L171.94 146.93" stroke="#1D1D1B" stroke-width="2" stroke-linecap="round" stroke-linejoin="round"/>
<path d="M163.05 137.16L173.57 142.2" stroke="#1D1D1B" stroke-width="2" stroke-linecap="round" stroke-linejoin="round"/>
<path d="M144.03 144.63L154.55 149.67" stroke="#1D1D1B" stroke-width="2" stroke-linecap="round" stroke-linejoin="round"/>
<path d="M145.43 139.93L155.94 144.97" stroke="#1D1D1B" stroke-width="2" stroke-linecap="round" stroke-linejoin="round"/>
<path d="M147.03 135.32L157.55 140.36" stroke="#1D1D1B" stroke-width="2" stroke-linecap="round" stroke-linejoin="round"/>
<path d="M148.66 130.59L159.17 135.63" stroke="#1D1D1B" stroke-width="2" stroke-linecap="round" stroke-linejoin="round"/>
<path d="M118.46 157.91L129.76 160.79" stroke="#1D1D1B" stroke-width="2" stroke-linecap="round" stroke-linejoin="round"/>
<path d="M120.25 153.05L131.55 155.93" stroke="#1D1D1B" stroke-width="2" stroke-linecap="round" stroke-linejoin="round"/>
<path d="M121.27 148.23L132.57 151.11" stroke="#1D1D1B" stroke-width="2" stroke-linecap="round" stroke-linejoin="round"/>
<path d="M123.11 143.23L134.41 146.12" stroke="#1D1D1B" stroke-width="2" stroke-linecap="round" stroke-linejoin="round"/>
<path d="M124.11 138.74L135.41 141.62" stroke="#1D1D1B" stroke-width="2" stroke-linecap="round" stroke-linejoin="round"/>
<path d="M124.85 133.95L136.15 136.84" stroke="#1D1D1B" stroke-width="2" stroke-linecap="round" stroke-linejoin="round"/>
<path d="M126.59 129.71L137.89 132.6" stroke="#1D1D1B" stroke-width="2" stroke-linecap="round" stroke-linejoin="round"/>
<path d="M128.26 125.5L139.56 128.39" stroke="#1D1D1B" stroke-width="2" stroke-linecap="round" stroke-linejoin="round"/>
<path d="M157.54 156.79L167.26 161.51L163.29 177.88L153.1 172.97L157.54 156.79Z" fill="white" stroke="#1D1D1B" stroke-width="2" stroke-linecap="round" stroke-linejoin="round"/>
<path d="M154.54 109.15L164.26 113.86L160.29 130.24L150.1 125.33L154.54 109.15Z" fill="white" stroke="#1D1D1B" stroke-width="2" stroke-linecap="round" stroke-linejoin="round"/>
<path d="M116.48 74.78L127.83 77.43" stroke="#1D1D1B" stroke-width="2" stroke-linecap="round" stroke-linejoin="round"/>
<path d="M116.48 69.8L128.18 72.54" stroke="#1D1D1B" stroke-width="2" stroke-linecap="round" stroke-linejoin="round"/>
<path d="M115.92 64.69L128.76 67.69" stroke="#1D1D1B" stroke-width="2" stroke-linecap="round" stroke-linejoin="round"/>
<path d="M116.48 59.72L129.33 62.72" stroke="#1D1D1B" stroke-width="2" stroke-linecap="round" stroke-linejoin="round"/>
<path d="M133.89 57.44L145.25 60.1" stroke="#1D1D1B" stroke-width="2" stroke-linecap="round" stroke-linejoin="round"/>
<path d="M134.24 52.54L145.6 55.2" stroke="#1D1D1B" stroke-width="2" stroke-linecap="round" stroke-linejoin="round"/>
<path d="M134.82 47.7L146.17 50.36" stroke="#1D1D1B" stroke-width="2" stroke-linecap="round" stroke-linejoin="round"/>
<path d="M135.39 42.73L146.74 45.39" stroke="#1D1D1B" stroke-width="2" stroke-linecap="round" stroke-linejoin="round"/>
<path d="M116.48 53.66L129.77 56.78" stroke="#1D1D1B" stroke-width="2" stroke-linecap="round" stroke-linejoin="round"/>
<path d="M116.83 48.5L130.13 51.88" stroke="#1D1D1B" stroke-width="2" stroke-linecap="round" stroke-linejoin="round"/>
<path d="M117.4 43.92L130.7 47.04" stroke="#1D1D1B" stroke-width="2" stroke-linecap="round" stroke-linejoin="round"/>
<path d="M117.4 38.82L131.27 42.07" stroke="#1D1D1B" stroke-width="2" stroke-linecap="round" stroke-linejoin="round"/>
<path d="M134.24 63.08L144.73 65.6L144.39 82.44L133.38 79.84L134.24 63.08Z" fill="white" stroke="#1D1D1B" stroke-width="2" stroke-linecap="round" stroke-linejoin="round"/>
<path d="M118.77 16.7L148.83 23.31L148.48 40.15L117.97 33.48L118.77 16.7Z" fill="white" stroke="#1D1D1B" stroke-width="2" stroke-linecap="round" stroke-linejoin="round"/>
<path d="M111.32 59.92L165.89 36.08L163.66 144.18L109.08 168.01L111.32 59.92Z" fill="white" stroke="#1D1D1B" stroke-width="2" stroke-linecap="round" stroke-linejoin="round"/>
<path d="M112.64 61.4L168.21 37.13L165.98 144.95L110.42 169.22L112.64 61.4Z" fill="white" stroke="#1D1D1B" stroke-linecap="round" stroke-linejoin="round"/>
<path d="M114.26 62.8L169.82 38.53L167.6 146.34L112.03 170.61L114.26 62.8Z" fill="white" stroke="#1D1D1B" stroke-linecap="round" stroke-linejoin="round"/>
<path d="M116.83 63.99L172.39 39.73L170.17 147.28L114.6 171.55L116.83 63.99Z" fill="white" stroke="#1D1D1B" stroke-linecap="round" stroke-linejoin="round"/>
<path d="M119.41 65.17L174.98 40.9L172.76 148.69L117.19 172.96L119.41 65.17Z" fill="white" stroke="#1D1D1B" stroke-linecap="round" stroke-linejoin="round"/>
<path d="M122.38 66.03L176.96 42.2L174.73 150.29L120.15 174.13L122.38 66.03Z" fill="white" stroke="#1D1D1B" stroke-width="2" stroke-linecap="round" stroke-linejoin="round"/>
<path d="M122.38 66.03L120.15 174.13C120.15 174.13 112.15 174.83 109.06 168.94L111.31 59.94C111.31 59.94 113.19 65.91 122.38 66.03Z" fill="white" stroke="#1D1D1B" stroke-width="2" stroke-linecap="round" stroke-linejoin="round"/>
<path d="M125.31 62.53L177.86 34.51L184.06 142.45L131.51 170.47L125.31 62.53Z" fill="white" stroke="#1D1D1B" stroke-width="2" stroke-linecap="round" stroke-linejoin="round"/>
<path d="M126.75 63.9L180.25 35.37L186.44 143.04L132.93 171.56L126.75 63.9Z" fill="white" stroke="#1D1D1B" stroke-linecap="round" stroke-linejoin="round"/>
<path d="M128.46 65.17L181.97 36.64L188.15 144.3L134.64 172.83L128.46 65.17Z" fill="white" stroke="#1D1D1B" stroke-linecap="round" stroke-linejoin="round"/>
<path d="M131.12 66.16L184.62 37.63L190.79 145.03L137.29 173.56L131.12 66.16Z" fill="white" stroke="#1D1D1B" stroke-linecap="round" stroke-linejoin="round"/>
<path d="M133.79 67.13L187.3 38.6L193.48 146.24L139.97 174.77L133.79 67.13Z" fill="white" stroke="#1D1D1B" stroke-linecap="round" stroke-linejoin="round"/>
<path d="M136.82 67.76L189.37 39.74L195.57 147.68L143.02 175.7L136.82 67.76Z" fill="white" stroke="#1D1D1B" stroke-width="2" stroke-linecap="round" stroke-linejoin="round"/>
<path d="M136.82 67.76L143.02 175.7C143.02 175.7 135.12 177.02 131.55 171.39L125.3 62.51C125.3 62.51 127.64 68.36 136.82 67.76Z" fill="white" stroke="#1D1D1B" stroke-width="2" stroke-linecap="round" stroke-linejoin="round"/>
<path d="M176.58 67.51L234.62 54.15L212.48 159.98L154.44 173.34L176.58 67.51Z" fill="white" stroke="#1D1D1B" stroke-width="2" stroke-linecap="round" stroke-linejoin="round"/>
<path d="M177.61 69.21L236.7 55.61L214.62 161.16L155.53 174.77L177.61 69.21Z" fill="white" stroke="#1D1D1B" stroke-linecap="round" stroke-linejoin="round"/>
<path d="M178.94 70.88L238.03 57.28L215.95 162.83L156.86 176.43L178.94 70.88Z" fill="white" stroke="#1D1D1B" stroke-linecap="round" stroke-linejoin="round"/>
<path d="M181.24 72.53L240.33 58.93L218.31 164.22L159.22 177.83L181.24 72.53Z" fill="white" stroke="#F2F4FB" stroke-linecap="round" stroke-linejoin="round"/>
<path d="M183.57 74.16L242.66 60.56L220.59 166.09L161.5 179.7L183.57 74.16Z" fill="white" stroke="#1D1D1B" stroke-linecap="round" stroke-linejoin="round"/>
<path d="M186.33 75.56L244.36 62.2L222.23 168.03L164.19 181.39L186.33 75.56Z" fill="white" stroke="#1D1D1B" stroke-width="2" stroke-linecap="round" stroke-linejoin="round"/>
<path d="M186.33 75.56L164.19 181.39C164.19 181.39 156.19 180.6 154.25 174.24L176.57 67.49C176.57 67.49 177.32 73.75 186.33 75.56Z" fill="white" stroke="#1D1D1B" stroke-width="2" stroke-linecap="round" stroke-linejoin="round"/>
<path d="M139.82 261.68V133.71L35.1599 87.24V215.42L139.82 261.68Z" fill="white" stroke="black" stroke-width="3" stroke-linecap="round" stroke-linejoin="round"/>
<path d="M139.82 261.68V133.71L244.48 87.24V215.42L139.82 261.68Z" fill="white" stroke="black" stroke-width="3" stroke-linecap="round" stroke-linejoin="round"/>
<path d="M277.64 126.06L176.73 172.47L139.82 133.71L244.48 87.24L277.64 126.06Z" fill="white" stroke="black" stroke-width="3" stroke-linecap="round" stroke-linejoin="round"/>
<path d="M2 126.06L102.91 172.47L139.82 133.71L35.16 87.24L2 126.06Z" fill="white" stroke="black" stroke-width="3" stroke-linecap="round" stroke-linejoin="round"/>
</svg>
