<svg width="280" height="264" viewBox="0 0 280 264" fill="none" xmlns="http://www.w3.org/2000/svg">
<path d="M35.1602 87.28L139.82 40.76L244.48 87.28L139.82 133.71L35.1602 87.28Z" fill="white" stroke="black" stroke-width="3" stroke-linecap="round" stroke-linejoin="round"/>
<path d="M277.64 48.42L176.73 2L139.82 40.76L244.48 87.24L277.64 48.42Z" fill="white" stroke="black" stroke-width="3" stroke-linecap="round" stroke-linejoin="round"/>
<path d="M2 48.42L102.91 2L139.82 40.76L35.16 87.24L2 48.42Z" fill="white" stroke="black" stroke-width="3" stroke-linecap="round" stroke-linejoin="round"/>
<path d="M90.7093 59.1018L61.7114 180.353L213.764 216.717L242.761 95.466L90.7093 59.1018Z" fill="white" stroke="#1D1D1B" stroke-miterlimit="10"/>
<path d="M96.4399 58.1401C93.091 72.1456 93.9703 86.8296 98.9667 100.335C103.963 113.841 112.852 125.562 124.51 134.016C136.167 142.47 150.07 147.277 164.46 147.829C178.85 148.382 193.08 144.655 205.352 137.12C217.623 129.585 227.385 118.58 233.402 105.498C239.42 92.4147 241.422 77.8413 239.157 63.6203C236.892 49.3992 230.461 36.1692 220.677 25.6032C210.893 15.0372 198.195 7.60977 184.19 4.26011C174.89 2.03593 165.244 1.66527 155.801 3.16931C146.358 4.67334 137.304 8.0226 129.156 13.0259C121.007 18.0291 113.924 24.5884 108.311 32.3291C102.697 40.0698 98.6637 48.8404 96.4399 58.1401ZM173.13 76.4801C172.847 77.629 172.231 78.6685 171.358 79.468C170.486 80.2675 169.397 80.7912 168.228 80.9734C167.059 81.1555 165.862 80.988 164.788 80.4917C163.714 79.9955 162.81 79.1927 162.191 78.1844C161.572 77.1761 161.265 76.0072 161.308 74.8248C161.352 73.6424 161.744 72.4992 162.435 71.539C163.126 70.5788 164.086 69.8444 165.194 69.4283C166.301 69.0121 167.507 68.9327 168.66 69.2001C169.434 69.3797 170.165 69.7114 170.81 70.1758C171.455 70.6402 172.001 71.2281 172.417 71.9054C172.833 72.5827 173.11 73.3359 173.233 74.1213C173.355 74.9066 173.32 75.7084 173.13 76.4801V76.4801Z" fill="black"/>
<path d="M153.38 71.7602C152.723 74.5054 152.895 77.3838 153.875 80.0312C154.854 82.6786 156.596 84.9761 158.881 86.6331C161.167 88.2901 163.892 89.2322 166.713 89.3402C169.533 89.4481 172.323 88.7171 174.728 87.2396C177.133 85.7621 179.046 83.6044 180.225 81.0396C181.403 78.4748 181.795 75.618 181.35 72.8306C180.905 70.0432 179.643 67.4504 177.724 65.3801C175.805 63.3099 173.316 61.8553 170.57 61.2002C166.89 60.3222 163.012 60.9414 159.789 62.9216C156.565 64.9018 154.26 68.0809 153.38 71.7602V71.7602ZM173.13 76.4802C172.847 77.6291 172.231 78.6686 171.358 79.4681C170.486 80.2676 169.397 80.7913 168.228 80.9735C167.059 81.1556 165.862 80.988 164.788 80.4918C163.714 79.9955 162.81 79.1928 162.191 78.1845C161.572 77.1762 161.265 76.0073 161.308 74.8249C161.352 73.6425 161.744 72.4993 162.435 71.5391C163.126 70.5789 164.086 69.8445 165.194 69.4284C166.301 69.0122 167.507 68.9328 168.66 69.2002C169.434 69.3798 170.165 69.7114 170.81 70.1758C171.455 70.6403 172.001 71.2282 172.417 71.9055C172.833 72.5828 173.11 73.336 173.233 74.1213C173.355 74.9067 173.32 75.7085 173.13 76.4802V76.4802Z" fill="white" stroke="#1D1E1B" stroke-miterlimit="10"/>
<path d="M167.26 144.86C205.804 144.86 237.05 113.614 237.05 75.07C237.05 36.5261 205.804 5.28003 167.26 5.28003C128.716 5.28003 97.47 36.5261 97.47 75.07C97.47 113.614 128.716 144.86 167.26 144.86Z" stroke="white" stroke-miterlimit="10"/>
<path d="M180.91 17.98C196.05 21.6028 209.131 31.09 217.277 44.3556C225.423 57.6212 227.967 73.579 224.35 88.72" stroke="white" stroke-linecap="round" stroke-linejoin="round"/>
<path d="M183.33 22.47C195.959 26.3271 206.779 34.5993 213.813 45.7753C220.847 56.9512 223.625 70.2848 221.64 83.34" stroke="white" stroke-linecap="round" stroke-linejoin="round"/>
<path d="M167.26 112.25C187.794 112.25 204.44 95.6041 204.44 75.0701C204.44 54.5362 187.794 37.8901 167.26 37.8901C146.726 37.8901 130.08 54.5362 130.08 75.0701C130.08 95.6041 146.726 112.25 167.26 112.25Z" stroke="white" stroke-linecap="round" stroke-linejoin="round"/>
<path d="M90.1177 61.5914L59.5103 189.572L211.562 225.936L242.17 97.9555L90.1177 61.5914Z" fill="white" stroke="#1D1D1B" stroke-miterlimit="10"/>
<path d="M46.1988 78.3518L35.7427 81.7029L64.5349 171.542L74.9911 168.191L46.1988 78.3518Z" fill="white" stroke="black" stroke-linecap="round" stroke-linejoin="round"/>
<path d="M133.046 50.5165L46.2068 78.3474L74.999 168.186L161.838 140.356L133.046 50.5165Z" fill="white" stroke="black" stroke-linecap="round" stroke-linejoin="round"/>
<path d="M90.9302 68.56C82.8603 71.1475 75.739 76.0697 70.4665 82.7043C65.194 89.3389 62.0072 97.388 61.309 105.834C60.6109 114.279 62.4327 122.742 66.5442 130.153C70.6556 137.563 76.8721 143.588 84.4075 147.465C91.9429 151.343 100.459 152.899 108.879 151.937C117.298 150.975 125.244 147.537 131.71 142.06C138.176 136.582 142.873 129.31 145.207 121.163C147.54 113.016 147.406 104.36 144.82 96.29C143.104 90.9296 140.349 85.9599 136.711 81.6649C133.074 77.3699 128.626 73.8337 123.621 71.2585C118.616 68.6833 113.153 67.1195 107.544 66.6564C101.935 66.1934 96.2894 66.8403 90.9302 68.56V68.56ZM105.51 114.04C104.585 114.338 103.593 114.355 102.659 114.089C101.724 113.823 100.89 113.285 100.261 112.545C99.6323 111.804 99.2373 110.894 99.1261 109.929C99.015 108.964 99.1926 107.987 99.6366 107.123C100.081 106.259 100.771 105.546 101.62 105.074C102.47 104.602 103.44 104.393 104.408 104.473C105.376 104.553 106.299 104.919 107.06 105.523C107.82 106.128 108.384 106.945 108.68 107.87C109.074 109.109 108.961 110.453 108.368 111.609C107.774 112.765 106.746 113.639 105.51 114.04Z" fill="white" stroke="black" stroke-width="3" stroke-linecap="round" stroke-linejoin="round"/>
<path d="M104.01 147.49C125.069 147.49 142.14 130.419 142.14 109.36C142.14 88.3014 125.069 71.23 104.01 71.23C82.9515 71.23 65.8801 88.3014 65.8801 109.36C65.8801 130.419 82.9515 147.49 104.01 147.49Z" stroke="black" stroke-width="2" stroke-miterlimit="10"/>
<path d="M104.01 119.12C109.401 119.12 113.77 114.75 113.77 109.36C113.77 103.97 109.401 99.6 104.01 99.6C98.62 99.6 94.2502 103.97 94.2502 109.36C94.2502 114.75 98.62 119.12 104.01 119.12Z" stroke="black" stroke-miterlimit="10"/>
<path d="M94.7401 101.24L78.0701 85.18" stroke="black" stroke-linecap="round" stroke-linejoin="round"/>
<path d="M95.8702 100.33L80.9702 82.61" stroke="black" stroke-linecap="round" stroke-linejoin="round"/>
<path d="M137.57 98.61C140.421 107.511 139.62 117.179 135.342 125.489C131.064 133.799 123.661 140.069 114.76 142.92" stroke="black" stroke-linecap="round" stroke-linejoin="round"/>
<path d="M134.69 47.53L47.85 75.36L46.2 78.36L133.03 50.53L134.69 47.53Z" fill="white" stroke="black" stroke-linecap="round" stroke-linejoin="round"/>
<path d="M47.85 75.3601L37.39 78.7101L35.74 81.7101L46.2 78.3601L47.85 75.3601Z" fill="white" stroke="black" stroke-linecap="round" stroke-linejoin="round"/>
<path d="M134.69 47.53L133.03 50.53L161.82 140.37L163.47 137.37L134.69 47.53Z" fill="white" stroke="black" stroke-linecap="round" stroke-linejoin="round"/>
<path d="M156.849 88.2787L114.349 118.34L156.932 178.544L199.433 148.483L156.849 88.2787Z" fill="white"/>
<path d="M198.18 147.84L155.69 87.9402C155.125 87.1498 154.271 86.6154 153.313 86.4542C152.355 86.293 151.372 86.5181 150.58 87.0802L114.3 112.84C113.509 113.401 112.973 114.254 112.809 115.21C112.646 116.166 112.87 117.148 113.43 117.94L155.91 177.84C156.475 178.63 157.329 179.165 158.286 179.328C159.243 179.49 160.226 179.269 161.02 178.71L197.31 152.96C197.704 152.681 198.038 152.328 198.295 151.919C198.552 151.511 198.726 151.056 198.806 150.58C198.887 150.105 198.873 149.618 198.766 149.148C198.658 148.678 198.459 148.233 198.18 147.84V147.84ZM124.66 130.62C124.439 130.307 124.315 129.935 124.305 129.552C124.295 129.169 124.398 128.791 124.602 128.467C124.807 128.142 125.102 127.886 125.452 127.729C125.802 127.573 126.191 127.523 126.569 127.588C126.947 127.652 127.297 127.827 127.576 128.09C127.855 128.353 128.049 128.693 128.135 129.066C128.221 129.44 128.194 129.831 128.058 130.189C127.922 130.548 127.682 130.858 127.37 131.08C127.161 131.227 126.925 131.332 126.675 131.387C126.425 131.443 126.167 131.449 125.915 131.404C125.663 131.359 125.423 131.265 125.207 131.127C124.992 130.989 124.806 130.81 124.66 130.6V130.62ZM132.43 137.26C132.308 137.348 132.169 137.412 132.022 137.446C131.875 137.48 131.722 137.485 131.574 137.46C131.425 137.434 131.282 137.38 131.155 137.299C131.027 137.219 130.917 137.114 130.83 136.99L130 135.83C129.825 135.579 129.756 135.269 129.808 134.967C129.861 134.666 130.03 134.397 130.28 134.22L131.2 133.57C131.448 133.394 131.756 133.324 132.056 133.375C132.356 133.425 132.623 133.593 132.8 133.84L133.63 135.01C133.805 135.26 133.873 135.568 133.821 135.868C133.768 136.168 133.599 136.435 133.35 136.61L132.43 137.26ZM146.07 156.59C145.948 156.678 145.809 156.742 145.662 156.776C145.515 156.81 145.362 156.815 145.214 156.79C145.065 156.764 144.922 156.71 144.795 156.629C144.667 156.549 144.557 156.444 144.47 156.32L143.64 155.16C143.551 155.037 143.488 154.897 143.454 154.75C143.419 154.602 143.415 154.449 143.44 154.299C143.465 154.149 143.519 154.006 143.6 153.878C143.681 153.749 143.786 153.638 143.91 153.55L144.82 152.84C144.943 152.752 145.083 152.688 145.231 152.654C145.378 152.62 145.532 152.615 145.681 152.64C145.831 152.665 145.974 152.72 146.103 152.8C146.231 152.881 146.342 152.986 146.43 153.11L147.25 154.28C147.338 154.403 147.401 154.541 147.436 154.688C147.47 154.835 147.475 154.988 147.449 155.137C147.424 155.285 147.37 155.428 147.289 155.555C147.209 155.683 147.104 155.793 146.98 155.88L146.07 156.59ZM147.62 163.08C147.397 162.767 147.273 162.395 147.262 162.012C147.251 161.628 147.354 161.249 147.558 160.924C147.762 160.599 148.058 160.342 148.408 160.185C148.759 160.028 149.148 159.979 149.527 160.043C149.905 160.108 150.256 160.283 150.535 160.547C150.814 160.811 151.008 161.152 151.093 161.526C151.178 161.901 151.15 162.292 151.012 162.651C150.875 163.009 150.634 163.319 150.32 163.54C150.112 163.687 149.876 163.791 149.627 163.847C149.378 163.902 149.121 163.908 148.87 163.863C148.619 163.818 148.379 163.725 148.165 163.587C147.95 163.449 147.765 163.27 147.62 163.06V163.08ZM150.99 170.26C150.957 170.226 150.927 170.189 150.9 170.15C150.816 170.041 150.77 169.908 150.77 169.77C150.77 169.633 150.816 169.499 150.9 169.39L157.9 161.39C157.999 161.281 158.058 161.141 158.067 160.994C158.076 160.847 158.035 160.701 157.95 160.58L129.95 121.1C129.864 120.97 129.732 120.876 129.581 120.837C129.429 120.798 129.268 120.817 129.13 120.89L119.73 125.45C119.658 125.486 119.579 125.507 119.499 125.512C119.419 125.518 119.338 125.507 119.262 125.481C119.185 125.455 119.115 125.414 119.055 125.361C118.994 125.307 118.945 125.243 118.91 125.17C118.84 125.024 118.831 124.856 118.883 124.703C118.935 124.55 119.046 124.423 119.19 124.35L128.59 119.78C128.992 119.585 129.45 119.539 129.882 119.651C130.315 119.763 130.693 120.025 130.95 120.39L158.95 159.87C159.194 160.216 159.314 160.633 159.292 161.056C159.271 161.478 159.108 161.881 158.83 162.2L151.78 170.2C151.674 170.298 151.536 170.355 151.392 170.363C151.248 170.37 151.106 170.327 150.99 170.24V170.26ZM169.13 166.02C168.818 166.238 168.433 166.323 168.058 166.258C167.683 166.192 167.35 165.981 167.13 165.67L128.6 111.38C128.381 111.069 128.294 110.685 128.358 110.31C128.422 109.935 128.631 109.601 128.94 109.38L151.05 93.6802C151.363 93.4651 151.748 93.3812 152.122 93.4467C152.495 93.5121 152.829 93.7216 153.05 94.0302L191.58 148.32C191.799 148.631 191.886 149.016 191.822 149.39C191.758 149.765 191.549 150.099 191.24 150.32L169.13 166.02Z" fill="black"/>
<path d="M177.92 144.21L152.41 108.21C152.187 107.895 151.904 107.627 151.577 107.421C151.25 107.215 150.886 107.075 150.505 107.01C150.124 106.945 149.735 106.956 149.358 107.042C148.981 107.128 148.625 107.287 148.31 107.51L139.01 114.11C138.386 114.57 137.965 115.255 137.834 116.019C137.704 116.783 137.874 117.569 138.31 118.21L163.83 154.21C164.052 154.526 164.335 154.796 164.662 155.002C164.989 155.209 165.353 155.349 165.734 155.414C166.116 155.479 166.506 155.468 166.883 155.381C167.259 155.295 167.616 155.135 167.93 154.91L177.23 148.31C177.865 147.858 178.295 147.172 178.424 146.403C178.554 145.634 178.372 144.845 177.92 144.21V144.21ZM151.92 115.35C152.395 116.024 152.659 116.823 152.68 117.647C152.701 118.471 152.477 119.283 152.037 119.98C151.596 120.676 150.959 121.227 150.206 121.562C149.453 121.897 148.618 122.001 147.805 121.862C146.993 121.722 146.24 121.345 145.642 120.778C145.044 120.211 144.627 119.479 144.445 118.675C144.263 117.871 144.322 117.032 144.617 116.262C144.912 115.492 145.428 114.827 146.1 114.35C146.55 114.028 147.058 113.798 147.597 113.674C148.136 113.55 148.694 113.534 149.239 113.627C149.784 113.72 150.305 113.92 150.772 114.216C151.239 114.512 151.643 114.897 151.96 115.35H151.92ZM165.67 136.07L160.56 139.69C160.437 139.776 160.284 139.809 160.136 139.783C159.988 139.756 159.857 139.673 159.77 139.55L150.77 126.89C150.726 126.83 150.694 126.762 150.677 126.689C150.66 126.617 150.657 126.541 150.669 126.468C150.681 126.394 150.708 126.324 150.747 126.261C150.787 126.197 150.839 126.143 150.9 126.1L156 122.47C156.125 122.384 156.279 122.35 156.429 122.377C156.578 122.403 156.712 122.487 156.8 122.61L165.8 135.27C165.894 135.388 165.937 135.539 165.921 135.689C165.904 135.839 165.828 135.976 165.71 136.07H165.67ZM164.23 147.12C163.755 146.446 163.491 145.647 163.47 144.823C163.449 143.999 163.673 143.187 164.114 142.49C164.554 141.794 165.191 141.243 165.944 140.908C166.697 140.573 167.533 140.469 168.345 140.608C169.157 140.748 169.91 141.125 170.508 141.692C171.106 142.259 171.523 142.991 171.705 143.795C171.888 144.599 171.828 145.438 171.533 146.208C171.239 146.978 170.723 147.643 170.05 148.12C169.149 148.748 168.037 148.995 166.955 148.808C165.872 148.621 164.908 148.014 164.27 147.12H164.23Z" fill="black"/>
<path d="M151.94 98.5L186.98 147.87" stroke="black" stroke-width="1.4" stroke-miterlimit="10" stroke-linecap="round"/>
<path d="M156.913 69.302L133.327 115.454L198.704 148.866L222.29 102.714L156.913 69.302Z" fill="white"/>
<path d="M222.28 102.7L156.9 69.3002C156.034 68.86 155.029 68.7812 154.104 69.0811C153.18 69.381 152.413 70.0352 151.97 70.9002L131.73 110.51C131.289 111.377 131.208 112.383 131.506 113.308C131.804 114.234 132.456 115.004 133.32 115.45L198.7 148.84C199.566 149.28 200.572 149.359 201.496 149.059C202.42 148.759 203.188 148.105 203.63 147.24L223.87 107.63C224.308 106.765 224.387 105.761 224.089 104.838C223.792 103.915 223.141 103.146 222.28 102.7ZM149.15 121.47C148.807 121.297 148.524 121.025 148.335 120.69C148.147 120.355 148.063 119.971 148.093 119.588C148.123 119.205 148.266 118.839 148.504 118.537C148.742 118.236 149.064 118.012 149.43 117.893C149.796 117.775 150.189 117.768 150.558 117.874C150.928 117.979 151.258 118.192 151.507 118.485C151.755 118.778 151.911 119.139 151.954 119.521C151.998 119.903 151.927 120.289 151.75 120.63C151.515 121.085 151.11 121.428 150.623 121.586C150.136 121.743 149.607 121.701 149.15 121.47V121.47ZM159.15 123.76C159.081 123.895 158.987 124.015 158.871 124.113C158.756 124.211 158.623 124.285 158.479 124.332C158.335 124.378 158.183 124.396 158.032 124.384C157.882 124.371 157.735 124.329 157.6 124.26L156.33 123.61C156.196 123.542 156.076 123.449 155.978 123.334C155.88 123.22 155.806 123.088 155.759 122.944C155.713 122.801 155.695 122.65 155.707 122.5C155.719 122.35 155.761 122.204 155.83 122.07L156.34 121.07C156.481 120.8 156.723 120.596 157.013 120.502C157.303 120.409 157.618 120.433 157.89 120.57L159.16 121.22C159.295 121.289 159.415 121.384 159.513 121.499C159.611 121.614 159.685 121.747 159.732 121.891C159.778 122.035 159.796 122.187 159.784 122.338C159.771 122.489 159.729 122.636 159.66 122.77L159.15 123.76ZM180.15 134.59C180.009 134.858 179.769 135.06 179.482 135.153C179.194 135.247 178.881 135.224 178.61 135.09L177.33 134.44C177.062 134.297 176.859 134.056 176.766 133.766C176.673 133.477 176.696 133.163 176.83 132.89L177.35 131.89C177.489 131.621 177.729 131.417 178.017 131.323C178.306 131.23 178.619 131.254 178.89 131.39L180.17 132.04C180.44 132.181 180.644 132.423 180.738 132.713C180.831 133.003 180.807 133.318 180.67 133.59L180.15 134.59ZM184.53 139.59C184.188 139.416 183.906 139.145 183.718 138.81C183.531 138.475 183.447 138.093 183.476 137.71C183.506 137.328 183.649 136.963 183.886 136.661C184.124 136.36 184.445 136.136 184.81 136.017C185.175 135.898 185.566 135.89 185.936 135.994C186.305 136.098 186.635 136.309 186.885 136.6C187.134 136.892 187.291 137.251 187.337 137.631C187.382 138.012 187.314 138.398 187.14 138.74C187.027 138.971 186.87 139.178 186.676 139.347C186.483 139.517 186.258 139.647 186.014 139.729C185.77 139.81 185.513 139.843 185.256 139.824C185 139.806 184.75 139.736 184.52 139.62L184.53 139.59ZM190.84 144.39L190.71 144.34C190.587 144.278 190.488 144.177 190.429 144.051C190.371 143.926 190.357 143.784 190.39 143.65L192.92 133.27C192.956 133.127 192.942 132.975 192.88 132.84C192.819 132.706 192.713 132.596 192.58 132.53L149.47 110.53C149.334 110.457 149.175 110.436 149.024 110.471C148.874 110.506 148.741 110.595 148.65 110.72L142.43 119.12C142.384 119.191 142.324 119.252 142.254 119.298C142.184 119.345 142.105 119.377 142.022 119.393C141.94 119.408 141.854 119.406 141.772 119.387C141.69 119.369 141.612 119.333 141.544 119.284C141.476 119.234 141.419 119.171 141.376 119.098C141.333 119.026 141.306 118.945 141.295 118.861C141.284 118.778 141.291 118.693 141.314 118.612C141.337 118.531 141.377 118.455 141.43 118.39L147.65 109.99C147.914 109.631 148.298 109.377 148.732 109.275C149.166 109.172 149.623 109.227 150.02 109.43L193.13 131.43C193.514 131.618 193.823 131.932 194.005 132.319C194.186 132.707 194.231 133.144 194.13 133.56L191.6 143.94C191.585 144.026 191.553 144.107 191.504 144.179C191.456 144.25 191.392 144.311 191.319 144.356C191.245 144.402 191.162 144.431 191.076 144.442C190.99 144.453 190.903 144.446 190.82 144.42L190.84 144.39ZM204.96 132.23C204.785 132.567 204.484 132.821 204.123 132.937C203.761 133.053 203.369 133.022 203.03 132.85L143.75 102.56C143.411 102.387 143.155 102.087 143.037 101.725C142.919 101.363 142.949 100.97 143.12 100.63L155.46 76.4802C155.635 76.1433 155.936 75.8892 156.298 75.773C156.659 75.6569 157.052 75.6882 157.39 75.8602L216.67 106.15C217.009 106.323 217.265 106.624 217.383 106.985C217.501 107.347 217.471 107.741 217.3 108.08L204.96 132.23Z" fill="black"/>
<path d="M202.66 108.84L163.4 88.8402C162.698 88.4876 161.887 88.4242 161.139 88.6635C160.391 88.9028 159.767 89.4258 159.4 90.1202L154.21 100.28C154.027 100.626 153.916 101.005 153.881 101.394C153.847 101.784 153.891 102.177 154.01 102.549C154.129 102.922 154.321 103.267 154.575 103.564C154.83 103.861 155.141 104.105 155.49 104.28L194.82 124.27C195.166 124.453 195.545 124.565 195.934 124.599C196.324 124.633 196.716 124.59 197.089 124.471C197.462 124.351 197.806 124.159 198.104 123.905C198.401 123.651 198.645 123.34 198.82 122.99L203.94 112.84C204.293 112.139 204.356 111.327 204.117 110.579C203.877 109.831 203.354 109.207 202.66 108.84V108.84ZM166.28 95.2802C167.015 95.655 167.622 96.2392 168.024 96.959C168.427 97.6788 168.607 98.5017 168.542 99.3239C168.477 100.146 168.169 100.93 167.658 101.578C167.148 102.225 166.456 102.707 165.672 102.961C164.887 103.216 164.045 103.232 163.251 103.008C162.458 102.783 161.748 102.329 161.213 101.702C160.678 101.074 160.34 100.302 160.244 99.4832C160.147 98.6642 160.295 97.8349 160.67 97.1002C160.921 96.6148 161.266 96.1837 161.684 95.8315C162.102 95.4793 162.585 95.2129 163.106 95.0476C163.627 94.8823 164.176 94.8213 164.72 94.868C165.265 94.9148 165.795 95.0684 166.28 95.3202V95.2802ZM188.06 107.28L185.21 112.85C185.176 112.917 185.129 112.977 185.072 113.026C185.015 113.075 184.948 113.111 184.876 113.134C184.804 113.156 184.729 113.164 184.654 113.156C184.579 113.149 184.506 113.126 184.44 113.09L170.62 106.03C170.553 105.997 170.494 105.951 170.445 105.895C170.396 105.839 170.359 105.773 170.335 105.703C170.312 105.632 170.303 105.557 170.309 105.483C170.315 105.409 170.336 105.336 170.37 105.27L173.22 99.6902C173.255 99.6238 173.302 99.565 173.36 99.517C173.417 99.469 173.484 99.4329 173.555 99.4106C173.627 99.3883 173.702 99.3803 173.777 99.3871C173.851 99.3939 173.924 99.4153 173.99 99.4502L187.82 106.55C187.952 106.622 188.051 106.743 188.096 106.887C188.141 107.03 188.128 107.186 188.06 107.32V107.28ZM191.9 117.74C191.167 117.363 190.562 116.777 190.162 116.057C189.762 115.336 189.584 114.513 189.651 113.691C189.718 112.87 190.028 112.087 190.54 111.441C191.052 110.795 191.744 110.315 192.529 110.063C193.314 109.81 194.155 109.795 194.948 110.021C195.741 110.247 196.449 110.702 196.984 111.33C197.518 111.958 197.854 112.73 197.949 113.549C198.045 114.367 197.895 115.196 197.52 115.93C197.274 116.422 196.933 116.86 196.517 117.22C196.101 117.579 195.617 117.853 195.095 118.025C194.573 118.196 194.021 118.263 193.473 118.221C192.925 118.18 192.39 118.03 191.9 117.78V117.74Z" fill="black"/>
<path d="M158.47 80.3901L212.38 107.94" stroke="black" stroke-width="1.4" stroke-miterlimit="10" stroke-linecap="round"/>
<path d="M139.82 261.68V133.71L35.1602 87.24V215.42L139.82 261.68Z" fill="white" stroke="black" stroke-width="3" stroke-linecap="round" stroke-linejoin="round"/>
<path d="M139.82 261.68V133.71L244.48 87.24V215.42L139.82 261.68Z" fill="white" stroke="black" stroke-width="3" stroke-linecap="round" stroke-linejoin="round"/>
<path d="M277.64 126.06L176.73 172.47L139.82 133.71L244.48 87.24L277.64 126.06Z" fill="white" stroke="black" stroke-width="3" stroke-linecap="round" stroke-linejoin="round"/>
<path d="M2 126.06L102.91 172.47L139.82 133.71L35.16 87.24L2 126.06Z" fill="white" stroke="black" stroke-width="3" stroke-linecap="round" stroke-linejoin="round"/>
</svg>
